<svg xmlns="http://www.w3.org/2000/svg" xmlns:xlink="http://www.w3.org/1999/xlink" width="1221" height="178" viewBox="0 0 1221 178"><defs><clipPath id="b"><rect width="1221" height="178"/></clipPath></defs><g id="a" clip-path="url(#b)"><path d="M198.494,8178.405c-7.442-24.313-27.572-43.827-52.954-43.827-32.824,0-60.541,28.726-60.541,78.683,0,50.175,25.966,78.875,58.936,78.875,28.3,0,46.1-15.779,53.974-43.608l-22.756-16c-4.378,13.381-12.985,24.118-29.177,24.118-22.026,0-32.968-16.87-32.968-43.388,0-26.3,11.671-43.389,32.532-43.389,15.024,0,26.695,10.957,29.9,26.517Z" transform="translate(142.35 -8127.016)"/><path d="M251.11,8136.568H224.558V8188.3h-58.2v-51.729H139.8v147.91h26.549v-60.26h58.2v60.26H251.11Z" transform="translate(220.39 -8124.182)"/><path d="M270.3,8136.568H236.31l-44.639,147.91h28.447l8.169-28.263h48.869l7.878,28.263h31.073Zm-17.212,35.076,14.3,51.7H238.5Z" transform="translate(294.245 -8124.182)"/><path d="M364.915,8136.568H336.906v92.256l-59.956-92.256h-28.3v147.91h28.009v-96.4l60.684,96.4h27.572Z" transform="translate(375.38 -8124.182)"/><path d="M422.651,8154.965c-7.73-8.532-31.218-20.387-57.038-20.387-32.677,0-60.393,28.726-60.393,78.683,0,50.175,25.965,78.875,58.933,78.875,30.782,0,49.017-7.879,57.186-15.126v-71H374.656v32.652h20.86v10.3c-4.814,6.786-19.108,7.686-29.32,7.686-22.029,0-33.7-16.87-33.7-43.388,0-26.3,12.4-43.389,33.114-43.389,15.026,0,28.447,5.042,44.349,19.924Z" transform="translate(455.933 -8127.016)"/><path d="M389.526,8136.568H362.977v147.91h26.549Z" transform="translate(538.176 -8124.182)"/><path d="M500.618,8136.568H472.609v92.256l-59.956-92.256h-28.3v147.91h28.009v-96.4l60.686,96.4h27.57Z" transform="translate(568.614 -8124.182)"/><path d="M558.356,8154.965c-7.732-8.532-31.218-20.387-57.038-20.387-32.677,0-60.4,28.726-60.4,78.683,0,50.175,25.968,78.875,58.936,78.875,30.779,0,49.015-7.879,57.183-15.126v-71H510.362v32.652h20.861v10.3c-4.814,6.786-19.11,7.686-29.322,7.686-22.027,0-33.7-16.87-33.7-43.388,0-26.3,12.4-43.389,33.116-43.389,15.024,0,28.445,5.042,44.346,19.924Z" transform="translate(649.167 -8127.016)"/><text transform="translate(7.454 167.265)" font-size="264" font-family="SwearDisplay-BoldCilati, Swear Display" font-weight="700" letter-spacing="0.01em"><tspan x="0" y="0">&amp;</tspan></text></g></svg>