<svg xmlns="http://www.w3.org/2000/svg" xmlns:xlink="http://www.w3.org/1999/xlink" width="288" height="93" viewBox="0 0 288 93"><defs><clipPath id="b"><rect width="288" height="93"/></clipPath></defs><g id="a" clip-path="url(#b)"><g transform="translate(-5543.352 -3482.342)"><text transform="translate(5550.827 3563.954)" fill="#8e56fa" font-size="53" font-family="SwearDisplay-BoldCilati, Swear Display" font-weight="700" letter-spacing="0.01em"><tspan x="0" y="0">of</tspan></text><g transform="translate(5545.14 3482.342)"><path d="M16.486,2.845H10.034L.14,36.425H5.568l1.985-6.865H18.781l1.954,6.865h5.893ZM13.229,9.959l3.66,12.934H9.476Z" transform="translate(-0.14 -1.75)" fill="#8e56fa"/><path d="M92.106,2.845H86.771V25.182L72.782,2.845h-5.4v33.58H72.72V13.292L86.833,36.425h5.273Z" transform="translate(-37.957 -1.75)" fill="#8e56fa"/><path d="M135.495,2.845v33.58h12.562c9.771,0,13.028-9.3,13.028-16.815,0-13.382-6.173-16.765-13.741-16.765ZM147.344,9.61c5.676,0,8.468,3.532,8.468,9.7,0,5.87-2.761,9.353-8.406,9.353h-6.824V9.61Z" transform="translate(-76.261 -1.75)" fill="#8e56fa"/><path d="M240.916,2.845H218.862v7.512h8.5V36.425h5.056V10.357h8.5Z" transform="translate(-123.144 -1.75)" fill="#8e56fa"/><path d="M299.742,2.845h-5.056V15.033H281.131V2.845h-5.056v33.58h5.056V22.346h13.555V36.425h5.056Z" transform="translate(-155.32 -1.75)" fill="#8e56fa"/><path d="M347.559,2.845h-5.087v33.58h5.087Z" transform="translate(-192.66 -1.75)" fill="#8e56fa"/><path d="M391.193,2.845h-5.335V25.182L371.869,2.845h-5.4v33.58h5.335V13.292L385.92,36.425h5.273Z" transform="translate(-206.157 -1.75)" fill="#8e56fa"/><path d="M458.869,2.845h-8.158L439.638,16.476V2.845h-5.056v33.58h5.056V25.231L445,18.814l8.406,17.611h7.2L449.067,14.287Z" transform="translate(-244.461 -1.75)" fill="#8e56fa"/><path d="M507.381,2.845h-5.087v33.58h5.087Z" transform="translate(-282.54 -1.75)" fill="#8e56fa"/><path d="M551.016,2.845H545.68V25.182L531.691,2.845h-5.4v33.58h5.336V13.292l14.113,23.133h5.273Z" transform="translate(-296.037 -1.75)" fill="#8e56fa"/><path d="M618,4.97C616.383,3.03,611.389.344,605.9.344c-6.948,0-12.842,6.517-12.842,17.859,0,11.392,5.521,17.909,12.531,17.909,6.545,0,10.453-2.04,12.159-3.781V16.81h-9.926v6.815h4.839V26.76c-1.086,1.592-4.064,2.139-6.7,2.139-4.9,0-7.724-4.129-7.724-10.7s2.978-10.7,7.661-10.7c3.443,0,6.514,1.343,9.709,4.527Z" transform="translate(-333.584 -0.344)" fill="#8e56fa"/><path d="M848.051,18.2c0-11.342-6.11-17.859-13.462-17.859S821.128,6.861,821.128,18.2c0,11.392,6.11,17.909,13.462,17.909S848.051,29.6,848.051,18.2Zm-5.3,0c0,6.567-2.916,10.7-8.158,10.7s-8.158-4.129-8.158-10.7,2.916-10.7,8.158-10.7S842.747,11.637,842.747,18.2Z" transform="translate(-750.497 49.739)" fill="#8e56fa"/><path d="M908.862,2.845H886.808v7.512h8.5V36.425h5.056V10.357h8.5Z" transform="translate(-787.434 48.333)" fill="#8e56fa"/><path d="M967.687,2.845h-5.056V15.033H949.076V2.845H944.02v33.58h5.056V22.346h13.555V36.425h5.056Z" transform="translate(-819.609 48.333)" fill="#8e56fa"/><path d="M1031.692,2.845H1009.64v33.58h22.485V28.763h-17.4V22.694h14.888V15.68h-14.888V9.76h16.967Z" transform="translate(-856.513 48.333)" fill="#8e56fa"/><path d="M1085.74,23.54c4.311-.746,6.42-4.527,6.42-10.3,0-6.418-2.573-10.4-7.755-10.4H1068.06v33.58h5.054V23.59h6.205L1085,36.425h7.041Zm-1.365-13.432c1.488,0,2.451.995,2.451,2.885,0,2.089-.963,3.134-2.451,3.134h-11.26v-6.02Z" transform="translate(-889.367 48.333)" fill="#8e56fa"/><path d="M1152.238,10.492C1151.4,3.727,1148.579.344,1141.415.344c-8.529,0-11.6,4.179-11.6,10.7,0,7.164,2.823,9.1,5.737,9.95,4.993,1.443,11.943-.995,11.943,3.681,0,3.234-2.542,4.627-5.925,4.627-3.1,0-6.359-1.244-6.669-4.378h-5.549c.276,4.975,1.549,7.363,4.184,9.452,1.492,1.144,3.567,1.691,7.663,1.691,8.284,0,11.632-4.826,11.632-12.337a11.188,11.188,0,0,0-1.457-6.169,6.249,6.249,0,0,0-4.963-2.885,41.5,41.5,0,0,0-6.079-.3c-3.011,0-5.151-.1-5.151-3.482,0-2.686,2.079-3.98,6.267-3.98,2.915,0,4.932.9,5.737,3.88Z" transform="translate(-923.835 49.739)" fill="#8e56fa"/></g></g></g></svg>