<svg xmlns="http://www.w3.org/2000/svg" xmlns:xlink="http://www.w3.org/1999/xlink" width="988" height="208" viewBox="0 0 988 208"><defs><clipPath id="b"><rect width="988" height="208"/></clipPath></defs><g id="a" clip-path="url(#b)"><path d="M76.378,40.444c0,3.078-8.436,7.467-8.436,12.654a5.819,5.819,0,0,0,5.586,5.529c3.705,0,6.441-3.021,9.177-13.281l-1.026-.4C80.6,47.74,79.741,48.2,78.486,48.2a1.756,1.756,0,0,1-1.824-1.938c0-2.622,3.591-7.923,3.591-11.8,0-3.078-2.052-6.042-5.016-6.042-3.99,0-7.524,4.731-11.4,18.924l-.4-.114c.741-3.363,1.71-7.638,1.71-9.519,0-4.674-1.14-9.291-4.332-9.291-3.363,0-6.954,4.731-10.887,18.924l-.456-.114a54.9,54.9,0,0,0,1.083-8.094c0-7.695-1.71-10.716-3.876-10.716-3.192,0-5.358,4.275-7.923,12.54l1.14.456c.741-2.28,2.28-2.736,4.674-2.736,2.508,0,3.648.741,3.648,1.653,0,2.394-8.721,10.887-11.058,17.67h10.6c3.42-15.561,7.353-19.152,11.856-19.152,2.052,0,3.021.741,3.021,1.6,0,2.793-8.778,8.094-11.058,17.556H61.729C65.092,42.439,68.911,38.848,73.3,38.848,75.409,38.848,76.378,39.589,76.378,40.444ZM96.157,38.05c2.85,0,3.933,1.14,3.933,1.938,0,1.482-4.161,2.508-14.82,4.731C85.726,41.755,90.4,38.05,96.157,38.05ZM91.938,58.627c6.213,0,11.343-5.7,14.649-13.737l-.969-.684c-1.767,2.679-8.835,4.1-13.509,4.1-2.793,0-6.5-.684-6.84-2.736,15.39-2.166,21.033-3.705,21.033-9.12a8.156,8.156,0,0,0-8.208-8.037c-6.612,0-14.763,7.068-14.763,16.587C83.332,54.466,86.866,58.627,91.938,58.627Zm34.827,0c2.964,0,5.073-2.907,7.866-12.768l-1.14-.456c-1.2,2.907-1.653,3.648-2.736,3.648a2.317,2.317,0,0,1-2.223-2.565c0-3.42,2.109-11.628,4.56-18.126C114.4,28.531,107.9,37.366,107.9,45.8c0,8.493,2.394,12.882,4.959,12.882,2.964,0,7.353-5.643,14.193-18.069l.627.228c-1.71,3.876-4.446,9.69-4.446,12.255C123.231,56.062,124.884,58.627,126.766,58.627ZM114.055,48.139c-2.337,0-4.218-.912-4.218-2.337,0-2.223,3.705-5.187,17.214-6.9C121.978,46.6,116.392,48.139,114.055,48.139Zm41.838,10.488c3.648,0,6.384-3.021,9.12-13.281l-.969-.4c-1.083,2.793-1.938,3.249-3.192,3.249a1.77,1.77,0,0,1-1.881-1.938c0-2.622,3.591-8.55,3.591-11.8,0-3.078-2.052-5.985-5.016-5.985-4.047,0-7.638,4.674-11.571,18.867l-.456-.114a54.9,54.9,0,0,0,1.083-8.094c0-7.695-1.71-10.716-3.876-10.716-3.192,0-5.358,4.332-7.923,12.54l1.083.513c.8-2.337,2.337-2.793,4.731-2.793,2.508,0,3.648.741,3.648,1.653,0,2.394-8.721,10.887-11.058,17.67h10.6c3.42-15.561,7.353-19.152,11.856-19.152,2.052,0,3.021.741,3.021,1.6,0,3.078-8.379,7.467-8.379,12.654A5.819,5.819,0,0,0,155.892,58.627Zm24.567-30.21c-8.379,0-12.939,5.529-12.939,10.944,0,5.814,15.048,7.638,15.048,10.887,0,.684-.4,1.311-2.28,1.311-5.814,0-12.768-1.881-12.54-7.581H166.38a90.74,90.74,0,0,1-2.223,12.084,12.485,12.485,0,0,0,8.151,2.565c7.239,0,14.364-8.322,14.364-13.053,0-6.669-17.1-2.508-17.1-6.042,0-1.2,2.052-2.394,8.208-2.394,5.586,0,7.581.57,7.125,3.876h1.368a94.029,94.029,0,0,1,2.565-11.4A27.006,27.006,0,0,0,180.46,28.417Z" transform="translate(516 -22)" fill="#8e56fa"/><path d="M67.628,68.089c5.586,0,10.2-5.7,15.5-17.5,2.337-5.244,6.384-14.25,9.633-21.261a89.034,89.034,0,0,0-11.115-.57c.855,6.612,1.083,17.727-2.052,25.593l-.855-.057c-.4-4.9-.57-10.6-1.083-14.649-1.083-7.467-2.679-11.229-4.788-11.229-2.28,0-4.161,3.306-7.353,12.141l1.083.456c.969-1.71,2.451-2.28,5.016-2.28,2.109,0,3.591.627,3.591,2.052,0,2.451-6.726,7.182-7.41,12.426l10.659,3.363c-.969,1.425-4.788,2.394-7.524,2.394a25.527,25.527,0,0,1-7.353-1.14l-1.824,9.405A19.46,19.46,0,0,0,67.628,68.089ZM99.434,48.424c-4.56,0-6.555-.912-6.555-2.679,0-3.477,5.643-7.125,13.4-7.125,4.5,0,6.669.8,6.669,2.394C112.943,44.548,107.528,48.424,99.434,48.424Zm6.5-20.007C97.667,28.417,91,36.91,91,45.346c0,8.721,3.933,13.224,8.892,13.224,8.322,0,14.934-8.55,14.934-17.1C114.824,32.806,111,28.417,105.932,28.417ZM127.763,47.74c-1.767,0-3.135-.285-3.135-1.881,0-2.109,2.964-8.379,2.964-11.97,0-3.135-2.052-5.472-4.047-5.472-3.192,0-5.358,4.332-7.923,12.6l1.083.456c.8-2.28,2.28-2.793,4.5-2.793,1.995,0,2.907.57,2.907,1.482-.114,2.679-8.322,7.695-8.322,13.167,0,2.565,2.223,5.3,6.954,5.3,3.876,0,8.265-7.3,14.991-19.152l.513.228c-1.824,3.99-4.788,10.431-4.788,13.737,0,2.964,1.938,5.187,3.762,5.187,3.306,0,5.187-3.021,8.037-13.053l-1.083-.456c-.912,2.736-2.052,3.078-2.85,3.078-1.254,0-2.223-.57-2.223-2.508,0-4.1,1.824-10.6,3.876-16.473l-8.835-.513C135.344,40.786,135.23,47.74,127.763,47.74ZM150.05,58.4c4.332,0,7.581-2.28,7.581-6.9,0-3.591-2.052-5.415-5.7-5.415-4.275,0-7.467,2.166-7.467,6.84C144.464,56.461,146.516,58.4,150.05,58.4Z" transform="translate(-54 89)" fill="#8e56fa"/><path d="M104.678,58.627c2.964,0,5.073-2.907,7.866-12.768L111.4,45.4c-1.2,2.907-1.653,3.648-2.736,3.648a2.317,2.317,0,0,1-2.223-2.565c0-3.42,2.109-11.628,4.56-18.126-18.7.171-25.194,9.006-25.194,17.442,0,8.493,2.394,12.882,4.959,12.882,2.964,0,7.353-5.643,14.193-18.069l.627.228c-1.71,3.876-4.446,9.69-4.446,12.255C101.144,56.062,102.8,58.627,104.678,58.627ZM91.967,48.139c-2.337,0-4.218-.912-4.218-2.337,0-2.223,3.705-5.187,17.214-6.9C99.89,46.6,94.3,48.139,91.967,48.139ZM122.12,27.733c0,4.56-9.348,18.411-9.348,24.738a5.888,5.888,0,0,0,5.643,6.156c3.363,0,6.1-2.907,8.778-13l-1.026-.456c-.8,2.052-1.539,2.565-2.679,2.565-.912,0-1.938-.4-1.938-2.736,0-4.275,3.192-15.846,3.192-21.945,0-2.565-1.254-3.819-2.85-3.819-2.565,0-5.244,3.249-7.581,7.524l.855,1.026a9.866,9.866,0,0,1,4.731-1.653C121.265,26.137,122.12,26.707,122.12,27.733Zm14.478,0c0,4.56-9.348,18.411-9.348,24.738a5.888,5.888,0,0,0,5.643,6.156c3.363,0,6.1-2.907,8.778-13l-1.026-.456c-.8,2.052-1.539,2.565-2.679,2.565-.912,0-1.938-.4-1.938-2.736,0-4.275,3.192-15.846,3.192-21.945,0-2.565-1.254-3.819-2.85-3.819-2.565,0-5.244,3.249-7.581,7.524l.855,1.026a9.866,9.866,0,0,1,4.731-1.653C135.743,26.137,136.6,26.707,136.6,27.733Z" transform="translate(612 142)" fill="#8e56fa"/><g transform="translate(4.22 3.519)"><path d="M30.28,9.9A14.184,14.184,0,0,0,16.957.511C8.7.511,1.726,6.66,1.726,17.363c0,10.749,6.533,16.9,14.828,16.9,7.12,0,11.6-3.38,13.58-9.341l-5.726-3.427a7.363,7.363,0,0,1-7.34,5.163c-5.542,0-8.295-3.614-8.295-9.294,0-5.633,2.936-9.294,8.185-9.294a7.486,7.486,0,0,1,7.524,5.68Z" transform="translate(-0.135 0)" fill="#8e56fa"/><path d="M66.155,1.637h-6.68V12.714H44.831V1.637h-6.68V33.321h6.68V20.413H59.476V33.321h6.68Z" transform="translate(-3.138 -0.093)" fill="#8e56fa"/><path d="M106.2,17.363C106.2,6.66,98.972.511,90.274.511S74.345,6.66,74.345,17.363c0,10.749,7.23,16.9,15.929,16.9S106.2,28.112,106.2,17.363Zm-6.973,0c0,5.68-3.01,9.294-8.956,9.294-5.909,0-8.919-3.614-8.919-9.294,0-5.633,3.01-9.294,8.919-9.294C96.219,8.069,99.229,11.73,99.229,17.363Z" transform="translate(-6.122 0)" fill="#8e56fa"/><path d="M145.851,17.363c0-10.7-7.23-16.851-15.929-16.851S113.993,6.66,113.993,17.363c0,10.749,7.23,16.9,15.929,16.9S145.851,28.112,145.851,17.363Zm-6.973,0c0,5.68-3.01,9.294-8.955,9.294-5.909,0-8.919-3.614-8.919-9.294,0-5.633,3.01-9.294,8.919-9.294C135.868,8.069,138.877,11.73,138.877,17.363Z" transform="translate(-9.391 0)" fill="#8e56fa"/><path d="M180.568,10.087C179.577,3.7,176.237.511,167.759.511c-10.093,0-13.727,4.037-13.727,10.28,0,8.825,5.359,9.857,9.91,10.092,5.065.235,10.313-.469,10.313,2.441,0,2.722-2.936,3.755-6.239,3.755-2.9,0-6.79-.845-7.157-3.38h-7.377c.33,4.741,1.835,6.9,4.955,8.919,1.8,1.08,4.221,1.6,9.065,1.6,9.8,0,13.763-4.647,13.763-12.157,0-6.478-3.413-8.684-10.754-8.684-2.312,0-3.523.047-4.735.047-2.5,0-4.624-.047-4.624-2.769,0-2.206,2.312-3.239,6.643-3.239,2.863,0,5.138.516,6.093,3Z" transform="translate(-12.646 0)" fill="#8e56fa"/><path d="M196.366,1.637h-6.68V33.321h6.68Z" transform="translate(-15.631 -0.093)" fill="#8e56fa"/><path d="M233.146,1.637H226.1V21.4L211.014,1.637h-7.12V33.321h7.047V12.667l15.268,20.653h6.937Z" transform="translate(-16.802 -0.093)" fill="#8e56fa"/><path d="M271.038,4.877C269.093,3.046,263.184.511,256.688.511c-8.221,0-15.195,6.149-15.195,16.851,0,10.749,6.533,16.9,14.828,16.9,7.744,0,12.332-1.69,14.387-3.239V15.814H258.963v6.994h5.248v2.206c-1.211,1.455-4.808,1.643-7.377,1.643-5.542,0-8.478-3.614-8.478-9.294,0-5.633,3.12-9.294,8.331-9.294,3.78,0,7.157,1.08,11.158,4.271Z" transform="translate(-19.902 0)" fill="#8e56fa"/><path d="M314.5,1.637H288.4V9.569h9.689V33.321h6.68V9.569H314.5Z" transform="translate(-23.769 -0.093)" fill="#8e56fa"/><path d="M350.968,17.363c0-10.7-7.23-16.851-15.929-16.851S319.11,6.66,319.11,17.363c0,10.749,7.23,16.9,15.929,16.9S350.968,28.112,350.968,17.363Zm-6.973,0c0,5.68-3.01,9.294-8.955,9.294-5.909,0-8.919-3.614-8.919-9.294,0-5.633,3.01-9.294,8.919-9.294C340.985,8.069,343.994,11.73,343.994,17.363Z" transform="translate(-26.301 0)" fill="#8e56fa"/><path d="M371.081,1.637V33.321h20.076c6.239,0,9.1-4.037,9.1-9.153,0-3.52-1.431-6.29-4.368-7.37,2.019-1.314,3.083-4.178,3.083-6.994,0-4.882-2.863-8.167-7.818-8.167Zm18.792,19.2c1.395,0,2.643.282,2.643,2.394,0,1.878-1.248,2.112-2.276,2.112H377.761V20.835Zm.367-11.594c.954,0,1.982.376,1.982,2.112,0,1.971-1.174,2.253-2.349,2.253H377.761V9.241Z" transform="translate(-30.585 -0.093)" fill="#8e56fa"/><path d="M434.324,1.637h-26.1V33.321h26.609V25.247H414.946V20.741h16.92V13.419h-16.92V8.912h19.379Z" transform="translate(-33.648 -0.093)" fill="#8e56fa"/><path d="M481.422,1.637H470.779L459.4,13.606V1.637h-6.68V33.321h6.68V22.9l5.542-5.68,8.992,16.1h9.543l-13.25-21.029Z" transform="translate(-37.316 -0.093)" fill="#8e56fa"/><path d="M497.577,1.637H490.9V33.321h6.68Z" transform="translate(-40.463 -0.093)" fill="#8e56fa"/><path d="M534.356,1.637h-7.047V21.4L512.224,1.637H505.1V33.321h7.047V12.667l15.268,20.653h6.937Z" transform="translate(-41.634 -0.093)" fill="#8e56fa"/><path d="M543.464,1.637V33.321h14.864c11.561,0,15.415-8.778,15.415-15.866,0-12.627-7.3-15.819-16.259-15.819Zm14.02,7.135c6.5,0,9.286,3.333,9.286,8.355,0,5.351-3.193,8.027-9.322,8.027h-7.267V8.772Z" transform="translate(-44.797 -0.093)" fill="#8e56fa"/><path d="M819.866,1.637h-6.68V12.714H798.542V1.637h-6.68V33.321h6.68V20.413h14.644V33.321h6.68Z" transform="translate(-65.275 -0.093)" fill="#8e56fa"/><path d="M846.118,1.637h-8.552L826.335,33.321h7.157l2.055-6.055h12.3l1.982,6.055h7.818Zm-4.331,7.51,3.6,11.078h-7.267Z" transform="translate(-68.117 -0.093)" fill="#8e56fa"/><path d="M888.861,1.637h-7.487l-8.368,22.672L864.674,1.637h-7.6l12.185,31.684h7.12Z" transform="translate(-70.652 -0.093)" fill="#8e56fa"/><path d="M902.615,1.637h-6.68V33.321h6.68Z" transform="translate(-73.855 -0.093)" fill="#8e56fa"/><path d="M939.395,1.637h-7.047V21.4L917.263,1.637h-7.12V33.321h7.047V12.667l15.268,20.653h6.937Z" transform="translate(-75.026 -0.093)" fill="#8e56fa"/><path d="M977.287,4.877C975.342,3.046,969.433.511,962.937.511c-8.221,0-15.195,6.149-15.195,16.851,0,10.749,6.533,16.9,14.828,16.9,7.744,0,12.332-1.69,14.387-3.239V15.814H965.212v6.994h5.248v2.206c-1.211,1.455-4.808,1.643-7.377,1.643-5.542,0-8.478-3.614-8.478-9.294,0-5.633,3.12-9.294,8.331-9.294,3.78,0,7.157,1.08,11.158,4.271Z" transform="translate(-78.126 0)" fill="#8e56fa"/><path d="M1014.513,1.637h-8.552L994.733,33.321h7.154l2.055-6.055h12.3l1.982,6.055h7.818Zm-4.331,7.51,3.6,11.078h-7.267Z" transform="translate(-82 -0.093)" fill="#8e56fa"/><path d="M1061.852,1.637H1054.8V21.4L1039.72,1.637h-7.12V33.321h7.047V12.667l15.268,20.653h6.937Z" transform="translate(-85.122 -0.093)" fill="#8e56fa"/><path d="M19.868,55.342H11.317L.086,87.563H7.243L9.3,81.405h12.3l1.982,6.158h7.818Zm-4.331,7.638,3.6,11.266H11.867Z" transform="translate(0 1.903)" fill="#8e56fa"/><path d="M57.042,75.248c6.313,0,9.433-3.771,9.433-9.929s-3.046-9.977-9.176-9.977H37.957V87.563h6.68V75.248Zm.22-12.316a1.927,1.927,0,0,1,2.129,2.1c0,1.623-.881,2.339-2.092,2.339H44.636V62.932Z" transform="translate(-3.122 1.903)" fill="#8e56fa"/><path d="M91.964,75.248c6.312,0,9.432-3.771,9.432-9.929s-3.046-9.977-9.175-9.977H72.878V87.563h6.68V75.248Zm.22-12.316a1.927,1.927,0,0,1,2.129,2.1c0,1.623-.881,2.339-2.092,2.339H79.558V62.932Z" transform="translate(-6.001 1.903)" fill="#8e56fa"/><path d="M129.124,75.152c5.065-.716,7.194-4.487,7.194-9.833,0-6.158-3.046-9.977-9.176-9.977H107.8V87.563h6.68V75.248h6.166l6.2,12.316h9.286Zm-2.019-12.22a1.927,1.927,0,0,1,2.129,2.1c0,1.623-.881,2.339-2.092,2.339H114.48V62.932Z" transform="translate(-8.88 1.903)" fill="#8e56fa"/><path d="M170.106,55.342h-26.1V87.563H170.62v-8.21H150.728V74.77h16.92V67.323h-16.92V62.741h19.379Z" transform="translate(-11.865 1.903)" fill="#8e56fa"/><path d="M204.655,63.744A14.2,14.2,0,0,0,191.332,54.2c-8.258,0-15.231,6.253-15.231,17.137,0,10.931,6.533,17.185,14.828,17.185,7.12,0,11.6-3.437,13.58-9.5l-5.726-3.485c-1.1,2.912-3.267,5.251-7.34,5.251-5.542,0-8.295-3.676-8.295-9.452,0-5.728,2.936-9.452,8.185-9.452a7.507,7.507,0,0,1,7.524,5.776Z" transform="translate(-14.511 1.997)" fill="#8e56fa"/><path d="M219.687,55.342h-6.68V87.563h6.68Z" transform="translate(-17.554 1.903)" fill="#8e56fa"/><path d="M244.517,55.342h-8.552L224.734,87.563h7.157l2.055-6.158h12.3l1.982,6.158h7.818Zm-4.331,7.638,3.6,11.266h-7.267Z" transform="translate(-18.52 1.903)" fill="#8e56fa"/><path d="M282.234,55.342h-26.1v8.067h9.689V87.563h6.68V63.409h9.726Z" transform="translate(-21.109 1.903)" fill="#8e56fa"/><path d="M295.546,55.342h-6.68V87.563h6.68Z" transform="translate(-23.807 1.903)" fill="#8e56fa"/><path d="M334.172,71.334c0-10.884-7.23-17.137-15.929-17.137s-15.929,6.253-15.929,17.137c0,10.931,7.23,17.185,15.929,17.185S334.172,82.266,334.172,71.334Zm-6.973,0c0,5.776-3.01,9.452-8.955,9.452-5.909,0-8.919-3.676-8.919-9.452,0-5.728,3.01-9.452,8.919-9.452C324.189,61.883,327.2,65.606,327.2,71.334Z" transform="translate(-24.916 1.997)" fill="#8e56fa"/><path d="M371.974,55.342h-7.047v20.1l-15.085-20.1h-7.12V87.563h7.047v-21l15.268,21h6.937Z" transform="translate(-28.247 1.903)" fill="#8e56fa"/><path d="M416.649,55.342h-24.37V87.563H399V76.25h15.745V68.565H399V62.6h17.654Z" transform="translate(-32.333 1.903)" fill="#8e56fa"/><path d="M453.377,71.334c0-10.884-7.23-17.137-15.929-17.137s-15.929,6.253-15.929,17.137c0,10.931,7.23,17.185,15.929,17.185S453.377,82.266,453.377,71.334Zm-6.973,0c0,5.776-3.01,9.452-8.955,9.452-5.909,0-8.919-3.676-8.919-9.452,0-5.728,3.01-9.452,8.919-9.452C443.394,61.883,446.4,65.606,446.4,71.334Z" transform="translate(-34.744 1.997)" fill="#8e56fa"/><path d="M483.252,75.152c5.065-.716,7.194-4.487,7.194-9.833,0-6.158-3.046-9.977-9.176-9.977H461.928V87.563h6.68V75.248h6.166l6.2,12.316h9.286Zm-2.019-12.22a1.927,1.927,0,0,1,2.129,2.1c0,1.623-.881,2.339-2.092,2.339H468.608V62.932Z" transform="translate(-38.075 1.903)" fill="#8e56fa"/><path d="M535.431,55.342h-26.1V87.563h26.609v-8.21H516.053V74.77h16.92V67.323h-16.92V62.741h19.379Z" transform="translate(-41.983 1.903)" fill="#8e56fa"/><path d="M571.57,55.342h-7.487L555.715,78.4l-8.331-23.056h-7.6l12.185,32.221h7.12Z" transform="translate(-44.494 1.903)" fill="#8e56fa"/><path d="M604.259,55.342h-26.1V87.563h26.609v-8.21H584.881V74.77H601.8V67.323h-16.92V62.741h19.379Z" transform="translate(-47.658 1.903)" fill="#8e56fa"/><path d="M632.418,75.152c5.065-.716,7.194-4.487,7.194-9.833,0-6.158-3.046-9.977-9.176-9.977H611.094V87.563h6.68V75.248h6.166l6.2,12.316h9.286ZM630.4,62.932a1.927,1.927,0,0,1,2.129,2.1c0,1.623-.881,2.339-2.092,2.339H617.774V62.932Z" transform="translate(-50.372 1.903)" fill="#8e56fa"/><path d="M672.611,55.342h-7.854l-6.349,13.8-6.606-13.8h-8.148l11.121,22.627v9.643h6.863V77.968Z" transform="translate(-53.057 1.903)" fill="#8e56fa"/><path d="M702.559,55.342h-26.1v8.067h9.689V87.563h6.68V63.409h9.726Z" transform="translate(-55.762 1.903)" fill="#8e56fa"/><path d="M736.715,55.342h-6.68V66.607H715.391V55.342h-6.68V87.563h6.68V74.436h14.644V87.563h6.68Z" transform="translate(-58.42 1.903)" fill="#8e56fa"/><path d="M752.824,55.342h-6.68V87.563h6.68Z" transform="translate(-61.506 1.903)" fill="#8e56fa"/><path d="M789.6,55.342h-7.047v20.1l-15.085-20.1h-7.12V87.563H767.4v-21l15.268,21H789.6Z" transform="translate(-62.677 1.903)" fill="#8e56fa"/><path d="M827.5,58.637c-1.945-1.862-7.854-4.439-14.351-4.439-8.221,0-15.195,6.253-15.195,17.137,0,10.931,6.533,17.185,14.828,17.185,7.744,0,12.332-1.718,14.387-3.294V69.759H815.421v7.113h5.248v2.244c-1.211,1.48-4.808,1.671-7.377,1.671-5.542,0-8.478-3.676-8.478-9.452,0-5.728,3.12-9.452,8.331-9.452,3.78,0,7.157,1.1,11.158,4.344Z" transform="translate(-65.777 1.997)" fill="#8e56fa"/><path d="M864.36,55.342h-8.552L844.577,87.563h7.157l2.055-6.158h12.3l1.982,6.158h7.818Zm-4.331,7.638,3.6,11.266h-7.267Z" transform="translate(-69.621 1.903)" fill="#8e56fa"/><path d="M903.772,75.152c5.065-.716,7.194-4.487,7.194-9.833,0-6.158-3.046-9.977-9.176-9.977H882.448V87.563h6.68V75.248h6.166l6.2,12.316h9.286Zm-2.019-12.22a1.927,1.927,0,0,1,2.129,2.1c0,1.623-.881,2.339-2.092,2.339H889.128V62.932Z" transform="translate(-72.743 1.903)" fill="#8e56fa"/><path d="M948.975,71.334c0-10.884-7.23-17.137-15.929-17.137s-15.929,6.253-15.929,17.137c0,10.931,7.23,17.185,15.929,17.185S948.975,82.266,948.975,71.334Zm-6.973,0c0,5.776-3.01,9.452-8.955,9.452-5.909,0-8.918-3.676-8.918-9.452,0-5.728,3.009-9.452,8.918-9.452C938.992,61.883,942,65.606,942,71.334Z" transform="translate(-75.601 1.997)" fill="#8e56fa"/><path d="M985.186,55.342h-6.643V71.476c0,7.685-3.12,9.261-7.487,9.261-4,0-6.717-1.862-6.717-9.308V55.342h-6.973V72.861c0,10.979,5.505,15.753,13.617,15.753s14.2-4.678,14.2-15.848Z" transform="translate(-78.92 1.903)" fill="#8e56fa"/><path d="M1023.182,55.342h-7.047v20.1l-15.085-20.1h-7.118V87.563h7.045v-21l15.268,21h6.937Z" transform="translate(-81.934 1.903)" fill="#8e56fa"/><path d="M1032.29,55.342V87.563h14.865c11.561,0,15.415-8.926,15.415-16.135,0-12.841-7.3-16.087-16.259-16.087Zm14.02,7.256c6.5,0,9.286,3.389,9.286,8.5,0,5.442-3.193,8.163-9.322,8.163h-7.267V62.6Z" transform="translate(-85.096 1.903)" fill="#8e56fa"/><path d="M187.056,106.041H178.5l-11.231,32.221h7.157l2.055-6.158h12.3l1.982,6.158h7.818Zm-4.331,7.638,3.6,11.265h-7.267Z" transform="translate(-13.783 4.146)" fill="#8e56fa"/><path d="M224.229,125.947c6.313,0,9.432-3.771,9.432-9.929s-3.046-9.977-9.176-9.977H205.144v32.221h6.68V125.947Zm.22-12.315a1.927,1.927,0,0,1,2.129,2.1c0,1.623-.881,2.339-2.092,2.339H211.824v-4.439Z" transform="translate(-16.905 4.146)" fill="#8e56fa"/><path d="M259.151,125.947c6.313,0,9.432-3.771,9.432-9.929s-3.046-9.977-9.176-9.977H240.066v32.221h6.68V125.947Zm.22-12.315a1.927,1.927,0,0,1,2.129,2.1c0,1.623-.881,2.339-2.092,2.339H246.746v-4.439Z" transform="translate(-19.784 4.146)" fill="#8e56fa"/><path d="M296.312,125.851c5.065-.717,7.194-4.487,7.194-9.833,0-6.158-3.046-9.977-9.176-9.977H274.988v32.221h6.68V125.947h6.166l6.2,12.315h9.286Zm-2.019-12.22a1.927,1.927,0,0,1,2.129,2.1c0,1.623-.881,2.339-2.092,2.339H281.668v-4.439Z" transform="translate(-22.663 4.146)" fill="#8e56fa"/><path d="M337.294,106.041H311.2v32.221h26.609v-8.21H317.915v-4.582h16.92v-7.447h-16.92V113.44h19.38Z" transform="translate(-25.649 4.146)" fill="#8e56fa"/><path d="M371.842,114.443a14.2,14.2,0,0,0-13.323-9.547c-8.258,0-15.231,6.254-15.231,17.137,0,10.931,6.533,17.185,14.828,17.185,7.12,0,11.6-3.437,13.58-9.5l-5.726-3.485c-1.1,2.912-3.266,5.251-7.34,5.251-5.542,0-8.295-3.676-8.295-9.452,0-5.728,2.936-9.452,8.185-9.452a7.507,7.507,0,0,1,7.524,5.776Z" transform="translate(-28.294 4.24)" fill="#8e56fa"/><path d="M386.874,106.041h-6.68v32.221h6.68Z" transform="translate(-31.337 4.146)" fill="#8e56fa"/><path d="M411.7,106.041h-8.552l-11.231,32.221h7.157l2.055-6.158h12.3l1.982,6.158h7.818Zm-4.331,7.638,3.6,11.265H403.7Z" transform="translate(-32.303 4.146)" fill="#8e56fa"/><path d="M449.421,106.041h-26.1v8.067h9.689v24.154h6.68V114.108h9.726Z" transform="translate(-34.892 4.146)" fill="#8e56fa"/><path d="M462.733,106.041h-6.68v32.221h6.68Z" transform="translate(-37.591 4.146)" fill="#8e56fa"/><path d="M499.513,106.041h-7.047v20.1l-15.085-20.1h-7.12v32.221h7.047v-21l15.268,21h6.937Z" transform="translate(-38.762 4.146)" fill="#8e56fa"/><path d="M537.405,109.336c-1.945-1.862-7.854-4.44-14.351-4.44-8.221,0-15.195,6.254-15.195,17.137,0,10.931,6.533,17.185,14.828,17.185,7.744,0,12.332-1.719,14.387-3.294V120.458H525.33v7.113h5.248v2.243c-1.211,1.48-4.808,1.671-7.377,1.671-5.542,0-8.478-3.676-8.478-9.452,0-5.728,3.12-9.452,8.331-9.452,3.78,0,7.157,1.1,11.158,4.344Z" transform="translate(-41.862 4.24)" fill="#8e56fa"/><path d="M616.647,106.041h-26.1v8.067h9.689v24.154h6.68V114.108h9.726Z" transform="translate(-48.679 4.146)" fill="#8e56fa"/><path d="M650.8,106.041h-6.68v11.266H629.48V106.041H622.8v32.221h6.68V125.134h14.644v13.128h6.68Z" transform="translate(-51.337 4.146)" fill="#8e56fa"/><path d="M685.848,106.041h-26.1v32.221h26.609v-8.21H666.47v-4.582h16.92v-7.447H666.47V113.44h19.379Z" transform="translate(-54.384 4.146)" fill="#8e56fa"/><path d="M766.121,106.041h-26.1v32.221h26.609v-8.21H746.743v-4.582h16.92v-7.447h-16.92V113.44h19.379Z" transform="translate(-61.002 4.146)" fill="#8e56fa"/><path d="M790.259,106.041h-8.552l-11.231,32.221h7.157l2.055-6.158h12.3l1.982,6.158h7.818Zm-4.331,7.638,3.6,11.265h-7.267Z" transform="translate(-63.512 4.146)" fill="#8e56fa"/><path d="M829.67,125.851c5.065-.717,7.195-4.487,7.195-9.833,0-6.158-3.046-9.977-9.176-9.977H808.346v32.221h6.68V125.947h6.166l6.2,12.315h9.286Zm-2.019-12.22a1.927,1.927,0,0,1,2.129,2.1c0,1.623-.88,2.339-2.091,2.339H815.026v-4.439Z" transform="translate(-66.634 4.146)" fill="#8e56fa"/><path d="M868.092,106.041H842v8.067h9.689v24.154h6.68V114.108h9.726Z" transform="translate(-69.408 4.146)" fill="#8e56fa"/><path d="M902.249,106.041h-6.68v11.266H880.925V106.041h-6.68v32.221h6.68V125.134h14.644v13.128h6.68Z" transform="translate(-72.067 4.146)" fill="#8e56fa"/><path d="M975.845,106.041h-8.552l-11.231,32.221h7.157l2.055-6.158h12.3l1.982,6.158h7.818Zm-4.331,7.638,3.6,11.265h-7.267Z" transform="translate(-78.812 4.146)" fill="#8e56fa"/><path d="M1023.182,106.041h-7.047v20.1l-15.085-20.1h-7.118v32.221h7.045v-21l15.268,21h6.937Z" transform="translate(-81.934 4.146)" fill="#8e56fa"/><path d="M1032.29,106.041v32.221h14.865c11.561,0,15.415-8.926,15.415-16.134,0-12.84-7.3-16.087-16.259-16.087Zm14.02,7.256c6.5,0,9.286,3.389,9.286,8.5,0,5.442-3.193,8.163-9.322,8.163h-7.267V113.3Z" transform="translate(-85.096 4.146)" fill="#8e56fa"/><path d="M30.542,156.8H4.446v33.923H31.056v-8.643H11.163v-4.825h16.92v-7.84H11.163v-4.825H30.542Z" transform="translate(-0.359 6.384)" fill="#8e56fa"/><path d="M72.83,156.8H61.306l-6.2,21.761L49.378,156.8h-12v33.974h6.753V163.485l7.487,27.239h6.35l8.075-27.239v27.289h6.79Z" transform="translate(-3.074 6.384)" fill="#8e56fa"/><path d="M82.493,156.8v33.923h20.076c6.239,0,9.1-4.322,9.1-9.8,0-3.769-1.431-6.735-4.368-7.89,2.019-1.408,3.083-4.473,3.083-7.488,0-5.227-2.863-8.745-7.818-8.745Zm18.791,20.555c1.395,0,2.643.3,2.643,2.563,0,2.01-1.248,2.262-2.276,2.262H89.173v-4.824Zm.367-12.414c.954,0,1.982.4,1.982,2.262,0,2.11-1.174,2.412-2.349,2.412H89.173v-4.674Z" transform="translate(-6.794 6.384)" fill="#8e56fa"/><path d="M150.74,173.638c0-11.458-7.23-18.042-15.929-18.042s-15.929,6.583-15.929,18.042c0,11.509,7.23,18.092,15.929,18.092S150.74,185.147,150.74,173.638Zm-6.973,0c0,6.082-3.01,9.951-8.955,9.951-5.909,0-8.919-3.869-8.919-9.951,0-6.03,3.01-9.951,8.919-9.951C140.757,163.687,143.766,167.608,143.766,173.638Z" transform="translate(-9.794 6.483)" fill="#8e56fa"/><path d="M159.29,156.8v33.923h14.864c11.561,0,15.415-9.4,15.415-16.987,0-13.518-7.3-16.936-16.259-16.936Zm14.02,7.64c6.5,0,9.286,3.567,9.286,8.945,0,5.729-3.193,8.594-9.322,8.594h-7.267V164.441Z" transform="translate(-13.125 6.384)" fill="#8e56fa"/><path d="M222.135,156.8h-7.854l-6.35,14.524L201.325,156.8h-8.148L204.3,180.623v10.152h6.863V180.623Z" transform="translate(-15.919 6.384)" fill="#8e56fa"/><path d="M235.708,156.8h-6.68v33.923h6.68Z" transform="translate(-18.874 6.384)" fill="#8e56fa"/><path d="M272.487,156.8H265.44v21.158L250.355,156.8h-7.12v33.923h7.047V168.612l15.268,22.112h6.937Z" transform="translate(-20.046 6.384)" fill="#8e56fa"/><path d="M310.38,160.27c-1.945-1.96-7.854-4.674-14.351-4.674-8.221,0-15.195,6.583-15.195,18.042,0,11.509,6.533,18.092,14.828,18.092,7.744,0,12.332-1.809,14.387-3.467V171.98H298.305v7.488h5.248v2.362c-1.211,1.558-4.808,1.759-7.377,1.759-5.542,0-8.478-3.869-8.478-9.951,0-6.03,3.12-9.951,8.331-9.951,3.78,0,7.157,1.156,11.158,4.574Z" transform="translate(-23.145 6.483)" fill="#8e56fa"/><path d="M370.541,156.8h-26.1v33.923h26.609v-8.643H351.163v-4.825h16.92v-7.84h-16.92v-4.825h19.379Z" transform="translate(-28.39 6.384)" fill="#8e56fa"/><path d="M412.83,156.8H401.306l-6.2,21.761L389.378,156.8h-12v33.974h6.753V163.485l7.487,27.239h6.35l8.074-27.239v27.289h6.79Z" transform="translate(-31.104 6.384)" fill="#8e56fa"/><path d="M441.578,177.758c6.313,0,9.432-3.97,9.432-10.453s-3.046-10.5-9.176-10.5H422.493v33.923h6.68V177.758Zm.22-12.966A1.977,1.977,0,0,1,443.927,167c0,1.708-.881,2.463-2.092,2.463H429.173v-4.674Z" transform="translate(-34.824 6.384)" fill="#8e56fa"/><path d="M470.851,156.8H462.3l-11.231,33.923h7.157l2.055-6.483h12.3l1.982,6.483h7.818Zm-4.331,8.042,3.6,11.86h-7.267Z" transform="translate(-37.18 6.384)" fill="#8e56fa"/><path d="M508.567,156.8h-26.1v8.494h9.689v25.429h6.68V165.295h9.726Z" transform="translate(-39.769 6.384)" fill="#8e56fa"/><path d="M542.724,156.8h-6.68v11.86H521.4V156.8h-6.68v33.923h6.68V176.9h14.644v13.82h6.68Z" transform="translate(-42.427 6.384)" fill="#8e56fa"/><path d="M578.151,156.8H570.3l-6.349,14.524L557.341,156.8h-8.148l11.121,23.822v10.152h6.863V180.623Z" transform="translate(-45.269 6.384)" fill="#8e56fa"/><path d="M634.637,156.8h-24.37v33.923h6.716V178.813h15.745v-8.091H616.984v-6.282h17.654Z" transform="translate(-50.304 6.384)" fill="#8e56fa"/><path d="M671.365,173.638c0-11.458-7.23-18.042-15.929-18.042s-15.929,6.583-15.929,18.042c0,11.509,7.23,18.092,15.929,18.092S671.365,185.147,671.365,173.638Zm-6.973,0c0,6.082-3.01,9.951-8.955,9.951-5.909,0-8.919-3.869-8.919-9.951,0-6.03,3.01-9.951,8.919-9.951C661.382,163.687,664.391,167.608,664.391,173.638Z" transform="translate(-52.715 6.483)" fill="#8e56fa"/><path d="M701.239,177.658c5.065-.754,7.194-4.725,7.194-10.353,0-6.483-3.046-10.5-9.176-10.5H679.915v33.923h6.68V177.758h6.166l6.2,12.966h9.286Zm-2.019-12.866A1.977,1.977,0,0,1,701.349,167c0,1.708-.881,2.463-2.092,2.463H686.595v-4.674Z" transform="translate(-56.046 6.384)" fill="#8e56fa"/><path d="M886.067,156.8h-26.1v8.494h9.689v25.429h6.68V165.295h9.726Z" transform="translate(-70.89 6.384)" fill="#8e56fa"/><path d="M920.224,156.8h-6.68v11.86H898.9V156.8h-6.68v33.923h6.68V176.9h14.644v13.82h6.68Z" transform="translate(-73.549 6.384)" fill="#8e56fa"/><path d="M936.333,156.8h-6.68v33.923h6.68Z" transform="translate(-76.635 6.384)" fill="#8e56fa"/><path d="M973.112,156.8h-7.047v21.158L950.98,156.8h-7.12v33.923h7.047V168.612l15.268,22.112h6.937Z" transform="translate(-77.806 6.384)" fill="#8e56fa"/><path d="M1011.005,160.27c-1.945-1.96-7.854-4.674-14.351-4.674-8.221,0-15.195,6.583-15.195,18.042,0,11.509,6.533,18.092,14.828,18.092,7.744,0,12.332-1.809,14.387-3.467V171.98H998.93v7.488h5.248v2.362c-1.211,1.558-4.808,1.759-7.377,1.759-5.542,0-8.478-3.869-8.478-9.951,0-6.03,3.12-9.951,8.331-9.951,3.78,0,7.157,1.156,11.157,4.574Z" transform="translate(-80.906 6.483)" fill="#8e56fa"/><path d="M1045.536,165.849c-.991-6.835-4.331-10.253-12.809-10.253-10.093,0-13.727,4.323-13.727,11.006,0,9.448,5.359,10.554,9.91,10.805,5.065.251,10.313-.5,10.313,2.613,0,2.915-2.936,4.021-6.239,4.021-2.9,0-6.79-.9-7.157-3.618h-7.377c.33,5.076,1.835,7.387,4.955,9.548,1.8,1.156,4.221,1.709,9.065,1.709,9.8,0,13.763-4.976,13.763-13.016,0-6.936-3.413-9.3-10.754-9.3-2.312,0-3.523.05-4.735.05-2.5,0-4.625-.05-4.625-2.965,0-2.362,2.312-3.467,6.643-3.467,2.863,0,5.138.552,6.093,3.216Z" transform="translate(-83.955 6.483)" fill="#8e56fa"/><path d="M1060.241,189.445a4.07,4.07,0,0,0-3.854-4.272,4.3,4.3,0,0,0,0,8.543A4.1,4.1,0,0,0,1060.241,189.445Z" transform="translate(-86.768 4.045)" fill="#8e56fa"/></g></g></svg>