<svg xmlns="http://www.w3.org/2000/svg" xmlns:xlink="http://www.w3.org/1999/xlink" width="1350" height="201" viewBox="0 0 1350 201">
  <defs>
    <clipPath id="clip-path">
      <rect id="Rectangle_179" data-name="Rectangle 179" width="1382" height="226" transform="translate(230 854)" fill="#fff" stroke="#707070" stroke-width="1"/>
    </clipPath>
    <clipPath id="clip-Artboard_29">
      <rect width="1350" height="201"/>
    </clipPath>
  </defs>
  <g id="Artboard_29" data-name="Artboard – 29" clip-path="url(#clip-Artboard_29)">
    <g id="Mask_Group_63" data-name="Mask Group 63" transform="translate(-246 -877)" clip-path="url(#clip-path)">
      <g id="ColourLogo-01" transform="translate(236.15 860.97)">
        <g id="Group_181" data-name="Group 181" transform="translate(15.85 19.71)">
          <path id="Path_3372" data-name="Path 3372" d="M538.665,416.271H434.481L283.092,240.494l11.279,175.777H166.53V19.71H220.8L441.988,188.676,432.942,19.71H538.665Z" transform="translate(385.264 -19.71)" fill="#1c1c1c"/>
          <path id="Path_3373" data-name="Path 3373" d="M442.759,19.71C568.7,19.71,649.81,59.663,649.81,217.643c.147,88.767-40.978,198.628-203.572,198.628H278.59V19.71ZM373.18,149.456v96.531a882.057,882.057,0,0,0,101.695,5.493c58.593,0,93.675-15.454,93.675-51.268,0-43.029-41.637-55.59-93.858-55.59s-101.657,4.834-101.657,4.834Z" transform="translate(683.571 -19.71)" fill="#1c1c1c"/>
          <path id="Path_3374" data-name="Path 3374" d="M224.439,177.067c23.034,28.857,150.143,210.2,164.791,237.08H218.14c-12.268-35.265-47.606-119.419-61.6-153l-28.234,34.936V414.147H15.85V19.71H128.311V168.718l89.5-149.008H348.179Z" transform="translate(-15.85 -19.71)" fill="#1c1c1c"/>
          <ellipse id="Ellipse_27" data-name="Ellipse 27" cx="234.297" cy="221.406" rx="234.297" ry="221.406" transform="translate(1187.852 231.88)" fill="#cbfb00"/>
          <path id="Path_3375" data-name="Path 3375" d="M241.557,414.147H123.64V19.71H241.557Z" transform="translate(271.09 -19.71)" fill="#1c1c1c"/>
          <path id="Path_3376" data-name="Path 3376" d="M496.331,143.423c-14.648,0-13.623,4.944-16.919,18.31h41.344l-8.24,43.578a16.406,16.406,0,0,1-16.845,13.366c-11.682-.586-12.122-.952-24.829-1.208,6.262,42.882,11.316,84.813,11.316,122.751,0,31.676-16.516,48.156-39.623,48.156-27.355,0-40.283-16.479-40.575-56.1l11.462-2.087c2.637,12.854,3.076,16.735,5.31,16.772,3.223,0,3.369-3.662,5.676-11.352,5.273-21.13,13.842-70.933,22.778-118.137-9.924,0-19.482,0-28.051.33l.22-16.406c18.823-8.569,32.958-16.259,39.037-40.282.329-1.648.659-2.966.989-4.284,9.228-41.271,28.71-52.806,48.485-52.806a91.039,91.039,0,0,1,19.152,2.637l-2.966,36.254a3.662,3.662,0,0,1-4.541,3.186A89.278,89.278,0,0,0,496.331,143.423Z" transform="translate(1011.985 204.726)" fill="#1c1c1c"/>
          <path id="Path_3377" data-name="Path 3377" d="M402.19,249.765C400.8,221.2,403.508,139.9,447.416,134.96l-5.346,28.71c-21.972-4.651-34.02,47.423-28.417,84.007Z" transform="translate(1011.902 287.089)" fill="#1c1c1c"/>
          <path id="Path_3378" data-name="Path 3378" d="M434.679,146.976c-20.947.659-41.491,33.654-35.815,53.319,0,0-7.727-32.958,3.149-50.1,3.039-4.834,9.3-9.485,32.666-19.628Z" transform="translate(996.661 275.402)" fill="#1c1c1c"/>
          <path id="Path_3379" data-name="Path 3379" d="M516.415,217.236c-6.921,16.846-9.558,21.13-15.82,21.13-5.6,0-12.853-4.285-12.853-14.648,0-19.482,11.755-65.7,25.634-102.976a1.428,1.428,0,0,0-1.392-1.941c-106.565,1.648-149.7,56.725-149.7,105.21,0,45.3,18.31,65.331,40.282,65.587,34.973.366,65.734-69.139,66.393-70.128s1.9-.549,1.684.439c-.366,1.611-13.7,27.209-13.7,42.077,0,17.138,9.558,31.97,20.434,31.97,17.175,0,29.3-16.809,45.556-73.9Zm-48.961-28.124c-24.389,35.485-50.755,42.7-61.925,42.7s-20.654-4.468-20.654-11.425c0-10.73,17.577-24.975,81.26-33.361a1.355,1.355,0,0,1,1.318,2.087Z" transform="translate(906.356 244.069)" fill="#1c1c1c"/>
        </g>
        <g id="Group_182" data-name="Group 182" transform="translate(16.692 499.577)">
          <path id="Path_3380" data-name="Path 3380" d="M60.5,196.6H51.419l-7.544-29.3-7.324,29.3H27.762L16.08,151.08H24.8l7.617,31.493,7.91-31.493h7.324l8.166,31.493,7.8-31.493h8.569Z" transform="translate(-16.08 -149.866)" fill="#1c1c1c"/>
          <path id="Path_3381" data-name="Path 3381" d="M65.715,160.455H40.081v8.02H62.419V178H40.081v8.2h26.11v10.4H32.61V151.08H65.568Z" transform="translate(27.923 -149.866)" fill="#1c1c1c"/>
          <path id="Path_3382" data-name="Path 3382" d="M85.5,196.6H76.637l-2.93-9.3H56.863l-2.82,9.3H45.73L60.6,151.08h9.668Zm-25.634-18.31H70.852l-5.493-17.541Z" transform="translate(62.849 -149.866)" fill="#1c1c1c"/>
          <path id="Path_3383" data-name="Path 3383" d="M93.788,196.6H83.2l-8.5-17.395H65.37V196.6H57.79V151.08H82.326c7.764,0,11.645,5.383,11.645,14.1,0,7.8-3.186,12.927-9.631,13.952ZM65.37,160.931V169.1H82.289c2.234,0,3.662-1.392,3.662-4.248a3.442,3.442,0,0,0-3.662-3.882Z" transform="translate(94.953 -149.866)" fill="#1c1c1c"/>
          <path id="Path_3384" data-name="Path 3384" d="M102.415,160.455H76.964v8.02H99.3V178H76.964v8.2h26.11v10.4H69.31V151.08h32.958Z" transform="translate(125.62 -149.866)" fill="#1c1c1c"/>
          <path id="Path_3385" data-name="Path 3385" d="M115.515,161.261H102.881V196.6H95.19V161.261H82.41V151.08h32.958Z" transform="translate(160.492 -149.866)" fill="#1c1c1c"/>
          <path id="Path_3386" data-name="Path 3386" d="M128.155,196.6h-7.58V177.52H100.25V196.6H92.67V151.08h7.58V167.6h20.324V151.08h7.58Z" transform="translate(187.805 -149.866)" fill="#1c1c1c"/>
          <path id="Path_3387" data-name="Path 3387" d="M137.668,160.455H112.034v8.02h22.338V178H112.034v8.2h26.11v10.4H104.38V151.08h32.958Z" transform="translate(218.977 -149.866)" fill="#1c1c1c"/>
          <path id="Path_3388" data-name="Path 3388" d="M147.679,168.877a10.62,10.62,0,0,0-10.327-8.716c-6.958,0-11.316,5.6-11.316,14.648s4.065,14.648,11.426,14.648a10.364,10.364,0,0,0,10.144-8.02l6.518,4.395a16.809,16.809,0,0,1-17.248,13.4c-10.51,0-18.786-8.825-18.786-24.243s8.826-24.243,19.262-24.243a18.31,18.31,0,0,1,16.955,13.513Z" transform="translate(255.473 -150.744)" fill="#1c1c1c"/>
          <path id="Path_3389" data-name="Path 3389" d="M165.2,196.6h-7.617V177.52H137.26V196.6h-7.58V151.08h7.58V167.6h20.324V151.08H165.2Z" transform="translate(286.326 -149.866)" fill="#1c1c1c"/>
          <path id="Path_3390" data-name="Path 3390" d="M180.41,196.6h-8.862l-2.93-9.3H151.773l-2.966,9.3H140.64l14.868-45.519h9.667Zm-25.634-18.31h10.986l-5.493-17.541Z" transform="translate(315.502 -149.866)" fill="#1c1c1c"/>
          <path id="Path_3391" data-name="Path 3391" d="M189.8,196.6h-7.91l-21.2-31.164v31.347H152.7v-45.7h8.093l20.983,30.285V151.08h8.02Z" transform="translate(347.606 -149.866)" fill="#1c1c1c"/>
          <path id="Path_3392" data-name="Path 3392" d="M198.667,166.318a20.945,20.945,0,0,0-14.648-6.152c-7.031,0-11.5,5.6-11.5,14.648s4.248,14.648,11.572,14.648c3.991,0,8.423-.732,10.07-2.893v-4.248h-7.324v-9.228h14.868v21.057c-2.563,2.344-8.423,5.09-18.31,5.09-10.51,0-18.786-8.825-18.786-24.242s8.826-24.243,19.262-24.243a28.272,28.272,0,0,1,18.31,6.262Z" transform="translate(379.311 -150.749)" fill="#1c1c1c"/>
          <path id="Path_3393" data-name="Path 3393" d="M209.825,160.455H184.374v8.02h22.338V178H184.374v8.2h26.11v10.4H176.72V151.08h32.958Z" transform="translate(411.548 -149.866)" fill="#1c1c1c"/>
          <path id="Path_3394" data-name="Path 3394" d="M192.809,171.352a5.273,5.273,0,1,1,4.468-5.2,4.833,4.833,0,0,1-4.468,5.2Z" transform="translate(438.195 -123.813)" fill="#1c1c1c"/>
          <path id="Path_3395" data-name="Path 3395" d="M238.877,196.6H229.8l-7.544-29.3-7.324,29.3H206.1L194.42,151.08h8.716l7.654,31.493,7.91-31.493h7.324l8.13,31.493,7.837-31.493H250.6Z" transform="translate(458.666 -149.866)" fill="#1c1c1c"/>
          <path id="Path_3396" data-name="Path 3396" d="M243.958,160.455H218.507v8.02h22.338V178H218.507v8.2h26.11v10.4H211V151.08h32.958Z" transform="translate(502.802 -149.866)" fill="#1c1c1c"/>
          <path id="Path_3397" data-name="Path 3397" d="M263.823,196.6H255l-2.93-9.3H235.223l-3,9.3h-8.13l14.648-45.519h9.7Zm-25.634-18.31h10.986l-5.493-17.541Z" transform="translate(537.648 -149.866)" fill="#1c1c1c"/>
          <path id="Path_3398" data-name="Path 3398" d="M272.141,196.6H261.594L253.062,179.2h-9.3V196.6H236.18V151.08h24.5c7.8,0,11.645,5.383,11.645,14.1,0,7.8-3.149,12.927-9.631,13.952ZM243.76,160.931V169.1h16.882c2.234,0,3.662-1.392,3.662-4.248a3.662,3.662,0,0,0-3.662-3.882Z" transform="translate(569.832 -149.866)" fill="#1c1c1c"/>
          <path id="Path_3399" data-name="Path 3399" d="M280.881,160.455H255.247v8.02h22.375V178H255.247v8.2h26.11v10.4H247.63V151.08h32.958Z" transform="translate(600.312 -149.866)" fill="#1c1c1c"/>
          <path id="Path_3400" data-name="Path 3400" d="M283.342,166.57,300.664,196.6h-10.8l-12.6-23.84-8.057,8.716v15.161H261.59V151.08h7.617v18.31L285.8,151.08h12.268Z" transform="translate(637.474 -149.866)" fill="#1c1c1c"/>
          <path id="Path_3401" data-name="Path 3401" d="M281.347,196.6H273.73V151.08h7.617Z" transform="translate(669.791 -149.866)" fill="#1c1c1c"/>
          <path id="Path_3402" data-name="Path 3402" d="M315.243,196.6H307.3L286.13,165.435v31.347H278v-45.7h8.093l20.983,30.285V151.08h8.02Z" transform="translate(681.158 -149.866)" fill="#1c1c1c"/>
          <path id="Path_3403" data-name="Path 3403" d="M308.011,151.08c11.352,0,20.617,4.578,20.617,22.741,0,10.144-4.87,22.778-19.555,22.778H290.25V151.08Zm-10.144,9.155v25.854h10.254c8.459,0,12.6-4.724,12.6-12.707s-4.175-13.147-12.707-13.147Z" transform="translate(713.768 -149.866)" fill="#1c1c1c"/>
          <path id="Path_3404" data-name="Path 3404" d="M344.98,196.6h-8.862l-2.929-9.3H316.343l-2.966,9.3H305.21l14.868-45.519h9.668Zm-25.634-18.31h10.986l-5.456-17.541Z" transform="translate(753.592 -149.866)" fill="#1c1c1c"/>
          <path id="Path_3405" data-name="Path 3405" d="M348.178,160.235H324.887v10h20.874v9.851H324.887v16.662H317.27V151.08h30.908Z" transform="translate(785.696 -149.866)" fill="#1c1c1c"/>
          <path id="Path_3406" data-name="Path 3406" d="M331.8,171.352a5.273,5.273,0,1,1,4.468-5.2,4.8,4.8,0,0,1-4.468,5.2Z" transform="translate(808.19 -123.813)" fill="#1c1c1c"/>
        </g>
      </g>
    </g>
  </g>
</svg>
