<svg xmlns="http://www.w3.org/2000/svg" xmlns:xlink="http://www.w3.org/1999/xlink" width="474" height="117" viewBox="0 0 474 117">
  <defs>
    <clipPath id="clip-Artboard_26">
      <rect width="474" height="117"/>
    </clipPath>
  </defs>
  <g id="Artboard_26" data-name="Artboard – 26" clip-path="url(#clip-Artboard_26)">
    <g id="Group_178" data-name="Group 178" transform="translate(1 4.681)">
      <path id="Path_2285" data-name="Path 2285" d="M93.812,14.348C87.745,8.526,68.959.465,48.306.465,22.17.465,0,20.021,0,54.058,0,88.244,20.769,107.8,47.14,107.8c24.62,0,39.322-6.121,45.739-11.346V49.878H55.541V70.33h18.2v9.4c-4.084,4.777-15.285,6.419-25.2,6.419-18.436,0-29.054-12.391-29.054-32.1s11.2-32.1,28.82-32.1c12.952,0,24.5,4.031,36.521,13.585Z" transform="translate(0 -0.465)" fill="#8e56fa"/>
      <path id="Path_2286" data-name="Path 2286" d="M178.391,54.058c0-34.037-22.986-53.593-50.64-53.593S77.112,20.021,77.112,54.058c0,34.186,22.986,53.743,50.639,53.743S178.391,88.244,178.391,54.058Zm-19.952,0c0,19.706-10.968,32.1-30.688,32.1s-30.687-12.391-30.687-32.1,10.968-32.1,30.687-32.1S158.439,34.352,158.439,54.058Z" transform="translate(29.033 -0.465)" fill="#8e56fa"/>
      <path id="Path_2287" data-name="Path 2287" d="M181.2,2.851H162.064V103.618H181.2Z" transform="translate(61.017 0.433)" fill="#8e56fa"/>
      <path id="Path_2288" data-name="Path 2288" d="M282.067,2.851H262V69.88L209.374,2.851h-20.3V103.618H209.14V34.2l53.09,69.417h19.837Z" transform="translate(71.186 0.433)" fill="#8e56fa"/>
      <path id="Path_2289" data-name="Path 2289" d="M361.034,14.348C354.966,8.526,336.181.465,315.528.465c-26.137,0-48.307,19.556-48.307,53.593,0,34.186,20.77,53.743,47.14,53.743,24.62,0,39.323-6.121,45.74-11.346V49.878H322.761V70.33h18.2v9.4c-4.084,4.777-15.285,6.419-25.2,6.419-18.435,0-29.054-12.391-29.054-32.1s11.2-32.1,28.821-32.1c12.952,0,24.5,4.031,36.521,13.585Z" transform="translate(100.609 -0.465)" fill="#8e56fa"/>
    </g>
  </g>
</svg>
