<svg xmlns="http://www.w3.org/2000/svg" xmlns:xlink="http://www.w3.org/1999/xlink" width="374" height="116" viewBox="0 0 374 116">
  <defs>
    <clipPath id="clip-Artboard_24">
      <rect width="374" height="116"/>
    </clipPath>
  </defs>
  <g id="Artboard_24" data-name="Artboard – 24" clip-path="url(#clip-Artboard_24)">
    <g id="Group_176" data-name="Group 176" transform="translate(0 4)">
      <path id="Path_2274" data-name="Path 2274" d="M19.772,3.27H.812V104.2H77.7V79.83H19.772Z" transform="translate(-0.812 0.019)"/>
      <path id="Path_2275" data-name="Path 2275" d="M145.066,3.27H62.36V104.2h84.333V81.175H81.437V62.933h55.835V41.849H81.437V24.055h63.629Z" transform="translate(22.101 0.019)"/>
      <path id="Path_2276" data-name="Path 2276" d="M209.383,3.27H126.677V25.849h31.872V104.2H177.51V25.849h31.874Z" transform="translate(46.044 0.019)"/>
      <path id="Path_2277" data-name="Path 2277" d="M208.115.873H194.04l-5.467,37.083h8.957Z" transform="translate(69.085 -0.873)"/>
      <path id="Path_2278" data-name="Path 2278" d="M294.314,31.377c-3.141-20.336-13.725-30.5-40.6-30.5-31.987,0-43.5,12.561-43.5,32.149,0,21.532,10.584,27.364,21.52,29.906,18.727,4.336,44.784-2.991,44.784,11.065,0,9.719-9.539,13.906-22.218,13.906-11.631,0-23.846-3.738-25.009-13.159H208.468c1.047,14.953,5.816,22.13,15.7,28.411,5.582,3.439,13.377,5.084,28.731,5.084,31.058,0,43.622-14.5,43.622-37.084,0-9.121-2.443-14.654-5.467-18.542-4.072-4.934-9.073-7.626-18.612-8.673a193.734,193.734,0,0,0-22.8-.9c-11.284,0-19.31-.3-19.31-10.467,0-8.075,7.794-11.962,23.5-11.962,10.934,0,18.5,2.692,21.52,11.663Z" transform="translate(76.492 -0.873)"/>
    </g>
  </g>
</svg>
