<svg xmlns="http://www.w3.org/2000/svg" xmlns:xlink="http://www.w3.org/1999/xlink" width="1055" height="75" viewBox="0 0 1055 75"><defs><clipPath id="b"><rect width="1055" height="75"/></clipPath></defs><g id="a" clip-path="url(#b)"><g transform="translate(4 3)"><path d="M382.2,1366.01h-8.82l-6.6,30.879-6.732-30.879h-7.5l-6.561,30.879-6.391-30.879h-8.862l10.524,47.16H350.2l6.008-28.163,6.178,28.163h9.246Z" transform="translate(-90.602 -1359.433)" fill="#dafd08"/><path d="M417.8,1366.01H387.506v47.16H418.4v-12.02H395.3v-6.7h19.642v-10.906H395.3v-6.7h22.5Z" transform="translate(-91.897 -1359.433)" fill="#dafd08"/><path d="M428.585,1364.43h-5.752l-1.875,17.336h3.621Z" transform="translate(-92.659 -1359.397)" fill="#dafd08"/><path d="M467.686,1366.01h-8.692l-9.714,33.743-9.671-33.743h-8.82l14.146,47.16H453.2Z" transform="translate(-92.884 -1359.433)" fill="#dafd08"/><path d="M502.915,1366.01H472.622v47.16h30.89v-12.02H480.419v-6.7h19.642v-10.906H480.419v-6.7h22.5Z" transform="translate(-93.837 -1359.433)" fill="#dafd08"/><path d="M540.445,1366.01h-9.927l-13.038,47.16h8.308l2.386-9.02h14.273l2.3,9.02h9.075Zm-5.028,11.179,4.176,16.485h-8.436Z" transform="translate(-94.86 -1359.433)" fill="#dafd08"/><path d="M566.514,1366.01H558.76v47.16h28.163v-12.713H566.514Z" transform="translate(-95.801 -1359.433)" fill="#dafd08"/><path d="M599,1366.01h-7.754v47.16h28.163v-12.713H599Z" transform="translate(-96.542 -1359.433)" fill="#dafd08"/><path d="M635.4,1366.01v47.16h23.306c7.243,0,10.566-6.01,10.566-13.622,0-5.248-1.662-9.362-5.071-10.974,2.343-1.954,3.579-6.215,3.579-10.407,0-7.271-3.323-12.156-9.075-12.156Zm21.815,28.573c1.618,0,3.068.42,3.068,3.567,0,2.795-1.449,3.137-2.641,3.137H643.157v-6.7Zm.426-17.257c1.107,0,2.3.557,2.3,3.147,0,2.932-1.363,3.352-2.727,3.352H643.157v-6.5Z" transform="translate(-97.548 -1359.433)" fill="#dafd08"/><path d="M706.189,1366.01H675.9v47.16h30.89v-12.02H683.693v-6.7h19.642v-10.906H683.693v-6.7h22.5Z" transform="translate(-98.472 -1359.433)" fill="#dafd08"/><path d="M742.084,1366.01H711.79v47.16h30.89v-12.02H719.587v-6.7h19.642v-10.906H719.587v-6.7h22.5Z" transform="translate(-99.29 -1359.433)" fill="#dafd08"/><path d="M781.643,1366.01h-8.181v29.414L755.95,1366.01h-8.265v47.16h8.18v-30.743l17.724,30.743h8.053Z" transform="translate(-100.108 -1359.433)" fill="#dafd08"/><path d="M849.93,1366.01h-8.819l-6.6,30.879-6.732-30.879h-7.5l-6.562,30.879-6.391-30.879h-8.862l10.523,47.16h8.948l6.008-28.163,6.178,28.163h9.245Z" transform="translate(-101.266 -1359.433)" fill="#dafd08"/><path d="M870.435,1366.01h-9.927l-13.038,47.16h8.308l2.386-9.02h14.273l2.3,9.02h9.075Zm-5.028,11.179,4.176,16.485h-8.436Z" transform="translate(-102.383 -1359.433)" fill="#dafd08"/><path d="M897.028,1366.01h-7.755v47.16h7.755Z" transform="translate(-103.336 -1359.433)" fill="#dafd08"/><path d="M932.263,1366.01H901.969v11.8h11.249v35.355h7.755v-35.355h11.291Z" transform="translate(-103.626 -1359.433)" fill="#dafd08"/><path d="M945.4,1366.01h-7.755v47.16H945.4Z" transform="translate(-104.439 -1359.433)" fill="#dafd08"/><path d="M987.088,1366.01h-8.18v29.414L961.4,1366.01H953.13v47.16h8.18v-30.743l17.725,30.743h8.052Z" transform="translate(-104.792 -1359.433)" fill="#dafd08"/><path d="M1028.41,1370.928c-2.257-2.726-9.117-6.5-16.652-6.5-9.547,0-17.643,9.156-17.643,25.085,0,16,7.588,25.153,17.213,25.153,8.99,0,14.316-2.511,16.7-4.817v-22.642H1014.4v10.417h6.088v3.283c-1.407,2.16-5.58,2.443-8.56,2.443-6.43,0-9.84-5.384-9.84-13.837,0-8.384,3.616-13.827,9.674-13.827,4.388,0,8.306,1.6,12.948,6.352Z" transform="translate(-105.727 -1359.397)" fill="#dafd08"/><path d="M106.522,1383.989c4.685,0,4.923,2.619,4.288,6.909l1.509.166c1.43-5.726,2.621-10.172,4.05-15.645a29.044,29.044,0,0,0-9.847-1.749C93.18,1373.592,85,1385.338,85,1397.416c0,11.277,4.527,16.994,11.118,16.994,8.1,0,13.818-8.5,16.677-17.951l-1.112-.714c-2.3,4.925-9.133,8.1-16.2,8.1-4.924,0-8.1-1.749-8.1-5.4C87.382,1389.872,96.912,1383.989,106.522,1383.989Z" transform="translate(-85 -1359.608)" fill="#dafd08"/><path d="M131.86,1369.365c0,6.518-14.771,32.326-17.154,43.925h11.435c6.831-23.512,12.231-28.828,18.108-28.828,2.858,0,4.209,1.1,4.209,2.453,0,4.212-10.642,12.635-10.642,19.7,0,3.733,2.858,7.544,6.591,7.544,4.447,0,7.7-3.733,11.594-16.759l-1.112-.479c-2.223,4.925-3.493,5.961-5.241,5.961-1.271,0-2.542-.87-2.542-3.176,0-4.29,5.321-14.3,5.321-18.821,0-3.811-2.621-7.7-6.512-7.7-5.4,0-10.959,7.3-16.994,28.271l-.794-.244c2.224-12.7,6.274-27,6.274-36.606,0-3.254-1.906-5.326-4.05-5.326-2.938,0-6.194,3.811-9.292,8.9l.794.948a13.655,13.655,0,0,1,6.512-2.14C130.43,1366.99,131.86,1367.86,131.86,1369.365Z" transform="translate(-85.677 -1359.28)" fill="#dafd08"/><path d="M186.123,1414.487c3.732,0,6.432-3.733,10.4-16.515l-1.191-.557c-2.463,5.316-3.256,6.664-4.924,6.664-1.588,0-3.018-1.27-3.018-3.889,0-5.238,3.653-18.977,6.433-26.521-23.587-.078-33.434,13.1-33.434,26.042,0,9.694,3.176,14.775,6.512,14.775,4.288,0,10.165-8.414,20.251-27.479l.794.235c-2.463,6.117-6.512,15.733-6.512,19.622C181.437,1410.989,183.5,1414.487,186.123,1414.487Zm-18.266-11.277c-3.1,0-5.321-1.27-5.321-3.577,0-5.081,6.67-12.625,25.175-15.479C179.134,1399.243,171.59,1403.211,167.857,1403.211Z" transform="translate(-86.719 -1359.608)" fill="#dafd08"/><path d="M228.576,1414.484c4.447,0,7.782-3.811,11.675-16.993l-1.033-.479c-2.3,5.16-3.574,6.2-5.4,6.2-1.27,0-2.542-.87-2.542-3.176,0-4.29,5.321-14.3,5.321-18.821,0-3.811-2.7-7.622-6.512-7.622-5.638,0-10.642,7.466-17.233,28.114l-.635-.166c1.191-5.873,2.542-12.391,2.542-15.4,0-8.658-2.224-12.626-5-12.626-3.812,0-6.512,5.16-10.166,16.28l1.191.547c2.065-5,4.13-5.795,6.989-5.795,3.018,0,4.447,1.27,4.447,2.863,0,3.655-10.245,16.671-13.5,26.209h11.514c6.83-23.59,12.389-28.828,18.187-28.828,2.858,0,4.209,1.1,4.209,2.453,0,4.212-10.642,12.635-10.642,19.7C221.985,1410.673,224.844,1414.484,228.576,1414.484Z" transform="translate(-87.593 -1359.604)" fill="#dafd08"/><path d="M246.3,1427.514c13.182,0,22.951-7.71,26.922-24.381a239.861,239.861,0,0,0,5-29.463c-23.427-.078-33.831,12.86-33.831,25.651,0,9.127,3.1,13.818,6.512,13.818,4.21,0,10.88-7.788,20.808-26.13l.873.235a124.8,124.8,0,0,0-5.956,24.146c-1.111,6.117-2.065,7.622-7.306,7.622a109.781,109.781,0,0,1-18.822-2.062l-1.191,9.928A42.708,42.708,0,0,0,246.3,1427.514Zm5.559-24.7c-3.019,0-5.321-1.349-5.321-3.567,0-5,7.226-12.313,25.651-15.088C263.694,1399,255.515,1402.81,251.862,1402.81Z" transform="translate(-88.518 -1359.608)" fill="#dafd08"/><path d="M301.066,1383.429c3.574,0,4.924,1.593,4.924,2.941,0,2.306-6.115,4.847-20.569,7.945C287.565,1388.754,294,1383.429,301.066,1383.429Zm-7.386,31.055c7.7,0,14.771-8.023,18.742-18.586l-1.111-.714c-2.542,5.081-11.515,8.424-17.71,8.424-3.891,0-8.974-1.515-8.974-5.4a9.878,9.878,0,0,1,.476-2.942c19.457-2.853,27.716-5.638,27.716-11.834,0-4.446-4.051-9.919-10.88-9.919-8.736,0-19.457,10.642-19.457,23.423C282.483,1408.924,287.169,1414.484,293.681,1414.484Z" transform="translate(-89.502 -1359.604)" fill="#dafd08"/><path d="M1075.39,1366.01H1047.1v47.16h7.8v-16.564h18.284v-11.247H1054.9v-8.736h20.492Z" transform="translate(-106.935 -1359.433)" fill="#dafd08"/><path d="M1115.957,1389.515c0-15.928-8.394-25.085-18.489-25.085s-18.489,9.156-18.489,25.085c0,16,8.384,25.153,18.489,25.153S1115.957,1405.511,1115.957,1389.515Zm-8.091,0c0,8.453-3.5,13.837-10.4,13.837-6.86,0-10.358-5.384-10.358-13.837,0-8.384,3.5-13.827,10.358-13.827C1104.368,1375.687,1107.866,1381.13,1107.866,1389.515Z" transform="translate(-107.662 -1359.397)" fill="#dafd08"/><path d="M1147.772,1395c5.883-1.046,8.355-6.567,8.355-14.394,0-9.01-3.537-14.6-10.651-14.6H1123.02v47.16h7.759V1395.14h7.153l7.2,18.029h10.779Zm-2.336-17.883c1.446,0,2.463.977,2.463,3.068,0,2.374-1.016,3.42-2.423,3.42h-14.7v-6.489Z" transform="translate(-108.665 -1359.433)" fill="#dafd08"/><path d="M1171.4,1408.981c0-3.352-2.052-5.941-4.475-5.941-2.521,0-4.437,2.589-4.437,5.941,0,3.283,1.915,5.941,4.437,5.941C1169.35,1414.922,1171.4,1412.265,1171.4,1408.981Z" transform="translate(-109.565 -1360.278)" fill="#dafd08"/></g></g></svg>