<svg xmlns="http://www.w3.org/2000/svg" xmlns:xlink="http://www.w3.org/1999/xlink" width="293" height="322" viewBox="0 0 293 322"><defs><clipPath id="b"><rect width="293" height="322"/></clipPath></defs><g id="a" clip-path="url(#b)"><path d="M82.868,38.128c3.36,0,3.7,1.288,3.416,3.64l1.4.112c1.12-4.536,2.128-8.12,3.192-12.544a22.014,22.014,0,0,0-7.056-1.288c-10.136-.056-16.24,8.064-16.24,16.688S70.94,57.56,76.036,57.56c6.552,0,10.248-6.272,12.432-13.16l-.952-.672C85.948,46.36,81.188,47.7,75.644,47.7c-3.976,0-5.936-.9-5.936-2.968C69.708,40.984,75.812,38.128,82.868,38.128Zm26.208,19.488c2.912,0,4.984-2.856,7.728-12.544l-1.12-.448c-1.176,2.856-1.624,3.584-2.688,3.584a2.277,2.277,0,0,1-2.184-2.52c0-3.36,2.072-11.424,4.48-17.808-18.368.168-24.752,8.848-24.752,17.136,0,8.344,2.352,12.656,4.872,12.656,2.912,0,7.224-5.544,13.944-17.752l.616.224c-1.68,3.808-4.368,9.52-4.368,12.04C105.6,55.1,107.228,57.616,109.076,57.616Zm-12.488-10.3c-2.3,0-4.144-.9-4.144-2.3,0-2.184,3.64-5.1,16.912-6.776C104.372,45.8,98.884,47.312,96.588,47.312Zm41.1,10.3c3.584,0,6.272-2.968,8.96-13.048l-.952-.392c-1.064,2.744-1.9,3.192-3.136,3.192a1.739,1.739,0,0,1-1.848-1.9c0-2.576,3.528-8.4,3.528-11.592,0-3.024-2.016-5.88-4.928-5.88-3.976,0-7.5,4.592-11.368,18.536l-.448-.112a53.934,53.934,0,0,0,1.064-7.952c0-7.56-1.68-10.528-3.808-10.528-3.136,0-5.264,4.256-7.784,12.32l1.064.5c.784-2.3,2.3-2.744,4.648-2.744,2.464,0,3.584.728,3.584,1.624,0,2.352-8.568,10.7-10.864,17.36H125.82c3.36-15.288,7.224-18.816,11.648-18.816,2.016,0,2.968.728,2.968,1.568,0,3.024-8.232,7.336-8.232,12.432A5.716,5.716,0,0,0,137.692,57.616Z" transform="translate(82 71.884)" fill="#dafd08"/><path d="M78.08,47.592c-4.48,0-6.44-.9-6.44-2.632,0-3.416,5.544-7,13.16-7,4.424,0,6.552.784,6.552,2.352C91.352,43.784,86.032,47.592,78.08,47.592Zm6.384-19.656c-8.12,0-14.672,8.344-14.672,16.632,0,8.568,3.864,12.992,8.736,12.992,8.176,0,14.672-8.4,14.672-16.8C93.2,32.248,89.448,27.936,84.464,27.936ZM105.912,46.92c-1.736,0-3.08-.28-3.08-1.848,0-2.072,2.912-8.232,2.912-11.76,0-3.08-2.016-5.376-3.976-5.376-3.136,0-5.264,4.256-7.784,12.376l1.064.448c.784-2.24,2.24-2.744,4.424-2.744,1.96,0,2.856.56,2.856,1.456-.112,2.632-8.176,7.56-8.176,12.936,0,2.52,2.184,5.208,6.832,5.208,3.808,0,8.12-7.168,14.728-18.816l.5.224c-1.792,3.92-4.7,10.248-4.7,13.5,0,2.912,1.9,5.1,3.7,5.1,3.248,0,5.1-2.968,7.9-12.824l-1.064-.448c-.9,2.688-2.016,3.024-2.8,3.024-1.232,0-2.184-.56-2.184-2.464,0-4.032,1.792-10.416,3.808-16.184l-8.68-.5C113.36,40.088,113.248,46.92,105.912,46.92ZM145.28,27.936c-4.2,0-8.288,4.088-12.208,23.24l-.5-.112c.84-5.432,1.848-9.968,1.848-12.6,0-7.56-1.624-10.528-3.7-10.528-3.136,0-5.264,4.2-7.784,12.32l1.12.448c.728-2.24,2.24-2.688,4.592-2.688,2.464,0,3.584.728,3.584,1.68,0,2.352-8.568,10.64-10.864,17.3h11.2c2.016-12.656,4.312-17.584,11.424-16.408Z" transform="translate(-57 215.884)" fill="#dafd08"/><g transform="translate(-0.072 2.215)"><path d="M143.485.785h-7.31L130.7,21.2,125.121.785h-6.215L113.467,21.2,108.17.785h-7.345l8.723,31.178h7.416l4.979-18.614,5.121,18.614h7.663Z" transform="translate(-11.807 0)" fill="#dafd08"/><path d="M159.822.785H153.4V31.963h6.427Z" transform="translate(-17.965 0)" fill="#dafd08"/><path d="M190.15.785H165.042V8.591h9.323V31.963h6.427V8.591h9.358Z" transform="translate(-19.33 0)" fill="#dafd08"/><path d="M224.235.785h-6.427v10.9h-14.09V.785H197.29V31.963h6.427V19.26h14.09v12.7h6.427Z" transform="translate(-23.107 0)" fill="#dafd08"/><path d="M59.5,51.544H49.257L38.31,63.518V51.544H31.883v31.7H38.31V72.815l5.332-5.682L52.294,83.24h9.182L48.728,62.2Z" transform="translate(-3.731 -4.18)" fill="#dafd08"/><path d="M76.485,51.544H70.058v31.7h6.427Z" transform="translate(-8.203 -4.18)" fill="#dafd08"/><path d="M112.411,51.544h-6.78V71.313L91.117,51.544H84.266v31.7h6.78V62.579L105.737,83.24h6.674Z" transform="translate(-9.867 -4.18)" fill="#dafd08"/><path d="M122.625,51.544v31.7h14.3c11.124,0,14.832-8.781,14.832-15.872,0-12.632-7.028-15.825-15.644-15.825Zm13.49,7.138c6.251,0,8.934,3.334,8.934,8.359,0,5.353-3.072,8.03-8.97,8.03h-6.992V58.681Z" transform="translate(-14.361 -4.18)" fill="#dafd08"/><path d="M189.442,51.544h-6.78V71.313L168.148,51.544H161.3v31.7h6.78V62.579L182.768,83.24h6.674Z" transform="translate(-18.891 -4.18)" fill="#dafd08"/><path d="M224.764,51.544H199.656v31.7h25.6V75.163h-19.14V70.656H222.4V63.33h-16.28V58.822h18.646Z" transform="translate(-23.385 -4.18)" fill="#dafd08"/><path d="M257.728,59.953c-.953-6.386-4.167-9.579-12.325-9.579-9.711,0-13.208,4.038-13.208,10.284,0,8.828,5.156,9.861,9.535,10.1,4.873.235,9.923-.47,9.923,2.442,0,2.724-2.825,3.757-6,3.757-2.79,0-6.533-.845-6.886-3.381h-7.1c.318,4.743,1.766,6.9,4.767,8.922,1.73,1.08,4.061,1.6,8.723,1.6,9.429,0,13.243-4.649,13.243-12.162,0-6.48-3.284-8.687-10.347-8.687-2.225,0-3.39.047-4.556.047-2.4,0-4.45-.047-4.45-2.771,0-2.207,2.225-3.24,6.392-3.24,2.755,0,4.944.517,5.862,3.005Z" transform="translate(-27.134 -4.043)" fill="#dafd08"/><path d="M292.533,59.953c-.953-6.386-4.167-9.579-12.325-9.579C270.5,50.374,267,54.412,267,60.657c0,8.828,5.156,9.861,9.535,10.1,4.873.235,9.923-.47,9.923,2.442,0,2.724-2.825,3.757-6,3.757-2.79,0-6.533-.845-6.886-3.381h-7.1c.318,4.743,1.766,6.9,4.767,8.922,1.73,1.08,4.061,1.6,8.723,1.6,9.429,0,13.243-4.649,13.243-12.162,0-6.48-3.284-8.687-10.347-8.687-2.225,0-3.39.047-4.556.047-2.4,0-4.45-.047-4.45-2.771,0-2.207,2.225-3.24,6.392-3.24,2.755,0,4.944.517,5.862,3.005Z" transform="translate(-31.212 -4.043)" fill="#dafd08"/><path d="M108.078,104h-7.31l-5.474,20.683L89.714,104H83.5L78.06,124.686,72.763,104H65.418l8.723,31.585h7.416l4.979-18.858,5.121,18.858H99.32Z" transform="translate(-7.659 -8.56)" fill="#dafd08"/><path d="M142.615,104H117.507v31.585h25.6V127.54H123.97v-4.492h16.28v-7.3H123.97v-4.492h18.646Z" transform="translate(-13.761 -8.56)" fill="#dafd08"/><path d="M30.016,164.577A13.691,13.691,0,0,0,17.2,155.219c-7.946,0-14.655,6.13-14.655,16.8,0,10.716,6.286,16.846,14.267,16.846,6.851,0,11.159-3.369,13.066-9.311l-5.509-3.417c-1.059,2.855-3.143,5.148-7.063,5.148-5.332,0-7.981-3.6-7.981-9.266,0-5.615,2.825-9.265,7.875-9.265a7.249,7.249,0,0,1,7.239,5.662Z" transform="translate(-0.294 -12.794)" fill="#dafd08"/><path d="M65.913,156.385H59.485v11.043H45.4V156.385H38.968V187.97H45.4V175.1h14.09V187.97h6.427Z" transform="translate(-4.561 -12.931)" fill="#dafd08"/><path d="M92.475,156.385H84.247L73.441,187.97h6.886l1.978-6.036h11.83l1.907,6.036h7.522Zm-4.167,7.487,3.461,11.043H84.777Z" transform="translate(-8.599 -12.931)" fill="#dafd08"/><path d="M139.457,156.385h-6.78v19.7l-14.514-19.7h-6.851V187.97h6.78V167.381l14.691,20.589h6.674Z" transform="translate(-13.036 -12.931)" fill="#dafd08"/><path d="M177.339,159.571c-1.872-1.825-7.557-4.352-13.808-4.352-7.91,0-14.62,6.13-14.62,16.8,0,10.716,6.286,16.846,14.267,16.846,7.451,0,11.866-1.684,13.843-3.229V170.473h-11.3v6.973h5.05v2.2c-1.165,1.451-4.626,1.638-7.1,1.638-5.332,0-8.158-3.6-8.158-9.266,0-5.615,3-9.265,8.016-9.265,3.637,0,6.886,1.076,10.736,4.258Z" transform="translate(-17.44 -12.794)" fill="#dafd08"/><path d="M211.927,156.385H186.819V187.97h25.6v-8.048h-19.14v-4.493h16.28v-7.3h-16.28v-4.492h18.646Z" transform="translate(-21.881 -12.931)" fill="#dafd08"/><path d="M253,156.385H227.892v7.908h9.323V187.97h6.427V164.293H253Z" transform="translate(-26.692 -12.931)" fill="#dafd08"/><path d="M287.085,156.385h-6.427v11.043h-14.09V156.385H260.14V187.97h6.427V175.1h14.09V187.97h6.427Z" transform="translate(-30.47 -12.931)" fill="#dafd08"/><path d="M322.2,156.385H297.093V187.97h25.6v-8.048h-19.14v-4.493h16.28v-7.3h-16.28v-4.492H322.2Z" transform="translate(-34.799 -12.931)" fill="#dafd08"/><path d="M75.956,211.925c-1.872-1.813-7.557-4.324-13.808-4.324-7.91,0-14.62,6.091-14.62,16.693,0,10.648,6.286,16.739,14.267,16.739,7.451,0,11.866-1.674,13.843-3.208V222.76h-11.3v6.928h5.05v2.186c-1.165,1.441-4.626,1.627-7.1,1.627-5.332,0-8.158-3.58-8.158-9.206,0-5.581,3-9.207,8.016-9.207,3.637,0,6.886,1.07,10.736,4.232Z" transform="translate(-5.564 -17.164)" fill="#dafd08"/><path d="M101.991,208.759H93.763L82.957,240.146h6.886l1.978-6h11.83l1.907,6h7.522Zm-4.167,7.44,3.461,10.974H94.293Z" transform="translate(-9.714 -17.3)" fill="#dafd08"/><path d="M154.941,208.759H143.852l-5.968,20.134-5.509-20.134H120.827v31.433h6.5V214.943l7.2,25.2h6.109l7.769-25.2v25.249h6.533Z" transform="translate(-14.15 -17.3)" fill="#dafd08"/><path d="M191.053,208.759H165.945v31.387h25.6v-8h-19.14v-4.465h16.28V220.43h-16.28v-4.464h18.646Z" transform="translate(-19.436 -17.3)" fill="#dafd08"/><path d="M239.47,224.294c0-10.6-6.957-16.693-15.326-16.693s-15.326,6.091-15.326,16.693c0,10.648,6.957,16.739,15.326,16.739S239.47,234.942,239.47,224.294Zm-6.71,0c0,5.626-2.9,9.206-8.617,9.206-5.686,0-8.581-3.58-8.581-9.206,0-5.581,2.9-9.207,8.581-9.207C229.864,215.087,232.76,218.713,232.76,224.294Z" transform="translate(-24.458 -17.164)" fill="#dafd08"/><path d="M277.371,208.759h-6.78v19.576l-14.514-19.576h-6.851v31.387h6.78v-20.46l14.691,20.46h6.674Z" transform="translate(-29.191 -17.3)" fill="#dafd08"/><path d="M157.876,260.891H146.787l-5.968,19.947-5.509-19.947H123.762v31.142h6.5V267.018l7.2,24.968h6.109l7.769-24.968v25.015h6.533Z" transform="translate(-14.494 -21.641)" fill="#dafd08"/><path d="M193.987,260.891H168.879v31.1h25.6v-7.924h-19.14V279.64h16.28v-7.186h-16.28v-4.422h18.646Z" transform="translate(-19.779 -21.641)" fill="#dafd08"/><path d="M229.954,260.891h-6.78v19.395L208.66,260.891h-6.851v31.1h6.78V271.717l14.691,20.269h6.674Z" transform="translate(-23.637 -21.641)" fill="#dafd08"/><path d="M262.716,260.891H237.608v7.786h9.323v23.309h6.427V268.677h9.358Z" transform="translate(-27.83 -21.641)" fill="#dafd08"/><path d="M283.324,260.891H275.1l-10.806,31.1h6.886l1.978-5.942h11.83l1.907,5.942h7.522Zm-4.167,7.371,3.461,10.872h-6.992Z" transform="translate(-30.956 -21.641)" fill="#dafd08"/><path d="M308.587,260.891H302.16v31.1H325.5V283.6H308.587Z" transform="translate(-35.392 -21.641)" fill="#dafd08"/><path d="M88.391,311.534H81.964v10.837H67.873V311.534H61.446v30.994h6.427V329.9h14.09v12.627h6.427Z" transform="translate(-7.194 -25.808)" fill="#dafd08"/><path d="M123.507,311.534H98.4v30.994H124v-7.9h-19.14v-4.408h16.28V323.06h-16.28v-4.408h18.646Z" transform="translate(-11.523 -25.808)" fill="#dafd08"/><path d="M147.883,311.534h-8.228l-10.806,30.994h6.886l1.978-5.923h11.83l1.907,5.923h7.522Zm-4.167,7.347,3.461,10.836h-6.992Z" transform="translate(-15.09 -25.808)" fill="#dafd08"/><path d="M173.147,311.534H166.72v30.994h23.343v-8.357H173.147Z" transform="translate(-19.526 -25.808)" fill="#dafd08"/><path d="M214.736,311.534H189.628v7.76h9.323v23.234h6.427V319.294h9.358Z" transform="translate(-22.21 -25.808)" fill="#dafd08"/><path d="M248.821,311.534h-6.427v10.837H228.3V311.534h-6.427v30.994H228.3V329.9h14.09v12.627h6.427Z" transform="translate(-25.988 -25.808)" fill="#dafd08"/><path d="M266.21,342.379a3.8,3.8,0,0,0-3.708-3.9,3.91,3.91,0,0,0,0,7.805A3.83,3.83,0,0,0,266.21,342.379Z" transform="translate(-30.316 -28.964)" fill="#dafd08"/></g></g></svg>