<svg xmlns="http://www.w3.org/2000/svg" xmlns:xlink="http://www.w3.org/1999/xlink" width="657" height="190" viewBox="0 0 657 190"><defs><clipPath id="b"><rect width="657" height="190"/></clipPath></defs><g id="a" clip-path="url(#b)"><g transform="translate(-145 -195)"><g transform="translate(257.091 -821.316)"><g transform="translate(-105 1019.16)"><path d="M24.579,105.1a12.12,12.12,0,0,0-11.354-8.245c-7.038,0-12.981,5.4-12.981,14.8,0,9.441,5.568,14.842,12.637,14.842,6.068,0,9.884-2.969,11.573-8.2l-4.88-3.01a6.3,6.3,0,0,1-6.256,4.535c-4.723,0-7.069-3.174-7.069-8.163,0-4.947,2.5-8.163,6.975-8.163a6.414,6.414,0,0,1,6.412,4.989Z" transform="translate(-0.244 -96.857)" fill="#dafd08"/><path d="M101.515,99.322H95.823v9.73H83.342v-9.73H77.649v27.829h5.693V115.813h12.48v11.337h5.693Z" transform="translate(-49.165 -98.415)" fill="#dafd08"/><path d="M181.71,111.658c0-9.4-6.162-14.8-13.575-14.8s-13.575,5.4-13.575,14.8c0,9.441,6.162,14.842,13.575,14.842S181.71,121.1,181.71,111.658Zm-5.943,0c0,4.989-2.565,8.163-7.632,8.163-5.036,0-7.6-3.174-7.6-8.163,0-4.947,2.565-8.163,7.6-8.163C173.2,103.5,175.767,106.711,175.767,111.658Z" transform="translate(-97.773 -96.857)" fill="#dafd08"/><path d="M265.963,111.658c0-9.4-6.162-14.8-13.575-14.8s-13.575,5.4-13.575,14.8c0,9.441,6.162,14.842,13.575,14.842S265.963,121.1,265.963,111.658Zm-5.943,0c0,4.989-2.565,8.163-7.632,8.163-5.036,0-7.6-3.174-7.6-8.163,0-4.947,2.565-8.163,7.6-8.163C257.455,103.5,260.02,106.711,260.02,111.658Z" transform="translate(-151.021 -96.857)" fill="#dafd08"/><path d="M345.81,105.268c-.845-5.607-3.691-8.41-10.917-8.41-8.6,0-11.7,3.545-11.7,9.029,0,7.751,4.567,8.658,8.446,8.864,4.316.206,8.789-.412,8.789,2.144,0,2.391-2.5,3.3-5.318,3.3-2.471,0-5.787-.742-6.1-2.968h-6.287c.281,4.164,1.564,6.06,4.223,7.833,1.533.948,3.6,1.4,7.726,1.4,8.352,0,11.73-4.081,11.73-10.678,0-5.69-2.909-7.627-9.165-7.627-1.971,0-3,.041-4.035.041-2.127,0-3.942-.041-3.942-2.432,0-1.938,1.971-2.845,5.662-2.845,2.44,0,4.379.454,5.193,2.639Z" transform="translate(-204.054 -96.857)" fill="#dafd08"/><path d="M405.353,99.322H399.66v27.829h5.693Z" transform="translate(-252.678 -98.415)" fill="#dafd08"/><path d="M454.781,99.322h-6.006v17.357L435.919,99.322h-6.068v27.829h6.006v-18.14l13.012,18.14h5.912Z" transform="translate(-271.759 -98.415)" fill="#dafd08"/><path d="M534.93,100.692c-1.658-1.608-6.694-3.834-12.23-3.834-7.007,0-12.95,5.4-12.95,14.8,0,9.441,5.568,14.842,12.637,14.842,6.6,0,10.51-1.484,12.262-2.845V110.3H524.639v6.143h4.473v1.938c-1.032,1.278-4.1,1.443-6.287,1.443-4.723,0-7.226-3.174-7.226-8.163,0-4.947,2.659-8.163,7.1-8.163,3.222,0,6.1.948,9.509,3.752Z" transform="translate(-322.256 -96.857)" fill="#dafd08"/><path d="M637.51,99.322h-9.071l-9.7,10.513V99.322H613.05v27.829h5.693V118l4.723-4.989,7.664,14.141h8.133l-11.292-18.47Z" transform="translate(-358.715 -98.415)" fill="#dafd08"/><path d="M699.865,99.322h-5.693v27.829h5.693Z" transform="translate(-409.985 -98.415)" fill="#dafd08"/><path d="M749.293,99.322h-6.006v17.357L730.431,99.322h-6.068v27.829h6.006v-18.14l13.012,18.14h5.912Z" transform="translate(-429.066 -98.415)" fill="#dafd08"/><path d="M805.877,99.322v27.829h12.668c9.853,0,13.137-7.709,13.137-13.935,0-11.09-6.225-13.893-13.857-13.893Zm11.949,6.266c5.536,0,7.914,2.927,7.914,7.339,0,4.7-2.721,7.05-7.945,7.05H811.6V105.589Z" transform="translate(-480.583 -98.415)" fill="#dafd08"/><path d="M912.984,99.322h-6.006v17.357L894.123,99.322h-6.068v27.829h6.006v-18.14l13.012,18.14h5.912Z" transform="translate(-532.521 -98.415)" fill="#dafd08"/><path d="M991.806,99.322H969.568v27.829h22.676V120.06H975.292V116.1h14.421V109.67H975.292v-3.958h16.514Z" transform="translate(-584.037 -98.415)" fill="#dafd08"/><path d="M1060.674,105.268c-.846-5.607-3.691-8.41-10.918-8.41-8.6,0-11.7,3.545-11.7,9.029,0,7.751,4.567,8.658,8.446,8.864,4.316.206,8.791-.412,8.791,2.144,0,2.391-2.5,3.3-5.318,3.3-2.473,0-5.789-.742-6.1-2.968h-6.285c.28,4.164,1.564,6.06,4.221,7.833,1.535.948,3.6,1.4,7.728,1.4,8.35,0,11.728-4.081,11.728-10.678,0-5.69-2.907-7.627-9.163-7.627-1.972,0-3,.041-4.037.041-2.127,0-3.941-.041-3.941-2.432,0-1.938,1.972-2.845,5.663-2.845,2.44,0,4.379.454,5.192,2.639Z" transform="translate(-627.028 -96.857)" fill="#dafd08"/><path d="M1134.634,105.268c-.846-5.607-3.691-8.41-10.918-8.41-8.6,0-11.7,3.545-11.7,9.029,0,7.751,4.567,8.658,8.445,8.864,4.317.206,8.792-.412,8.792,2.144,0,2.391-2.5,3.3-5.318,3.3-2.473,0-5.788-.742-6.1-2.968h-6.285c.28,4.164,1.564,6.06,4.221,7.833,1.534.948,3.6,1.4,7.728,1.4,8.35,0,11.728-4.081,11.728-10.678,0-5.69-2.907-7.627-9.163-7.627-1.973,0-3,.041-4.037.041-2.127,0-3.941-.041-3.941-2.432,0-1.938,1.972-2.845,5.663-2.845,2.44,0,4.379.454,5.192,2.639Z" transform="translate(-673.771 -96.857)" fill="#dafd08"/><path d="M1240.426,99.322H1230.6l-5.288,17.852-4.88-17.852H1210.21v27.87h5.755V104.806l6.381,22.345h5.41l6.881-22.345v22.386h5.789Z" transform="translate(-707.299 -98.415)" fill="#dafd08"/><path d="M1328.321,99.322H1306.08v27.829h22.679V120.06h-16.953V116.1h14.418V109.67h-14.418v-3.958h16.516Z" transform="translate(-767.889 -98.415)" fill="#dafd08"/><path d="M1387.648,99.322h-7.286l-9.571,27.829h6.1l1.752-5.319h10.48l1.689,5.319h6.661Zm-3.691,6.6,3.065,9.729h-6.193Z" transform="translate(-808.786 -98.415)" fill="#dafd08"/><path d="M1476.192,99.322h-6.006v17.357l-12.858-17.357h-6.068v27.829h6.006v-18.14l13.012,18.14h5.914Z" transform="translate(-859.644 -98.415)" fill="#dafd08"/><path d="M1553.9,105.268c-.843-5.607-3.691-8.41-10.915-8.41-8.6,0-11.7,3.545-11.7,9.029,0,7.751,4.567,8.658,8.445,8.864,4.316.206,8.787-.412,8.787,2.144,0,2.391-2.5,3.3-5.317,3.3-2.469,0-5.785-.742-6.1-2.968h-6.289c.283,4.164,1.564,6.06,4.224,7.833,1.531.948,3.6,1.4,7.724,1.4,8.354,0,11.732-4.081,11.732-10.678,0-5.69-2.911-7.627-9.167-7.627-1.969,0-3,.041-4.033.041-2.127,0-3.941-.041-3.941-2.432,0-1.938,1.969-2.845,5.66-2.845,2.44,0,4.379.454,5.192,2.639Z" transform="translate(-909.926 -96.857)" fill="#dafd08"/></g><g transform="translate(74.986 1064.857)"><path d="M18.353,19.38c4.3-.607,6.109-3.8,6.109-8.335,0-5.22-2.587-8.457-7.792-8.457H.244V29.9H5.917V19.46h5.236L16.42,29.9h7.886ZM16.639,9.021a1.635,1.635,0,0,1,1.808,1.78c0,1.376-.748,1.983-1.777,1.983H5.917V9.021Z" transform="translate(-0.244 -1.698)" fill="#dafd08"/><path d="M99.353,2.588H77.192V29.9h22.6V22.94H82.9V19.056H97.265V12.744H82.9V8.859H99.353Z" transform="translate(-48.977 -1.698)" fill="#dafd08"/><path d="M168.215,8.414c-.842-5.5-3.678-8.254-10.878-8.254-8.571,0-11.657,3.48-11.657,8.861,0,7.607,4.551,8.5,8.415,8.7,4.3.2,8.758-.4,8.758,2.1,0,2.347-2.493,3.237-5.3,3.237-2.462,0-5.766-.728-6.078-2.913h-6.265c.281,4.087,1.558,5.948,4.208,7.688,1.527.931,3.584,1.376,7.7,1.376,8.322,0,11.688-4.006,11.688-10.48,0-5.584-2.9-7.486-9.132-7.486-1.964,0-2.992.04-4.021.04-2.119,0-3.927-.04-3.927-2.387,0-1.9,1.964-2.792,5.641-2.792,2.431,0,4.364.445,5.174,2.59Z" transform="translate(-92.055 -0.16)" fill="#dafd08"/><path d="M237.335,19.46c5.361,0,8.01-3.2,8.01-8.416s-2.587-8.457-7.792-8.457H221.128V29.9H226.8V19.46Zm.187-10.439a1.635,1.635,0,0,1,1.808,1.78c0,1.376-.748,1.983-1.777,1.983H226.8V9.021Z" transform="translate(-140.133 -1.698)" fill="#dafd08"/><path d="M317.5,2.588H295.337V29.9h22.6V22.94H301.041V19.056h14.369V12.744H301.041V8.859H317.5Z" transform="translate(-187.131 -1.698)" fill="#dafd08"/><path d="M387.777,8.253A12.059,12.059,0,0,0,376.463.16c-7.013,0-12.935,5.3-12.935,14.526,0,9.266,5.548,14.566,12.592,14.566,6.047,0,9.849-2.913,11.532-8.052l-4.862-2.954a6.262,6.262,0,0,1-6.234,4.451c-4.706,0-7.044-3.116-7.044-8.012,0-4.855,2.493-8.012,6.951-8.012a6.373,6.373,0,0,1,6.389,4.9Z" transform="translate(-230.317 -0.16)" fill="#dafd08"/><path d="M457.654,2.588H435.493V9.426h8.228V29.9h5.673V9.426h8.26Z" transform="translate(-275.894 -1.698)" fill="#dafd08"/><path d="M548.924,2.588H526.763V29.9h22.6V22.94H532.467V19.056h14.368V12.744H532.467V8.859h16.457Z" transform="translate(-330.149 -1.698)" fill="#dafd08"/><path d="M621.865,29.333,618.5,25.166a14.97,14.97,0,0,0,3.678-10.48c0-9.225-6.14-14.526-13.527-14.526s-13.527,5.3-13.527,14.526c0,9.266,6.14,14.566,13.527,14.566a14.057,14.057,0,0,0,4.519-.688l4.114,5.22Zm-5.61-14.647c0,4.9-2.556,8.012-7.6,8.012-5.018,0-7.574-3.116-7.574-8.012,0-4.855,2.556-8.012,7.574-8.012C613.7,6.675,616.255,9.831,616.255,14.686Z" transform="translate(-373.442 -0.16)" fill="#dafd08"/><path d="M703.2,2.588h-5.642V16.264c0,6.514-2.649,7.85-6.358,7.85-3.4,0-5.7-1.578-5.7-7.89V2.588h-5.922v14.85c0,9.306,4.675,13.353,11.563,13.353S703.2,26.825,703.2,17.356Z" transform="translate(-426.925 -1.698)" fill="#dafd08"/><path d="M766.232,2.588h-7.262L749.432,29.9h6.078l1.745-5.22H767.7l1.683,5.22h6.639Zm-3.678,6.474,3.055,9.549h-6.171Z" transform="translate(-471.168 -1.698)" fill="#dafd08"/><path d="M835.58,2.588h-5.673V29.9h20.6V22.536H835.58Z" transform="translate(-522.134 -1.698)" fill="#dafd08"/><path d="M898.915,2.588h-5.673V29.9h20.6V22.536h-14.93Z" transform="translate(-562.245 -1.698)" fill="#dafd08"/><path d="M966.019,2.588h-6.668l-5.392,11.694-5.61-11.694h-6.919l9.444,19.179V29.94H956.7V21.767Z" transform="translate(-592.763 -1.698)" fill="#dafd08"/><path d="M1060.036,2.588h-20.7V29.9h5.7V20.31h13.373V13.8h-13.373V8.738h14.994Z" transform="translate(-651.224 -1.698)" fill="#dafd08"/><path d="M1128.524,14.686c0-9.225-6.138-14.526-13.527-14.526s-13.527,5.3-13.527,14.526c0,9.266,6.142,14.566,13.527,14.566S1128.524,23.952,1128.524,14.686Zm-5.922,0c0,4.9-2.556,8.012-7.605,8.012-5.016,0-7.572-3.116-7.572-8.012,0-4.855,2.556-8.012,7.572-8.012C1120.046,6.675,1122.6,9.831,1122.6,14.686Z" transform="translate(-690.572 -0.16)" fill="#dafd08"/><path d="M1205.447,19.38c4.3-.607,6.109-3.8,6.109-8.335,0-5.22-2.585-8.457-7.792-8.457H1187.34V29.9h5.673V19.46h5.236l5.266,10.439h7.887Zm-1.712-10.358a1.635,1.635,0,0,1,1.808,1.78c0,1.376-.748,1.983-1.779,1.983h-10.751V9.021Z" transform="translate(-744.954 -1.698)" fill="#dafd08"/></g><g transform="translate(-105 1114.536)"><path d="M25.3,184.862H3.19v27.532h22.54v-7.015H8.88v-3.916H23.212V195.1H8.88v-3.916H25.3Z" transform="translate(-3.19 -183.965)" fill="#dafd08"/><path d="M94.82,184.862H88.478l-7.089,19.7-7.057-19.7H67.9l10.322,27.532h6.032Z" transform="translate(-44.229 -183.965)" fill="#dafd08"/><path d="M171.555,184.862H149.45v27.532h22.54v-7.015H155.139v-3.916h14.333V195.1H155.139v-3.916h16.416Z" transform="translate(-95.953 -183.965)" fill="#dafd08"/><path d="M237.489,201.789c4.29-.612,6.094-3.834,6.094-8.4,0-5.262-2.581-8.525-7.773-8.525H219.426v27.532h5.658V201.87h5.223l5.254,10.523h7.866Zm-1.71-10.442a1.639,1.639,0,0,1,1.8,1.794c0,1.387-.746,2-1.772,2H225.084v-3.793Z" transform="translate(-140.334 -183.965)" fill="#dafd08"/><path d="M313.144,184.862h-6.653l-5.379,11.788-5.6-11.788h-6.9l9.42,19.333v8.239h5.814V204.2Z" transform="translate(-184.216 -183.965)" fill="#dafd08"/><path d="M393.2,184.862h-5.658v27.532H393.2Z" transform="translate(-246.958 -183.965)" fill="#dafd08"/><path d="M442.51,184.862h-5.969v17.172l-12.778-17.172h-6.031v27.532H423.7V194.447l12.933,17.946h5.876Z" transform="translate(-266.106 -183.965)" fill="#dafd08"/><path d="M499.245,184.862v27.532h12.591c9.793,0,13.058-7.627,13.058-13.786,0-10.972-6.187-13.745-13.773-13.745Zm11.876,6.2c5.5,0,7.866,2.9,7.866,7.26,0,4.65-2.7,6.975-7.9,6.975h-6.156V191.062Z" transform="translate(-317.805 -183.965)" fill="#dafd08"/><path d="M588.1,184.862h-5.658v27.532H588.1Z" transform="translate(-370.572 -183.965)" fill="#dafd08"/><path d="M634.288,184.862h-6.342l-7.089,19.7-7.057-19.7h-6.436l10.322,27.532h6.031Z" transform="translate(-386.378 -183.965)" fill="#dafd08"/><path d="M695.6,184.862h-5.658v27.532H695.6Z" transform="translate(-438.749 -183.965)" fill="#dafd08"/><path d="M720.129,184.862v27.532H732.72c9.793,0,13.058-7.627,13.058-13.786,0-10.972-6.187-13.745-13.773-13.745Zm11.876,6.2c5.5,0,7.866,2.9,7.866,7.26,0,4.65-2.7,6.975-7.9,6.975h-6.156V191.062Z" transform="translate(-457.897 -183.965)" fill="#dafd08"/><path d="M825.533,184.862h-5.627v13.786c0,6.567-2.643,7.913-6.342,7.913-3.389,0-5.689-1.591-5.689-7.954V184.862h-5.907v14.969c0,9.381,4.663,13.46,11.534,13.46s12.032-4,12.032-13.541Z" transform="translate(-509.801 -183.965)" fill="#dafd08"/><path d="M888.585,184.862h-7.244l-9.514,27.532h6.063l1.741-5.262h10.415l1.679,5.262h6.622Zm-3.669,6.526,3.047,9.626h-6.156Z" transform="translate(-554.109 -183.965)" fill="#dafd08"/><path d="M957.96,184.862H952.3v27.532h20.552V204.97H957.96Z" transform="translate(-605.149 -183.965)" fill="#dafd08"/><path d="M1056.445,201.789c4.29-.612,6.094-3.834,6.094-8.4,0-5.262-2.583-8.525-7.773-8.525H1038.38v27.532h5.658V201.87h5.223l5.256,10.523h7.864Zm-1.712-10.442a1.639,1.639,0,0,1,1.8,1.794c0,1.387-.746,2-1.77,2h-10.728v-3.793Z" transform="translate(-659.742 -183.965)" fill="#dafd08"/><path d="M1137.433,184.862h-22.1v27.532h22.539v-7.015h-16.851v-3.916h14.334V195.1h-14.334v-3.916h16.416Z" transform="translate(-708.547 -183.965)" fill="#dafd08"/><path d="M1208.716,186.2c-1.646-1.591-6.653-3.793-12.154-3.793-6.964,0-12.871,5.343-12.871,14.643,0,9.34,5.534,14.683,12.56,14.683,6.558,0,10.446-1.468,12.187-2.814V195.706h-9.949v6.077h4.444V203.7c-1.024,1.264-4.071,1.428-6.247,1.428-4.7,0-7.184-3.14-7.184-8.076,0-4.895,2.645-8.076,7.059-8.076,3.2,0,6.061.938,9.451,3.711Z" transform="translate(-751.903 -182.409)" fill="#dafd08"/><path d="M1275.736,184.862h-7.242l-9.514,27.532h6.061l1.741-5.262H1277.2l1.679,5.262h6.62Zm-3.669,6.526,3.047,9.626h-6.156Z" transform="translate(-799.654 -183.965)" fill="#dafd08"/><path d="M1357.515,201.789c4.29-.612,6.093-3.834,6.093-8.4,0-5.262-2.582-8.525-7.772-8.525H1339.45v27.532h5.658V201.87h5.223l5.256,10.523h7.864Zm-1.712-10.442a1.639,1.639,0,0,1,1.8,1.794c0,1.387-.746,2-1.77,2h-10.728v-3.793Z" transform="translate(-850.691 -183.965)" fill="#dafd08"/><path d="M1416.4,184.862v27.532h12.589c9.8,0,13.058-7.627,13.058-13.786,0-10.972-6.185-13.745-13.771-13.745Zm11.876,6.2c5.5,0,7.864,2.9,7.864,7.26,0,4.65-2.7,6.975-7.9,6.975h-6.156V191.062Z" transform="translate(-899.495 -183.965)" fill="#dafd08"/><path d="M1504.239,184.862h-5.658v27.532h20.549V204.97h-14.89Z" transform="translate(-951.617 -183.965)" fill="#dafd08"/><path d="M1584.017,184.862H1561.91v27.532h22.542v-7.015H1567.6v-3.916h14.331V195.1H1567.6v-3.916h16.416Z" transform="translate(-991.783 -183.965)" fill="#dafd08"/><path d="M1652.875,190.73c-.838-5.547-3.669-8.321-10.849-8.321-8.552,0-11.628,3.508-11.628,8.932,0,7.668,4.539,8.565,8.395,8.769,4.291.2,8.734-.408,8.734,2.121,0,2.366-2.487,3.263-5.285,3.263-2.454,0-5.75-.734-6.061-2.937h-6.251c.281,4.12,1.555,6,4.2,7.749,1.521.938,3.573,1.387,7.677,1.387,8.3,0,11.661-4.038,11.661-10.564,0-5.629-2.893-7.546-9.111-7.546-1.957,0-2.985.041-4.009.041-2.114,0-3.917-.041-3.917-2.406,0-1.917,1.957-2.815,5.625-2.815,2.425,0,4.353.449,5.161,2.61Z" transform="translate(-1034.923 -182.409)" fill="#dafd08"/><path d="M1726.834,190.73c-.838-5.547-3.669-8.321-10.848-8.321-8.552,0-11.628,3.508-11.628,8.932,0,7.668,4.539,8.565,8.394,8.769,4.29.2,8.734-.408,8.734,2.121,0,2.366-2.487,3.263-5.285,3.263-2.454,0-5.75-.734-6.061-2.937h-6.251c.282,4.12,1.554,6,4.2,7.749,1.522.938,3.574,1.387,7.677,1.387,8.3,0,11.661-4.038,11.661-10.564,0-5.629-2.893-7.546-9.111-7.546-1.957,0-2.985.041-4.009.041-2.114,0-3.917-.041-3.917-2.406,0-1.917,1.957-2.815,5.626-2.815,2.425,0,4.353.449,5.161,2.61Z" transform="translate(-1081.831 -182.409)" fill="#dafd08"/></g><g transform="translate(160.378 1165.09)"><path d="M28.078,289.643c0-9.52-6.317-14.99-13.917-14.99S.244,280.123.244,289.643c0,9.562,6.317,15.032,13.917,15.032S28.078,299.205,28.078,289.643Zm-6.093,0c0,5.053-2.629,8.268-7.824,8.268-5.163,0-7.792-3.215-7.792-8.268,0-5.011,2.629-8.267,7.792-8.267C19.356,281.376,21.985,284.632,21.985,289.643Z" transform="translate(-0.244 -274.653)" fill="#dafd08"/><path d="M107.4,277.088H86.112v28.185H91.98v-9.9h13.756v-6.723H91.98v-5.219H107.4Z" transform="translate(-53.719 -276.169)" fill="#dafd08"/><path d="M198.824,289.643c0-9.52-6.317-14.99-13.917-14.99s-13.917,5.47-13.917,14.99c0,9.562,6.317,15.032,13.917,15.032S198.824,299.205,198.824,289.643Zm-6.093,0c0,5.053-2.629,8.268-7.824,8.268-5.163,0-7.792-3.215-7.792-8.268,0-5.011,2.629-8.267,7.792-8.267C190.1,281.376,192.732,284.632,192.732,289.643Z" transform="translate(-106.577 -274.653)" fill="#dafd08"/><path d="M280.825,277.088h-5.8V291.2c0,6.723-2.726,8.1-6.542,8.1-3.5,0-5.868-1.629-5.868-8.143V277.088h-6.093v15.324c0,9.6,4.81,13.779,11.9,13.779s12.41-4.092,12.41-13.862Z" transform="translate(-159.84 -276.169)" fill="#dafd08"/><path d="M352.852,294.417c4.425-.627,6.285-3.925,6.285-8.6,0-5.386-2.661-8.727-8.017-8.727h-16.9v28.185h5.836V294.5h5.387l5.419,10.773h8.113Zm-1.764-10.689a1.684,1.684,0,0,1,1.86,1.837c0,1.42-.77,2.046-1.828,2.046H340.058v-3.883Z" transform="translate(-208.229 -276.169)" fill="#dafd08"/></g></g><path d="M22.464,33.487c2.94,0,3.234,1.127,2.989,3.185l1.225.1c.98-3.969,1.862-7.1,2.793-10.976A19.262,19.262,0,0,0,23.3,24.667c-8.869-.049-14.21,7.056-14.21,14.6s2.94,11.221,7.4,11.221c5.733,0,8.967-5.488,10.878-11.515l-.833-.588c-1.372,2.3-5.537,3.479-10.388,3.479-3.479,0-5.194-.784-5.194-2.6C10.949,35.986,16.29,33.487,22.464,33.487Zm14.994-9.506c0,3.969-10.29,19.8-11.123,26.019h9.114c2.891-13.328,6.174-16.464,10.094-16.464,1.813,0,2.646.637,2.646,1.372,0,2.646-7.252,6.419-7.252,10.878a5,5,0,0,0,4.8,4.753c3.136,0,5.488-2.5,7.791-11.172l-.882-.392c-.882,2.205-1.617,2.6-2.646,2.6a1.51,1.51,0,0,1-1.568-1.666c0-2.254,3.087-7.35,3.087-10.143,0-2.646-1.764-5.194-4.312-5.194-3.332,0-6.86,3.871-9.8,16.366l-.49-.147c1.078-7.938,2.6-14.063,2.6-20.825,0-2.205-1.078-3.283-2.45-3.283-2.205,0-4.459,2.842-6.419,6.517l.637.735A8.843,8.843,0,0,1,35.4,22.609C36.576,22.609,37.458,23.05,37.458,23.981Zm24.01,17.787c-3.92,0-5.635-.784-5.635-2.3,0-2.989,4.851-6.125,11.515-6.125,3.871,0,5.733.686,5.733,2.058C73.081,38.436,68.426,41.768,61.468,41.768Zm5.586-17.2c-7.1,0-12.838,7.3-12.838,14.553,0,7.5,3.381,11.368,7.644,11.368,7.154,0,12.838-7.35,12.838-14.7C74.7,28.342,71.415,24.569,67.054,24.569Zm16.219,17.2c-3.92,0-5.635-.784-5.635-2.3,0-2.989,4.851-6.125,11.515-6.125,3.871,0,5.733.686,5.733,2.058C94.886,38.436,90.231,41.768,83.273,41.768Zm5.586-17.2c-7.1,0-12.838,7.3-12.838,14.553,0,7.5,3.381,11.368,7.644,11.368,7.154,0,12.838-7.35,12.838-14.7C96.5,28.342,93.22,24.569,88.859,24.569Zm21.609,0c-7.2,0-11.123,4.753-11.123,9.408,0,5,12.936,6.566,12.936,9.359,0,.588-.343,1.127-1.96,1.127-5,0-10.976-1.617-10.78-6.517H98.366a78.006,78.006,0,0,1-1.911,10.388,10.733,10.733,0,0,0,7.007,2.205c6.223,0,12.348-7.154,12.348-11.221,0-5.733-14.7-2.156-14.7-5.194,0-1.029,1.764-2.058,7.056-2.058,4.8,0,6.517.49,6.125,3.332h1.176a80.83,80.83,0,0,1,2.205-9.8A23.216,23.216,0,0,0,110.468,24.569Zm15.386-1.029c3.234,0,5.292-1.617,5.292-5.047a3.329,3.329,0,0,0-3.675-3.675c-3.234,0-5.243,1.519-5.243,4.8C122.229,22.266,123.649,23.54,125.854,23.54Zm-1.96,11.123c-.049,2.3-7.007,6.664-7.007,11.319a4.916,4.916,0,0,0,4.851,4.557c2.842,0,5.194-2.6,7.546-11.417l-.882-.392c-.784,1.911-1.421,2.45-2.45,2.45a1.5,1.5,0,0,1-1.666-1.617c0-2.254,2.744-7.448,2.744-10.29,0-2.744-1.715-4.7-3.43-4.7-2.793,0-4.655,3.675-6.86,10.78l.98.392c.637-1.96,1.911-2.352,3.773-2.352C123.16,33.389,123.895,33.879,123.895,34.663Zm23.667,15.876c3.136,0,5.488-2.6,7.84-11.417l-.833-.343c-.931,2.4-1.666,2.793-2.744,2.793a1.521,1.521,0,0,1-1.617-1.666c0-2.254,3.087-7.35,3.087-10.143,0-2.646-1.764-5.145-4.312-5.145-3.479,0-6.566,4.018-9.947,16.219l-.392-.1a47.192,47.192,0,0,0,.931-6.958c0-6.615-1.47-9.212-3.332-9.212-2.744,0-4.606,3.724-6.811,10.78l.931.441c.686-2.009,2.009-2.4,4.067-2.4,2.156,0,3.136.637,3.136,1.421,0,2.058-7.5,9.359-9.506,15.19h9.114c2.94-13.377,6.321-16.464,10.192-16.464,1.764,0,2.6.637,2.6,1.372,0,2.646-7.2,6.419-7.2,10.878A5,5,0,0,0,147.562,50.539Zm9.163,8.036c8.232,0,15.435-4.508,18.522-16.219a85.961,85.961,0,0,0,2.6-17.836c-15.974.147-21.56,7.742-21.56,14.994,0,6.713,2.058,10.192,4.263,10.192,2.548,0,6.468-4.508,12.2-14.651l.686.2A56.334,56.334,0,0,0,170.4,48.383c-.343,2.4-.882,3.381-2.842,3.381a87.3,87.3,0,0,1-13.671-1.372l-.833,7.938A29.58,29.58,0,0,0,156.725,58.575Zm4.851-17.052c-2.009,0-3.626-.784-3.626-2.009,0-1.911,3.185-4.459,14.8-5.929C168.387,40.2,163.585,41.523,161.576,41.523Z" transform="translate(144 223)" fill="#dafd08"/><path d="M14.731,45.786c0,2.548,1.372,4.753,2.989,4.753,2.6,0,4.361-2.45,6.713-10.976l-.931-.392c-1.078,2.548-1.421,3.136-2.352,3.136A1.96,1.96,0,0,1,19.288,40.1c0-2.989,1.813-9.065,3.332-14.259a23.293,23.293,0,0,0,.833-6.419c0-1.911-.931-2.744-2.3-2.744-2.254,0-4.508,2.4-6.566,5.635l.245.98a11.174,11.174,0,0,1,4.508-1.323c1.225,0,1.862.539,1.862,1.568a9.541,9.541,0,0,1-.1,1.568C6.744,25.647,1.5,32.654,1.5,39.514c0,7.252,2.058,11.074,4.263,11.074,2.548,0,6.321-4.9,12.2-15.533l.588.2C17.034,38.583,14.731,43.581,14.731,45.786ZM6.842,41.474c-2.058,0-3.675-.735-3.675-2.009,0-1.813,3.185-4.361,14.6-5.831C14.976,38.632,11.644,41.474,6.842,41.474ZM33.792,23.54c3.234,0,5.292-1.617,5.292-5.047a3.329,3.329,0,0,0-3.675-3.675c-3.234,0-5.243,1.519-5.243,4.8C30.166,22.266,31.587,23.54,33.792,23.54Zm-1.96,11.123c-.049,2.3-7.007,6.664-7.007,11.319a4.916,4.916,0,0,0,4.851,4.557c2.842,0,5.194-2.6,7.546-11.417l-.882-.392c-.784,1.911-1.421,2.45-2.45,2.45a1.5,1.5,0,0,1-1.666-1.617c0-2.254,2.744-7.448,2.744-10.29,0-2.744-1.715-4.7-3.43-4.7-2.793,0-4.655,3.675-6.86,10.78l.98.392c.637-1.96,1.911-2.352,3.773-2.352C31.1,33.389,31.832,33.879,31.832,34.663ZM53.44,22.9l.49-6.027a13.487,13.487,0,0,0-2.842-.392c-2.94,0-5.831,1.715-7.2,7.84-.049.2-.1.392-.147.637a10.373,10.373,0,0,1-5.831,7.252v1.176c1.274-.049,2.695-.049,4.165-.049-1.323,7.007-2.6,14.406-3.381,17.542-.343,1.127-.588,1.666-1.127,1.666-.686,0-.98-.441-1.372-2.352l-.833.2c.049,5.88,1.96,8.33,6.027,8.33,3.43,0,5.88-2.45,5.88-7.154,0-5.635-2.6-11.858-3.528-18.228,2.695.049,5.439.147,7.644.294L53,25.059H45.013c.49-1.96,2.2-2.695,4.361-2.695A13.1,13.1,0,0,1,53.44,22.9Zm14.308,0,.49-6.027a13.487,13.487,0,0,0-2.842-.392c-2.94,0-5.831,1.715-7.2,7.84-.049.2-.1.392-.147.637a10.373,10.373,0,0,1-5.831,7.252v1.176c1.274-.049,2.695-.049,4.165-.049-1.323,7.007-2.6,14.406-3.381,17.542-.343,1.127-.588,1.666-1.127,1.666-.686,0-.98-.441-1.372-2.352l-.833.2c.049,5.88,1.96,8.33,6.027,8.33,3.43,0,5.88-2.45,5.88-7.154,0-5.635-2.6-11.858-3.528-18.228,2.695.049,5.439.147,7.644.294l1.617-8.575H59.32c.49-1.96,2.2-2.695,4.361-2.695A13.1,13.1,0,0,1,67.748,22.9Zm9.7,9.947c2.45,0,3.381.98,3.381,1.666,0,1.274-3.577,2.156-12.74,4.067C68.484,36.035,72.5,32.85,77.451,32.85ZM73.825,50.539c5.341,0,9.751-4.9,12.593-11.809l-.833-.588c-1.519,2.3-7.6,3.528-11.613,3.528-2.4,0-5.586-.588-5.88-2.352,13.23-1.862,18.081-3.185,18.081-7.84a7.011,7.011,0,0,0-7.056-6.909c-5.684,0-12.691,6.076-12.691,14.259C66.425,46.962,69.464,50.539,73.825,50.539Zm32.389-25.97c-3.675,0-7.252,3.577-10.682,20.335l-.441-.1c.735-4.753,1.617-8.722,1.617-11.025,0-6.615-1.421-9.212-3.234-9.212-2.744,0-4.606,3.675-6.811,10.78l.98.392c.637-1.96,1.96-2.352,4.018-2.352,2.156,0,3.136.637,3.136,1.47,0,2.058-7.5,9.31-9.506,15.141h9.8c1.764-11.074,3.773-15.386,10-14.357ZM116.9,32.85c2.45,0,3.381.98,3.381,1.666,0,1.274-3.577,2.156-12.74,4.067C107.929,36.035,111.947,32.85,116.9,32.85ZM113.27,50.539c5.341,0,9.751-4.9,12.593-11.809l-.833-.588c-1.519,2.3-7.6,3.528-11.613,3.528-2.4,0-5.586-.588-5.88-2.352,13.23-1.862,18.081-3.185,18.081-7.84a7.011,7.011,0,0,0-7.056-6.909c-5.684,0-12.691,6.076-12.691,14.259C105.87,46.962,108.909,50.539,113.27,50.539Zm30.968,0c3.136,0,5.488-2.6,7.84-11.417l-.833-.343c-.931,2.4-1.666,2.793-2.744,2.793a1.521,1.521,0,0,1-1.617-1.666c0-2.254,3.087-7.35,3.087-10.143,0-2.646-1.764-5.145-4.312-5.145-3.479,0-6.566,4.018-9.947,16.219l-.392-.1a47.192,47.192,0,0,0,.931-6.958c0-6.615-1.47-9.212-3.332-9.212-2.744,0-4.606,3.724-6.811,10.78l.931.441c.686-2.009,2.009-2.4,4.067-2.4,2.156,0,3.136.637,3.136,1.421,0,2.058-7.5,9.359-9.506,15.19h9.114c2.94-13.377,6.321-16.464,10.192-16.464,1.764,0,2.6.637,2.6,1.372,0,2.646-7.2,6.419-7.2,10.878A5,5,0,0,0,144.238,50.539Zm21.9-17.052c2.94,0,3.234,1.127,2.989,3.185l1.225.1c.98-3.969,1.862-7.1,2.793-10.976a19.262,19.262,0,0,0-6.174-1.127c-8.869-.049-14.21,7.056-14.21,14.6s2.94,11.221,7.4,11.221c5.733,0,8.967-5.488,10.878-11.515l-.833-.588c-1.372,2.3-5.537,3.479-10.388,3.479-3.479,0-5.194-.784-5.194-2.6C154.626,35.986,159.967,33.487,166.141,33.487Zm17.444-.637c2.45,0,3.381.98,3.381,1.666,0,1.274-3.577,2.156-12.74,4.067C174.617,36.035,178.635,32.85,183.585,32.85Zm-3.626,17.689c5.341,0,9.751-4.9,12.593-11.809l-.833-.588c-1.519,2.3-7.6,3.528-11.613,3.528-2.4,0-5.586-.588-5.88-2.352,13.23-1.862,18.081-3.185,18.081-7.84a7.011,7.011,0,0,0-7.056-6.909c-5.684,0-12.691,6.076-12.691,14.259C172.559,46.962,175.6,50.539,179.958,50.539Zm26.117-25.97c-7.2,0-11.123,4.753-11.123,9.408,0,5,12.936,6.566,12.936,9.359,0,.588-.343,1.127-1.96,1.127-5,0-10.976-1.617-10.78-6.517h-1.176a78,78,0,0,1-1.911,10.388,10.733,10.733,0,0,0,7.007,2.205c6.223,0,12.348-7.154,12.348-11.221,0-5.733-14.7-2.156-14.7-5.194,0-1.029,1.764-2.058,7.056-2.058,4.8,0,6.517.49,6.125,3.332h1.176a80.833,80.833,0,0,1,2.205-9.8A23.216,23.216,0,0,0,206.076,24.569Zm10.486,25.774c3.724,0,6.517-1.96,6.517-5.929,0-3.087-1.764-4.655-4.9-4.655-3.675,0-6.419,1.862-6.419,5.88C211.759,48.677,213.523,50.343,216.561,50.343Z" transform="translate(576 324)" fill="#dafd08"/></g></g></svg>