<svg xmlns="http://www.w3.org/2000/svg" xmlns:xlink="http://www.w3.org/1999/xlink" width="612" height="92" viewBox="0 0 612 92"><defs><clipPath id="b"><rect width="612" height="92"/></clipPath></defs><g id="a" clip-path="url(#b)"><g transform="translate(10.322 -6951)"><g transform="translate(-7.302 6952.938)"><path d="M206.167,7113.482c-.858-6.571-3.751-9.862-11.094-9.862-8.741,0-11.888,4.059-11.888,10.4,0,6.951,2.892,8.834,5.881,9.659,5.118,1.4,12.237-.97,12.237,3.573,0,3.145-2.606,4.494-6.071,4.494-3.178,0-6.516-1.2-6.834-4.253h-5.69c.286,4.834,1.589,7.155,4.291,9.183,1.525,1.108,3.655,1.642,7.851,1.642,8.487,0,11.92-4.688,11.92-11.979a10.4,10.4,0,0,0-1.494-5.99c-1.113-1.6-2.48-2.465-5.086-2.8a44.735,44.735,0,0,0-6.23-.291c-3.084,0-5.277-.1-5.277-3.379,0-2.611,2.13-3.872,6.421-3.872,2.988,0,5.055.874,5.881,3.776Z" transform="translate(-182.708 -7103.62)" fill="#60f3c3"/><path d="M244.711,7120.967c0-11.018-6.262-17.347-13.8-17.347s-13.8,6.33-13.8,17.347c0,11.066,6.261,17.4,13.8,17.4S244.711,7132.033,244.711,7120.967Zm-5.436,0c0,6.378-2.988,10.387-8.36,10.387s-8.36-4.009-8.36-10.387,2.988-10.388,8.36-10.388S239.275,7114.589,239.275,7120.967Z" transform="translate(-189.303 -7103.62)" fill="#60f3c3"/><path d="M383.32,7113.288c-1.621-5.368-6.008-9.668-11.571-9.668-7.12,0-13.16,6.33-13.16,17.347,0,11.066,5.658,17.4,12.842,17.4,6.167,0,10.044-3.476,11.761-9.611l-4.451-3.145c-1.048,3.242-3.147,5.748-6.929,5.748-5.022,0-7.788-4.009-7.788-10.387s2.956-10.388,7.724-10.388c3.528,0,6.294,2.612,7.057,6.234Z" transform="translate(-216.417 -7103.62)" fill="#60f3c3"/><path d="M407.945,7104.939h-6.612l-10.14,32.618h5.563l2.035-6.669H410.3l2,6.669h6.04Zm-3.338,6.912,3.751,12.562h-7.6Z" transform="translate(-222.666 -7103.872)" fill="#60f3c3"/><path d="M453.835,7104.939h-5.468v21.7l-14.336-21.7H428.5v32.618h5.468v-22.473l14.463,22.473h5.4Z" transform="translate(-229.816 -7103.872)" fill="#60f3c3"/><path d="M477,7104.939v32.618h12.874c10.013,0,13.351-9.038,13.351-16.337,0-13-6.326-16.28-14.082-16.28Zm12.142,6.572c5.817,0,8.678,3.427,8.678,9.417,0,5.707-2.829,9.086-8.614,9.086h-6.993v-18.5Z" transform="translate(-239.112 -7103.872)" fill="#60f3c3"/><path d="M541.941,7120.967c0-11.018-6.262-17.347-13.8-17.347s-13.8,6.33-13.8,17.347c0,11.066,6.262,17.4,13.8,17.4S541.941,7132.033,541.941,7120.967Zm-5.435,0c0,6.378-2.988,10.387-8.36,10.387s-8.361-4.009-8.361-10.387,2.988-10.388,8.361-10.388S536.506,7114.589,536.506,7120.967Z" transform="translate(-246.27 -7103.62)" fill="#60f3c3"/><path d="M206.167,7174.931c-.858-6.5-3.751-9.74-11.094-9.74-8.741,0-11.888,4.009-11.888,10.266,0,6.871,2.892,8.738,5.881,9.547,5.118,1.382,12.237-.954,12.237,3.532,0,3.1-2.606,4.445-6.071,4.445-3.178,0-6.516-1.2-6.834-4.2h-5.69c.286,4.769,1.589,7.064,4.291,9.069,1.525,1.1,3.655,1.625,7.851,1.625,8.487,0,11.92-4.632,11.92-11.844a10.187,10.187,0,0,0-1.494-5.917c-1.113-1.575-2.48-2.44-5.086-2.771a44.513,44.513,0,0,0-6.23-.292c-3.084,0-5.277-.089-5.277-3.338,0-2.579,2.13-3.823,6.421-3.823,2.988,0,5.055.864,5.881,3.727Z" transform="translate(214.91 -7162.677)" fill="#60f3c3"/><path d="M230.989,7166.49h-6.611l-10.141,32.228H219.8l2.035-6.588h11.507l2,6.588h6.04Zm-3.338,6.823,3.751,12.416h-7.6Z" transform="translate(208.867 -7162.926)" fill="#60f3c3"/><path d="M282.251,7166.49h-8.932L266.9,7188.4l-6.071-21.914h-9.282v32.228h5.245v-26.545l7.375,26.545h4.958l7.851-26.545v26.545h5.277Z" transform="translate(201.716 -7162.926)" fill="#60f3c3"/><path d="M318.576,7166.49h-22.6v32.228h23.046v-7.356H301.189v-5.819h15.258v-6.734H301.189v-5.682h17.387Z" transform="translate(193.201 -7162.926)" fill="#60f3c3"/><path d="M360.208,7166.49H339.1v32.228h5.213v-11.793h14.241v-6.878H344.315v-7.065h15.893Z" transform="translate(-339.102 -7115.669)" fill="#60f3c3"/><path d="M395.476,7182.327c0-10.881-6.261-17.137-13.8-17.137s-13.8,6.256-13.8,17.137c0,10.937,6.262,17.192,13.8,17.192S395.476,7193.264,395.476,7182.327Zm-5.435,0c0,6.3-2.988,10.266-8.36,10.266s-8.36-3.961-8.36-10.266,2.988-10.266,8.36-10.266S390.041,7176.03,390.041,7182.327Z" transform="translate(-344.618 -7115.42)" fill="#60f3c3"/><path d="M425.767,7186.351c4.418-.719,6.58-4.349,6.58-9.885,0-6.16-2.638-9.976-7.947-9.976H407.649v32.228h5.181V7186.4h6.357L425,7198.718h7.215Zm-1.4-12.893c1.526,0,2.511.953,2.511,2.772,0,2.005-.985,3.007-2.511,3.007H412.83v-5.779Z" transform="translate(-352.24 -7115.669)" fill="#60f3c3"/><path d="M583.384,7106.73h-22.6v7.21h8.71v25.019h5.181V7113.94h8.709Z" transform="translate(-255.169 -7104.216)" fill="#60f3c3"/><path d="M616.779,7106.73H611.6v11.7H597.707v-11.7h-5.181v32.229h5.181V7125.45H611.6v13.508h5.181Z" transform="translate(-261.253 -7104.216)" fill="#60f3c3"/><path d="M651.531,7106.73h-22.6v32.229h23.045v-7.348H634.144v-5.828H649.4v-6.734H634.144v-5.683h17.388Z" transform="translate(-268.23 -7104.216)" fill="#60f3c3"/><path d="M475.956,7166.49h-22.6v32.228H476.4v-7.356H458.57v-5.819h15.257v-6.734H458.57v-5.682h17.387Z" transform="translate(-361 -7115.669)" fill="#60f3c3"/><path d="M510.786,7166.49H505l-7.914,24.016-7.915-24.016H483.29l10.9,32.228h5.531Z" transform="translate(-366.737 -7115.669)" fill="#60f3c3"/><path d="M543.659,7166.49h-22.6v32.228H544.1v-7.356H526.272v-5.819h15.257v-6.734H526.272v-5.682h17.387Z" transform="translate(-373.976 -7115.669)" fill="#60f3c3"/><path d="M571.588,7186.351c4.418-.719,6.58-4.349,6.58-9.885,0-6.16-2.638-9.976-7.946-9.976H553.47v32.228h5.181V7186.4h6.358l5.817,12.319h7.215Zm-1.4-12.893c1.526,0,2.511.953,2.511,2.772,0,2.005-.985,3.007-2.511,3.007H558.651v-5.779Z" transform="translate(-380.187 -7115.669)" fill="#60f3c3"/><path d="M610.6,7166.49h-6.071l-6.23,14.607-6.453-14.607h-6.325l9.949,22.294v9.934h5.341v-9.934Z" transform="translate(-386.329 -7115.669)" fill="#60f3c3"/><path d="M640.372,7166.49h-22.6v7.21h8.709v25.018h5.181V7173.7h8.71Z" transform="translate(-392.512 -7115.669)" fill="#60f3c3"/><path d="M673.766,7166.49h-5.182v11.7H654.694v-11.7h-5.181v32.228h5.181V7185.2h13.891v13.515h5.182Z" transform="translate(-398.595 -7115.669)" fill="#60f3c3"/><path d="M691.564,7166.49h-5.213v32.228h5.213Z" transform="translate(-405.655 -7115.669)" fill="#60f3c3"/><path d="M725,7166.49h-5.468v21.437L705.2,7166.49h-5.531v32.228h5.468v-22.2l14.463,22.2H725Z" transform="translate(-408.207 -7115.669)" fill="#60f3c3"/><path d="M762.263,7169.629c-1.652-1.86-6.771-4.438-12.4-4.438-7.12,0-13.16,6.256-13.16,17.137,0,10.937,5.658,17.192,12.842,17.192,6.707,0,10.712-1.955,12.461-3.628v-14.9H751.836v6.538H756.8v3.007c-1.113,1.528-4.164,2.054-6.866,2.054-5.022,0-7.915-3.961-7.915-10.266s3.051-10.266,7.852-10.266c3.528,0,6.675,1.293,9.949,4.348Z" transform="translate(-415.306 -7115.42)" fill="#60f3c3"/><path d="M197.751,7227.549H191.14L181,7259.778h5.563l2.034-6.6H200.1l2,6.6h6.039Zm-3.337,6.823,3.751,12.417h-7.6Z" transform="translate(178.205 -7177.773)" fill="#60f3c3"/><path d="M236.426,7247.411c4.418-.72,6.58-4.349,6.58-9.886,0-6.16-2.638-9.976-7.947-9.976H218.308v32.229h5.181v-12.319h6.357l5.817,12.319h7.216Zm-1.4-12.894c1.526,0,2.512.954,2.512,2.764,0,2.013-.985,3.016-2.512,3.016H223.489v-5.78Z" transform="translate(171.055 -7177.773)" fill="#60f3c3"/><path d="M280.059,7243.387c0-10.888-6.262-17.137-13.8-17.137s-13.8,6.249-13.8,17.137c0,10.937,6.262,17.184,13.8,17.184S280.059,7254.323,280.059,7243.387Zm-5.436,0c0,6.3-2.988,10.266-8.36,10.266s-8.36-3.961-8.36-10.266,2.988-10.267,8.36-10.267S274.623,7237.082,274.623,7243.387Z" transform="translate(164.508 -7177.524)" fill="#60f3c3"/><path d="M316.168,7227.549h-5.149v16.28c0,8.019-2.988,9.927-7.088,9.927-3.878,0-6.453-2.191-6.453-9.976v-16.231h-5.4v17.518c0,10.985,4.768,15.754,11.793,15.754s12.3-4.673,12.3-15.852Z" transform="translate(156.917 -7177.773)" fill="#60f3c3"/><path d="M353.433,7227.549h-5.468v21.437l-14.336-21.437H328.1v32.229h5.467v-22.205l14.464,22.205h5.4Z" transform="translate(150.012 -7177.773)" fill="#60f3c3"/><path d="M365.886,7227.549v32.229H378.76c10.013,0,13.351-8.932,13.351-16.142,0-12.845-6.325-16.087-14.081-16.087Zm12.143,6.491c5.817,0,8.678,3.387,8.678,9.312,0,5.633-2.829,8.974-8.615,8.974H371.1v-18.286Z" transform="translate(142.77 -7177.773)" fill="#60f3c3"/></g><text transform="translate(57.979 6985)" fill="#60f3c3" font-size="62" font-family="SwearDisplay-BoldCilati, Swear Display" font-weight="700" letter-spacing="0.01em"><tspan x="0" y="0">we</tspan></text><text transform="translate(541.678 7034.589)" fill="#60f3c3" font-size="62" font-family="SwearDisplay-BoldCilati, Swear Display" font-weight="700" letter-spacing="0.01em"><tspan x="0" y="0">us</tspan></text></g></g></svg>