<svg xmlns="http://www.w3.org/2000/svg" xmlns:xlink="http://www.w3.org/1999/xlink" width="215" height="342" viewBox="0 0 215 342"><defs><clipPath id="b"><rect width="215" height="342"/></clipPath></defs><g id="a" clip-path="url(#b)"><g transform="translate(20.756 313.389)"><g transform="translate(0)"><path d="M34.659,779.794a11.733,11.733,0,0,0-11.043-7.434c-6.845,0-12.625,4.869-12.625,13.345,0,8.512,5.415,13.382,12.291,13.382,5.9,0,9.614-2.677,11.256-7.4l-4.746-2.713a6.083,6.083,0,0,1-6.085,4.089c-4.594,0-6.876-2.862-6.876-7.36,0-4.461,2.434-7.36,6.784-7.36a6.165,6.165,0,0,1,6.237,4.5Z" transform="translate(-10.99 -772.36)" fill="#dafd08"/><path d="M111.608,774.645h-5.537v8.772H93.932v-8.772H88.4v25.091h5.537V789.513h12.139v10.222h5.537Z" transform="translate(-60.691 -773.827)" fill="#dafd08"/><path d="M178.049,774.645H170.96l-9.309,25.091h5.932l1.7-4.8h10.192l1.643,4.8h6.48Zm-3.59,5.948,2.981,8.772h-6.024Z" transform="translate(-107.727 -773.827)" fill="#dafd08"/><path d="M266.373,774.645h-5.841v15.649l-12.5-15.649h-5.9v25.091h5.841V783.38l12.656,16.356h5.75Z" transform="translate(-159.399 -773.827)" fill="#dafd08"/><path d="M346.514,775.817c-1.612-1.45-6.51-3.457-11.9-3.457-6.815,0-12.595,4.869-12.595,13.345,0,8.512,5.415,13.382,12.291,13.382,6.419,0,10.222-1.338,11.926-2.565V784.478h-9.735v5.539h4.35v1.747c-1,1.152-3.985,1.3-6.115,1.3-4.594,0-7.028-2.862-7.028-7.36,0-4.461,2.586-7.36,6.906-7.36a14.338,14.338,0,0,1,9.249,3.383Z" transform="translate(-210.701 -772.36)" fill="#dafd08"/><path d="M424.211,774.645H402.58v25.091h22.056v-6.393H408.147v-3.569h14.025v-5.8H408.147v-3.568h16.063Z" transform="translate(-262.425 -773.827)" fill="#dafd08"/><path d="M478.913,831.6a3.171,3.171,0,0,0-3.194-3.16,3.16,3.16,0,1,0,0,6.319A3.2,3.2,0,0,0,478.913,831.6Z" transform="translate(-307.355 -808.37)" fill="#dafd08"/></g></g><g transform="translate(13.044 2.884)"><path d="M36.751,3.217h-6.3L25.738,20.5,20.931,3.217H15.576L10.891,20.5,6.328,3.217H0l7.514,26.4H13.9l4.29-15.76L22.6,29.614h6.6Z" transform="translate(0 -2.357)" fill="#dafd08"/><path d="M132.32,3.217H110.69v26.4h22.056V22.888H116.257V19.134h14.025v-6.1H116.257V9.279H132.32Z" transform="translate(-71.072 -2.357)" fill="#dafd08"/><path d="M203.41,3.217v26.4h12.321c9.583,0,12.777-7.313,12.777-13.218,0-10.52-6.054-13.179-13.477-13.179Zm11.621,5.944c5.385,0,7.7,2.777,7.7,6.961,0,4.458-2.647,6.687-7.727,6.687h-6.024V9.161Z" transform="translate(-130.607 -2.357)" fill="#dafd08"/><path d="M310.379,14.853c0-8.916-5.993-14.039-13.2-14.039s-13.2,5.123-13.2,14.039c0,8.955,5.993,14.078,13.2,14.078S310.379,23.808,310.379,14.853Zm-5.78,0c0,4.732-2.495,7.743-7.423,7.743-4.9,0-7.393-3.011-7.393-7.743,0-4.693,2.495-7.743,7.393-7.743C302.1,7.11,304.6,10.16,304.6,14.853Z" transform="translate(-182.335 -0.813)" fill="#dafd08"/><path d="M394.087,3.217h-5.841V19.681l-12.5-16.464h-5.9v26.4h5.841V12.407l12.656,17.207h5.75Z" transform="translate(-237.469 -2.357)" fill="#dafd08"/><path d="M452.04.813h-4.107l-1.339,9.7h2.586Z" transform="translate(-286.752 -0.813)" fill="#dafd08"/><path d="M487.218,3.217h-21.63V9.826h8.032V29.614h5.537V9.826h8.062Z" transform="translate(-298.947 -2.357)" fill="#dafd08"/></g><g transform="translate(23.289 45.271)"><path d="M337.445,89.013h-21.63v6.531h8.032V115.1h5.537V95.545h8.062Z" transform="translate(-205.786 -88.163)" fill="#dafd08"/><path d="M407.473,100.512c0-8.812-5.993-13.875-13.2-13.875s-13.2,5.063-13.2,13.875c0,8.85,5.993,13.913,13.2,13.913S407.473,109.362,407.473,100.512Zm-5.78,0c0,4.676-2.495,7.652-7.423,7.652-4.9,0-7.393-2.976-7.393-7.652,0-4.638,2.495-7.652,7.393-7.652C399.2,92.86,401.693,95.875,401.693,100.512Z" transform="translate(-247.683 -86.638)" fill="#dafd08"/></g><g transform="translate(16.35 82.085)"><path d="M37.995,178.71H31.7l-4.716,17.021L22.175,178.71H16.821l-4.685,17.021L7.572,178.71H1.244L8.759,204.7h6.389l4.29-15.519L23.848,204.7h6.6Z" transform="translate(-1.244 -177.863)" fill="#dafd08"/><path d="M113.184,178.71H106.1L96.786,204.7h5.932l1.7-4.968h10.192l1.643,4.968h6.48Zm-3.59,6.161,2.981,9.088h-6.024Z" transform="translate(-62.59 -177.863)" fill="#dafd08"/><path d="M183.818,178.71h-5.537V204.7h5.537Z" transform="translate(-114.917 -177.863)" fill="#dafd08"/><path d="M224.663,178.71H203.032v6.508h8.032V204.7H216.6V185.218h8.062Z" transform="translate(-130.81 -177.863)" fill="#dafd08"/><path d="M314.5,178.71H294.3V204.7h5.567v-9.127h13.051v-6.2H299.869v-4.814H314.5Z" transform="translate(-189.413 -177.863)" fill="#dafd08"/><path d="M382.844,190.167c0-8.78-5.993-13.824-13.2-13.824s-13.2,5.044-13.2,13.824c0,8.819,5.993,13.863,13.2,13.863S382.844,198.986,382.844,190.167Zm-5.78,0c0,4.66-2.495,7.625-7.423,7.625-4.9,0-7.393-2.965-7.393-7.625,0-4.621,2.495-7.625,7.393-7.625C374.569,182.543,377.064,185.546,377.064,190.167Z" transform="translate(-229.309 -176.343)" fill="#dafd08"/><path d="M459.981,194.691c4.2-.578,5.963-3.62,5.963-7.933,0-4.968-2.525-8.048-7.606-8.048H442.3V204.7h5.537v-9.935h5.111l5.141,9.935h7.7Zm-1.673-9.858a1.578,1.578,0,0,1,1.764,1.694,1.646,1.646,0,0,1-1.734,1.887h-10.5v-3.581Z" transform="translate(-284.443 -177.863)" fill="#dafd08"/></g><g transform="translate(26.266 121.039)"><path d="M34.659,273.481a11.75,11.75,0,0,0-11.043-7.711c-6.845,0-12.625,5.051-12.625,13.841,0,8.829,5.415,13.88,12.291,13.88,5.9,0,9.614-2.776,11.256-7.672L29.791,283a6.1,6.1,0,0,1-6.085,4.241c-4.594,0-6.876-2.969-6.876-7.634,0-4.626,2.434-7.634,6.784-7.634a6.2,6.2,0,0,1,6.237,4.665Z" transform="translate(-10.99 -265.77)" fill="#dafd08"/><path d="M111.608,268.139h-5.537v9.1H93.932v-9.1H88.4v26.024h5.537v-10.6h12.139v10.6h5.537Z" transform="translate(-60.691 -267.291)" fill="#dafd08"/><path d="M178.049,268.139H170.96l-9.309,26.024h5.932l1.7-4.974h10.192l1.643,4.974h6.48Zm-3.59,6.169,2.981,9.1h-6.024Z" transform="translate(-107.728 -267.291)" fill="#dafd08"/><path d="M266.373,268.139h-5.841V284.37l-12.5-16.231h-5.9v26.024h5.841V277.2l12.656,16.964h5.75Z" transform="translate(-159.4 -267.291)" fill="#dafd08"/><path d="M346.514,269.355c-1.612-1.5-6.51-3.585-11.9-3.585-6.815,0-12.595,5.051-12.595,13.841,0,8.829,5.415,13.88,12.291,13.88,6.419,0,10.222-1.388,11.926-2.66V278.338h-9.735v5.745h4.35V285.9c-1,1.2-3.985,1.349-6.115,1.349-4.594,0-7.028-2.969-7.028-7.634,0-4.626,2.586-7.634,6.906-7.634,3.134,0,5.932.887,9.249,3.509Z" transform="translate(-210.701 -265.77)" fill="#dafd08"/><path d="M424.211,268.139H402.58v26.024h22.056v-6.631H408.147v-3.7h14.025v-6.014H408.147v-3.7h16.063Z" transform="translate(-262.425 -267.291)" fill="#dafd08"/></g><g transform="translate(4.229 159.472)"><path d="M22.712,363.594H15.624L6.314,389.472h5.932l1.7-4.946H24.142l1.643,4.946h6.48Zm-3.59,6.134,2.981,9.048H16.08Z" transform="translate(-6.314 -362.75)" fill="#dafd08"/><path d="M111.037,363.594H105.2v16.14l-12.5-16.14h-5.9v25.878h5.841V372.6l12.656,16.869h5.75Z" transform="translate(-57.987 -362.75)" fill="#dafd08"/><path d="M187.036,363.594h-6.51l-5.263,11.08-5.476-11.08h-6.754l9.218,18.172v7.744h5.689v-7.744Z" transform="translate(-106.941 -362.75)" fill="#dafd08"/><path d="M267.584,363.594h-9.553l-5.141,16.6-4.746-16.6H238.2v25.917h5.6V368.693L250,389.472h5.263l6.693-20.779v20.818h5.628Z" transform="translate(-155.203 -362.75)" fill="#dafd08"/><path d="M358.862,375c0-8.741-5.993-13.764-13.2-13.764s-13.2,5.022-13.2,13.764c0,8.779,5.993,13.8,13.2,13.8S358.862,383.78,358.862,375Zm-5.78,0c0,4.639-2.495,7.591-7.423,7.591-4.9,0-7.393-2.952-7.393-7.591,0-4.6,2.495-7.591,7.393-7.591C350.587,367.41,353.082,370.4,353.082,375Z" transform="translate(-215.725 -361.237)" fill="#dafd08"/><path d="M436,379.5c4.2-.575,5.963-3.6,5.963-7.9,0-4.946-2.525-8.013-7.606-8.013H418.323v25.878h5.537v-9.891h5.111l5.141,9.891h7.7Zm-1.673-9.815a1.575,1.575,0,0,1,1.765,1.687,1.642,1.642,0,0,1-1.734,1.879h-10.5V369.69Z" transform="translate(-270.86 -362.75)" fill="#dafd08"/><path d="M516.9,363.594h-21.63v25.878h22.056v-6.594H500.838V379.2h14.025v-5.981H500.838v-3.68H516.9Z" transform="translate(-320.267 -362.75)" fill="#dafd08"/><path d="M569.433,420.686h-5.294l-1.612,10.236h3.651Z" transform="translate(-363.451 -399.408)" fill="#dafd08"/></g><g transform="translate(2.026 235.617)"><path d="M39.747,576.931H30.924l-9.431,9.621v-9.621H15.956V602.4h5.537v-8.376l4.594-4.565L33.54,602.4h7.91L30.468,585.5Z" transform="translate(-15.956 -576.101)" fill="#dafd08"/><path d="M102.616,576.931H97.079V602.4h5.537Z" transform="translate(-68.044 -576.101)" fill="#dafd08"/><path d="M151.517,576.931h-5.841v15.884l-12.5-15.884h-5.9V602.4h5.841V585.8l12.656,16.6h5.75Z" transform="translate(-87.429 -576.101)" fill="#dafd08"/><path d="M208.783,576.931V602.4H221.1c9.583,0,12.778-7.055,12.778-12.752,0-10.149-6.054-12.715-13.477-12.715Zm11.621,5.735c5.385,0,7.7,2.679,7.7,6.715,0,4.3-2.647,6.451-7.727,6.451H214.35V582.666Z" transform="translate(-139.768 -576.101)" fill="#dafd08"/><path d="M315.208,576.931h-5.841v15.884l-12.5-15.884h-5.9V602.4H296.8V585.8l12.656,16.6h5.75Z" transform="translate(-192.533 -576.101)" fill="#dafd08"/><path d="M394.106,576.931H372.475V602.4h22.056v-6.489H378.042v-3.622h14.025V586.4H378.042v-3.622h16.063Z" transform="translate(-244.872 -576.101)" fill="#dafd08"/><path d="M462.947,582.309c-.821-5.131-3.59-7.7-10.617-7.7-8.366,0-11.378,3.245-11.378,8.262,0,7.093,4.442,7.923,8.214,8.112,4.2.189,8.549-.377,8.549,1.962,0,2.188-2.434,3.018-5.172,3.018-2.4,0-5.628-.679-5.932-2.716h-6.115c.274,3.81,1.521,5.546,4.107,7.168,1.491.868,3.5,1.283,7.514,1.283,8.123,0,11.409-3.735,11.409-9.772,0-5.207-2.829-6.98-8.914-6.98-1.917,0-2.921.038-3.925.038-2.069,0-3.833-.038-3.833-2.226,0-1.773,1.917-2.6,5.507-2.6,2.373,0,4.259.415,5.05,2.415Z" transform="translate(-288.547 -574.612)" fill="#dafd08"/><path d="M536.907,582.309c-.821-5.131-3.59-7.7-10.618-7.7-8.366,0-11.378,3.245-11.378,8.262,0,7.093,4.442,7.923,8.214,8.112,4.2.189,8.549-.377,8.549,1.962,0,2.188-2.434,3.018-5.172,3.018-2.4,0-5.628-.679-5.932-2.716h-6.115c.274,3.81,1.521,5.546,4.107,7.168,1.491.868,3.5,1.283,7.514,1.283,8.123,0,11.409-3.735,11.409-9.772,0-5.207-2.829-6.98-8.914-6.98-1.917,0-2.921.038-3.925.038-2.069,0-3.833-.038-3.833-2.226,0-1.773,1.917-2.6,5.507-2.6,2.373,0,4.259.415,5.05,2.415Z" transform="translate(-336.035 -574.612)" fill="#dafd08"/><path d="M591.153,633.116h-5.294l-1.612,10.073H587.9Z" transform="translate(-380.848 -612.177)" fill="#dafd08"/></g><g transform="translate(-10.094 275.25)"><path d="M220.258,681.573h-7.088L203.86,706.8h5.932l1.7-4.82h10.192l1.643,4.82h6.48Zm-3.59,5.979,2.981,8.819h-6.024Z" transform="translate(-132.944 -681.573)" fill="#dafd08"/><path d="M302.011,697.081c4.2-.56,5.963-3.513,5.963-7.7,0-4.82-2.525-7.81-7.606-7.81H284.335V706.8h5.537v-9.641h5.111l5.141,9.641h7.7Zm-1.673-9.566a1.557,1.557,0,0,1,1.764,1.644,1.619,1.619,0,0,1-1.734,1.831h-10.5v-3.475Z" transform="translate(-184.615 -681.573)" fill="#dafd08"/><path d="M382.914,681.573h-21.63V706.8H383.34v-6.427H366.851v-3.587h14.025v-5.829H366.851v-3.587h16.063Z" transform="translate(-234.023 -681.573)" fill="#dafd08"/></g><path d="M100.716,24.616c-2.832,0-5.664-.144-9.456-.432,2.16,6.144,3.264,10.032,3.264,12.96,0,2.976-1.44,5.616-4.752,5.616a6.118,6.118,0,0,1-5.424-2.3,43.29,43.29,0,0,0,5.52-15.888c-2.5.048-5.808-.1-7.344-.192a48.747,48.747,0,0,0,.432,16.272A4.859,4.859,0,0,1,79.5,42.664c-2.064,0-3.5-1.008-3.5-2.88,0-2.112,2.4-5.568,2.4-8.592,0-4.128-1.68-7.152-3.552-7.152-2.016,0-3.84,2.976-6.336,10.608l.912.384c.816-2.016,2.016-2.3,4.176-2.3,1.776,0,2.5.576,2.5,1.344,0,2.112-7.248,5.472-7.248,8.88,0,3.36,3.936,6.576,7.488,6.576,2.256,0,4.7-3.264,6.96-7.248,1.152,4.368,2.928,7.2,4.8,7.2C92.46,49.48,97.98,36.04,100.716,24.616Zm7.872-1.536c3.168,0,5.184-1.584,5.184-4.944a3.261,3.261,0,0,0-3.6-3.6c-3.168,0-5.136,1.488-5.136,4.7C105.036,21.832,106.428,23.08,108.588,23.08Zm-1.92,10.9C106.62,36.232,99.8,40.5,99.8,45.064a4.815,4.815,0,0,0,4.752,4.464c2.784,0,5.088-2.544,7.392-11.184l-.864-.384c-.768,1.872-1.392,2.4-2.4,2.4a1.465,1.465,0,0,1-1.632-1.584c0-2.208,2.688-7.3,2.688-10.08,0-2.688-1.68-4.608-3.36-4.608-2.736,0-4.56,3.6-6.72,10.56l.96.384c.624-1.92,1.872-2.3,3.7-2.3C105.948,32.728,106.668,33.208,106.668,33.976Zm4.944-2.5v1.2H117.9c-3.12,3.984-5.28,8.016-5.28,12.1,0,3.312,2.256,4.752,4.944,4.752,2.88,0,6.72-3.168,8.784-12l-.864-.384c-1.248,2.736-3.216,3.168-4.416,3.168-1.248,0-2.064-.576-2.112-2.16a30.963,30.963,0,0,1,.576-5.424c2.352.048,4.7.1,6.96.24l1.584-8.4h-6.912c.528-2.544,1.056-4.752,1.3-6.1l-1.056-.048A34.688,34.688,0,0,1,111.612,31.48Zm24.48-7.968c0,3.888-10.08,19.392-10.9,25.488h8.928c2.832-13.056,6.048-16.128,9.888-16.128,1.776,0,2.592.624,2.592,1.344,0,2.592-7.1,6.288-7.1,10.656a4.9,4.9,0,0,0,4.7,4.656c3.072,0,5.376-2.448,7.632-10.944l-.864-.384c-.864,2.16-1.584,2.544-2.592,2.544a1.479,1.479,0,0,1-1.536-1.632c0-2.208,3.024-7.2,3.024-9.936,0-2.592-1.728-5.088-4.224-5.088-3.264,0-6.72,3.792-9.6,16.032l-.48-.144c1.056-7.776,2.544-13.776,2.544-20.4,0-2.16-1.056-3.216-2.4-3.216-2.16,0-4.368,2.784-6.288,6.384l.624.72a8.663,8.663,0,0,1,4.032-1.3C135.228,22.168,136.092,22.6,136.092,23.512Z" transform="translate(-7 176.884)" fill="#dafd08"/><path d="M113.388,24.616c-2.832,0-5.664-.144-9.456-.432,2.16,6.144,3.264,10.032,3.264,12.96,0,2.976-1.44,5.616-4.752,5.616a6.118,6.118,0,0,1-5.424-2.3,43.29,43.29,0,0,0,5.52-15.888c-2.5.048-5.808-.1-7.344-.192a48.747,48.747,0,0,0,.432,16.272,4.859,4.859,0,0,1-3.456,2.016c-2.064,0-3.5-1.008-3.5-2.88,0-2.112,2.4-5.568,2.4-8.592,0-4.128-1.68-7.152-3.552-7.152-2.016,0-3.84,2.976-6.336,10.608l.912.384c.816-2.016,2.016-2.3,4.176-2.3,1.776,0,2.5.576,2.5,1.344,0,2.112-7.248,5.472-7.248,8.88,0,3.36,3.936,6.576,7.488,6.576,2.256,0,4.7-3.264,6.96-7.248,1.152,4.368,2.928,7.2,4.8,7.2C105.132,49.48,110.652,36.04,113.388,24.616Zm9.936,7.584c2.4,0,3.312.96,3.312,1.632,0,1.248-3.5,2.112-12.48,3.984C114.54,35.32,118.476,32.2,123.324,32.2Zm-3.552,17.328c5.232,0,9.552-4.8,12.336-11.568l-.816-.576c-1.488,2.256-7.44,3.456-11.376,3.456-2.352,0-5.472-.576-5.76-2.3,12.96-1.824,17.712-3.12,17.712-7.68a6.868,6.868,0,0,0-6.912-6.768c-5.568,0-12.432,5.952-12.432,13.968C112.524,46.024,115.5,49.528,119.772,49.528Z" transform="translate(-80 251.884)" fill="#dafd08"/><path d="M76.116,31.48v1.2H82.4c-3.12,3.984-5.28,8.016-5.28,12.1,0,3.312,2.256,4.752,4.944,4.752,2.88,0,6.72-3.168,8.784-12l-.864-.384c-1.248,2.736-3.216,3.168-4.416,3.168-1.248,0-2.064-.576-2.112-2.16a30.963,30.963,0,0,1,.576-5.424c2.352.048,4.7.1,6.96.24l1.584-8.4H85.668c.528-2.544,1.056-4.752,1.3-6.1l-1.056-.048A34.688,34.688,0,0,1,76.116,31.48Zm24.48-7.968C100.6,27.4,90.516,42.9,89.7,49h8.928c2.832-13.056,6.048-16.128,9.888-16.128,1.776,0,2.592.624,2.592,1.344,0,2.592-7.1,6.288-7.1,10.656a4.9,4.9,0,0,0,4.7,4.656c3.072,0,5.376-2.448,7.632-10.944l-.864-.384c-.864,2.16-1.584,2.544-2.592,2.544a1.479,1.479,0,0,1-1.536-1.632c0-2.208,3.024-7.2,3.024-9.936,0-2.592-1.728-5.088-4.224-5.088-3.264,0-6.72,3.792-9.6,16.032l-.48-.144c1.056-7.776,2.544-13.776,2.544-20.4,0-2.16-1.056-3.216-2.4-3.216-2.16,0-4.368,2.784-6.288,6.384l.624.72a8.663,8.663,0,0,1,4.032-1.3C99.732,22.168,100.6,22.6,100.6,23.512ZM127.764,32.2c2.4,0,3.312.96,3.312,1.632,0,1.248-3.5,2.112-12.48,3.984C118.98,35.32,122.916,32.2,127.764,32.2Zm-3.552,17.328c5.232,0,9.552-4.8,12.336-11.568l-.816-.576c-1.488,2.256-7.44,3.456-11.376,3.456-2.352,0-5.472-.576-5.76-2.3,12.96-1.824,17.712-3.12,17.712-7.68a6.868,6.868,0,0,0-6.912-6.768c-5.568,0-12.432,5.952-12.432,13.968C116.964,46.024,119.94,49.528,124.212,49.528Z" transform="translate(75 252.884)" fill="#dafd08"/><path d="M12.388,23.512c0,1.427-1.358,4.418-3.254,8.208C6.237,37.513,2.009,45.141,1.492,49H10.42c2.832-13.056,6.048-16.128,9.888-16.128,1.776,0,2.592.624,2.592,1.344,0,2.592-7.1,6.288-7.1,10.656a4.9,4.9,0,0,0,4.7,4.656c3.072,0,5.376-2.448,7.632-10.944l-.864-.384c-.864,2.16-1.584,2.544-2.592,2.544a1.479,1.479,0,0,1-1.536-1.632c0-2.208,3.024-7.2,3.024-9.936,0-2.592-1.728-5.088-4.224-5.088-3.264,0-6.72,3.792-9.6,16.032l-.48-.144C12.916,32.2,14.4,26.2,14.4,19.576c0-2.16-1.056-3.216-2.4-3.216-2.16,0-4.368,2.784-6.288,6.384l.624.72a8.663,8.663,0,0,1,4.032-1.3C11.524,22.168,12.388,22.6,12.388,23.512ZM44.932,49.528c2.5,0,4.272-2.448,6.624-10.752l-.96-.384c-1.008,2.448-1.392,3.072-2.3,3.072A1.951,1.951,0,0,1,46.42,39.3c0-2.88,1.776-9.792,3.84-15.264-15.744.144-21.216,7.584-21.216,14.688,0,7.152,2.016,10.848,4.176,10.848,2.5,0,6.192-4.752,11.952-15.216l.528.192c-1.44,3.264-3.744,8.16-3.744,10.32C41.956,47.368,43.348,49.528,44.932,49.528ZM34.228,40.7c-1.968,0-3.552-.768-3.552-1.968,0-1.872,3.12-4.368,14.5-5.808C40.9,39.4,36.2,40.7,34.228,40.7ZM63.94,24.232c2.208,6.144,3.12,9.84,3.12,12.528,0,3.072-1.392,5.9-4.272,5.9-2.16,0-3.7-1.008-3.7-2.88,0-2.112,2.4-5.568,2.4-8.592,0-4.128-1.68-7.152-3.552-7.152-2.016,0-3.84,2.976-6.336,10.608l.912.384c.816-2.016,2.016-2.3,4.176-2.3,1.776,0,2.5.576,2.5,1.344,0,2.112-7.248,5.472-7.248,8.88,0,3.36,4.128,6.576,8.112,6.576,4.7,0,11.04-13.872,13.344-24.912C70.612,24.616,67.78,24.472,63.94,24.232ZM82.948,32.2c2.4,0,3.312.96,3.312,1.632,0,1.248-3.5,2.112-12.48,3.984C74.164,35.32,78.1,32.2,82.948,32.2ZM79.4,49.528c5.232,0,9.552-4.8,12.336-11.568l-.816-.576c-1.488,2.256-7.44,3.456-11.376,3.456-2.352,0-5.472-.576-5.76-2.3,12.96-1.824,17.712-3.12,17.712-7.68a6.868,6.868,0,0,0-6.912-6.768c-5.568,0-12.432,5.952-12.432,13.968C72.148,46.024,75.124,49.528,79.4,49.528Z" transform="translate(30.921 21.943)" fill="#dafd08"/></g></svg>