<?xml version="1.0" encoding="utf-8"?>
<!-- Generator: Adobe Illustrator 26.2.0, SVG Export Plug-In . SVG Version: 6.00 Build 0)  -->
<svg version="1.1" id="Layer_1" xmlns="http://www.w3.org/2000/svg" xmlns:xlink="http://www.w3.org/1999/xlink" x="0px" y="0px"
	 viewBox="0 0 27.2 12.1" style="enable-background:new 0 0 27.2 12.1;" xml:space="preserve">
<style type="text/css">
	.st0{fill:#CBFB00;}
	.st1{fill:#FFFFFF;}
	.st2{fill:#1C1C1C;}
</style>
<g>
	<path class="st2" d="M15.2,6.9h-1.7l-2.4-2.8l0.2,2.8h-2V0.6h0.9l3.5,2.7l-0.1-2.7h1.7V6.9z"/>
	<path class="st2" d="M18.4,0.6c2,0,3.3,0.6,3.3,3.2c0,1.4-0.7,3.2-3.2,3.2h-2.7V0.6H18.4z M17.3,2.7v1.5c0,0,0.7,0.1,1.6,0.1
		s1.5-0.2,1.5-0.8c0-0.7-0.7-0.9-1.5-0.9S17.3,2.7,17.3,2.7z"/>
	<path class="st2" d="M3.8,3.1c0.4,0.5,2.4,3.4,2.6,3.8H3.7C3.5,6.3,2.9,5,2.7,4.5L2.3,5v1.9H0.5V0.6h1.8V3l1.4-2.4h2.1L3.8,3.1z"/>
	<ellipse class="st0" cx="23.1" cy="7.8" rx="3.7" ry="3.5"/>
	<path class="st2" d="M8.6,6.9H6.8V0.6h1.9V6.9z"/>
	<path class="st2" d="M24.5,6.2c0.1,0,0.2,0,0.4,0c0,0,0.1,0,0.1-0.1l0-0.6c-0.1,0-0.2,0-0.3,0c-0.3,0-0.6,0.2-0.8,0.8
		c0,0,0,0,0,0.1c-0.1,0.4-0.3,0.5-0.6,0.6c-0.3,0.1-0.4,0.2-0.5,0.3C22.9,7,23,6.7,23.1,6.4c0,0,0,0,0,0c-1.7,0-2.4,0.9-2.4,1.7
		c0,0.7,0.3,1,0.6,1c0.6,0,1-1.1,1.1-1.1c0,0,0,0,0,0c0,0-0.2,0.4-0.2,0.7c0,0.3,0.2,0.5,0.3,0.5c0.2,0,0.3-0.1,0.5-0.5
		c0,0.2,0,0.3,0,0.5c0,0.6,0.2,0.9,0.6,0.9c0.4,0,0.6-0.3,0.6-0.8c0-0.6-0.1-1.3-0.2-2c0.2,0,0.2,0,0.4,0c0.1,0,0.2-0.1,0.3-0.2
		l0.1-0.7h-0.7C24.3,6.2,24.3,6.2,24.5,6.2z M21.4,8.2C21.2,8.2,21,8.1,21,8c0-0.2,0.3-0.4,1.3-0.5c0,0,0,0,0,0
		C22,8.1,21.6,8.2,21.4,8.2z M22.7,8.1C22.7,8.1,22.7,8.1,22.7,8.1C22.7,8.1,22.7,8.1,22.7,8.1C22.7,8.1,22.7,8.1,22.7,8.1z
		 M23.4,9.2c0,0.1,0,0.2-0.1,0.2c0,0,0-0.1-0.1-0.3c-0.1-0.6,0.1-1.4,0.5-1.3l0.1-0.5c-0.3,0-0.5,0.3-0.6,0.7
		C23,8.2,23,8.3,22.9,8.3c-0.1,0-0.2-0.1-0.2-0.2c0-0.3,0.3-0.8,0.6-0.8c0.1,0,0.3,0,0.4,0C23.6,8.1,23.4,8.9,23.4,9.2z"/>
</g>
</svg>
