<svg width="1896" height="126" viewBox="0 0 1896 126" fill="none" xmlns="http://www.w3.org/2000/svg">
<g clip-path="url(#clip0_144_5)">
<path d="M-95.808 37.7871C-97.3885 27.6248 -102.715 22.2402 -116.238 22.2402C-132.335 22.2402 -138.131 27.8523 -138.131 36.6495C-138.131 49.3904 -127.652 50.9071 -120.218 50.9071C-117.994 50.9071 -116.062 50.7555 -112.316 50.7555C-105.174 50.7555 -97.6227 51.438 -97.6227 60.5386C-97.6227 68.5775 -103.418 73.5828 -116.472 73.5828C-130.287 73.5828 -135.262 68.6533 -135.965 59.7044H-139.009C-138.482 66.8332 -135.965 71.2318 -130.989 74.1137C-128.004 75.7821 -124.433 76.6922 -116.706 76.6922C-101.018 76.6922 -94.6958 70.1701 -94.6958 60.1594C-94.6958 50.6038 -100.784 47.4186 -110.911 47.4186H-119.984C-126.306 47.4186 -135.145 47.0394 -135.145 36.6495C-135.145 29.5966 -129.935 25.2738 -116.179 25.2738C-105.057 25.2738 -100.198 29.6724 -98.6178 37.9388L-95.808 37.7871Z" fill="black"/>
<path d="M-36.572 49.4662C-36.572 32.2509 -48.104 22.2402 -61.9188 22.2402C-75.7923 22.2402 -87.2656 32.2509 -87.2656 49.4662C-87.2656 66.8332 -75.7923 76.768 -61.9188 76.768C-48.104 76.768 -36.572 66.8332 -36.572 49.4662ZM-39.4989 49.4662C-39.4989 64.6339 -49.3332 73.507 -61.9188 73.507C-74.5044 73.507 -84.3388 64.6339 -84.3388 49.4662C-84.3388 34.2985 -74.5044 25.5013 -61.9188 25.5013C-49.3332 25.5013 -39.4989 34.2985 -39.4989 49.4662Z" fill="black"/>
<path d="M16.4644 37.4079C13.5375 28.9898 5.45935 22.2402 -4.78474 22.2402C-17.8972 22.2402 -28.9608 32.2509 -28.9608 49.4662C-28.9608 66.8332 -18.5996 76.768 -5.37011 76.768C5.98619 76.768 13.1278 71.3077 16.2888 61.6762L13.8302 60.2353C11.0204 68.5017 4.81544 73.507 -5.13596 73.507C-17.1947 73.507 -26.0339 64.6339 -26.0339 49.4662C-26.0339 34.2985 -16.6093 25.5013 -4.78474 25.5013C4.2886 25.5013 11.5473 31.4925 14.0644 39.0764L16.4644 37.4079Z" fill="black"/>
<path d="M28.4902 23.9087H25.6804V75.0996H28.4902V23.9087Z" fill="black"/>
<path d="M62.0936 23.9087H58.5813L35.5175 75.0996H38.62L45.0006 60.9178H75.7914L82.4647 75.0996H85.6843L62.0936 23.9087ZM60.2789 27.0181L74.7377 57.8843H46.1713L60.2789 27.0181Z" fill="black"/>
<path d="M94.4429 23.9087H91.6331V75.0996H130.327V71.5352H94.4429V23.9087Z" fill="black"/>
<path d="M185.701 23.9087H182.891V52.4998C182.891 67.2882 175.808 73.4312 167.379 73.4312C158.715 73.4312 153.037 67.2882 151.632 59.2494L148.881 60.4628C150.696 70.0184 157.193 76.768 167.672 76.768C177.33 76.768 185.701 69.0325 185.701 52.4998V23.9087Z" fill="black"/>
<path d="M239.754 23.9087H236.885V51.1347C236.885 67.2124 228.456 73.4312 217.099 73.4312C205.919 73.4312 198.309 66.9849 198.309 51.2105V23.9087H195.441V51.7414C195.441 69.1842 204.221 76.768 217.099 76.768C230.036 76.768 239.754 69.3359 239.754 51.5897V23.9087Z" fill="black"/>
<path d="M291.375 37.7871C289.794 27.6248 284.468 22.2402 270.945 22.2402C254.848 22.2402 249.052 27.8523 249.052 36.6495C249.052 49.3904 259.531 50.9071 266.965 50.9071C269.189 50.9071 271.121 50.7555 274.867 50.7555C282.009 50.7555 289.56 51.438 289.56 60.5386C289.56 68.5775 283.765 73.5828 270.711 73.5828C256.896 73.5828 251.921 68.6533 251.218 59.7044H248.174C248.701 66.8332 251.218 71.2318 256.194 74.1137C259.179 75.7821 262.75 76.6922 270.477 76.6922C286.165 76.6922 292.487 70.1701 292.487 60.1594C292.487 50.6038 286.399 47.4186 276.272 47.4186H267.199C260.877 47.4186 252.038 47.0394 252.038 36.6495C252.038 29.5966 257.248 25.2738 271.004 25.2738C282.126 25.2738 286.985 29.6724 288.565 37.9388L291.375 37.7871Z" fill="black"/>
<path d="M337.062 23.9087H295.676V27.3214H314.935V75.0996H317.686V27.3214H337.062V23.9087Z" fill="black"/>
<path d="M346.617 23.9087H343.807V75.0996H346.617V23.9087Z" fill="black"/>
<path d="M401.704 37.4079C398.777 28.9898 390.699 22.2402 380.455 22.2402C367.342 22.2402 356.279 32.2509 356.279 49.4662C356.279 66.8332 366.64 76.768 379.869 76.768C391.226 76.768 398.367 71.3077 401.528 61.6762L399.07 60.2353C396.26 68.5017 390.055 73.507 380.103 73.507C368.045 73.507 359.205 64.6339 359.205 49.4662C359.205 34.2985 368.63 25.5013 380.455 25.5013C389.528 25.5013 396.787 31.4925 399.304 39.0764L401.704 37.4079Z" fill="black"/>
<path d="M451.838 23.9087H410.217V75.0996H452.599V71.6869H413.027V50.3004H447.916V47.1152H413.027V27.0939H451.838V23.9087Z" fill="black"/>
<path d="M568.971 37.7871C567.391 27.6248 562.064 22.2402 548.542 22.2402C532.444 22.2402 526.649 27.8523 526.649 36.6495C526.649 49.3904 537.127 50.9071 544.561 50.9071C546.786 50.9071 548.717 50.7555 552.464 50.7555C559.605 50.7555 567.157 51.438 567.157 60.5386C567.157 68.5775 561.361 73.5828 548.307 73.5828C534.493 73.5828 529.517 68.6533 528.814 59.7044H525.771C526.297 66.8332 528.814 71.2318 533.79 74.1137C536.776 75.7821 540.346 76.6922 548.073 76.6922C563.761 76.6922 570.083 70.1701 570.083 60.1594C570.083 50.6038 563.996 47.4186 553.869 47.4186H544.795C538.473 47.4186 529.634 47.0394 529.634 36.6495C529.634 29.5966 534.844 25.2738 548.6 25.2738C559.722 25.2738 564.581 29.6724 566.161 37.9388L568.971 37.7871Z" fill="black"/>
<path d="M628.207 49.4662C628.207 32.2509 616.675 22.2402 602.86 22.2402C588.987 22.2402 577.514 32.2509 577.514 49.4662C577.514 66.8332 588.987 76.768 602.86 76.768C616.675 76.768 628.207 66.8332 628.207 49.4662ZM625.28 49.4662C625.28 64.6339 615.446 73.507 602.86 73.507C590.275 73.507 580.441 64.6339 580.441 49.4662C580.441 34.2985 590.275 25.5013 602.86 25.5013C615.446 25.5013 625.28 34.2985 625.28 49.4662Z" fill="black"/>
<path d="M681.244 37.4079C678.317 28.9898 670.239 22.2402 659.995 22.2402C646.882 22.2402 635.819 32.2509 635.819 49.4662C635.819 66.8332 646.18 76.768 659.409 76.768C670.765 76.768 677.907 71.3077 681.068 61.6762L678.61 60.2353C675.8 68.5017 669.595 73.507 659.643 73.507C647.585 73.507 638.745 64.6339 638.745 49.4662C638.745 34.2985 648.17 25.5013 659.995 25.5013C669.068 25.5013 676.327 31.4925 678.844 39.0764L681.244 37.4079Z" fill="black"/>
<path d="M693.27 23.9087H690.46V75.0996H693.27V23.9087Z" fill="black"/>
<path d="M726.873 23.9087H723.361L700.297 75.0996H703.399L709.78 60.9178H740.571L747.244 75.0996H750.464L726.873 23.9087ZM725.058 27.0181L739.517 57.8843H710.951L725.058 27.0181Z" fill="black"/>
<path d="M759.222 23.9087H756.412V75.0996H795.106V71.5352H759.222V23.9087Z" fill="black"/>
<path d="M850.481 23.9087H847.671V52.4998C847.671 67.2882 840.588 73.4312 832.158 73.4312C823.495 73.4312 817.817 67.2882 816.412 59.2494L813.66 60.4628C815.475 70.0184 821.973 76.768 832.451 76.768C842.11 76.768 850.481 69.0325 850.481 52.4998V23.9087Z" fill="black"/>
<path d="M904.533 23.9087H901.664V51.1347C901.664 67.2124 893.235 73.4312 881.879 73.4312C870.698 73.4312 863.088 66.9849 863.088 51.2105V23.9087H860.22V51.7414C860.22 69.1842 869 76.768 881.879 76.768C894.816 76.768 904.533 69.3359 904.533 51.5897V23.9087Z" fill="black"/>
<path d="M956.154 37.7871C954.574 27.6248 949.247 22.2402 935.725 22.2402C919.627 22.2402 913.832 27.8523 913.832 36.6495C913.832 49.3904 924.31 50.9071 931.744 50.9071C933.969 50.9071 935.9 50.7555 939.647 50.7555C946.788 50.7555 954.34 51.438 954.34 60.5386C954.34 68.5775 948.544 73.5828 935.491 73.5828C921.676 73.5828 916.7 68.6533 915.997 59.7044H912.954C913.48 66.8332 915.997 71.2318 920.973 74.1137C923.959 75.7821 927.529 76.6922 935.256 76.6922C950.944 76.6922 957.267 70.1701 957.267 60.1594C957.267 50.6038 951.179 47.4186 941.052 47.4186H931.978C925.656 47.4186 916.817 47.0394 916.817 36.6495C916.817 29.5966 922.027 25.2738 935.783 25.2738C946.905 25.2738 951.764 29.6724 953.345 37.9388L956.154 37.7871Z" fill="black"/>
<path d="M1001.84 23.9087H960.455V27.3214H979.714V75.0996H982.465V27.3214H1001.84V23.9087Z" fill="black"/>
<path d="M1011.4 23.9087H1008.59V75.0996H1011.4V23.9087Z" fill="black"/>
<path d="M1066.48 37.4079C1063.56 28.9898 1055.48 22.2402 1045.23 22.2402C1032.12 22.2402 1021.06 32.2509 1021.06 49.4662C1021.06 66.8332 1031.42 76.768 1044.65 76.768C1056 76.768 1063.15 71.3077 1066.31 61.6762L1063.85 60.2353C1061.04 68.5017 1054.83 73.507 1044.88 73.507C1032.82 73.507 1023.98 64.6339 1023.98 49.4662C1023.98 34.2985 1033.41 25.5013 1045.23 25.5013C1054.31 25.5013 1061.57 31.4925 1064.08 39.0764L1066.48 37.4079Z" fill="black"/>
<path d="M1116.62 23.9087H1075V75.0996H1117.38V71.6869H1077.81V50.3004H1112.69V47.1152H1077.81V27.0939H1116.62V23.9087Z" fill="black"/>
<path d="M1233.75 37.7871C1232.17 27.6248 1226.84 22.2402 1213.32 22.2402C1197.22 22.2402 1191.43 27.8523 1191.43 36.6495C1191.43 49.3904 1201.91 50.9071 1209.34 50.9071C1211.57 50.9071 1213.5 50.7555 1217.24 50.7555C1224.39 50.7555 1231.94 51.438 1231.94 60.5386C1231.94 68.5775 1226.14 73.5828 1213.09 73.5828C1199.27 73.5828 1194.3 68.6533 1193.59 59.7044H1190.55C1191.08 66.8332 1193.59 71.2318 1198.57 74.1137C1201.56 75.7821 1205.13 76.6922 1212.85 76.6922C1228.54 76.6922 1234.86 70.1701 1234.86 60.1594C1234.86 50.6038 1228.78 47.4186 1218.65 47.4186H1209.58C1203.25 47.4186 1194.41 47.0394 1194.41 36.6495C1194.41 29.5966 1199.62 25.2738 1213.38 25.2738C1224.5 25.2738 1229.36 29.6724 1230.94 37.9388L1233.75 37.7871Z" fill="black"/>
<path d="M1292.99 49.4662C1292.99 32.2509 1281.46 22.2402 1267.64 22.2402C1253.77 22.2402 1242.29 32.2509 1242.29 49.4662C1242.29 66.8332 1253.77 76.768 1267.64 76.768C1281.46 76.768 1292.99 66.8332 1292.99 49.4662ZM1290.06 49.4662C1290.06 64.6339 1280.23 73.507 1267.64 73.507C1255.06 73.507 1245.22 64.6339 1245.22 49.4662C1245.22 34.2985 1255.06 25.5013 1267.64 25.5013C1280.23 25.5013 1290.06 34.2985 1290.06 49.4662Z" fill="black"/>
<path d="M1346.02 37.4079C1343.1 28.9898 1335.02 22.2402 1324.77 22.2402C1311.66 22.2402 1300.6 32.2509 1300.6 49.4662C1300.6 66.8332 1310.96 76.768 1324.19 76.768C1335.55 76.768 1342.69 71.3077 1345.85 61.6762L1343.39 60.2353C1340.58 68.5017 1334.38 73.507 1324.42 73.507C1312.36 73.507 1303.53 64.6339 1303.53 49.4662C1303.53 34.2985 1312.95 25.5013 1324.77 25.5013C1333.85 25.5013 1341.11 31.4925 1343.62 39.0764L1346.02 37.4079Z" fill="black"/>
<path d="M1358.05 23.9087H1355.24V75.0996H1358.05V23.9087Z" fill="black"/>
<path d="M1391.65 23.9087H1388.14L1365.08 75.0996H1368.18L1374.56 60.9178H1405.35L1412.02 75.0996H1415.24L1391.65 23.9087ZM1389.84 27.0181L1404.3 57.8843H1375.73L1389.84 27.0181Z" fill="black"/>
<path d="M1424 23.9087H1421.19V75.0996H1459.89V71.5352H1424V23.9087Z" fill="black"/>
<path d="M1515.26 23.9087H1512.45V52.4998C1512.45 67.2882 1505.37 73.4312 1496.94 73.4312C1488.28 73.4312 1482.6 67.2882 1481.19 59.2494L1478.44 60.4628C1480.26 70.0184 1486.75 76.768 1497.23 76.768C1506.89 76.768 1515.26 69.0325 1515.26 52.4998V23.9087Z" fill="black"/>
<path d="M1569.31 23.9087H1566.44V51.1347C1566.44 67.2124 1558.02 73.4312 1546.66 73.4312C1535.48 73.4312 1527.87 66.9849 1527.87 51.2105V23.9087H1525V51.7414C1525 69.1842 1533.78 76.768 1546.66 76.768C1559.6 76.768 1569.31 69.3359 1569.31 51.5897V23.9087Z" fill="black"/>
<path d="M1620.93 37.7871C1619.35 27.6248 1614.03 22.2402 1600.5 22.2402C1584.41 22.2402 1578.61 27.8523 1578.61 36.6495C1578.61 49.3904 1589.09 50.9071 1596.52 50.9071C1598.75 50.9071 1600.68 50.7555 1604.43 50.7555C1611.57 50.7555 1619.12 51.438 1619.12 60.5386C1619.12 68.5775 1613.32 73.5828 1600.27 73.5828C1586.46 73.5828 1581.48 68.6533 1580.78 59.7044H1577.73C1578.26 66.8332 1580.78 71.2318 1585.75 74.1137C1588.74 75.7821 1592.31 76.6922 1600.04 76.6922C1615.72 76.6922 1622.05 70.1701 1622.05 60.1594C1622.05 50.6038 1615.96 47.4186 1605.83 47.4186H1596.76C1590.44 47.4186 1581.6 47.0394 1581.6 36.6495C1581.6 29.5966 1586.81 25.2738 1600.56 25.2738C1611.69 25.2738 1616.54 29.6724 1618.12 37.9388L1620.93 37.7871Z" fill="black"/>
<path d="M1666.62 23.9087H1625.24V27.3214H1644.49V75.0996H1647.25V27.3214H1666.62V23.9087Z" fill="black"/>
<path d="M1676.18 23.9087H1673.37V75.0996H1676.18V23.9087Z" fill="black"/>
<path d="M1731.26 37.4079C1728.34 28.9898 1720.26 22.2402 1710.01 22.2402C1696.9 22.2402 1685.84 32.2509 1685.84 49.4662C1685.84 66.8332 1696.2 76.768 1709.43 76.768C1720.79 76.768 1727.93 71.3077 1731.09 61.6762L1728.63 60.2353C1725.82 68.5017 1719.61 73.507 1709.66 73.507C1697.6 73.507 1688.77 64.6339 1688.77 49.4662C1688.77 34.2985 1698.19 25.5013 1710.01 25.5013C1719.09 25.5013 1726.35 31.4925 1728.86 39.0764L1731.26 37.4079Z" fill="black"/>
<path d="M1781.4 23.9087H1739.78V75.0996H1782.16V71.6869H1742.59V50.3004H1777.48V47.1152H1742.59V27.0939H1781.4V23.9087Z" fill="black"/>
<path d="M1898.53 37.7871C1896.95 27.6248 1891.62 22.2402 1878.1 22.2402C1862 22.2402 1856.21 27.8523 1856.21 36.6495C1856.21 49.3904 1866.69 50.9071 1874.12 50.9071C1876.35 50.9071 1878.28 50.7555 1882.02 50.7555C1889.16 50.7555 1896.72 51.438 1896.72 60.5386C1896.72 68.5775 1890.92 73.5828 1877.87 73.5828C1864.05 73.5828 1859.08 68.6533 1858.37 59.7044H1855.33C1855.86 66.8332 1858.37 71.2318 1863.35 74.1137C1866.34 75.7821 1869.91 76.6922 1877.63 76.6922C1893.32 76.6922 1899.64 70.1701 1899.64 60.1594C1899.64 50.6038 1893.56 47.4186 1883.43 47.4186H1874.35C1868.03 47.4186 1859.19 47.0394 1859.19 36.6495C1859.19 29.5966 1864.4 25.2738 1878.16 25.2738C1889.28 25.2738 1894.14 29.6724 1895.72 37.9388L1898.53 37.7871Z" fill="black"/>
<path d="M1957.77 49.4662C1957.77 32.2509 1946.23 22.2402 1932.42 22.2402C1918.55 22.2402 1907.07 32.2509 1907.07 49.4662C1907.07 66.8332 1918.55 76.768 1932.42 76.768C1946.23 76.768 1957.77 66.8332 1957.77 49.4662ZM1954.84 49.4662C1954.84 64.6339 1945.01 73.507 1932.42 73.507C1919.83 73.507 1910 64.6339 1910 49.4662C1910 34.2985 1919.83 25.5013 1932.42 25.5013C1945.01 25.5013 1954.84 34.2985 1954.84 49.4662Z" fill="black"/>
<path d="M2010.8 37.4079C2007.88 28.9898 1999.8 22.2402 1989.55 22.2402C1976.44 22.2402 1965.38 32.2509 1965.38 49.4662C1965.38 66.8332 1975.74 76.768 1988.97 76.768C2000.33 76.768 2007.47 71.3077 2010.63 61.6762L2008.17 60.2353C2005.36 68.5017 1999.15 73.507 1989.2 73.507C1977.14 73.507 1968.3 64.6339 1968.3 49.4662C1968.3 34.2985 1977.73 25.5013 1989.55 25.5013C1998.63 25.5013 2005.89 31.4925 2008.4 39.0764L2010.8 37.4079Z" fill="black"/>
<path d="M2022.83 23.9087H2020.02V75.0996H2022.83V23.9087Z" fill="black"/>
<path d="M2056.43 23.9087H2052.92L2029.86 75.0996H2032.96L2039.34 60.9178H2070.13L2076.8 75.0996H2080.02L2056.43 23.9087ZM2054.62 27.0181L2069.08 57.8843H2040.51L2054.62 27.0181Z" fill="black"/>
<path d="M2088.78 23.9087H2085.97V75.0996H2124.67V71.5352H2088.78V23.9087Z" fill="black"/>
<path d="M2180.04 23.9087H2177.23V52.4998C2177.23 67.2882 2170.15 73.4312 2161.72 73.4312C2153.05 73.4312 2147.38 67.2882 2145.97 59.2494L2143.22 60.4628C2145.03 70.0184 2151.53 76.768 2162.01 76.768C2171.67 76.768 2180.04 69.0325 2180.04 52.4998V23.9087Z" fill="black"/>
<path d="M2234.09 23.9087H2231.22V51.1347C2231.22 67.2124 2222.79 73.4312 2211.44 73.4312C2200.26 73.4312 2192.65 66.9849 2192.65 51.2105V23.9087H2189.78V51.7414C2189.78 69.1842 2198.56 76.768 2211.44 76.768C2224.38 76.768 2234.09 69.3359 2234.09 51.5897V23.9087Z" fill="black"/>
<path d="M2285.71 37.7871C2284.13 27.6248 2278.81 22.2402 2265.28 22.2402C2249.19 22.2402 2243.39 27.8523 2243.39 36.6495C2243.39 49.3904 2253.87 50.9071 2261.3 50.9071C2263.53 50.9071 2265.46 50.7555 2269.21 50.7555C2276.35 50.7555 2283.9 51.438 2283.9 60.5386C2283.9 68.5775 2278.1 73.5828 2265.05 73.5828C2251.24 73.5828 2246.26 68.6533 2245.56 59.7044H2242.51C2243.04 66.8332 2245.56 71.2318 2250.53 74.1137C2253.52 75.7821 2257.09 76.6922 2264.82 76.6922C2280.5 76.6922 2286.83 70.1701 2286.83 60.1594C2286.83 50.6038 2280.74 47.4186 2270.61 47.4186H2261.54C2255.22 47.4186 2246.38 47.0394 2246.38 36.6495C2246.38 29.5966 2251.59 25.2738 2265.34 25.2738C2276.46 25.2738 2281.32 29.6724 2282.9 37.9388L2285.71 37.7871Z" fill="black"/>
<path d="M2331.4 23.9087H2290.01V27.3214H2309.27V75.0996H2312.02V27.3214H2331.4V23.9087Z" fill="black"/>
<path d="M2340.96 23.9087H2338.15V75.0996H2340.96V23.9087Z" fill="black"/>
<path d="M2396.04 37.4079C2393.12 28.9898 2385.04 22.2402 2374.79 22.2402C2361.68 22.2402 2350.62 32.2509 2350.62 49.4662C2350.62 66.8332 2360.98 76.768 2374.21 76.768C2385.56 76.768 2392.71 71.3077 2395.87 61.6762L2393.41 60.2353C2390.6 68.5017 2384.39 73.507 2374.44 73.507C2362.38 73.507 2353.54 64.6339 2353.54 49.4662C2353.54 34.2985 2362.97 25.5013 2374.79 25.5013C2383.87 25.5013 2391.13 31.4925 2393.64 39.0764L2396.04 37.4079Z" fill="black"/>
<path d="M2446.18 23.9087H2404.56V75.0996H2446.94V71.6869H2407.37V50.3004H2442.25V47.1152H2407.37V27.0939H2446.18V23.9087Z" fill="black"/>
</g>
<defs>
<clipPath id="clip0_144_5">
<rect width="1896" height="126" fill="white"/>
</clipPath>
</defs>
</svg>
