<svg width="1896" height="110" viewBox="0 0 1896 110" fill="none" xmlns="http://www.w3.org/2000/svg">
<g clip-path="url(#clip0_144_6)">
<path d="M-169.015 18.6455H-173.633L-197.133 65.9907L-220.515 18.6455H-225.309V70.2948H-222.444V21.7199L-198.711 70.5254H-195.847L-171.821 21.7199V70.2948H-169.015V18.6455Z" fill="black"/>
<path d="M-117.127 18.6455H-158.689V70.5254H-116.367V67.0668H-155.883V45.3925H-121.043V42.1644H-155.883V21.8736H-117.127V18.6455Z" fill="black"/>
<path d="M-63.7515 18.6455H-66.6744V65.6064L-107.126 18.6455H-110.166V70.5254H-107.243V23.2571L-66.7328 70.5254H-63.7515V18.6455Z" fill="black"/>
<path d="M-16.1855 18.6455H-57.5141V22.1042H-38.282V70.5254H-35.5345V22.1042H-16.1855V18.6455Z" fill="black"/>
<path d="M7.50389 18.6455H3.99652L-19.0352 70.5254H-15.9371L-9.56532 56.1528H21.1826L27.8467 70.5254H31.0618L7.50389 18.6455ZM5.69176 21.7967L20.1304 53.0784H-8.39622L5.69176 21.7967Z" fill="black"/>
<path d="M39.8083 18.6455H37.0024V70.5254H75.6419V66.913H39.8083V18.6455Z" fill="black"/>
<path d="M142.514 18.6455H139.767V41.3958H100.776V18.6455H97.9704V70.5254H100.776V44.7776H139.767V70.5254H142.514V18.6455Z" fill="black"/>
<path d="M194.278 18.6455H152.716V70.5254H195.038V67.0668H155.522V45.3925H190.362V42.1644H155.522V21.8736H194.278V18.6455Z" fill="black"/>
<path d="M223.803 18.6455H220.296L197.264 70.5254H200.362L206.734 56.1528H237.482L244.146 70.5254H247.361L223.803 18.6455ZM221.991 21.7967L236.43 53.0784H207.903L221.991 21.7967Z" fill="black"/>
<path d="M256.108 18.6455H253.302V70.5254H291.941V66.913H256.108V18.6455Z" fill="black"/>
<path d="M327.644 18.6455H286.316V22.1042H305.548V70.5254H308.295V22.1042H327.644V18.6455Z" fill="black"/>
<path d="M378.223 18.6455H375.475V41.3958H336.485V18.6455H333.679V70.5254H336.485V44.7776H375.475V70.5254H378.223V18.6455Z" fill="black"/>
<path d="M1184.39 18.6455H1179.77L1156.27 65.9907L1132.89 18.6455H1128.1V70.2948H1130.96V21.7199L1154.7 70.5254H1157.56L1181.59 21.7199V70.2948H1184.39V18.6455Z" fill="black"/>
<path d="M1236.28 18.6455H1194.72V70.5254H1237.04V67.0668H1197.52V45.3925H1232.36V42.1644H1197.52V21.8736H1236.28V18.6455Z" fill="black"/>
<path d="M1289.65 18.6455H1286.73V65.6064L1246.28 18.6455H1243.24V70.5254H1246.16V23.2571L1286.67 70.5254H1289.65V18.6455Z" fill="black"/>
<path d="M1337.22 18.6455H1295.89V22.1042H1315.12V70.5254H1317.87V22.1042H1337.22V18.6455Z" fill="black"/>
<path d="M1360.91 18.6455H1357.4L1334.37 70.5254H1337.47L1343.84 56.1528H1374.59L1381.25 70.5254H1384.47L1360.91 18.6455ZM1359.1 21.7967L1373.54 53.0784H1345.01L1359.1 21.7967Z" fill="black"/>
<path d="M1393.21 18.6455H1390.41V70.5254H1429.05V66.913H1393.21V18.6455Z" fill="black"/>
<path d="M1495.92 18.6455H1493.17V41.3958H1454.18V18.6455H1451.38V70.5254H1454.18V44.7776H1493.17V70.5254H1495.92V18.6455Z" fill="black"/>
<path d="M1547.68 18.6455H1506.12V70.5254H1548.44V67.0668H1508.93V45.3925H1543.77V42.1644H1508.93V21.8736H1547.68V18.6455Z" fill="black"/>
<path d="M1577.21 18.6455H1573.7L1550.67 70.5254H1553.77L1560.14 56.1528H1590.89L1597.55 70.5254H1600.77L1577.21 18.6455ZM1575.4 21.7967L1589.84 53.0784H1561.31L1575.4 21.7967Z" fill="black"/>
<path d="M1609.51 18.6455H1606.71V70.5254H1645.35V66.913H1609.51V18.6455Z" fill="black"/>
<path d="M1681.05 18.6455H1639.72V22.1042H1658.95V70.5254H1661.7V22.1042H1681.05V18.6455Z" fill="black"/>
<path d="M1731.63 18.6455H1728.88V41.3958H1689.89V18.6455H1687.09V70.5254H1689.89V44.7776H1728.88V70.5254H1731.63V18.6455Z" fill="black"/>
<path d="M507.688 18.6455H503.07L479.57 65.9907L456.188 18.6455H451.395V70.2948H454.259V21.7199L477.992 70.5254H480.856L504.882 21.7199V70.2948H507.688V18.6455Z" fill="black"/>
<path d="M559.576 18.6455H518.014V70.5254H560.336V67.0668H520.82V45.3925H555.66V42.1644H520.82V21.8736H559.576V18.6455Z" fill="black"/>
<path d="M612.952 18.6455H610.029V65.6064L569.577 18.6455H566.537V70.5254H569.46V23.2571L609.97 70.5254H612.952V18.6455Z" fill="black"/>
<path d="M660.518 18.6455H619.189V22.1042H638.421V70.5254H641.169V22.1042H660.518V18.6455Z" fill="black"/>
<path d="M684.207 18.6455H680.7L657.668 70.5254H660.766L667.138 56.1528H697.886L704.55 70.5254H707.765L684.207 18.6455ZM682.395 21.7967L696.834 53.0784H668.307L682.395 21.7967Z" fill="black"/>
<path d="M716.511 18.6455H713.705V70.5254H752.345V66.913H716.511V18.6455Z" fill="black"/>
<path d="M819.217 18.6455H816.47V41.3958H777.479V18.6455H774.674V70.5254H777.479V44.7776H816.47V70.5254H819.217V18.6455Z" fill="black"/>
<path d="M870.982 18.6455H829.419V70.5254H871.741V67.0668H832.225V45.3925H867.065V42.1644H832.225V21.8736H870.982V18.6455Z" fill="black"/>
<path d="M900.507 18.6455H896.999L873.967 70.5254H877.066L883.437 56.1528H914.185L920.849 70.5254H924.064L900.507 18.6455ZM898.694 21.7967L913.133 53.0784H884.606L898.694 21.7967Z" fill="black"/>
<path d="M932.811 18.6455H930.005V70.5254H968.645V66.913H932.811V18.6455Z" fill="black"/>
<path d="M1004.35 18.6455H963.019V22.1042H982.251V70.5254H984.999V22.1042H1004.35V18.6455Z" fill="black"/>
<path d="M1054.93 18.6455H1052.18V41.3958H1013.19V18.6455H1010.38V70.5254H1013.19V44.7776H1052.18V70.5254H1054.93V18.6455Z" fill="black"/>
<path d="M1861.09 18.6455H1856.48L1832.98 65.9907L1809.59 18.6455H1804.8V70.2948H1807.67V21.7199L1831.4 70.5254H1834.26L1858.29 21.7199V70.2948H1861.09V18.6455Z" fill="black"/>
<path d="M1912.98 18.6455H1871.42V70.5254H1913.74V67.0668H1874.23V45.3925H1909.07V42.1644H1874.23V21.8736H1912.98V18.6455Z" fill="black"/>
<path d="M1966.36 18.6455H1963.44V65.6064L1922.98 18.6455H1919.94V70.5254H1922.87V23.2571L1963.38 70.5254H1966.36V18.6455Z" fill="black"/>
<path d="M2013.92 18.6455H1972.6V22.1042H1991.83V70.5254H1994.57V22.1042H2013.92V18.6455Z" fill="black"/>
<path d="M2037.61 18.6455H2034.11L2011.07 70.5254H2014.17L2020.54 56.1528H2051.29L2057.96 70.5254H2061.17L2037.61 18.6455ZM2035.8 21.7967L2050.24 53.0784H2021.71L2035.8 21.7967Z" fill="black"/>
<path d="M2069.92 18.6455H2067.11V70.5254H2105.75V66.913H2069.92V18.6455Z" fill="black"/>
<path d="M2172.62 18.6455H2169.88V41.3958H2130.89V18.6455H2128.08V70.5254H2130.89V44.7776H2169.88V70.5254H2172.62V18.6455Z" fill="black"/>
<path d="M2224.39 18.6455H2182.83V70.5254H2225.15V67.0668H2185.63V45.3925H2220.47V42.1644H2185.63V21.8736H2224.39V18.6455Z" fill="black"/>
<path d="M2253.91 18.6455H2250.41L2227.37 70.5254H2230.47L2236.84 56.1528H2267.59L2274.26 70.5254H2277.47L2253.91 18.6455ZM2252.1 21.7967L2266.54 53.0784H2238.01L2252.1 21.7967Z" fill="black"/>
<path d="M2286.22 18.6455H2283.41V70.5254H2322.05V66.913H2286.22V18.6455Z" fill="black"/>
<path d="M2357.75 18.6455H2316.43V22.1042H2335.66V70.5254H2338.4V22.1042H2357.75V18.6455Z" fill="black"/>
<path d="M2408.33 18.6455H2405.58V41.3958H2366.59V18.6455H2363.79V70.5254H2366.59V44.7776H2405.58V70.5254H2408.33V18.6455Z" fill="black"/>
</g>
<defs>
<clipPath id="clip0_144_6">
<rect width="1896" height="109" fill="white" transform="translate(0 0.911133)"/>
</clipPath>
</defs>
</svg>
