<svg width="1896" height="109" viewBox="0 0 1896 109" fill="none" xmlns="http://www.w3.org/2000/svg">
<g clip-path="url(#clip0_202_87)">
<path d="M696.992 37.7344H692.374L668.874 85.0796L645.492 37.7344H640.698V89.3837H643.563V40.8087L667.296 89.6143H670.16L694.186 40.8087V89.3837H696.992V37.7344Z" fill="black"/>
<path d="M748.88 37.7344H707.318V89.6143H749.64V86.1556H710.124V64.4813H744.964V61.2533H710.124V40.9625H748.88V37.7344Z" fill="black"/>
<path d="M802.255 37.7344H799.332V84.6953L758.881 37.7344H755.841V89.6143H758.764V42.3459L799.274 89.6143H802.255V37.7344Z" fill="black"/>
<path d="M849.821 37.7344H808.493V41.193H827.725V89.6143H830.472V41.193H849.821V37.7344Z" fill="black"/>
<path d="M873.511 37.7344H870.003L846.972 89.6143H850.07L856.442 75.2416H887.189L893.853 89.6143H897.069L873.511 37.7344ZM871.699 40.8856L886.137 72.1673H857.611L871.699 40.8856Z" fill="black"/>
<path d="M905.815 37.7344H903.009V89.6143H941.649V86.0019H905.815V37.7344Z" fill="black"/>
<path d="M1008.52 37.7344H1005.77V60.4847H966.783V37.7344H963.977V89.6143H966.783V63.8665H1005.77V89.6143H1008.52V37.7344Z" fill="black"/>
<path d="M1060.29 37.7344H1018.72V89.6143H1061.05V86.1556H1021.53V64.4813H1056.37V61.2533H1021.53V40.9625H1060.29V37.7344Z" fill="black"/>
<path d="M1089.81 37.7344H1086.3L1063.27 89.6143H1066.37L1072.74 75.2416H1103.49L1110.15 89.6143H1113.37L1089.81 37.7344ZM1088 40.8856L1102.44 72.1673H1073.91L1088 40.8856Z" fill="black"/>
<path d="M1122.11 37.7344H1119.31V89.6143H1157.95V86.0019H1122.11V37.7344Z" fill="black"/>
<path d="M1193.65 37.7344H1152.32V41.193H1171.55V89.6143H1174.3V41.193H1193.65V37.7344Z" fill="black"/>
<path d="M1244.23 37.7344H1241.48V60.4847H1202.49V37.7344H1199.69V89.6143H1202.49V63.8665H1241.48V89.6143H1244.23V37.7344Z" fill="black"/>
<path d="M20.2885 37.7344H15.6704L-7.82897 85.0796L-31.2115 37.7344H-36.0049V89.3837H-33.1405V40.8087L-9.40729 89.6143H-6.54294L17.4826 40.8087V89.3837H20.2885V37.7344Z" fill="black"/>
<path d="M72.1771 37.7344H30.6147V89.6143H72.937V86.1556H33.4206V64.4813H68.2605V61.2533H33.4206V40.9625H72.1771V37.7344Z" fill="black"/>
<path d="M125.552 37.7344H122.629V84.6953L82.1776 37.7344H79.1379V89.6143H82.0607V42.3459L122.571 89.6143H125.552V37.7344Z" fill="black"/>
<path d="M173.118 37.7344H131.79V41.193H151.022V89.6143H153.769V41.193H173.118V37.7344Z" fill="black"/>
<path d="M196.808 37.7344H193.3L170.268 89.6143H173.367L179.738 75.2416H210.486L217.15 89.6143H220.365L196.808 37.7344ZM194.995 40.8856L209.434 72.1673H180.907L194.995 40.8856Z" fill="black"/>
<path d="M229.112 37.7344H226.306V89.6143H264.946V86.0019H229.112V37.7344Z" fill="black"/>
<path d="M331.818 37.7344H329.07V60.4847H290.08V37.7344H287.274V89.6143H290.08V63.8665H329.07V89.6143H331.818V37.7344Z" fill="black"/>
<path d="M383.582 37.7344H342.02V89.6143H384.342V86.1556H344.826V64.4813H379.666V61.2533H344.826V40.9625H383.582V37.7344Z" fill="black"/>
<path d="M413.107 37.7344H409.6L386.568 89.6143H389.666L396.038 75.2416H426.786L433.45 89.6143H436.665L413.107 37.7344ZM411.295 40.8856L425.734 72.1673H397.207L411.295 40.8856Z" fill="black"/>
<path d="M445.411 37.7344H442.606V89.6143H481.245V86.0019H445.411V37.7344Z" fill="black"/>
<path d="M516.948 37.7344H475.62V41.193H494.852V89.6143H497.599V41.193H516.948V37.7344Z" fill="black"/>
<path d="M567.527 37.7344H564.779V60.4847H525.789V37.7344H522.983V89.6143H525.789V63.8665H564.779V89.6143H567.527V37.7344Z" fill="black"/>
<path d="M1373.69 37.7344H1369.08L1345.58 85.0796L1322.19 37.7344H1317.4V89.3837H1320.27V40.8087L1344 89.6143H1346.86L1370.89 40.8087V89.3837H1373.69V37.7344Z" fill="black"/>
<path d="M1425.58 37.7344H1384.02V89.6143H1426.34V86.1556H1386.83V64.4813H1421.67V61.2533H1386.83V40.9625H1425.58V37.7344Z" fill="black"/>
<path d="M1478.96 37.7344H1476.04V84.6953L1435.58 37.7344H1432.54V89.6143H1435.47V42.3459L1475.98 89.6143H1478.96V37.7344Z" fill="black"/>
<path d="M1526.52 37.7344H1485.2V41.193H1504.43V89.6143H1507.18V41.193H1526.52V37.7344Z" fill="black"/>
<path d="M1550.21 37.7344H1546.71L1523.67 89.6143H1526.77L1533.14 75.2416H1563.89L1570.56 89.6143H1573.77L1550.21 37.7344ZM1548.4 40.8856L1562.84 72.1673H1534.31L1548.4 40.8856Z" fill="black"/>
<path d="M1582.52 37.7344H1579.71V89.6143H1618.35V86.0019H1582.52V37.7344Z" fill="black"/>
<path d="M1685.22 37.7344H1682.48V60.4847H1643.49V37.7344H1640.68V89.6143H1643.49V63.8665H1682.48V89.6143H1685.22V37.7344Z" fill="black"/>
<path d="M1736.99 37.7344H1695.43V89.6143H1737.75V86.1556H1698.23V64.4813H1733.07V61.2533H1698.23V40.9625H1736.99V37.7344Z" fill="black"/>
<path d="M1766.51 37.7344H1763.01L1739.97 89.6143H1743.07L1749.44 75.2416H1780.19L1786.86 89.6143H1790.07L1766.51 37.7344ZM1764.7 40.8856L1779.14 72.1673H1750.61L1764.7 40.8856Z" fill="black"/>
<path d="M1798.82 37.7344H1796.01V89.6143H1834.65V86.0019H1798.82V37.7344Z" fill="black"/>
<path d="M1870.35 37.7344H1829.03V41.193H1848.26V89.6143H1851.01V41.193H1870.35V37.7344Z" fill="black"/>
<path d="M1920.93 37.7344H1918.19V60.4847H1879.2V37.7344H1876.39V89.6143H1879.2V63.8665H1918.19V89.6143H1920.93V37.7344Z" fill="black"/>
</g>
<defs>
<clipPath id="clip0_202_87">
<rect width="1896" height="109" fill="white"/>
</clipPath>
</defs>
</svg>
