<svg width="1896" height="110" viewBox="0 0 1896 110" fill="none" xmlns="http://www.w3.org/2000/svg">
<g clip-path="url(#clip0_144_10)">
<path d="M-177.03 37.9502C-178.629 27.7393 -184.019 22.3291 -197.701 22.3291C-213.99 22.3291 -219.854 27.968 -219.854 36.8072C-219.854 49.6089 -209.251 51.133 -201.729 51.133C-199.478 51.133 -197.524 50.9806 -193.733 50.9806C-186.507 50.9806 -178.866 51.6664 -178.866 60.8104C-178.866 68.8877 -184.73 73.9169 -197.938 73.9169C-211.917 73.9169 -216.951 68.9639 -217.662 59.9722H-220.742C-220.209 67.1351 -217.662 71.5547 -212.628 74.4504C-209.607 76.1268 -205.994 77.0412 -198.175 77.0412C-182.302 77.0412 -175.905 70.4879 -175.905 60.4294C-175.905 50.8281 -182.065 47.6277 -192.312 47.6277H-201.492C-207.889 47.6277 -216.833 47.2467 -216.833 36.8072C-216.833 29.7206 -211.561 25.3771 -197.642 25.3771C-186.388 25.3771 -181.472 29.7968 -179.873 38.1026L-177.03 37.9502Z" fill="black"/>
<path d="M-122.601 24.0055H-125.504V51.3616C-125.504 67.5161 -134.033 73.7645 -145.524 73.7645C-156.837 73.7645 -164.537 67.2875 -164.537 51.4378V24.0055H-167.439V51.9712C-167.439 69.4973 -158.554 77.1174 -145.524 77.1174C-132.434 77.1174 -122.601 69.6497 -122.601 51.8188V24.0055Z" fill="black"/>
<path d="M-70.3687 37.9502C-71.968 27.7393 -77.3579 22.3291 -91.0402 22.3291C-107.329 22.3291 -113.192 27.968 -113.192 36.8072C-113.192 49.6089 -102.59 51.133 -95.0679 51.133C-92.8171 51.133 -90.8625 50.9806 -87.0717 50.9806C-79.8456 50.9806 -72.2049 51.6664 -72.2049 60.8104C-72.2049 68.8877 -78.0687 73.9169 -91.2771 73.9169C-105.256 73.9169 -110.29 68.9639 -111.001 59.9722H-114.081C-113.548 67.1351 -111.001 71.5547 -105.966 74.4504C-102.946 76.1268 -99.3325 77.0412 -91.514 77.0412C-75.6402 77.0412 -69.2433 70.4879 -69.2433 60.4294C-69.2433 50.8281 -75.4033 47.6277 -85.6502 47.6277H-94.831C-101.228 47.6277 -110.172 47.2467 -110.172 36.8072C-110.172 29.7206 -104.9 25.3771 -90.981 25.3771C-79.7272 25.3771 -74.811 29.7968 -73.2118 38.1026L-70.3687 37.9502Z" fill="black"/>
<path d="M-24.1411 24.0055H-66.0171V27.4345H-46.5303V75.441H-43.7464V27.4345H-24.1411V24.0055Z" fill="black"/>
<path d="M-0.137933 24.0055H-3.69176L-27.0286 75.441H-23.8894L-17.4332 61.1914H13.722L20.4743 75.441H23.732L-0.137933 24.0055ZM-1.97407 27.1297L12.6559 58.1434H-16.2487L-1.97407 27.1297Z" fill="black"/>
<path d="M33.3051 24.0055H30.4621V75.441H33.3051V24.0055Z" fill="black"/>
<path d="M91.4723 24.0055H88.5108V70.5641L47.5232 24.0055H44.4432V75.441H47.4048V28.5776L88.4516 75.441H91.4723V24.0055Z" fill="black"/>
<path d="M124.802 24.0055H121.248L97.9109 75.441H101.05L107.506 61.1914H138.662L145.414 75.441H148.671L124.802 24.0055ZM122.965 27.1297L137.595 58.1434H108.691L122.965 27.1297Z" fill="black"/>
<path d="M154.691 24.0055V75.441H186.971C197.041 75.441 201.72 68.8877 201.72 60.5056C201.72 55.0954 198.344 49.7613 193.487 48.6183C197.396 47.1705 199.588 41.8365 199.588 37.493C199.588 29.4158 195.027 24.0055 186.971 24.0055H154.691ZM190.051 50.3709C194.671 50.3709 198.462 55.2478 198.462 60.1246C198.462 67.0589 194.553 72.0881 186.616 72.0881H157.534V50.3709H190.051ZM186.616 27.2821C193.013 27.2821 196.804 31.4732 196.804 38.0264C196.804 41.9889 194.198 47.1705 190.051 47.1705H157.534V27.2821H186.616Z" fill="black"/>
<path d="M213.947 24.0055H211.104V75.441H213.947V24.0055Z" fill="black"/>
<path d="M227.928 24.0055H225.085V75.441H264.236V71.8595H227.928V24.0055Z" fill="black"/>
<path d="M273.177 24.0055H270.334V75.441H273.177V24.0055Z" fill="black"/>
<path d="M322.045 24.0055H280.169V27.4345H299.656V75.441H302.44V27.4345H322.045V24.0055Z" fill="black"/>
<path d="M370.865 24.0055H367.489L347.706 52.9618L327.745 24.0055H324.132L346.166 56.1622V75.2124H349.068V56.1622L370.865 24.0055Z" fill="black"/>
<path d="M1152.53 37.9502C1150.93 27.7393 1145.54 22.3291 1131.86 22.3291C1115.57 22.3291 1109.7 27.968 1109.7 36.8072C1109.7 49.6089 1120.31 51.133 1127.83 51.133C1130.08 51.133 1132.03 50.9806 1135.83 50.9806C1143.05 50.9806 1150.69 51.6664 1150.69 60.8104C1150.69 68.8877 1144.83 73.9169 1131.62 73.9169C1117.64 73.9169 1112.61 68.9639 1111.9 59.9722H1108.82C1109.35 67.1351 1111.9 71.5547 1116.93 74.4504C1119.95 76.1268 1123.56 77.0412 1131.38 77.0412C1147.26 77.0412 1153.65 70.4879 1153.65 60.4294C1153.65 50.8281 1147.49 47.6277 1137.25 47.6277H1128.07C1121.67 47.6277 1112.73 47.2467 1112.73 36.8072C1112.73 29.7206 1118 25.3771 1131.92 25.3771C1143.17 25.3771 1148.09 29.7968 1149.69 38.1026L1152.53 37.9502Z" fill="black"/>
<path d="M1206.96 24.0055H1204.05V51.3616C1204.05 67.5161 1195.53 73.7645 1184.04 73.7645C1172.72 73.7645 1165.02 67.2875 1165.02 51.4378V24.0055H1162.12V51.9712C1162.12 69.4973 1171 77.1174 1184.04 77.1174C1197.13 77.1174 1206.96 69.6497 1206.96 51.8188V24.0055Z" fill="black"/>
<path d="M1259.19 37.9502C1257.59 27.7393 1252.2 22.3291 1238.52 22.3291C1222.23 22.3291 1216.37 27.968 1216.37 36.8072C1216.37 49.6089 1226.97 51.133 1234.49 51.133C1236.74 51.133 1238.7 50.9806 1242.49 50.9806C1249.71 50.9806 1257.35 51.6664 1257.35 60.8104C1257.35 68.8877 1251.49 73.9169 1238.28 73.9169C1224.3 73.9169 1219.27 68.9639 1218.56 59.9722H1215.48C1216.01 67.1351 1218.56 71.5547 1223.59 74.4504C1226.61 76.1268 1230.23 77.0412 1238.04 77.0412C1253.92 77.0412 1260.32 70.4879 1260.32 60.4294C1260.32 50.8281 1254.16 47.6277 1243.91 47.6277H1234.73C1228.33 47.6277 1219.39 47.2467 1219.39 36.8072C1219.39 29.7206 1224.66 25.3771 1238.58 25.3771C1249.83 25.3771 1254.75 29.7968 1256.35 38.1026L1259.19 37.9502Z" fill="black"/>
<path d="M1305.42 24.0055H1263.54V27.4345H1283.03V75.441H1285.81V27.4345H1305.42V24.0055Z" fill="black"/>
<path d="M1329.42 24.0055H1325.87L1302.53 75.441H1305.67L1312.13 61.1914H1343.28L1350.03 75.441H1353.29L1329.42 24.0055ZM1327.58 27.1297L1342.21 58.1434H1313.31L1327.58 27.1297Z" fill="black"/>
<path d="M1362.86 24.0055H1360.02V75.441H1362.86V24.0055Z" fill="black"/>
<path d="M1421.03 24.0055H1418.07V70.5641L1377.08 24.0055H1374V75.441H1376.96V28.5776L1418.01 75.441H1421.03V24.0055Z" fill="black"/>
<path d="M1454.36 24.0055H1450.81L1427.47 75.441H1430.61L1437.06 61.1914H1468.22L1474.97 75.441H1478.23L1454.36 24.0055ZM1452.52 27.1297L1467.15 58.1434H1438.25L1452.52 27.1297Z" fill="black"/>
<path d="M1484.25 24.0055V75.441H1516.53C1526.6 75.441 1531.28 68.8877 1531.28 60.5056C1531.28 55.0954 1527.9 49.7613 1523.05 48.6183C1526.95 47.1705 1529.15 41.8365 1529.15 37.493C1529.15 29.4158 1524.59 24.0055 1516.53 24.0055H1484.25ZM1519.61 50.3709C1524.23 50.3709 1528.02 55.2478 1528.02 60.1246C1528.02 67.0589 1524.11 72.0881 1516.17 72.0881H1487.09V50.3709H1519.61ZM1516.17 27.2821C1522.57 27.2821 1526.36 31.4732 1526.36 38.0264C1526.36 41.9889 1523.76 47.1705 1519.61 47.1705H1487.09V27.2821H1516.17Z" fill="black"/>
<path d="M1543.51 24.0055H1540.66V75.441H1543.51V24.0055Z" fill="black"/>
<path d="M1557.49 24.0055H1554.64V75.441H1593.79V71.8595H1557.49V24.0055Z" fill="black"/>
<path d="M1602.74 24.0055H1599.89V75.441H1602.74V24.0055Z" fill="black"/>
<path d="M1651.6 24.0055H1609.73V27.4345H1629.21V75.441H1632V27.4345H1651.6V24.0055Z" fill="black"/>
<path d="M1700.42 24.0055H1697.05L1677.26 52.9618L1657.3 24.0055H1653.69L1675.72 56.1622V75.2124H1678.63V56.1622L1700.42 24.0055Z" fill="black"/>
<path d="M487.749 37.9502C486.15 27.7393 480.76 22.3291 467.078 22.3291C450.789 22.3291 444.926 27.968 444.926 36.8072C444.926 49.6089 455.528 51.133 463.05 51.133C465.301 51.133 467.255 50.9806 471.046 50.9806C478.272 50.9806 485.913 51.6664 485.913 60.8104C485.913 68.8877 480.049 73.9169 466.841 73.9169C452.862 73.9169 447.828 68.9639 447.117 59.9722H444.037C444.57 67.1351 447.117 71.5547 452.152 74.4504C455.172 76.1268 458.786 77.0412 466.604 77.0412C482.478 77.0412 488.875 70.4879 488.875 60.4294C488.875 50.8281 482.715 47.6277 472.468 47.6277H463.287C456.89 47.6277 447.946 47.2467 447.946 36.8072C447.946 29.7206 453.218 25.3771 467.137 25.3771C478.391 25.3771 483.307 29.7968 484.906 38.1026L487.749 37.9502Z" fill="black"/>
<path d="M542.178 24.0055H539.276V51.3616C539.276 67.5161 530.747 73.7645 519.256 73.7645C507.943 73.7645 500.243 67.2875 500.243 51.4378V24.0055H497.34V51.9712C497.34 69.4973 506.225 77.1174 519.256 77.1174C532.346 77.1174 542.178 69.6497 542.178 51.8188V24.0055Z" fill="black"/>
<path d="M594.411 37.9502C592.811 27.7393 587.421 22.3291 573.739 22.3291C557.451 22.3291 551.587 27.968 551.587 36.8072C551.587 49.6089 562.189 51.133 569.711 51.133C571.962 51.133 573.917 50.9806 577.708 50.9806C584.934 50.9806 592.574 51.6664 592.574 60.8104C592.574 68.8877 586.711 73.9169 573.502 73.9169C559.524 73.9169 554.489 68.9639 553.778 59.9722H550.698C551.231 67.1351 553.778 71.5547 558.813 74.4504C561.834 76.1268 565.447 77.0412 573.265 77.0412C589.139 77.0412 595.536 70.4879 595.536 60.4294C595.536 50.8281 589.376 47.6277 579.129 47.6277H569.948C563.551 47.6277 554.608 47.2467 554.608 36.8072C554.608 29.7206 559.879 25.3771 573.798 25.3771C585.052 25.3771 589.968 29.7968 591.568 38.1026L594.411 37.9502Z" fill="black"/>
<path d="M640.638 24.0055H598.762V27.4345H618.249V75.441H621.033V27.4345H640.638V24.0055Z" fill="black"/>
<path d="M664.641 24.0055H661.088L637.751 75.441H640.89L647.346 61.1914H678.501L685.254 75.441H688.511L664.641 24.0055ZM662.805 27.1297L677.435 58.1434H648.531L662.805 27.1297Z" fill="black"/>
<path d="M698.084 24.0055H695.241V75.441H698.084V24.0055Z" fill="black"/>
<path d="M756.252 24.0055H753.29V70.5641L712.303 24.0055H709.223V75.441H712.184V28.5776L753.231 75.441H756.252V24.0055Z" fill="black"/>
<path d="M789.581 24.0055H786.027L762.69 75.441H765.829L772.286 61.1914H803.441L810.193 75.441H813.451L789.581 24.0055ZM787.745 27.1297L802.375 58.1434H773.47L787.745 27.1297Z" fill="black"/>
<path d="M819.47 24.0055V75.441H851.751C861.82 75.441 866.499 68.8877 866.499 60.5056C866.499 55.0954 863.123 49.7613 858.266 48.6183C862.175 47.1705 864.367 41.8365 864.367 37.493C864.367 29.4158 859.806 24.0055 851.751 24.0055H819.47ZM854.831 50.3709C859.451 50.3709 863.241 55.2478 863.241 60.1246C863.241 67.0589 859.332 72.0881 851.395 72.0881H822.313V50.3709H854.831ZM851.395 27.2821C857.792 27.2821 861.583 31.4732 861.583 38.0264C861.583 41.9889 858.977 47.1705 854.831 47.1705H822.313V27.2821H851.395Z" fill="black"/>
<path d="M878.726 24.0055H875.883V75.441H878.726V24.0055Z" fill="black"/>
<path d="M892.707 24.0055H889.864V75.441H929.016V71.8595H892.707V24.0055Z" fill="black"/>
<path d="M937.957 24.0055H935.114V75.441H937.957V24.0055Z" fill="black"/>
<path d="M986.825 24.0055H944.949V27.4345H964.436V75.441H967.219V27.4345H986.825V24.0055Z" fill="black"/>
<path d="M1035.64 24.0055H1032.27L1012.49 52.9618L992.525 24.0055H988.912L1010.95 56.1622V75.2124H1013.85V56.1622L1035.64 24.0055Z" fill="black"/>
<path d="M1817.31 37.9502C1815.71 27.7393 1810.32 22.3291 1796.64 22.3291C1780.35 22.3291 1774.48 27.968 1774.48 36.8072C1774.48 49.6089 1785.09 51.133 1792.61 51.133C1794.86 51.133 1796.81 50.9806 1800.6 50.9806C1807.83 50.9806 1815.47 51.6664 1815.47 60.8104C1815.47 68.8877 1809.61 73.9169 1796.4 73.9169C1782.42 73.9169 1777.39 68.9639 1776.68 59.9722H1773.6C1774.13 67.1351 1776.68 71.5547 1781.71 74.4504C1784.73 76.1268 1788.34 77.0412 1796.16 77.0412C1812.04 77.0412 1818.43 70.4879 1818.43 60.4294C1818.43 50.8281 1812.27 47.6277 1802.03 47.6277H1792.85C1786.45 47.6277 1777.5 47.2467 1777.5 36.8072C1777.5 29.7206 1782.78 25.3771 1796.7 25.3771C1807.95 25.3771 1812.87 29.7968 1814.46 38.1026L1817.31 37.9502Z" fill="black"/>
<path d="M1871.74 24.0055H1868.83V51.3616C1868.83 67.5161 1860.31 73.7645 1848.81 73.7645C1837.5 73.7645 1829.8 67.2875 1829.8 51.4378V24.0055H1826.9V51.9712C1826.9 69.4973 1835.78 77.1174 1848.81 77.1174C1861.9 77.1174 1871.74 69.6497 1871.74 51.8188V24.0055Z" fill="black"/>
<path d="M1923.97 37.9502C1922.37 27.7393 1916.98 22.3291 1903.3 22.3291C1887.01 22.3291 1881.15 27.968 1881.15 36.8072C1881.15 49.6089 1891.75 51.133 1899.27 51.133C1901.52 51.133 1903.48 50.9806 1907.27 50.9806C1914.49 50.9806 1922.13 51.6664 1922.13 60.8104C1922.13 68.8877 1916.27 73.9169 1903.06 73.9169C1889.08 73.9169 1884.05 68.9639 1883.34 59.9722H1880.26C1880.79 67.1351 1883.34 71.5547 1888.37 74.4504C1891.39 76.1268 1895.01 77.0412 1902.82 77.0412C1918.7 77.0412 1925.09 70.4879 1925.09 60.4294C1925.09 50.8281 1918.93 47.6277 1908.69 47.6277H1899.51C1893.11 47.6277 1884.17 47.2467 1884.17 36.8072C1884.17 29.7206 1889.44 25.3771 1903.36 25.3771C1914.61 25.3771 1919.53 29.7968 1921.13 38.1026L1923.97 37.9502Z" fill="black"/>
<path d="M1970.2 24.0055H1928.32V27.4345H1947.81V75.441H1950.59V27.4345H1970.2V24.0055Z" fill="black"/>
<path d="M1994.2 24.0055H1990.65L1967.31 75.441H1970.45L1976.9 61.1914H2008.06L2014.81 75.441H2018.07L1994.2 24.0055ZM1992.36 27.1297L2006.99 58.1434H1978.09L1992.36 27.1297Z" fill="black"/>
<path d="M2027.64 24.0055H2024.8V75.441H2027.64V24.0055Z" fill="black"/>
<path d="M2085.81 24.0055H2082.85V70.5641L2041.86 24.0055H2038.78V75.441H2041.74V28.5776L2082.79 75.441H2085.81V24.0055Z" fill="black"/>
<path d="M2119.14 24.0055H2115.59L2092.25 75.441H2095.39L2101.84 61.1914H2133L2139.75 75.441H2143.01L2119.14 24.0055ZM2117.3 27.1297L2131.93 58.1434H2103.03L2117.3 27.1297Z" fill="black"/>
<path d="M2149.03 24.0055V75.441H2181.31C2191.38 75.441 2196.06 68.8877 2196.06 60.5056C2196.06 55.0954 2192.68 49.7613 2187.82 48.6183C2191.73 47.1705 2193.93 41.8365 2193.93 37.493C2193.93 29.4158 2189.36 24.0055 2181.31 24.0055H2149.03ZM2184.39 50.3709C2189.01 50.3709 2192.8 55.2478 2192.8 60.1246C2192.8 67.0589 2188.89 72.0881 2180.95 72.0881H2151.87V50.3709H2184.39ZM2180.95 27.2821C2187.35 27.2821 2191.14 31.4732 2191.14 38.0264C2191.14 41.9889 2188.54 47.1705 2184.39 47.1705H2151.87V27.2821H2180.95Z" fill="black"/>
<path d="M2208.28 24.0055H2205.44V75.441H2208.28V24.0055Z" fill="black"/>
<path d="M2222.27 24.0055H2219.42V75.441H2258.57V71.8595H2222.27V24.0055Z" fill="black"/>
<path d="M2267.52 24.0055H2264.67V75.441H2267.52V24.0055Z" fill="black"/>
<path d="M2316.38 24.0055H2274.51V27.4345H2293.99V75.441H2296.78V27.4345H2316.38V24.0055Z" fill="black"/>
<path d="M2365.2 24.0055H2361.83L2342.04 52.9618L2322.08 24.0055H2318.47L2340.5 56.1622V75.2124H2343.41V56.1622L2365.2 24.0055Z" fill="black"/>
</g>
<defs>
<clipPath id="clip0_144_10">
<rect width="1896" height="109" fill="white" transform="translate(0 0.0888672)"/>
</clipPath>
</defs>
</svg>
