<svg width="1896" height="110" viewBox="0 0 1896 110" fill="none" xmlns="http://www.w3.org/2000/svg">
<g clip-path="url(#clip0_202_98)">
<path d="M-395.278 38.5621C-396.877 28.3512 -402.267 22.9409 -415.95 22.9409C-432.238 22.9409 -438.102 28.5798 -438.102 37.419C-438.102 50.2208 -427.5 51.7448 -419.977 51.7448C-417.726 51.7448 -415.772 51.5924 -411.981 51.5924C-404.755 51.5924 -397.114 52.2782 -397.114 61.4223C-397.114 69.4995 -402.978 74.5288 -416.186 74.5288C-430.165 74.5288 -435.199 69.5757 -435.91 60.584H-438.99C-438.457 67.7469 -435.91 72.1665 -430.876 75.0622C-427.855 76.7386 -424.242 77.653 -416.423 77.653C-400.55 77.653 -394.153 71.0997 -394.153 61.0412C-394.153 51.44 -400.313 48.2395 -410.56 48.2395H-419.74C-426.137 48.2395 -435.081 47.8585 -435.081 37.419C-435.081 30.3324 -429.809 25.9889 -415.89 25.9889C-404.637 25.9889 -399.72 30.4086 -398.121 38.7145L-395.278 38.5621Z" fill="black"/>
<path d="M-340.849 24.6173H-343.752V51.9734C-343.752 68.1279 -352.281 74.3764 -363.772 74.3764C-375.085 74.3764 -382.785 67.8993 -382.785 52.0496V24.6173H-385.687V52.583C-385.687 70.1091 -376.802 77.7292 -363.772 77.7292C-350.682 77.7292 -340.849 70.2615 -340.849 52.4306V24.6173Z" fill="black"/>
<path d="M-288.617 38.5621C-290.216 28.3512 -295.606 22.9409 -309.288 22.9409C-325.577 22.9409 -331.44 28.5798 -331.44 37.419C-331.44 50.2208 -320.838 51.7448 -313.316 51.7448C-311.065 51.7448 -309.111 51.5924 -305.32 51.5924C-298.094 51.5924 -290.453 52.2782 -290.453 61.4223C-290.453 69.4995 -296.317 74.5288 -309.525 74.5288C-323.504 74.5288 -328.538 69.5757 -329.249 60.584H-332.329C-331.796 67.7469 -329.249 72.1665 -324.214 75.0622C-321.194 76.7386 -317.581 77.653 -309.762 77.653C-293.888 77.653 -287.491 71.0997 -287.491 61.0412C-287.491 51.44 -293.651 48.2395 -303.898 48.2395H-313.079C-319.476 48.2395 -328.42 47.8585 -328.42 37.419C-328.42 30.3324 -323.148 25.9889 -309.229 25.9889C-297.975 25.9889 -293.059 30.4086 -291.46 38.7145L-288.617 38.5621Z" fill="black"/>
<path d="M-242.389 24.6173H-284.265V28.0464H-264.778V76.0528H-261.994V28.0464H-242.389V24.6173Z" fill="black"/>
<path d="M-218.386 24.6173H-221.94L-245.277 76.0528H-242.137L-235.681 61.8033H-204.526L-197.774 76.0528H-194.516L-218.386 24.6173ZM-220.222 27.7416L-205.592 58.7552H-234.497L-220.222 27.7416Z" fill="black"/>
<path d="M-184.943 24.6173H-187.786V76.0528H-184.943V24.6173Z" fill="black"/>
<path d="M-126.776 24.6173H-129.737V71.1759L-170.725 24.6173H-173.805V76.0528H-170.843V29.1894L-129.796 76.0528H-126.776V24.6173Z" fill="black"/>
<path d="M-93.4465 24.6173H-97.0003L-120.337 76.0528H-117.198L-110.742 61.8033H-79.5865L-72.8343 76.0528H-69.5766L-93.4465 24.6173ZM-95.2826 27.7416L-80.6527 58.7552H-109.557L-95.2826 27.7416Z" fill="black"/>
<path d="M-63.5573 24.6173V76.0528H-31.2766C-21.2074 76.0528 -16.5282 69.4995 -16.5282 61.1174C-16.5282 55.7072 -19.9043 50.3732 -24.7613 49.2301C-20.852 47.7823 -18.6605 42.4483 -18.6605 38.1048C-18.6605 30.0276 -23.2212 24.6173 -31.2766 24.6173H-63.5573ZM-28.1966 50.9828C-23.5767 50.9828 -19.7859 55.8596 -19.7859 60.7364C-19.7859 67.6707 -23.6951 72.7 -31.632 72.7H-60.7142V50.9828H-28.1966ZM-31.632 27.894C-25.2351 27.894 -21.4443 32.085 -21.4443 38.6383C-21.4443 42.6007 -24.0505 47.7823 -28.1966 47.7823H-60.7142V27.894H-31.632Z" fill="black"/>
<path d="M-4.30124 24.6173H-7.14432V76.0528H-4.30124V24.6173Z" fill="black"/>
<path d="M9.67994 24.6173H6.8369V76.0528H45.9883V72.4713H9.67994V24.6173Z" fill="black"/>
<path d="M54.9293 24.6173H52.0862V76.0528H54.9293V24.6173Z" fill="black"/>
<path d="M103.797 24.6173H61.9213V28.0464H81.4082V76.0528H84.192V28.0464H103.797V24.6173Z" fill="black"/>
<path d="M152.617 24.6173H149.241L129.458 53.5736L109.497 24.6173H105.884L127.918 56.774V75.8242H130.82V56.774L152.617 24.6173Z" fill="black"/>
<path d="M934.281 38.5621C932.681 28.3512 927.291 22.9409 913.609 22.9409C897.321 22.9409 891.457 28.5798 891.457 37.419C891.457 50.2208 902.059 51.7448 909.581 51.7448C911.832 51.7448 913.787 51.5924 917.577 51.5924C924.804 51.5924 932.444 52.2782 932.444 61.4223C932.444 69.4995 926.581 74.5288 913.372 74.5288C899.394 74.5288 894.359 69.5757 893.648 60.584H890.568C891.101 67.7469 893.648 72.1665 898.683 75.0622C901.704 76.7386 905.317 77.653 913.135 77.653C929.009 77.653 935.406 71.0997 935.406 61.0412C935.406 51.44 929.246 48.2395 918.999 48.2395H909.818C903.421 48.2395 894.478 47.8585 894.478 37.419C894.478 30.3324 899.749 25.9889 913.668 25.9889C924.922 25.9889 929.838 30.4086 931.437 38.7145L934.281 38.5621Z" fill="black"/>
<path d="M988.709 24.6173H985.807V51.9734C985.807 68.1279 977.278 74.3764 965.787 74.3764C954.474 74.3764 946.774 67.8993 946.774 52.0496V24.6173H943.872V52.583C943.872 70.1091 952.756 77.7292 965.787 77.7292C978.877 77.7292 988.709 70.2615 988.709 52.4306V24.6173Z" fill="black"/>
<path d="M1040.94 38.5621C1039.34 28.3512 1033.95 22.9409 1020.27 22.9409C1003.98 22.9409 998.118 28.5798 998.118 37.419C998.118 50.2208 1008.72 51.7448 1016.24 51.7448C1018.49 51.7448 1020.45 51.5924 1024.24 51.5924C1031.46 51.5924 1039.11 52.2782 1039.11 61.4223C1039.11 69.4995 1033.24 74.5288 1020.03 74.5288C1006.06 74.5288 1001.02 69.5757 1000.31 60.584H997.23C997.763 67.7469 1000.31 72.1665 1005.34 75.0622C1008.37 76.7386 1011.98 77.653 1019.8 77.653C1035.67 77.653 1042.07 71.0997 1042.07 61.0412C1042.07 51.44 1035.91 48.2395 1025.66 48.2395H1016.48C1010.08 48.2395 1001.14 47.8585 1001.14 37.419C1001.14 30.3324 1006.41 25.9889 1020.33 25.9889C1031.58 25.9889 1036.5 30.4086 1038.1 38.7145L1040.94 38.5621Z" fill="black"/>
<path d="M1087.17 24.6173H1045.29V28.0464H1064.78V76.0528H1067.56V28.0464H1087.17V24.6173Z" fill="black"/>
<path d="M1111.17 24.6173H1107.62L1084.28 76.0528H1087.42L1093.88 61.8033H1125.03L1131.78 76.0528H1135.04L1111.17 24.6173ZM1109.34 27.7416L1123.97 58.7552H1095.06L1109.34 27.7416Z" fill="black"/>
<path d="M1144.62 24.6173H1141.77V76.0528H1144.62V24.6173Z" fill="black"/>
<path d="M1202.78 24.6173H1199.82V71.1759L1158.83 24.6173H1155.75V76.0528H1158.72V29.1894L1199.76 76.0528H1202.78V24.6173Z" fill="black"/>
<path d="M1236.11 24.6173H1232.56L1209.22 76.0528H1212.36L1218.82 61.8033H1249.97L1256.72 76.0528H1259.98L1236.11 24.6173ZM1234.28 27.7416L1248.91 58.7552H1220L1234.28 27.7416Z" fill="black"/>
<path d="M1266 24.6173V76.0528H1298.28C1308.35 76.0528 1313.03 69.4995 1313.03 61.1174C1313.03 55.7072 1309.65 50.3732 1304.8 49.2301C1308.71 47.7823 1310.9 42.4483 1310.9 38.1048C1310.9 30.0276 1306.34 24.6173 1298.28 24.6173H1266ZM1301.36 50.9828C1305.98 50.9828 1309.77 55.8596 1309.77 60.7364C1309.77 67.6707 1305.86 72.7 1297.93 72.7H1268.84V50.9828H1301.36ZM1297.93 27.894C1304.32 27.894 1308.11 32.085 1308.11 38.6383C1308.11 42.6007 1305.51 47.7823 1301.36 47.7823H1268.84V27.894H1297.93Z" fill="black"/>
<path d="M1325.26 24.6173H1322.41V76.0528H1325.26V24.6173Z" fill="black"/>
<path d="M1339.24 24.6173H1336.4V76.0528H1375.55V72.4713H1339.24V24.6173Z" fill="black"/>
<path d="M1384.49 24.6173H1381.64V76.0528H1384.49V24.6173Z" fill="black"/>
<path d="M1433.36 24.6173H1391.48V28.0464H1410.97V76.0528H1413.75V28.0464H1433.36V24.6173Z" fill="black"/>
<path d="M1482.18 24.6173H1478.8L1459.02 53.5736L1439.06 24.6173H1435.44L1457.48 56.774V75.8242H1460.38V56.774L1482.18 24.6173Z" fill="black"/>
<path d="M269.501 38.5621C267.902 28.3512 262.512 22.9409 248.83 22.9409C232.541 22.9409 226.678 28.5798 226.678 37.419C226.678 50.2208 237.28 51.7448 244.802 51.7448C247.053 51.7448 249.007 51.5924 252.798 51.5924C260.024 51.5924 267.665 52.2782 267.665 61.4223C267.665 69.4995 261.801 74.5288 248.593 74.5288C234.614 74.5288 229.58 69.5757 228.869 60.584H225.789C226.322 67.7469 228.869 72.1665 233.904 75.0622C236.924 76.7386 240.537 77.653 248.356 77.653C264.23 77.653 270.627 71.0997 270.627 61.0412C270.627 51.44 264.467 48.2395 254.22 48.2395H245.039C238.642 48.2395 229.698 47.8585 229.698 37.419C229.698 30.3324 234.97 25.9889 248.889 25.9889C260.143 25.9889 265.059 30.4086 266.658 38.7145L269.501 38.5621Z" fill="black"/>
<path d="M323.93 24.6173H321.028V51.9734C321.028 68.1279 312.498 74.3764 301.008 74.3764C289.695 74.3764 281.995 67.8993 281.995 52.0496V24.6173H279.092V52.583C279.092 70.1091 287.977 77.7292 301.008 77.7292C314.098 77.7292 323.93 70.2615 323.93 52.4306V24.6173Z" fill="black"/>
<path d="M376.163 38.5621C374.563 28.3512 369.173 22.9409 355.491 22.9409C339.203 22.9409 333.339 28.5798 333.339 37.419C333.339 50.2208 343.941 51.7448 351.463 51.7448C353.714 51.7448 355.669 51.5924 359.46 51.5924C366.686 51.5924 374.326 52.2782 374.326 61.4223C374.326 69.4995 368.463 74.5288 355.254 74.5288C341.276 74.5288 336.241 69.5757 335.53 60.584H332.45C332.983 67.7469 335.53 72.1665 340.565 75.0622C343.586 76.7386 347.199 77.653 355.017 77.653C370.891 77.653 377.288 71.0997 377.288 61.0412C377.288 51.44 371.128 48.2395 360.881 48.2395H351.7C345.303 48.2395 336.36 47.8585 336.36 37.419C336.36 30.3324 341.631 25.9889 355.55 25.9889C366.804 25.9889 371.72 30.4086 373.319 38.7145L376.163 38.5621Z" fill="black"/>
<path d="M422.39 24.6173H380.514V28.0464H400.001V76.0528H402.785V28.0464H422.39V24.6173Z" fill="black"/>
<path d="M446.393 24.6173H442.839L419.503 76.0528H422.642L429.098 61.8033H460.253L467.006 76.0528H470.263L446.393 24.6173ZM444.557 27.7416L459.187 58.7552H430.283L444.557 27.7416Z" fill="black"/>
<path d="M479.836 24.6173H476.993V76.0528H479.836V24.6173Z" fill="black"/>
<path d="M538.004 24.6173H535.042V71.1759L494.054 24.6173H490.974V76.0528H493.936V29.1894L534.983 76.0528H538.004V24.6173Z" fill="black"/>
<path d="M571.333 24.6173H567.779L544.442 76.0528H547.581L554.037 61.8033H585.193L591.945 76.0528H595.203L571.333 24.6173ZM569.497 27.7416L584.127 58.7552H555.222L569.497 27.7416Z" fill="black"/>
<path d="M601.222 24.6173V76.0528H633.503C643.572 76.0528 648.251 69.4995 648.251 61.1174C648.251 55.7072 644.875 50.3732 640.018 49.2301C643.927 47.7823 646.119 42.4483 646.119 38.1048C646.119 30.0276 641.558 24.6173 633.503 24.6173H601.222ZM636.583 50.9828C641.203 50.9828 644.993 55.8596 644.993 60.7364C644.993 67.6707 641.084 72.7 633.147 72.7H604.065V50.9828H636.583ZM633.147 27.894C639.544 27.894 643.335 32.085 643.335 38.6383C643.335 42.6007 640.729 47.7823 636.583 47.7823H604.065V27.894H633.147Z" fill="black"/>
<path d="M660.478 24.6173H657.635V76.0528H660.478V24.6173Z" fill="black"/>
<path d="M674.459 24.6173H671.616V76.0528H710.768V72.4713H674.459V24.6173Z" fill="black"/>
<path d="M719.709 24.6173H716.866V76.0528H719.709V24.6173Z" fill="black"/>
<path d="M768.577 24.6173H726.701V28.0464H746.187V76.0528H748.971V28.0464H768.577V24.6173Z" fill="black"/>
<path d="M817.397 24.6173H814.02L794.237 53.5736L774.277 24.6173H770.664L792.697 56.774V75.8242H795.6V56.774L817.397 24.6173Z" fill="black"/>
<path d="M1599.06 38.5621C1597.46 28.3512 1592.07 22.9409 1578.39 22.9409C1562.1 22.9409 1556.24 28.5798 1556.24 37.419C1556.24 50.2208 1566.84 51.7448 1574.36 51.7448C1576.61 51.7448 1578.57 51.5924 1582.36 51.5924C1589.58 51.5924 1597.22 52.2782 1597.22 61.4223C1597.22 69.4995 1591.36 74.5288 1578.15 74.5288C1564.17 74.5288 1559.14 69.5757 1558.43 60.584H1555.35C1555.88 67.7469 1558.43 72.1665 1563.46 75.0622C1566.48 76.7386 1570.1 77.653 1577.91 77.653C1593.79 77.653 1600.19 71.0997 1600.19 61.0412C1600.19 51.44 1594.03 48.2395 1583.78 48.2395H1574.6C1568.2 48.2395 1559.26 47.8585 1559.26 37.419C1559.26 30.3324 1564.53 25.9889 1578.45 25.9889C1589.7 25.9889 1594.62 30.4086 1596.22 38.7145L1599.06 38.5621Z" fill="black"/>
<path d="M1653.49 24.6173H1650.59V51.9734C1650.59 68.1279 1642.06 74.3764 1630.57 74.3764C1619.25 74.3764 1611.55 67.8993 1611.55 52.0496V24.6173H1608.65V52.583C1608.65 70.1091 1617.54 77.7292 1630.57 77.7292C1643.66 77.7292 1653.49 70.2615 1653.49 52.4306V24.6173Z" fill="black"/>
<path d="M1705.72 38.5621C1704.12 28.3512 1698.73 22.9409 1685.05 22.9409C1668.76 22.9409 1662.9 28.5798 1662.9 37.419C1662.9 50.2208 1673.5 51.7448 1681.02 51.7448C1683.27 51.7448 1685.23 51.5924 1689.02 51.5924C1696.24 51.5924 1703.88 52.2782 1703.88 61.4223C1703.88 69.4995 1698.02 74.5288 1684.81 74.5288C1670.83 74.5288 1665.8 69.5757 1665.09 60.584H1662.01C1662.54 67.7469 1665.09 72.1665 1670.12 75.0622C1673.14 76.7386 1676.76 77.653 1684.58 77.653C1700.45 77.653 1706.85 71.0997 1706.85 61.0412C1706.85 51.44 1700.69 48.2395 1690.44 48.2395H1681.26C1674.86 48.2395 1665.92 47.8585 1665.92 37.419C1665.92 30.3324 1671.19 25.9889 1685.11 25.9889C1696.36 25.9889 1701.28 30.4086 1702.88 38.7145L1705.72 38.5621Z" fill="black"/>
<path d="M1751.95 24.6173H1710.07V28.0464H1729.56V76.0528H1732.34V28.0464H1751.95V24.6173Z" fill="black"/>
<path d="M1775.95 24.6173H1772.4L1749.06 76.0528H1752.2L1758.66 61.8033H1789.81L1796.56 76.0528H1799.82L1775.95 24.6173ZM1774.12 27.7416L1788.75 58.7552H1759.84L1774.12 27.7416Z" fill="black"/>
<path d="M1809.39 24.6173H1806.55V76.0528H1809.39V24.6173Z" fill="black"/>
<path d="M1867.56 24.6173H1864.6V71.1759L1823.61 24.6173H1820.53V76.0528H1823.49V29.1894L1864.54 76.0528H1867.56V24.6173Z" fill="black"/>
<path d="M1900.89 24.6173H1897.34L1874 76.0528H1877.14L1883.6 61.8033H1914.75L1921.5 76.0528H1924.76L1900.89 24.6173ZM1899.06 27.7416L1913.69 58.7552H1884.78L1899.06 27.7416Z" fill="black"/>
<path d="M1930.78 24.6173V76.0528H1963.06C1973.13 76.0528 1977.81 69.4995 1977.81 61.1174C1977.81 55.7072 1974.43 50.3732 1969.58 49.2301C1973.49 47.7823 1975.68 42.4483 1975.68 38.1048C1975.68 30.0276 1971.12 24.6173 1963.06 24.6173H1930.78ZM1966.14 50.9828C1970.76 50.9828 1974.55 55.8596 1974.55 60.7364C1974.55 67.6707 1970.64 72.7 1962.71 72.7H1933.62V50.9828H1966.14ZM1962.71 27.894C1969.1 27.894 1972.89 32.085 1972.89 38.6383C1972.89 42.6007 1970.29 47.7823 1966.14 47.7823H1933.62V27.894H1962.71Z" fill="black"/>
<path d="M1990.04 24.6173H1987.19V76.0528H1990.04V24.6173Z" fill="black"/>
<path d="M2004.02 24.6173H2001.17V76.0528H2040.33V72.4713H2004.02V24.6173Z" fill="black"/>
<path d="M2049.27 24.6173H2046.42V76.0528H2049.27V24.6173Z" fill="black"/>
<path d="M2098.14 24.6173H2056.26V28.0464H2075.75V76.0528H2078.53V28.0464H2098.14V24.6173Z" fill="black"/>
<path d="M2146.96 24.6173H2143.58L2123.8 53.5736L2103.84 24.6173H2100.22L2122.26 56.774V75.8242H2125.16V56.774L2146.96 24.6173Z" fill="black"/>
</g>
<defs>
<clipPath id="clip0_202_98">
<rect width="1896" height="109" fill="white" transform="translate(0 0.700684)"/>
</clipPath>
</defs>
</svg>
