<svg width="1850" height="126" viewBox="0 0 1850 126" fill="none" xmlns="http://www.w3.org/2000/svg">
<g clip-path="url(#clip0_202_11)">
<path d="M205.181 51.2832C203.601 41.1209 198.274 35.7363 184.752 35.7363C168.654 35.7363 162.859 41.3484 162.859 50.1456C162.859 62.8865 173.337 64.4032 180.771 64.4032C182.995 64.4032 184.927 64.2516 188.674 64.2516C195.815 64.2516 203.367 64.9341 203.367 74.0347C203.367 82.0736 197.571 87.0789 184.517 87.0789C170.703 87.0789 165.727 82.1494 165.024 73.2005H161.98C162.507 80.3293 165.024 84.7279 170 87.6098C172.986 89.2782 176.556 90.1883 184.283 90.1883C199.971 90.1883 206.293 83.6662 206.293 73.6555C206.293 64.0999 200.206 60.9147 190.079 60.9147H181.005C174.683 60.9147 165.844 60.5355 165.844 50.1456C165.844 43.0927 171.054 38.7699 184.81 38.7699C195.932 38.7699 200.791 43.1685 202.371 51.4349L205.181 51.2832Z" fill="black"/>
<path d="M264.417 62.9623C264.417 45.747 252.885 35.7363 239.07 35.7363C225.197 35.7363 213.724 45.747 213.724 62.9623C213.724 80.3293 225.197 90.2641 239.07 90.2641C252.885 90.2641 264.417 80.3293 264.417 62.9623ZM261.49 62.9623C261.49 78.13 251.656 87.0031 239.07 87.0031C226.485 87.0031 216.651 78.13 216.651 62.9623C216.651 47.7946 226.485 38.9974 239.07 38.9974C251.656 38.9974 261.49 47.7946 261.49 62.9623Z" fill="black"/>
<path d="M317.454 50.904C314.527 42.4859 306.449 35.7363 296.205 35.7363C283.092 35.7363 272.028 45.747 272.028 62.9623C272.028 80.3293 282.39 90.2641 295.619 90.2641C306.975 90.2641 314.117 84.8038 317.278 75.1723L314.819 73.7314C312.01 81.9978 305.805 87.0031 295.853 87.0031C283.795 87.0031 274.955 78.13 274.955 62.9623C274.955 47.7946 284.38 38.9974 296.205 38.9974C305.278 38.9974 312.537 44.9886 315.054 52.5725L317.454 50.904Z" fill="black"/>
<path d="M329.48 37.4048H326.67V88.5957H329.48V37.4048Z" fill="black"/>
<path d="M363.083 37.4048H359.571L336.507 88.5957H339.609L345.99 74.4139H376.781L383.454 88.5957H386.674L363.083 37.4048ZM361.268 40.5141L375.727 71.3804H347.161L361.268 40.5141Z" fill="black"/>
<path d="M395.432 37.4048H392.622V88.5957H431.316V85.0313H395.432V37.4048Z" fill="black"/>
<path d="M486.691 37.4048H483.881V65.9958C483.881 80.7843 476.798 86.9272 468.368 86.9272C459.705 86.9272 454.027 80.7843 452.622 72.7455L449.87 73.9589C451.685 83.5145 458.183 90.2641 468.661 90.2641C478.32 90.2641 486.691 82.5286 486.691 65.9958V37.4048Z" fill="black"/>
<path d="M540.743 37.4048H537.874V64.6308C537.874 80.7085 529.445 86.9272 518.089 86.9272C506.908 86.9272 499.298 80.481 499.298 64.7066V37.4048H496.43V65.2375C496.43 82.6803 505.21 90.2641 518.089 90.2641C531.025 90.2641 540.743 82.832 540.743 65.0858V37.4048Z" fill="black"/>
<path d="M592.364 51.2832C590.784 41.1209 585.457 35.7363 571.935 35.7363C555.837 35.7363 550.042 41.3484 550.042 50.1456C550.042 62.8865 560.52 64.4032 567.954 64.4032C570.178 64.4032 572.11 64.2516 575.857 64.2516C582.998 64.2516 590.55 64.9341 590.55 74.0347C590.55 82.0736 584.754 87.0789 571.7 87.0789C557.886 87.0789 552.91 82.1494 552.207 73.2005H549.163C549.69 80.3293 552.207 84.7279 557.183 87.6098C560.169 89.2782 563.739 90.1883 571.466 90.1883C587.154 90.1883 593.476 83.6662 593.476 73.6555C593.476 64.0999 587.389 60.9147 577.262 60.9147H568.188C561.866 60.9147 553.027 60.5355 553.027 50.1456C553.027 43.0927 558.237 38.7699 571.993 38.7699C583.115 38.7699 587.974 43.1685 589.554 51.4349L592.364 51.2832Z" fill="black"/>
<path d="M638.051 37.4048H596.665V40.8175H615.924V88.5957H618.675V40.8175H638.051V37.4048Z" fill="black"/>
<path d="M647.606 37.4048H644.797V88.5957H647.606V37.4048Z" fill="black"/>
<path d="M702.693 50.904C699.766 42.4859 691.688 35.7363 681.444 35.7363C668.331 35.7363 657.268 45.747 657.268 62.9623C657.268 80.3293 667.629 90.2641 680.859 90.2641C692.215 90.2641 699.356 84.8038 702.517 75.1723L700.059 73.7314C697.249 81.9978 691.044 87.0031 681.093 87.0031C669.034 87.0031 660.195 78.13 660.195 62.9623C660.195 47.7946 669.619 38.9974 681.444 38.9974C690.517 38.9974 697.776 44.9886 700.293 52.5725L702.693 50.904Z" fill="black"/>
<path d="M752.827 37.4048H711.207V88.5957H753.588V85.183H714.016V63.7965H748.905V60.6113H714.016V40.59H752.827V37.4048Z" fill="black"/>
<path d="M-459.598 51.2832C-461.179 41.1209 -466.505 35.7363 -480.028 35.7363C-496.126 35.7363 -501.921 41.3484 -501.921 50.1456C-501.921 62.8865 -491.443 64.4032 -484.008 64.4032C-481.784 64.4032 -479.852 64.2516 -476.106 64.2516C-468.964 64.2516 -461.413 64.9341 -461.413 74.0347C-461.413 82.0736 -467.208 87.0789 -480.262 87.0789C-494.077 87.0789 -499.052 82.1494 -499.755 73.2005H-502.799C-502.272 80.3293 -499.755 84.7279 -494.779 87.6098C-491.794 89.2782 -488.223 90.1883 -480.496 90.1883C-464.808 90.1883 -458.486 83.6662 -458.486 73.6555C-458.486 64.0999 -464.574 60.9147 -474.701 60.9147H-483.774C-490.096 60.9147 -498.935 60.5355 -498.935 50.1456C-498.935 43.0927 -493.725 38.7699 -479.969 38.7699C-468.847 38.7699 -463.988 43.1685 -462.408 51.4349L-459.598 51.2832Z" fill="black"/>
<path d="M-400.362 62.9623C-400.362 45.747 -411.894 35.7363 -425.709 35.7363C-439.582 35.7363 -451.056 45.747 -451.056 62.9623C-451.056 80.3293 -439.582 90.2641 -425.709 90.2641C-411.894 90.2641 -400.362 80.3293 -400.362 62.9623ZM-403.289 62.9623C-403.289 78.13 -413.123 87.0031 -425.709 87.0031C-438.294 87.0031 -448.129 78.13 -448.129 62.9623C-448.129 47.7946 -438.294 38.9974 -425.709 38.9974C-413.123 38.9974 -403.289 47.7946 -403.289 62.9623Z" fill="black"/>
<path d="M-347.326 50.904C-350.252 42.4859 -358.331 35.7363 -368.575 35.7363C-381.687 35.7363 -392.751 45.747 -392.751 62.9623C-392.751 80.3293 -382.39 90.2641 -369.16 90.2641C-357.804 90.2641 -350.662 84.8038 -347.501 75.1723L-349.96 73.7314C-352.77 81.9978 -358.975 87.0031 -368.926 87.0031C-380.985 87.0031 -389.824 78.13 -389.824 62.9623C-389.824 47.7946 -380.399 38.9974 -368.575 38.9974C-359.501 38.9974 -352.243 44.9886 -349.726 52.5725L-347.326 50.904Z" fill="black"/>
<path d="M-335.3 37.4048H-338.11V88.5957H-335.3V37.4048Z" fill="black"/>
<path d="M-301.696 37.4048H-305.209L-328.273 88.5957H-325.17L-318.789 74.4139H-287.999L-281.325 88.5957H-278.106L-301.696 37.4048ZM-303.511 40.5141L-289.052 71.3804H-317.619L-303.511 40.5141Z" fill="black"/>
<path d="M-269.347 37.4048H-272.157V88.5957H-233.464V85.0313H-269.347V37.4048Z" fill="black"/>
<path d="M-178.089 37.4048H-180.899V65.9958C-180.899 80.7843 -187.982 86.9272 -196.411 86.9272C-205.075 86.9272 -210.753 80.7843 -212.158 72.7455L-214.909 73.9589C-213.094 83.5145 -206.597 90.2641 -196.118 90.2641C-186.46 90.2641 -178.089 82.5286 -178.089 65.9958V37.4048Z" fill="black"/>
<path d="M-124.037 37.4048H-126.905V64.6308C-126.905 80.7085 -135.334 86.9272 -146.691 86.9272C-157.871 86.9272 -165.481 80.481 -165.481 64.7066V37.4048H-168.35V65.2375C-168.35 82.6803 -159.569 90.2641 -146.691 90.2641C-133.754 90.2641 -124.037 82.832 -124.037 65.0858V37.4048Z" fill="black"/>
<path d="M-72.4151 51.2832C-73.9956 41.1209 -79.3225 35.7363 -92.8447 35.7363C-108.943 35.7363 -114.738 41.3484 -114.738 50.1456C-114.738 62.8865 -104.26 64.4032 -96.8252 64.4032C-94.6008 64.4032 -92.6691 64.2516 -88.9227 64.2516C-81.7811 64.2516 -74.2297 64.9341 -74.2297 74.0347C-74.2297 82.0736 -80.0249 87.0789 -93.0788 87.0789C-106.894 87.0789 -111.869 82.1494 -112.572 73.2005H-115.616C-115.089 80.3293 -112.572 84.7279 -107.596 87.6098C-104.611 89.2782 -101.04 90.1883 -93.313 90.1883C-77.6249 90.1883 -71.3028 83.6662 -71.3028 73.6555C-71.3028 64.0999 -77.3907 60.9147 -87.5177 60.9147H-96.5911C-102.913 60.9147 -111.752 60.5355 -111.752 50.1456C-111.752 43.0927 -106.542 38.7699 -92.7861 38.7699C-81.664 38.7699 -76.8054 43.1685 -75.2248 51.4349L-72.4151 51.2832Z" fill="black"/>
<path d="M-26.7283 37.4048H-68.1144V40.8175H-48.8555V88.5957H-46.1042V40.8175H-26.7283V37.4048Z" fill="black"/>
<path d="M-17.1729 37.4048H-19.9827V88.5957H-17.1729V37.4048Z" fill="black"/>
<path d="M37.9138 50.904C34.9869 42.4859 26.9087 35.7363 16.6646 35.7363C3.55216 35.7363 -7.51144 45.747 -7.51144 62.9623C-7.51144 80.3293 2.84971 90.2641 16.0792 90.2641C27.4355 90.2641 34.5771 84.8038 37.7382 75.1723L35.2796 73.7314C32.4698 81.9978 26.2648 87.0031 16.3134 87.0031C4.25462 87.0031 -4.58456 78.13 -4.58456 62.9623C-4.58456 47.7946 4.83998 38.9974 16.6646 38.9974C25.7379 38.9974 32.9966 44.9886 35.5137 52.5725L37.9138 50.904Z" fill="black"/>
<path d="M88.0476 37.4048H46.4274V88.5957H88.8086V85.183H49.2371V63.7965H84.1256V60.6113H49.2371V40.59H88.0476V37.4048Z" fill="black"/>
<path d="M869.961 51.2832C868.38 41.1209 863.053 35.7363 849.531 35.7363C833.433 35.7363 827.638 41.3484 827.638 50.1456C827.638 62.8865 838.116 64.4032 845.55 64.4032C847.775 64.4032 849.707 64.2516 853.453 64.2516C860.595 64.2516 868.146 64.9341 868.146 74.0347C868.146 82.0736 862.351 87.0789 849.297 87.0789C835.482 87.0789 830.506 82.1494 829.804 73.2005H826.76C827.287 80.3293 829.804 84.7279 834.779 87.6098C837.765 89.2782 841.336 90.1883 849.063 90.1883C864.751 90.1883 871.073 83.6662 871.073 73.6555C871.073 64.0999 864.985 60.9147 854.858 60.9147H845.784C839.462 60.9147 830.623 60.5355 830.623 50.1456C830.623 43.0927 835.833 38.7699 849.589 38.7699C860.712 38.7699 865.57 43.1685 867.151 51.4349L869.961 51.2832Z" fill="black"/>
<path d="M929.197 62.9623C929.197 45.747 917.665 35.7363 903.85 35.7363C889.976 35.7363 878.503 45.747 878.503 62.9623C878.503 80.3293 889.976 90.2641 903.85 90.2641C917.665 90.2641 929.197 80.3293 929.197 62.9623ZM926.27 62.9623C926.27 78.13 916.435 87.0031 903.85 87.0031C891.264 87.0031 881.43 78.13 881.43 62.9623C881.43 47.7946 891.264 38.9974 903.85 38.9974C916.435 38.9974 926.27 47.7946 926.27 62.9623Z" fill="black"/>
<path d="M982.233 50.904C979.306 42.4859 971.228 35.7363 960.984 35.7363C947.871 35.7363 936.808 45.747 936.808 62.9623C936.808 80.3293 947.169 90.2641 960.398 90.2641C971.755 90.2641 978.896 84.8038 982.057 75.1723L979.599 73.7314C976.789 81.9978 970.584 87.0031 960.633 87.0031C948.574 87.0031 939.735 78.13 939.735 62.9623C939.735 47.7946 949.159 38.9974 960.984 38.9974C970.057 38.9974 977.316 44.9886 979.833 52.5725L982.233 50.904Z" fill="black"/>
<path d="M994.259 37.4048H991.449V88.5957H994.259V37.4048Z" fill="black"/>
<path d="M1027.86 37.4048H1024.35L1001.29 88.5957H1004.39L1010.77 74.4139H1041.56L1048.23 88.5957H1051.45L1027.86 37.4048ZM1026.05 40.5141L1040.51 71.3804H1011.94L1026.05 40.5141Z" fill="black"/>
<path d="M1060.21 37.4048H1057.4V88.5957H1096.1V85.0313H1060.21V37.4048Z" fill="black"/>
<path d="M1151.47 37.4048H1148.66V65.9958C1148.66 80.7843 1141.58 86.9272 1133.15 86.9272C1124.48 86.9272 1118.81 80.7843 1117.4 72.7455L1114.65 73.9589C1116.46 83.5145 1122.96 90.2641 1133.44 90.2641C1143.1 90.2641 1151.47 82.5286 1151.47 65.9958V37.4048Z" fill="black"/>
<path d="M1205.52 37.4048H1202.65V64.6308C1202.65 80.7085 1194.22 86.9272 1182.87 86.9272C1171.69 86.9272 1164.08 80.481 1164.08 64.7066V37.4048H1161.21V65.2375C1161.21 82.6803 1169.99 90.2641 1182.87 90.2641C1195.8 90.2641 1205.52 82.832 1205.52 65.0858V37.4048Z" fill="black"/>
<path d="M1257.14 51.2832C1255.56 41.1209 1250.24 35.7363 1236.71 35.7363C1220.62 35.7363 1214.82 41.3484 1214.82 50.1456C1214.82 62.8865 1225.3 64.4032 1232.73 64.4032C1234.96 64.4032 1236.89 64.2516 1240.64 64.2516C1247.78 64.2516 1255.33 64.9341 1255.33 74.0347C1255.33 82.0736 1249.53 87.0789 1236.48 87.0789C1222.66 87.0789 1217.69 82.1494 1216.99 73.2005H1213.94C1214.47 80.3293 1216.99 84.7279 1221.96 87.6098C1224.95 89.2782 1228.52 90.1883 1236.25 90.1883C1251.93 90.1883 1258.26 83.6662 1258.26 73.6555C1258.26 64.0999 1252.17 60.9147 1242.04 60.9147H1232.97C1226.65 60.9147 1217.81 60.5355 1217.81 50.1456C1217.81 43.0927 1223.02 38.7699 1236.77 38.7699C1247.89 38.7699 1252.75 43.1685 1254.33 51.4349L1257.14 51.2832Z" fill="black"/>
<path d="M1302.83 37.4048H1261.44V40.8175H1280.7V88.5957H1283.45V40.8175H1302.83V37.4048Z" fill="black"/>
<path d="M1312.39 37.4048H1309.58V88.5957H1312.39V37.4048Z" fill="black"/>
<path d="M1367.47 50.904C1364.55 42.4859 1356.47 35.7363 1346.22 35.7363C1333.11 35.7363 1322.05 45.747 1322.05 62.9623C1322.05 80.3293 1332.41 90.2641 1345.64 90.2641C1356.99 90.2641 1364.14 84.8038 1367.3 75.1723L1364.84 73.7314C1362.03 81.9978 1355.82 87.0031 1345.87 87.0031C1333.81 87.0031 1324.97 78.13 1324.97 62.9623C1324.97 47.7946 1334.4 38.9974 1346.22 38.9974C1355.3 38.9974 1362.56 44.9886 1365.07 52.5725L1367.47 50.904Z" fill="black"/>
<path d="M1417.61 37.4048H1375.99V88.5957H1418.37V85.183H1378.8V63.7965H1413.68V60.6113H1378.8V40.59H1417.61V37.4048Z" fill="black"/>
<path d="M1534.74 51.2832C1533.16 41.1209 1527.83 35.7363 1514.31 35.7363C1498.21 35.7363 1492.42 41.3484 1492.42 50.1456C1492.42 62.8865 1502.9 64.4032 1510.33 64.4032C1512.56 64.4032 1514.49 64.2516 1518.23 64.2516C1525.37 64.2516 1532.93 64.9341 1532.93 74.0347C1532.93 82.0736 1527.13 87.0789 1514.08 87.0789C1500.26 87.0789 1495.29 82.1494 1494.58 73.2005H1491.54C1492.07 80.3293 1494.58 84.7279 1499.56 87.6098C1502.55 89.2782 1506.12 90.1883 1513.84 90.1883C1529.53 90.1883 1535.85 83.6662 1535.85 73.6555C1535.85 64.0999 1529.77 60.9147 1519.64 60.9147H1510.56C1504.24 60.9147 1495.4 60.5355 1495.4 50.1456C1495.4 43.0927 1500.61 38.7699 1514.37 38.7699C1525.49 38.7699 1530.35 43.1685 1531.93 51.4349L1534.74 51.2832Z" fill="black"/>
<path d="M1593.98 62.9623C1593.98 45.747 1582.44 35.7363 1568.63 35.7363C1554.76 35.7363 1543.28 45.747 1543.28 62.9623C1543.28 80.3293 1554.76 90.2641 1568.63 90.2641C1582.44 90.2641 1593.98 80.3293 1593.98 62.9623ZM1591.05 62.9623C1591.05 78.13 1581.22 87.0031 1568.63 87.0031C1556.04 87.0031 1546.21 78.13 1546.21 62.9623C1546.21 47.7946 1556.04 38.9974 1568.63 38.9974C1581.22 38.9974 1591.05 47.7946 1591.05 62.9623Z" fill="black"/>
<path d="M1647.01 50.904C1644.09 42.4859 1636.01 35.7363 1625.76 35.7363C1612.65 35.7363 1601.59 45.747 1601.59 62.9623C1601.59 80.3293 1611.95 90.2641 1625.18 90.2641C1636.54 90.2641 1643.68 84.8038 1646.84 75.1723L1644.38 73.7314C1641.57 81.9978 1635.36 87.0031 1625.41 87.0031C1613.35 87.0031 1604.51 78.13 1604.51 62.9623C1604.51 47.7946 1613.94 38.9974 1625.76 38.9974C1634.84 38.9974 1642.1 44.9886 1644.61 52.5725L1647.01 50.904Z" fill="black"/>
<path d="M1659.04 37.4048H1656.23V88.5957H1659.04V37.4048Z" fill="black"/>
<path d="M1692.64 37.4048H1689.13L1666.07 88.5957H1669.17L1675.55 74.4139H1706.34L1713.01 88.5957H1716.23L1692.64 37.4048ZM1690.83 40.5141L1705.29 71.3804H1676.72L1690.83 40.5141Z" fill="black"/>
<path d="M1724.99 37.4048H1722.18V88.5957H1760.88V85.0313H1724.99V37.4048Z" fill="black"/>
<path d="M1816.25 37.4048H1813.44V65.9958C1813.44 80.7843 1806.36 86.9272 1797.93 86.9272C1789.26 86.9272 1783.59 80.7843 1782.18 72.7455L1779.43 73.9589C1781.24 83.5145 1787.74 90.2641 1798.22 90.2641C1807.88 90.2641 1816.25 82.5286 1816.25 65.9958V37.4048Z" fill="black"/>
<path d="M1870.3 37.4048H1867.43V64.6308C1867.43 80.7085 1859 86.9272 1847.65 86.9272C1836.47 86.9272 1828.86 80.481 1828.86 64.7066V37.4048H1825.99V65.2375C1825.99 82.6803 1834.77 90.2641 1847.65 90.2641C1860.59 90.2641 1870.3 82.832 1870.3 65.0858V37.4048Z" fill="black"/>
<path d="M1921.92 51.2832C1920.34 41.1209 1915.02 35.7363 1901.49 35.7363C1885.4 35.7363 1879.6 41.3484 1879.6 50.1456C1879.6 62.8865 1890.08 64.4032 1897.51 64.4032C1899.74 64.4032 1901.67 64.2516 1905.42 64.2516C1912.56 64.2516 1920.11 64.9341 1920.11 74.0347C1920.11 82.0736 1914.31 87.0789 1901.26 87.0789C1887.45 87.0789 1882.47 82.1494 1881.77 73.2005H1878.72C1879.25 80.3293 1881.77 84.7279 1886.74 87.6098C1889.73 89.2782 1893.3 90.1883 1901.03 90.1883C1916.71 90.1883 1923.04 83.6662 1923.04 73.6555C1923.04 64.0999 1916.95 60.9147 1906.82 60.9147H1897.75C1891.43 60.9147 1882.59 60.5355 1882.59 50.1456C1882.59 43.0927 1887.8 38.7699 1901.55 38.7699C1912.67 38.7699 1917.53 43.1685 1919.11 51.4349L1921.92 51.2832Z" fill="black"/>
<path d="M1967.61 37.4048H1926.22V40.8175H1945.48V88.5957H1948.23V40.8175H1967.61V37.4048Z" fill="black"/>
<path d="M1977.17 37.4048H1974.36V88.5957H1977.17V37.4048Z" fill="black"/>
<path d="M2032.25 50.904C2029.33 42.4859 2021.25 35.7363 2011 35.7363C1997.89 35.7363 1986.83 45.747 1986.83 62.9623C1986.83 80.3293 1997.19 90.2641 2010.42 90.2641C2021.77 90.2641 2028.92 84.8038 2032.08 75.1723L2029.62 73.7314C2026.81 81.9978 2020.6 87.0031 2010.65 87.0031C1998.59 87.0031 1989.75 78.13 1989.75 62.9623C1989.75 47.7946 1999.18 38.9974 2011 38.9974C2020.08 38.9974 2027.34 44.9886 2029.85 52.5725L2032.25 50.904Z" fill="black"/>
<path d="M2082.39 37.4048H2040.77V88.5957H2083.15V85.183H2043.58V63.7965H2078.46V60.6113H2043.58V40.59H2082.39V37.4048Z" fill="black"/>
</g>
<defs>
<clipPath id="clip0_202_11">
<rect width="1850" height="126" fill="white"/>
</clipPath>
</defs>
</svg>
