<svg xmlns="http://www.w3.org/2000/svg" xmlns:xlink="http://www.w3.org/1999/xlink" width="422" height="249" viewBox="0 0 422 249"><defs><clipPath id="b"><rect width="422" height="249"/></clipPath></defs><g id="a" clip-path="url(#b)"><g transform="translate(323.67 -3816.874)"><path d="M330.694,3518.35H319.933v30.113c0,14.35-5.053,17.285-12.128,17.285-6.48,0-10.879-3.475-10.879-17.37V3518.35h-11.3v32.7c0,20.494,8.918,29.4,22.056,29.4s23.008-8.727,23.008-29.579Z" transform="translate(-420.897 302.483)" fill="#8e56fa"/><path d="M374.627,3515.34H366.6l-2.616,22.095h5.053Z" transform="translate(-448.234 303.534)" fill="#8e56fa"/><path d="M436.055,3518.35H423.926l-13.555,43.031-13.495-43.031H384.57l19.738,60.14h11.534Z" transform="translate(-455.416 302.483)" fill="#8e56fa"/><path d="M514.445,3518.35H472.176v60.14h43.1v-15.326H483.055v-8.552h27.406v-13.9H483.055v-8.551h31.39Z" transform="translate(-485.981 302.483)" fill="#8e56fa"/><path d="M614.044,3518.35H571.775v59.358h43.1v-15.127H582.654v-8.44h27.407v-13.72H582.654v-8.44h31.39Z" transform="translate(-892.803 395.076)" fill="#8e56fa"/><path d="M692.766,3518.35H680.638l-13.555,42.471-13.5-42.471H641.282l19.738,59.358h11.533Z" transform="translate(-917.053 395.076)" fill="#8e56fa"/><path d="M771.156,3518.35H728.887v59.358h43.1v-15.127H739.766v-8.44h27.407v-13.72H739.766v-8.44h31.39Z" transform="translate(-947.618 395.076)" fill="#8e56fa"/><path d="M838.6,3554.848c8.2-1.323,11.652-8.267,11.652-18.12,0-11.344-4.934-18.377-14.862-18.377H804.055v59.358h10.82v-22.687h9.987l10.047,22.687h15.041Zm-3.27-22.514c2.022,0,3.448,1.227,3.448,3.867,0,2.993-1.427,4.31-3.388,4.31H814.875v-8.177Z" transform="translate(-973.844 395.076)" fill="#8e56fa"/><path d="M358.277,3648.649h-10.82v58.968h39.3v-15.9H358.277Z" transform="translate(-669.154 354.622)" fill="#8e56fa"/><path d="M427.407,3648.649h-10.82v58.968h10.82Z" transform="translate(-693.273 354.622)" fill="#8e56fa"/><path d="M495.508,3648.649H478.268l-18.43,22.275v-22.275h-10.82v58.968h10.82v-19.4l8.977-10.57,14.565,29.966h15.457l-21.462-39.138Z" transform="translate(-704.588 354.622)" fill="#8e56fa"/><path d="M577.333,3648.649H535.064v58.968h43.1v-15.024H545.943V3684.2h27.407v-13.625H545.943v-8.391h31.39Z" transform="translate(-734.608 354.622)" fill="#8e56fa"/><path d="M619.826,3710.4c0-4.33-2.794-7.67-6.242-7.67s-6.183,3.34-6.183,7.67c0,4.245,2.735,7.677,6.183,7.677S619.826,3714.646,619.826,3710.4Zm0-33.135c0-4.336-2.794-7.677-6.242-7.677s-6.183,3.34-6.183,7.677,2.735,7.67,6.183,7.67S619.826,3681.6,619.826,3677.267Z" transform="translate(-759.846 345.333)" fill="#8e56fa"/><path d="M11.15,3518.35H.33v60.14H11.15Z" transform="translate(-321.358 302.483)" fill="#8e56fa"/><path d="M72.236,3518.35H32.761v60.14H43.641v-21.118h25.5v-14.344h-25.5v-11.135h28.6Z" transform="translate(-332.673 302.483)" fill="#8e56fa"/><path d="M166.919,3518.35H154.2L143.911,3544.1l-10.7-25.752h-13.2l18.014,42.23v18h11.117v-18Z" transform="translate(-363.114 302.483)" fill="#8e56fa"/><path d="M245.359,3547.327c0-20.318-11.711-31.987-25.8-31.987s-25.8,11.669-25.8,31.987c0,20.4,11.712,32.071,25.8,32.071S245.359,3567.729,245.359,3547.327Zm-11.3,0c0,10.777-4.875,17.637-14.506,17.637-9.571,0-14.446-6.86-14.446-17.637,0-10.693,4.875-17.644,14.446-17.644C229.189,3529.683,234.064,3536.634,234.064,3547.327Z" transform="translate(-388.843 303.534)" fill="#8e56fa"/><path d="M.33,3648.65v60.14H32.85c10.107,0,14.744-7.665,14.744-17.372,0-6.688-2.319-11.943-7.075-13.992,3.27-2.493,4.994-7.928,4.994-13.273,0-9.271-4.637-15.5-12.663-15.5Zm30.439,36.44c2.259,0,4.28.533,4.28,4.542,0,3.566-2.021,4.009-3.686,4.009H11.15v-8.551Zm.595-22.01c1.546,0,3.21.713,3.21,4.009,0,3.745-1.9,4.279-3.8,4.279H11.15v-8.288Z" transform="translate(-105.48 264.768)" fill="#8e56fa"/><path d="M127.4,3648.65H85.128v60.14h43.1v-15.323H96.007v-8.557h27.406v-13.9H96.007v-8.558H127.4Z" transform="translate(-135.065 264.768)" fill="#8e56fa"/><path d="M202.565,3648.65H160.3v60.14h43.1v-15.323H171.175v-8.557h27.406v-13.9H171.175v-8.558h31.39Z" transform="translate(-161.29 264.768)" fill="#8e56fa"/><path d="M282.846,3648.65H271.431v37.506L247,3648.65H235.463v60.14h11.415v-39.2l24.732,39.2h11.236Z" transform="translate(-187.515 264.768)" fill="#8e56fa"/></g></g></svg>