<svg xmlns="http://www.w3.org/2000/svg" xmlns:xlink="http://www.w3.org/1999/xlink" width="775" height="110" viewBox="0 0 775 110"><defs><clipPath id="b"><rect width="775" height="110"/></clipPath></defs><g id="a" clip-path="url(#b)"><g transform="translate(5.088 6.001)"><path d="M344.033,9238.7h-8.552l-6.4,25.655-6.526-25.655h-7.271l-6.362,25.655-6.2-25.655h-8.593l10.2,39.184h8.675l5.824-23.4,5.99,23.4h8.965Z" transform="translate(-294.27 -9237.432)" fill="#dafd08"/><path d="M367.886,9238.7h-7.519V9252.4H343.884V9238.7h-7.517v39.184h7.517V9261.92h16.484v15.966h7.519Z" transform="translate(-282.298 -9237.432)" fill="#dafd08"/><path d="M386.694,9238.7h-9.626l-12.641,39.184h8.056l2.313-7.5h13.838l2.231,7.5h8.8ZM381.819,9248l4.048,13.693h-8.18Z" transform="translate(-274.344 -9237.432)" fill="#dafd08"/><path d="M419.39,9238.7H390.019v9.8h10.906v29.379h7.518v-29.379H419.39Z" transform="translate(-267.089 -9237.432)" fill="#dafd08"/><path d="M518.665,9238.7h-8.552l-6.4,25.655-6.528-25.655h-7.271l-6.361,25.655-6.2-25.655h-8.593l10.2,39.184h8.675l5.824-23.4,5.99,23.4h8.965Z" transform="translate(-244.769 -9237.432)" fill="#dafd08"/><path d="M540.37,9238.7H511v39.184h29.95V9267.9h-22.39v-5.569H537.6v-9.062H518.559v-5.57H540.37Z" transform="translate(-232.796 -9237.432)" fill="#dafd08"/><path d="M577.936,9238.7h-7.476v19.623c0,9.343-3.512,11.256-8.427,11.256-4.5,0-7.561-2.258-7.561-11.319V9238.7h-7.848v21.3c0,13.349,6.2,19.149,15.326,19.149s15.987-5.686,15.987-19.265Z" transform="translate(-222.698 -9237.432)" fill="#dafd08"/><path d="M606.114,9249.544c-1.115-7.893-4.875-11.834-14.417-11.834-11.36,0-15.449,4.992-15.449,12.708,0,10.909,6.031,12.192,11.153,12.475,5.7.295,11.608-.578,11.608,3.016,0,3.376-3.3,4.646-7.022,4.646-3.264,0-7.643-1.038-8.056-4.17h-8.3c.372,5.853,2.065,8.522,5.577,11.024,2.024,1.334,4.75,1.976,10.2,1.976,11.03,0,15.491-5.749,15.491-15.041,0-8.008-3.843-10.731-12.1-10.731-2.6,0-3.966.053-5.329.053-2.808,0-5.2-.053-5.2-3.426,0-2.723,2.6-4.007,7.476-4.007,3.223,0,5.784.644,6.857,3.724Z" transform="translate(-214.477 -9237.711)" fill="#dafd08"/><path d="M634.067,9238.7H604.7v39.184h29.95V9267.9h-22.39v-5.569H631.3v-9.062H612.256v-5.57h21.811Z" transform="translate(-206.237 -9237.432)" fill="#dafd08"/><path d="M631.515,9238.7v39.184h16.73c13.013,0,17.35-10.859,17.35-19.624,0-15.606-8.221-19.56-18.3-19.56Zm15.78,8.83c7.312,0,10.451,4.12,10.451,10.318,0,6.623-3.594,9.935-10.494,9.935h-8.178v-20.253Z" transform="translate(-198.635 -9237.432)" fill="#dafd08"/><path d="M704.193,9238.7h-11.98l-12.806,14.8v-14.8h-7.519v39.184h7.519V9265l6.238-7.021,10.121,19.907h10.74l-14.912-26Z" transform="translate(-187.191 -9237.432)" fill="#dafd08"/><path d="M710.447,9238.7h-7.519v39.184h7.519Z" transform="translate(-178.392 -9237.432)" fill="#dafd08"/><path d="M747.605,9238.7h-7.932v24.438L722.7,9238.7h-8.014v39.184h7.931v-25.541l17.185,25.541h7.807Z" transform="translate(-175.06 -9237.432)" fill="#dafd08"/><path d="M745.87,9238.7v39.184H762.6c13.013,0,17.35-10.859,17.35-19.624,0-15.606-8.221-19.56-18.3-19.56Zm15.78,8.83c7.312,0,10.451,4.12,10.451,10.318,0,6.623-3.594,9.935-10.494,9.935H753.43v-20.253Z" transform="translate(-166.22 -9237.432)" fill="#dafd08"/><path d="M810.232,9238.7H802.3v24.438L785.323,9238.7h-8.014v39.184h7.932v-25.541l17.184,25.541h7.807Z" transform="translate(-157.308 -9237.432)" fill="#dafd08"/><path d="M837.868,9238.7H808.5v39.184h29.95V9267.9h-22.39v-5.569H835.1v-9.062H816.057v-5.57h21.811Z" transform="translate(-148.467 -9237.432)" fill="#dafd08"/><path d="M865.062,9249.544c-1.115-7.893-4.875-11.834-14.417-11.834-11.361,0-15.45,4.992-15.45,12.708,0,10.909,6.031,12.192,11.153,12.475,5.7.295,11.609-.578,11.609,3.016,0,3.376-3.3,4.646-7.023,4.646-3.264,0-7.642-1.038-8.055-4.17h-8.3c.372,5.853,2.066,8.522,5.577,11.024,2.024,1.334,4.751,1.976,10.2,1.976,11.03,0,15.491-5.749,15.491-15.041,0-8.008-3.841-10.731-12.1-10.731-2.6,0-3.966.053-5.329.053-2.809,0-5.206-.053-5.206-3.426,0-2.723,2.6-4.007,7.477-4.007,3.221,0,5.783.644,6.858,3.724Z" transform="translate(-141.075 -9237.711)" fill="#dafd08"/><path d="M893.389,9249.544c-1.115-7.893-4.875-11.834-14.417-11.834-11.36,0-15.449,4.992-15.449,12.708,0,10.909,6.031,12.192,11.153,12.475,5.7.295,11.608-.578,11.608,3.016,0,3.376-3.3,4.646-7.023,4.646-3.262,0-7.642-1.038-8.055-4.17h-8.3c.372,5.853,2.065,8.522,5.577,11.024,2.024,1.334,4.75,1.976,10.2,1.976,11.03,0,15.491-5.749,15.491-15.041,0-8.008-3.843-10.731-12.1-10.731-2.6,0-3.966.053-5.329.053-2.808,0-5.2-.053-5.2-3.426,0-2.723,2.6-4.007,7.476-4.007,3.223,0,5.783.644,6.858,3.724Z" transform="translate(-133.045 -9237.711)" fill="#dafd08"/><path d="M921.176,9238.7H911.55l-12.641,39.184h8.056l2.313-7.5h13.838l2.231,7.5h8.8ZM916.3,9248l4.048,13.693h-8.18Z" transform="translate(-900.847 -9180.159)" fill="#dafd08"/><path d="M958.507,9249.544c-1.115-7.893-4.874-11.834-14.417-11.834-11.36,0-15.45,4.992-15.45,12.708,0,10.909,6.032,12.192,11.155,12.475,5.7.295,11.608-.578,11.608,3.016,0,3.376-3.3,4.646-7.023,4.646-3.263,0-7.642-1.038-8.055-4.17h-8.3c.371,5.853,2.065,8.522,5.577,11.024,2.024,1.334,4.75,1.976,10.2,1.976,11.029,0,15.49-5.749,15.49-15.041,0-8.008-3.841-10.731-12.1-10.731-2.6,0-3.966.053-5.329.053-2.809,0-5.206-.053-5.206-3.426,0-2.723,2.6-4.007,7.478-4.007,3.223,0,5.783.644,6.858,3.724Z" transform="translate(-892.594 -9180.438)" fill="#dafd08"/><path d="M1001.268,9258.541c0-13.232-8.138-20.831-17.929-20.831s-17.929,7.6-17.929,20.831c0,13.3,8.139,20.9,17.929,20.9S1001.268,9271.837,1001.268,9258.541Zm-7.85,0c0,7.021-3.387,11.5-10.079,11.5-6.651,0-10.038-4.479-10.038-11.5,0-6.97,3.387-11.487,10.038-11.487C990.032,9247.054,993.419,9251.571,993.419,9258.541Z" transform="translate(-881.996 -9180.438)" fill="#dafd08"/><path d="M1029.437,9238.7h-7.483v19.623c0,9.343-3.517,11.256-8.432,11.256-4.492,0-7.56-2.258-7.56-11.319V9238.7h-7.843v21.3c0,13.349,6.2,19.149,15.326,19.149s15.992-5.686,15.992-19.265Z" transform="translate(-872.724 -9180.159)" fill="#dafd08"/><path d="M1051.861,9262.792c5.711-.872,8.1-5.456,8.1-11.961,0-7.483-3.427-12.129-10.319-12.129h-21.78v39.184h7.521v-14.979h6.943l6.982,14.979h10.447Zm-2.272-14.862a2.259,2.259,0,0,1,2.4,2.555c0,1.977-.988,2.848-2.349,2.848h-14.259v-5.4Z" transform="translate(-864.294 -9180.159)" fill="#dafd08"/><path d="M324.332,9290.291H296.9v38.837h7.559V9315.5h17.722v-9.266H304.462v-7.2h19.871Z" transform="translate(72.691 -9232.09)" fill="#dafd08"/><path d="M356.609,9309.966c0-13.119-8.138-20.665-17.929-20.665s-17.929,7.546-17.929,20.665c0,13.168,8.138,20.714,17.929,20.714S356.609,9323.134,356.609,9309.966Zm-7.85,0c0,6.955-3.387,11.383-10.079,11.383-6.651,0-10.038-4.428-10.038-11.383,0-6.907,3.387-11.4,10.038-11.4C345.373,9298.567,348.76,9303.059,348.76,9309.966Z" transform="translate(79.452 -9232.371)" fill="#dafd08"/><path d="M377.59,9314.164c5.7-.86,8.1-5.4,8.1-11.848,0-7.418-3.428-12.025-10.327-12.025h-21.77v38.837h7.518v-14.849h6.94l6.981,14.849H385.48Zm-2.272-14.722a2.245,2.245,0,0,1,2.4,2.528c0,1.95-.992,2.824-2.355,2.824H361.108v-5.353Z" transform="translate(88.76 -9232.09)" fill="#dafd08"/><path d="M413.463,9314.279c7.105,0,10.617-4.543,10.617-11.963s-3.429-12.025-10.328-12.025h-21.77v38.837H399.5v-14.849Zm.248-14.837a2.245,2.245,0,0,1,2.4,2.528c0,1.95-.992,2.824-2.355,2.824H399.5v-5.353Z" transform="translate(99.643 -9232.09)" fill="#dafd08"/><path d="M444.4,9314.164c5.7-.86,8.1-5.4,8.1-11.848,0-7.418-3.429-12.025-10.328-12.025H420.4v38.837h7.519v-14.849h6.94l6.982,14.849H452.3Zm-2.272-14.722a2.245,2.245,0,0,1,2.4,2.528c0,1.95-.992,2.824-2.355,2.824H427.923v-5.353Z" transform="translate(107.699 -9232.09)" fill="#dafd08"/><path d="M484.479,9309.966c0-13.119-8.137-20.665-17.927-20.665s-17.929,7.546-17.929,20.665c0,13.168,8.138,20.714,17.929,20.714S484.479,9323.134,484.479,9309.966Zm-7.848,0c0,6.955-3.387,11.383-10.079,11.383-6.651,0-10.039-4.428-10.039-11.383,0-6.907,3.388-11.4,10.039-11.4C473.244,9298.567,476.631,9303.059,476.631,9309.966Z" transform="translate(115.698 -9232.371)" fill="#dafd08"/><path d="M508.142,9290.291H478.771v9.729h10.906v29.108H497.2V9300.02h10.947Z" transform="translate(124.244 -9232.09)" fill="#dafd08"/><path d="M534.412,9290.291H505.041v38.837H534.99v-9.9H512.6v-5.519h19.044v-8.984H512.6v-5.518h21.811Z" transform="translate(131.691 -9232.09)" fill="#dafd08"/><path d="M561.606,9301.044c-1.115-7.828-4.875-11.743-14.417-11.743-11.36,0-15.45,4.955-15.45,12.6,0,10.819,6.031,12.089,11.155,12.372,5.7.285,11.608-.577,11.608,2.992,0,3.337-3.3,4.6-7.023,4.6-3.264,0-7.642-1.037-8.055-4.144h-8.3c.372,5.815,2.066,8.457,5.578,10.936,2.024,1.322,4.75,1.949,10.2,1.949,11.029,0,15.49-5.7,15.49-14.9,0-7.944-3.841-10.639-12.1-10.639-2.6,0-3.966.051-5.329.051-2.81,0-5.206-.051-5.206-3.39,0-2.707,2.6-3.978,7.477-3.978,3.223,0,5.783.642,6.858,3.685Z" transform="translate(139.083 -9232.371)" fill="#dafd08"/><path d="M586.87,9290.291H557.5v9.729H568.4v29.108h7.518V9300.02H586.87Z" transform="translate(146.561 -9232.09)" fill="#dafd08"/><path d="M1093.009,9238.971H1063.63v9.728h10.91v29.111h7.521V9248.7h10.948Z" transform="translate(-854.155 -9180.082)" fill="#dafd08"/><path d="M1124.52,9258.641c0-13.117-8.137-20.65-17.93-20.65s-17.93,7.533-17.93,20.65c0,13.181,8.137,20.716,17.93,20.716S1124.52,9271.821,1124.52,9258.641Zm-7.855,0c0,6.97-3.375,11.4-10.075,11.4-6.648,0-10.036-4.428-10.036-11.4,0-6.9,3.388-11.384,10.036-11.384C1113.29,9247.257,1116.665,9251.736,1116.665,9258.641Z" transform="translate(-847.06 -9180.358)" fill="#dafd08"/><path d="M1156.75,9258.641c0-13.117-8.15-20.65-17.93-20.65s-17.93,7.533-17.93,20.65c0,13.181,8.137,20.716,17.93,20.716S1156.75,9271.821,1156.75,9258.641Zm-7.855,0c0,6.97-3.388,11.4-10.075,11.4-6.661,0-10.037-4.428-10.037-11.4,0-6.9,3.375-11.384,10.037-11.384C1145.507,9247.257,1148.9,9251.736,1148.9,9258.641Z" transform="translate(-837.924 -9180.358)" fill="#dafd08"/><path d="M1161.241,9238.971h-7.521v38.839h27.312v-10.461h-19.791Z" transform="translate(-828.618 -9180.082)" fill="#dafd08"/></g><path d="M101.06,30.44c4.224,0,6.912-2.112,6.912-6.592,0-3.264-1.92-4.8-4.8-4.8-4.224,0-6.848,1.984-6.848,6.272C96.324,28.776,98.18,30.44,101.06,30.44ZM98.5,44.968c-.064,3.008-9.152,8.7-9.152,14.784A6.421,6.421,0,0,0,95.684,65.7c3.712,0,6.784-3.392,9.856-14.912l-1.152-.512c-1.024,2.5-1.856,3.2-3.2,3.2a1.954,1.954,0,0,1-2.176-2.112c0-2.944,3.584-9.728,3.584-13.44,0-3.584-2.24-6.144-4.48-6.144-3.648,0-6.08,4.8-8.96,14.08l1.28.512c.832-2.56,2.5-3.072,4.928-3.072C97.54,43.3,98.5,43.944,98.5,44.968Zm28.224-15.36.64-7.872a17.616,17.616,0,0,0-3.712-.512c-3.84,0-7.616,2.24-9.408,10.24-.064.256-.128.512-.192.832a13.548,13.548,0,0,1-7.616,9.472V43.3c1.664-.064,3.52-.064,5.44-.064-1.728,9.152-3.392,18.816-4.416,22.912-.448,1.472-.768,2.176-1.472,2.176-.9,0-1.28-.576-1.792-3.072l-1.088.256c.064,7.68,2.56,10.88,7.872,10.88,4.48,0,7.68-3.2,7.68-9.344,0-7.36-3.392-15.488-4.608-23.808,3.52.064,7.1.192,9.984.384l2.112-11.2H115.716c.64-2.56,2.88-3.52,5.7-3.52A17.111,17.111,0,0,1,126.724,29.608Z" transform="translate(87 -18)" fill="#dafd08"/><path d="M99.6,57.725c14.925-.825,22.425-2.4,22.425-11.25C122.025,38,119.4,32,111.375,32c-1.725,0-3.375.15-5.625.15-1.125,0-1.5-.45-1.5-1.35a12.406,12.406,0,0,1,.45-2.475l-1.8-.075c-2.625,5.925-5.325,11.475-5.325,15.075,0,2.55,1.275,3.15,3.3,3.15,4.275,0,14.1-2.775,17.625-2.775,1.275,0,1.8.525,1.8,1.425,0,2.4-8.55,6.3-20.925,10.725Zm.9,19.8c5.7,0,9.975-3,9.975-9.075,0-4.725-2.7-7.125-7.5-7.125-5.625,0-9.825,2.85-9.825,9C93.15,74.975,95.85,77.525,100.5,77.525Z" transform="translate(650 30)" fill="#dafd08"/></g></svg>