<svg xmlns="http://www.w3.org/2000/svg" xmlns:xlink="http://www.w3.org/1999/xlink" width="240" height="87" viewBox="0 0 240 87"><defs><clipPath id="b"><rect width="240" height="87"/></clipPath></defs><g id="a" clip-path="url(#b)"><g transform="translate(-5788.5 -3831.343)"><g transform="translate(5790.5 3838.192)"><path d="M107.576,2304.76h-7.4l-10.048,12.378V2304.76H85.539v30.493h4.588v-10.165L95,2319.26l7.628,15.993h6.529l-10.47-20.1Z" transform="translate(-85.539 -2303.768)" fill="#8e56fa"/><path d="M157.319,2304.76H152.7v30.493h4.616Z" transform="translate(-125.815 -2303.768)" fill="#8e56fa"/><path d="M198.94,2304.76H194.1v20.285l-12.694-20.285h-4.9v30.493h4.841v-21.005l12.806,21.005h4.785Z" transform="translate(-140.091 -2303.768)" fill="#8e56fa"/><path d="M244.066,2304.76v30.493h11.4c8.866,0,11.821-8.447,11.821-15.269,0-12.15-5.6-15.225-12.468-15.225Zm10.751,6.145c5.151,0,7.684,3.207,7.684,8.808,0,5.332-2.5,8.491-7.627,8.491h-6.192v-17.3Z" transform="translate(-180.603 -2303.768)" fill="#8e56fa"/><path d="M334.6,2304.76h-4.841v20.285L317.07,2304.76h-4.9v30.493h4.841v-21.005l12.806,21.005H334.6Z" transform="translate(-221.444 -2303.768)" fill="#8e56fa"/><path d="M399.742,2304.76H379.731v30.493h20.4V2328.3H384.347v-5.512h13.51v-6.369h-13.51v-5.373h15.4Z" transform="translate(-261.957 -2303.768)" fill="#8e56fa"/><path d="M456.831,2311.5c-.76-6.145-3.321-9.216-9.823-9.216-7.74,0-10.526,3.8-10.526,9.712,0,6.506,2.561,8.267,5.207,9.035,4.531,1.309,10.836-.9,10.836,3.343,0,2.934-2.308,4.2-5.376,4.2-2.815,0-5.77-1.129-6.051-3.975H436.06c.253,4.516,1.407,6.685,3.8,8.583,1.351,1.037,3.237,1.537,6.952,1.537,7.515,0,10.554-4.384,10.554-11.205a10.15,10.15,0,0,0-1.323-5.6,5.672,5.672,0,0,0-4.5-2.618,37.447,37.447,0,0,0-5.516-.272c-2.73,0-4.672-.092-4.672-3.163,0-2.438,1.886-3.615,5.685-3.615,2.645,0,4.475.816,5.207,3.527Z" transform="translate(-295.736 -2302.28)" fill="#8e56fa"/><path d="M518.072,2311.5c-.76-6.145-3.321-9.216-9.823-9.216-7.74,0-10.526,3.8-10.526,9.712,0,6.506,2.561,8.267,5.207,9.035,4.531,1.309,10.836-.9,10.836,3.343,0,2.934-2.308,4.2-5.376,4.2-2.814,0-5.77-1.129-6.051-3.975H497.3c.253,4.516,1.408,6.685,3.8,8.583,1.351,1.037,3.237,1.537,6.952,1.537,7.515,0,10.554-4.384,10.554-11.205a10.149,10.149,0,0,0-1.323-5.6,5.671,5.671,0,0,0-4.5-2.618,37.455,37.455,0,0,0-5.517-.272c-2.73,0-4.672-.092-4.672-3.163,0-2.438,1.886-3.615,5.685-3.615,2.645,0,4.475.816,5.207,3.527Z" transform="translate(-332.46 -2302.28)" fill="#8e56fa"/><path d="M107.436,2420.054c-1.436-5.008-5.32-9.023-10.245-9.023-6.3,0-11.652,5.909-11.652,16.193,0,10.329,5.01,16.241,11.371,16.241,5.46,0,8.894-3.251,10.413-8.979l-3.94-2.93c-.929,3.022-2.786,5.369-6.135,5.369-4.447,0-6.9-3.743-6.9-9.7s2.617-9.7,6.839-9.7c3.124,0,5.573,2.434,6.248,5.817Z" transform="translate(-85.539 -2367.494)" fill="#8e56fa"/><path d="M172.724,2427.224c0-10.285-5.545-16.193-12.215-16.193s-12.215,5.909-12.215,16.193c0,10.329,5.545,16.241,12.215,16.241S172.724,2437.552,172.724,2427.224Zm-4.813,0c0,5.957-2.646,9.7-7.4,9.7s-7.4-3.743-7.4-9.7,2.646-9.7,7.4-9.7S167.911,2421.271,167.911,2427.224Z" transform="translate(-123.171 -2367.494)" fill="#8e56fa"/><path d="M241.816,2413.51h-4.841v20.253l-12.693-20.253h-4.9v30.449h4.841v-20.978l12.806,20.978h4.785Z" transform="translate(-165.802 -2368.981)" fill="#8e56fa"/><path d="M309.374,2413.51h-4.841v20.253l-12.693-20.253h-4.9v30.449h4.841v-20.978l12.806,20.978h4.785Z" transform="translate(-206.314 -2368.981)" fill="#8e56fa"/><path d="M374.511,2413.51H354.5v30.449h20.405v-6.95H359.116v-5.5h13.51v-6.362h-13.51v-5.368h15.4Z" transform="translate(-246.827 -2368.981)" fill="#8e56fa"/><path d="M432.866,2420.054c-1.435-5.008-5.319-9.023-10.244-9.023-6.3,0-11.652,5.909-11.652,16.193,0,10.329,5.01,16.241,11.37,16.241,5.46,0,8.894-3.251,10.414-8.979l-3.94-2.93c-.929,3.022-2.786,5.369-6.135,5.369-4.447,0-6.9-3.743-6.9-9.7s2.617-9.7,6.839-9.7c3.124,0,5.573,2.434,6.248,5.817Z" transform="translate(-280.69 -2367.494)" fill="#8e56fa"/><path d="M490.5,2413.51H470.491v6.81H478.2v23.64h4.588v-23.64H490.5Z" transform="translate(-316.383 -2368.981)" fill="#8e56fa"/><path d="M532.628,2413.51h-4.615v30.449h4.615Z" transform="translate(-350.877 -2368.981)" fill="#8e56fa"/><path d="M574.25,2413.51h-4.841v20.253l-12.693-20.253h-4.9v30.449h4.841v-20.978l12.806,20.978h4.785Z" transform="translate(-365.152 -2368.981)" fill="#8e56fa"/><path d="M640.669,2415.226c-1.464-1.757-5.995-4.2-10.977-4.2-6.3,0-11.652,5.909-11.652,16.193,0,10.329,5.01,16.241,11.371,16.241,5.939,0,9.485-1.85,11.033-3.431v-14.072h-9.006v6.177h4.39v2.842c-.985,1.445-3.687,1.942-6.079,1.942-4.447,0-7.008-3.743-7.008-9.7s2.7-9.7,6.952-9.7c3.124,0,5.91,1.217,8.809,4.1Z" transform="translate(-404.863 -2367.494)" fill="#8e56fa"/></g><text transform="translate(5990.266 3867.816)" fill="#8e56fa" font-size="50" font-family="SwearDisplay-BoldCilati, Swear Display" font-weight="700" letter-spacing="0.01em"><tspan x="0" y="0">is</tspan></text></g></g></svg>