<svg xmlns="http://www.w3.org/2000/svg" xmlns:xlink="http://www.w3.org/1999/xlink" width="960" height="323" viewBox="0 0 960 323"><defs><clipPath id="b"><rect width="960" height="323"/></clipPath></defs><g id="a" clip-path="url(#b)"><path d="M486.385,8426.828H432.932l-57.143,70.6v-70.6H342.243V8613.72H375.79v-61.469l27.835-33.507,45.158,94.976h47.927l-66.542-124.043Z" transform="translate(-338.243 -8378.266)"/><path d="M433.227,8426.828H399.68V8613.72h33.547Z" transform="translate(-219.762 -8378.266)"/><path d="M567.963,8426.828H532.573v116.539l-75.759-116.539H421.056V8613.72h35.391V8491.884l76.677,121.836h34.839Z" transform="translate(-175.668 -8378.266)"/><path d="M478.769,8426.828V8613.72h74.653c58.062,0,77.418-51.789,77.418-93.6,0-74.49-36.683-93.295-81.657-93.295Zm70.414,42.086c32.625,0,46.634,19.662,46.634,49.28,0,31.545-16.037,47.348-46.818,47.348H512.5v-96.628Z" transform="translate(-56.617 -8378.266)"/><path d="M687.084,8497.2c0-13.293-8.845-23.551-19.354-23.551-10.873,0-19.17,10.258-19.17,23.551,0,13.016,8.3,23.523,19.17,23.523C678.238,8520.724,687.084,8510.216,687.084,8497.2Z" transform="translate(262.416 -8281.856)"/><text transform="translate(624.452 255.064)" font-size="368" font-family="SwearDisplay-BoldCilati, Swear Display" font-weight="700" letter-spacing="0.01em"><tspan x="0" y="0">af</tspan></text></g></svg>