<svg xmlns="http://www.w3.org/2000/svg" xmlns:xlink="http://www.w3.org/1999/xlink" width="547" height="100" viewBox="0 0 547 100"><defs><clipPath id="b"><rect width="547" height="100"/></clipPath></defs><g id="a" clip-path="url(#b)"><g transform="translate(-594.191 -6493.687)"><text transform="translate(1044.192 6535)" fill="#60f3c3" font-size="59" font-family="SwearDisplay-BoldCilati, Swear Display" font-weight="700" letter-spacing="0.01em"><tspan x="0" y="0">and</tspan></text><path d="M603.049,6535.08h-8.611l-11.688,13.088V6535.08h-5.337v32.241h5.337v-10.747l5.663-6.16,8.873,16.907h7.6L592.7,6546.066Z" transform="translate(21.678 -27.779)" fill="#60f3c3"/><path d="M619.394,6535.08h-5.369v32.241h5.369Z" transform="translate(16.344 -27.779)" fill="#60f3c3"/><path d="M653.094,6535.08h-5.631v21.451L632.7,6535.08H627v32.241h5.632v-22.212l14.9,22.212h5.565Z" transform="translate(14.454 -27.779)" fill="#60f3c3"/><path d="M663.827,6535.08v32.241h13.259c10.313,0,13.751-8.927,13.751-16.146,0-12.849-6.515-16.1-14.5-16.1Zm12.506,6.493c5.991,0,8.938,3.391,8.938,9.32,0,5.638-2.914,8.979-8.872,8.979h-7.2v-18.3Z" transform="translate(9.088 -27.779)" fill="#60f3c3"/><path d="M727.045,6535.08h-5.632v21.451l-14.765-21.451h-5.7v32.241h5.631v-22.212l14.9,22.212h5.566Z" transform="translate(3.679 -27.779)" fill="#60f3c3"/><path d="M761.055,6535.08H737.777v32.241h23.736v-7.356H743.146v-5.826h15.715v-6.731H743.146v-5.69h17.909Z" transform="translate(-1.686 -27.779)" fill="#60f3c3"/><path d="M792.644,6543.6c-.884-6.5-3.863-9.748-11.425-9.748-9,0-12.245,4.015-12.245,10.269,0,6.876,2.979,8.739,6.057,9.55,5.27,1.393,12.6-.948,12.6,3.537,0,3.11-2.685,4.442-6.253,4.442-3.274,0-6.711-1.2-7.039-4.2h-5.86c.295,4.775,1.637,7.074,4.42,9.072,1.571,1.1,3.765,1.632,8.086,1.632,8.741,0,12.277-4.639,12.277-11.849a9.969,9.969,0,0,0-1.539-5.92c-1.146-1.581-2.553-2.443-5.239-2.775a48.65,48.65,0,0,0-6.417-.283c-3.175,0-5.434-.094-5.434-3.349,0-2.58,2.193-3.818,6.613-3.818,3.077,0,5.205.862,6.057,3.724Z" transform="translate(-6.16 -27.6)" fill="#60f3c3"/><path d="M826.027,6543.6c-.884-6.5-3.863-9.748-11.426-9.748-9,0-12.245,4.015-12.245,10.269,0,6.876,2.98,8.739,6.057,9.55,5.271,1.393,12.6-.948,12.6,3.537,0,3.11-2.684,4.442-6.253,4.442-3.275,0-6.711-1.2-7.039-4.2h-5.86c.294,4.775,1.637,7.074,4.419,9.072,1.572,1.1,3.765,1.632,8.087,1.632,8.741,0,12.277-4.639,12.277-11.849a9.969,9.969,0,0,0-1.539-5.92c-1.146-1.581-2.554-2.443-5.239-2.775a48.662,48.662,0,0,0-6.417-.283c-3.176,0-5.435-.094-5.435-3.349,0-2.58,2.194-3.818,6.613-3.818,3.078,0,5.206.862,6.057,3.724Z" transform="translate(-11.023 -27.6)" fill="#60f3c3"/><path d="M852.36,6535.08h-5.369v32.241h5.369Z" transform="translate(-17.598 -27.779)" fill="#60f3c3"/><path d="M883.247,6543.6c-.883-6.5-3.863-9.748-11.425-9.748-9,0-12.245,4.015-12.245,10.269,0,6.876,2.98,8.739,6.057,9.55,5.271,1.393,12.6-.948,12.6,3.537,0,3.11-2.684,4.442-6.253,4.442-3.274,0-6.711-1.2-7.039-4.2h-5.86c.295,4.775,1.638,7.074,4.42,9.072,1.571,1.1,3.765,1.632,8.087,1.632,8.741,0,12.277-4.639,12.277-11.849a9.962,9.962,0,0,0-1.539-5.92c-1.146-1.581-2.554-2.443-5.238-2.775a48.665,48.665,0,0,0-6.417-.283c-3.176,0-5.435-.094-5.435-3.349,0-2.58,2.194-3.818,6.613-3.818,3.077,0,5.205.862,6.057,3.724Z" transform="translate(-19.36 -27.6)" fill="#60f3c3"/><path d="M908.632,6535.08H903.3v32.2h21.64V6559.5h-16.3Z" transform="translate(-25.801 -27.779)" fill="#60f3c3"/><path d="M959.2,6550.971c0-10.876-6.45-17.121-14.209-17.121s-14.209,6.245-14.209,17.121c0,10.926,6.449,17.179,14.209,17.179S959.2,6561.9,959.2,6550.971Zm-5.6,0c0,6.3-3.078,10.26-8.611,10.26s-8.61-3.956-8.61-10.26,3.077-10.253,8.61-10.253S953.605,6544.675,953.605,6550.971Z" transform="translate(-29.806 -27.6)" fill="#60f3c3"/><path d="M993.946,6535.08h-5.959l-8.152,23.989-8.153-23.989h-6.056l11.229,32.2h5.7Z" transform="translate(-34.882 -27.779)" fill="#60f3c3"/><path d="M1008.224,6535.08h-5.374v32.2h5.374Z" transform="translate(-40.306 -27.779)" fill="#60f3c3"/><path d="M1041.921,6535.08h-5.63V6556.5l-14.762-21.417h-5.7v32.2h5.63v-22.187l14.9,22.187h5.562Z" transform="translate(-42.197 -27.779)" fill="#60f3c3"/><path d="M1078.251,6538.284c-1.7-1.863-6.971-4.433-12.772-4.433-7.33,0-13.549,6.245-13.549,17.121,0,10.926,5.826,17.179,13.225,17.179,6.911,0,11.038-1.957,12.832-3.63v-14.882h-10.474v6.535h5.109v3.007c-1.145,1.529-4.289,2.051-7.074,2.051-5.168,0-8.15-3.956-8.15-10.26s3.144-10.253,8.082-10.253c3.639,0,6.877,1.291,10.252,4.34Z" transform="translate(-47.456 -27.6)" fill="#60f3c3"/><path d="M719.278,6602.333c-1.67-5.3-6.188-9.542-11.917-9.542-7.333,0-13.554,6.254-13.554,17.129,0,10.927,5.827,17.171,13.226,17.171,6.352,0,10.346-3.434,12.113-9.492l-4.583-3.1c-1.081,3.2-3.241,5.672-7.137,5.672-5.173,0-8.021-3.956-8.021-10.251s3.045-10.252,7.955-10.252a7.467,7.467,0,0,1,7.268,6.151Z" transform="translate(-97.305 -36.187)" fill="#60f3c3"/><path d="M742.834,6594.021h-6.811l-10.443,32.2h5.729l2.1-6.578h11.851l2.063,6.578h6.22Zm-3.438,6.826,3.863,12.4h-7.824Z" transform="translate(-101.934 -36.367)" fill="#60f3c3"/><path d="M780.6,6613.866c4.55-.718,6.776-4.34,6.776-9.876,0-6.15-2.717-9.97-8.184-9.97H761.938v32.2h5.336v-12.3h6.548l5.991,12.3h7.432Zm-1.441-12.875a2.444,2.444,0,0,1,2.587,2.761c0,2.006-1.015,3.007-2.587,3.007H767.274v-5.768Z" transform="translate(-107.232 -36.367)" fill="#60f3c3"/><path d="M802.5,6594.021h-5.368v32.2H802.5Z" transform="translate(-112.358 -36.367)" fill="#60f3c3"/><path d="M836.2,6594.021h-5.632v21.417L815.8,6594.021h-5.7v32.2h5.631v-22.178l14.9,22.178H836.2Z" transform="translate(-114.249 -36.367)" fill="#60f3c3"/><path d="M872.523,6597.233c-1.7-1.863-6.974-4.443-12.768-4.443-7.333,0-13.554,6.254-13.554,17.129,0,10.927,5.828,17.171,13.227,17.171,6.908,0,11.033-1.958,12.833-3.623v-14.882H861.784v6.536h5.107v3c-1.146,1.528-4.289,2.05-7.072,2.05-5.172,0-8.152-3.956-8.152-10.251s3.143-10.252,8.087-10.252c3.634,0,6.875,1.282,10.247,4.34Z" transform="translate(-119.508 -36.187)" fill="#60f3c3"/><path d="M914.737,6594.021H893v32.2h5.369v-11.78h14.667v-6.869H898.367v-7.056h16.369Z" transform="translate(-126.326 -36.367)" fill="#60f3c3"/><path d="M949.467,6609.92c0-10.875-6.45-17.129-14.209-17.129s-14.209,6.254-14.209,17.129c0,10.927,6.449,17.171,14.209,17.171S949.467,6620.847,949.467,6609.92Zm-5.6,0c0,6.3-3.078,10.251-8.611,10.251s-8.61-3.956-8.61-10.251,3.077-10.252,8.61-10.252S943.868,6603.624,943.868,6609.92Z" transform="translate(-130.413 -36.187)" fill="#60f3c3"/><path d="M978.461,6613.866c4.551-.718,6.777-4.34,6.777-9.876,0-6.15-2.718-9.97-8.185-9.97H959.8v32.2h5.337v-12.3h6.547l5.991,12.3h7.433Zm-1.44-12.875a2.444,2.444,0,0,1,2.586,2.761c0,2.006-1.015,3.007-2.586,3.007H965.137v-5.768Z" transform="translate(-136.059 -36.367)" fill="#60f3c3"/><path d="M605.832,6668.869c0-10.875-6.45-17.127-14.209-17.127s-14.209,6.253-14.209,17.127c0,10.919,6.45,17.172,14.209,17.172S605.832,6679.788,605.832,6668.869Zm-5.6,0c0,6.3-3.077,10.252-8.61,10.252s-8.611-3.955-8.611-10.252,3.078-10.26,8.611-10.26S600.233,6662.573,600.233,6668.869Z" transform="translate(283.651 -95.139)" fill="#60f3c3"/><path d="M640.828,6652.972h-5.3v16.266c0,8.014-3.077,9.918-7.3,9.918-3.994,0-6.646-2.187-6.646-9.97v-16.214h-5.566v17.5c0,10.969,4.911,15.744,12.146,15.744s12.669-4.673,12.669-15.839Z" transform="translate(278.027 -95.318)" fill="#60f3c3"/><path d="M669.781,6672.817c4.551-.718,6.777-4.34,6.777-9.875,0-6.152-2.718-9.97-8.184-9.97H651.12v32.2h5.336v-12.311H663L669,6685.17h7.432Zm-1.44-12.883a2.45,2.45,0,0,1,2.587,2.768c0,2.008-1.015,3.007-2.587,3.007H656.456v-5.775Z" transform="translate(272.912 -95.318)" fill="#60f3c3"/><path d="M708.419,6661.472c-.884-6.484-3.863-9.73-11.426-9.73-9,0-12.244,4.006-12.244,10.26,0,6.868,2.979,8.723,6.056,9.534,5.271,1.383,12.605-.948,12.605,3.537,0,3.093-2.685,4.435-6.254,4.435-3.274,0-6.711-1.2-7.039-4.2h-5.861c.295,4.776,1.637,7.065,4.419,9.064,1.572,1.1,3.766,1.624,8.087,1.624,8.741,0,12.277-4.622,12.277-11.832a9.957,9.957,0,0,0-1.539-5.912c-1.146-1.572-2.554-2.435-5.239-2.768a48.9,48.9,0,0,0-6.417-.282c-3.175,0-5.434-.095-5.434-3.34,0-2.58,2.193-3.819,6.613-3.819,3.077,0,5.205.863,6.056,3.725Z" transform="translate(268.084 -95.139)" fill="#60f3c3"/><path d="M741.8,6652.972H718.521v32.2h23.736v-7.347H723.89v-5.818h15.715v-6.724H723.89V6659.6H741.8Z" transform="translate(263.092 -95.318)" fill="#60f3c3"/><path d="M755.444,6652.972h-5.337v32.2h21.64V6677.4h-16.3Z" transform="translate(258.49 -95.318)" fill="#60f3c3"/><path d="M800.076,6652.972h-5.958l-8.153,24-8.152-24h-6.056l11.229,32.2h5.7Z" transform="translate(255.336 -95.318)" fill="#60f3c3"/><path d="M831.841,6652.972H808.564v32.2H832.3v-7.347H813.933v-5.818h15.714v-6.724H813.933V6659.6h17.908Z" transform="translate(249.973 -95.318)" fill="#60f3c3"/><path d="M863.43,6661.472c-.884-6.484-3.864-9.73-11.426-9.73-9,0-12.245,4.006-12.245,10.26,0,6.868,2.98,8.723,6.057,9.534,5.271,1.383,12.6-.948,12.6,3.537,0,3.093-2.684,4.435-6.253,4.435-3.275,0-6.712-1.2-7.039-4.2h-5.861c.295,4.776,1.638,7.065,4.42,9.064,1.572,1.1,3.765,1.624,8.087,1.624,8.741,0,12.277-4.622,12.277-11.832a9.95,9.95,0,0,0-1.539-5.912c-1.146-1.572-2.554-2.435-5.238-2.768a48.916,48.916,0,0,0-6.417-.282c-3.176,0-5.435-.095-5.435-3.34,0-2.58,2.194-3.819,6.613-3.819,3.078,0,5.206.863,6.057,3.725Z" transform="translate(245.5 -95.139)" fill="#60f3c3"/></g></g></svg>