<svg xmlns="http://www.w3.org/2000/svg" xmlns:xlink="http://www.w3.org/1999/xlink" width="901" height="266" viewBox="0 0 901 266"><defs><clipPath id="b"><rect width="901" height="266"/></clipPath></defs><g id="a" clip-path="url(#b)"><g transform="translate(-391.258 -4781)"><g transform="translate(392.258 4788.815)"><path d="M847.814,4974.21H843.1v46.641L811.02,4974.21H806.2v56.523h4.71v-47.315l32.189,47.315h4.71Z" transform="translate(-195.017 -4973.527)"/><path d="M898.314,4974.21H861.1v56.523H899v-6.782h-33.34v-19.173h29.153v-6.284H865.655v-18.084h32.659Z" transform="translate(-199.262 -4973.527)"/><path d="M966.668,4974.21h-5.129l-11.618,47.4-12.3-47.4h-4.4l-12.247,47.4-11.515-47.4h-5.129l13.818,56.523h5.286l11.88-45.8,12.038,45.8H952.8Z" transform="translate(-202.605 -4973.527)"/><path d="M332.207,4973.47h-5.129l-11.619,47.4-12.3-47.4h-4.4l-12.247,47.4L275,4973.47h-5.129L283.689,5030h5.287l11.88-45.811L312.895,5030h5.443Z" transform="translate(-153.546 -4973.47)"/><path d="M380.239,4973.47H343.026V5030h37.893v-6.791h-33.34v-19.173h29.153v-6.283H347.579V4979.67h32.66Z" transform="translate(-159.203 -4973.47)"/><path d="M427.451,4973.47h-5.7L402.433,5030H407.3l4.972-14.32h24.652l5.024,14.32h5.234Zm-2.931,6.283,10.677,29.978H414.052Z" transform="translate(-163.796 -4973.47)"/><path d="M484.068,5008.477c7.484-.582,13.189-6.367,13.189-17.42,0-10.795-4.344-17.586-13.085-17.586h-27.53V5030H461.2V5008.56H478.31L490.924,5030H497.2ZM484.12,4980c5.5,0,8.426,4.023,8.426,10.888,0,7.206-3.506,10.971-10,10.971H461.2V4980Z" transform="translate(-167.988 -4973.47)"/><path d="M545.65,4973.47H508.437V5030h37.892v-6.791H512.99v-19.173h29.152v-6.283H512.99V4979.67H545.65Z" transform="translate(-171.993 -4973.47)"/><path d="M604.786,4973.47H567.73v6.791h16.225V5030h4.5v-49.741h16.33Z" transform="translate(-176.578 -4973.47)"/><path d="M653.515,4973.47h-4.5v23.372H618.185V4973.47h-4.553V5030h4.553v-26.637h30.828V5030h4.5Z" transform="translate(-180.127 -4973.47)"/><path d="M703.747,4973.47H666.535V5030h37.893v-6.791h-33.34v-19.173h29.153v-6.283H671.088V4979.67h32.659Z" transform="translate(-184.218 -4973.47)"/><path d="M185.773,5087.6c-2.669-2.98-11.1-7.307-20.307-7.307-11.724,0-21.668,10.38-21.668,28.225,0,18,9.264,28.3,21.145,28.3,10.991,0,17.795-4.558,20.464-8.018V5107.73h-16.7v5.739h12.2v11.552c-2.25,2.833-8.165,5.739-15.7,5.739-9.892,0-16.748-8.258-16.748-22.246,0-13.914,7.328-22.172,17.01-22.172a26.135,26.135,0,0,1,18.109,7.151Z" transform="translate(-143.798 -4981.729)"/><path d="M235.158,5082.16H197.946v53.072h37.893v-6.367H202.5v-18.011h29.152v-5.9H202.5v-16.977h32.659Z" transform="translate(-147.985 -4981.874)"/><path d="M286.53,5082.16h-4.71v43.791l-32.083-43.791h-4.815v53.072h4.71v-44.417l32.189,44.417h4.71Z" transform="translate(-151.617 -4981.874)"/><path d="M337.03,5082.16H299.818v53.072H337.71v-6.367H304.371v-18.011h29.152v-5.9H304.371v-16.977H337.03Z" transform="translate(-155.862 -4981.874)"/><path d="M374.219,5115.025c7.484-.553,13.189-5.979,13.189-16.35,0-10.14-4.344-16.516-13.084-16.516h-27.53v53.072h4.553V5115.1h17.115l12.614,20.133h6.281Zm.052-26.73c5.5,0,8.427,3.774,8.427,10.224,0,6.753-3.506,10.3-10,10.3H351.346V5088.3Z" transform="translate(-159.494 -4981.874)"/><path d="M419.861,5082.16h-5.7l-19.313,53.072h4.867l4.972-13.444h24.651l5.025,13.444h5.233Zm-2.931,5.9,10.677,28.151H406.463Z" transform="translate(-163.21 -4981.874)"/><path d="M476.269,5082.16H439.213v6.375h16.224v46.7h4.5v-46.7h16.329Z" transform="translate(-166.64 -4981.874)"/><path d="M490.3,5082.16h-4.5v53.072h4.5Z" transform="translate(-170.242 -4981.874)"/><path d="M545.367,5108.515c0-17.845-10.311-28.225-22.663-28.225-12.4,0-22.714,10.38-22.714,28.225,0,18,10.31,28.3,22.714,28.3C535.056,5136.813,545.367,5126.516,545.367,5108.515Zm-4.763,0c0,13.988-7.484,22.246-17.9,22.246-10.468,0-17.952-8.258-17.952-22.246,0-13.914,7.484-22.172,17.952-22.172C533.12,5086.342,540.6,5094.6,540.6,5108.515Z" transform="translate(-171.34 -4981.729)"/><path d="M599.292,5082.16h-4.71v43.791L562.5,5082.16h-4.815v53.072h4.71v-44.417l32.188,44.417h4.71Z" transform="translate(-175.801 -4981.874)"/><path d="M673,5108.515c0-17.845-10.311-28.225-22.663-28.225-12.4,0-22.715,10.38-22.715,28.225,0,18,10.31,28.3,22.715,28.3C662.687,5136.813,673,5126.516,673,5108.515Zm-4.763,0c0,13.988-7.485,22.246-17.9,22.246-10.468,0-17.953-8.258-17.953-22.246,0-13.914,7.485-22.172,17.953-22.172C660.751,5086.342,668.235,5094.6,668.235,5108.515Z" transform="translate(-181.209 -4981.729)"/><path d="M720.067,5082.16H685.314v53.072h4.553v-22.726H717.4v-6.053h-27.53V5087.9h30.2Z" transform="translate(-185.669 -4981.874)"/><path d="M785.5,5082.16h-7.38l-29.206,27.44v-27.44h-4.553v53.072h4.553v-18.4l13.66-12.659,19.365,31.057h6.438l-22.14-34.831Z" transform="translate(-190.236 -4981.874)"/><path d="M803.558,5082.16h-4.5v53.072h4.5Z" transform="translate(-194.464 -4981.874)"/><path d="M855.994,5082.16h-4.71v43.791L819.2,5082.16h-4.815v53.072h4.71v-44.417l32.188,44.417h4.71Z" transform="translate(-195.65 -4981.874)"/><path d="M869.281,5082.16v53.072h21.2c16.435,0,21.878-14.707,21.878-26.573,0-21.148-10.415-26.5-23.082-26.5Zm19.994,5.739c10.991,0,18.423,5.425,18.423,20.52,0,10.454-4.971,20.363-17.795,20.363H873.834V5087.9Z" transform="translate(-199.894 -4981.874)"/><path d="M966.12,5082.16h-4.71v43.791l-32.084-43.791h-4.815v53.072h4.71v-44.417l32.188,44.417h4.71Z" transform="translate(-204.165 -4981.874)"/><path d="M1016.621,5082.16H979.407v53.072h37.9v-6.367H983.96v-18.011h29.155v-5.9H983.96v-16.977h32.661Z" transform="translate(-208.41 -4981.874)"/><path d="M1063.593,5096.409c-1.412-10.62-6.182-16.119-18.269-16.119-14.338,0-19.57,6.052-19.57,15.64,0,12.815,8.212,15.094,14.809,15.094,2.039,0,4.032-.074,6.385-.074,2.823,0,8.212,0,10.1,1.495,1.67,1.338,2.768,4.318,2.768,7.077,0,7.308-4.862,11.478-14.551,11.478-9.836,0-14.809-4.014-15.335-11.875h-4.973c.471,7.465,2.676,11.875,7.123,14.938,2.62,1.726,5.914,2.676,12.825,2.676,14.08,0,19.681-7.16,19.681-18.011,0-10.768-6.237-13.914-14.606-13.914-4.761,0-6.228.083-8.793.083-4.973,0-10.629-.71-10.629-9.125,0-6.209,4.244-9.9,14.818-9.9,8.267,0,12.3,3.46,13.656,10.768Z" transform="translate(-211.932 -4981.729)"/><path d="M1113.223,5096.409c-1.412-10.62-6.173-16.119-18.269-16.119-14.339,0-19.57,6.052-19.57,15.64,0,12.815,8.221,15.094,14.809,15.094,2.039,0,4.032-.074,6.385-.074,2.833,0,8.221,0,10.1,1.495,1.679,1.338,2.777,4.318,2.777,7.077,0,7.308-4.872,11.478-14.551,11.478-9.845,0-14.818-4.014-15.335-11.875H1074.6c.47,7.465,2.667,11.875,7.114,14.938,2.62,1.726,5.914,2.676,12.825,2.676,14.08,0,19.681-7.16,19.681-18.011,0-10.768-6.228-13.914-14.606-13.914-4.761,0-6.228.083-8.793.083-4.973,0-10.62-.71-10.62-9.125,0-6.209,4.235-9.9,14.809-9.9,8.267,0,12.3,3.46,13.665,10.768Z" transform="translate(-215.77 -4981.729)"/><path d="M183.24,5184.62h-5.7l-19.313,54.151h4.867l4.972-13.72h24.651l5.025,13.72h5.233Zm-2.93,6.016,10.676,28.723H169.842Z" transform="translate(-144.913 -4989.797)"/><path d="M254.041,5184.62h-4.71V5229.3l-32.084-44.685h-4.815v54.151h4.71V5193.44l32.189,45.331h4.71Z" transform="translate(-149.105 -4989.797)"/><path d="M267.328,5184.62v54.151h21.2c16.435,0,21.878-15,21.878-27.118,0-21.582-10.415-27.034-23.082-27.034Zm19.994,5.859c10.991,0,18.423,5.536,18.423,20.936,0,10.667-4.971,20.779-17.795,20.779H271.881v-41.714Z" transform="translate(-153.35 -4989.797)"/><path d="M371.932,5184.62H334.876v6.5H351.1v47.656h4.5v-47.656h16.33Z" transform="translate(-158.573 -4989.797)"/><path d="M420.66,5184.62h-4.5V5207H385.331V5184.62h-4.553v54.151h4.553V5213.26h30.828v25.512h4.5Z" transform="translate(-162.122 -4989.797)"/><path d="M438.863,5184.62h-4.5v54.151h4.5Z" transform="translate(-166.265 -4989.797)"/><path d="M486.9,5199.152c-1.413-10.832-6.175-16.442-18.265-16.442-14.341,0-19.576,6.173-19.576,15.962,0,13.075,8.217,15.4,14.813,15.4,2.041,0,4.029-.074,6.385-.074,2.826,0,8.217,0,10.1,1.522,1.675,1.366,2.774,4.411,2.774,7.216,0,7.464-4.867,11.718-14.55,11.718-9.839,0-14.812-4.1-15.336-12.114h-4.971c.471,7.621,2.669,12.114,7.118,15.243,2.617,1.762,5.914,2.721,12.823,2.721,14.079,0,19.679-7.3,19.679-18.37,0-10.989-6.228-14.2-14.6-14.2-4.763,0-6.228.083-8.793.083-4.972,0-10.625-.719-10.625-9.3,0-6.338,4.24-10.113,14.812-10.113,8.27,0,12.3,3.534,13.66,10.99Z" transform="translate(-167.341 -4989.649)"/><path d="M520.681,5184.62h-4.5v54.151h4.5Z" transform="translate(-172.592 -4989.797)"/><path d="M568.716,5199.152c-1.413-10.832-6.175-16.442-18.266-16.442-14.34,0-19.575,6.173-19.575,15.962,0,13.075,8.217,15.4,14.812,15.4,2.042,0,4.03-.074,6.386-.074,2.826,0,8.217,0,10.1,1.522,1.675,1.366,2.774,4.411,2.774,7.216,0,7.464-4.867,11.718-14.55,11.718-9.84,0-14.812-4.1-15.336-12.114H530.09c.471,7.621,2.669,12.114,7.118,15.243,2.617,1.762,5.914,2.721,12.823,2.721,14.079,0,19.679-7.3,19.679-18.37,0-10.989-6.228-14.2-14.6-14.2-4.763,0-6.228.083-8.793.083-4.972,0-10.625-.719-10.625-9.3,0-6.338,4.24-10.113,14.812-10.113,8.27,0,12.3,3.534,13.66,10.99Z" transform="translate(-173.667 -4989.649)"/><path d="M637.2,5184.62h-4.5V5207H601.871V5184.62h-4.553v54.151h4.553V5213.26H632.7v25.512h4.5Z" transform="translate(-178.865 -4989.797)"/><path d="M694.464,5211.506c0-18.213-10.311-28.8-22.663-28.8-12.4,0-22.715,10.583-22.715,28.8,0,18.371,10.311,28.88,22.715,28.88C684.153,5240.387,694.464,5229.877,694.464,5211.506Zm-4.763,0c0,14.283-7.485,22.707-17.9,22.707-10.468,0-17.953-8.424-17.953-22.707,0-14.2,7.485-22.624,17.953-22.624C682.217,5188.883,689.7,5197.306,689.7,5211.506Z" transform="translate(-182.868 -4989.649)"/><path d="M763.044,5184.62h-5.129l-11.619,45.4-12.3-45.4h-4.4l-12.248,45.4-11.514-45.4h-5.129l13.817,54.151h5.287l11.88-43.882,12.038,43.882h5.443Z" transform="translate(-186.86 -4989.797)"/><path d="M848.63,5184.62H843.5l-11.619,45.4-12.3-45.4h-4.4l-12.248,45.4-11.514-45.4h-5.129l13.817,54.151H805.4l11.881-43.882,12.037,43.882h5.444Z" transform="translate(-193.478 -4989.797)"/><path d="M896.661,5184.62H859.449v54.151h37.893v-6.5H864V5213.9h29.153v-6.016H864v-17.328h32.659Z" transform="translate(-199.134 -4989.797)"/><path d="M922.6,5184.62v54.151h21.2c16.435,0,21.878-15,21.878-27.118,0-21.582-10.415-27.034-23.082-27.034Zm19.993,5.859c10.992,0,18.424,5.536,18.424,20.936,0,10.667-4.972,20.779-17.8,20.779H927.153v-41.714Z" transform="translate(-204.017 -4989.797)"/><path d="M1022.068,5211.506c0-18.213-10.306-28.8-22.661-28.8-12.4,0-22.713,10.583-22.713,28.8,0,18.371,10.311,28.88,22.713,28.88C1011.761,5240.387,1022.068,5229.877,1022.068,5211.506Zm-4.761,0c0,14.283-7.483,22.707-17.9,22.707-10.465,0-17.95-8.424-17.95-22.707,0-14.2,7.485-22.624,17.95-22.624C1009.824,5188.883,1017.307,5197.306,1017.307,5211.506Z" transform="translate(-208.2 -4989.649)"/><path d="M1055.743,5184.62h-4.5v54.151h4.5Z" transform="translate(-213.964 -4989.797)"/><path d="M1099.774,5184.62H1062.71v6.5h16.23v47.656h4.5v-47.656h16.331Z" transform="translate(-214.851 -4989.797)"/></g><text transform="translate(936.399 4833)" font-size="52" font-family="AppleColorEmoji, Apple Color Emoji" letter-spacing="0.01em"><tspan x="0" y="0">✨</tspan></text><text transform="translate(1169.837 4833)" font-size="52" font-family="AppleColorEmoji, Apple Color Emoji" letter-spacing="0.01em"><tspan x="0" y="0">✨</tspan></text></g></g></svg>