<svg xmlns="http://www.w3.org/2000/svg" xmlns:xlink="http://www.w3.org/1999/xlink" width="1280" height="147" viewBox="0 0 1280 147"><defs><clipPath id="b"><rect width="1280" height="147"/></clipPath></defs><g id="a" clip-path="url(#b)"><path d="M77.916,57.616c3.584,0,6.272-2.968,8.96-13.048l-.952-.392c-1.064,2.744-1.9,3.192-3.136,3.192a1.739,1.739,0,0,1-1.848-1.9c0-2.576,3.528-8.4,3.528-11.592,0-3.024-2.016-5.88-4.928-5.88-3.976,0-7.5,4.592-11.368,18.536l-.448-.112a53.934,53.934,0,0,0,1.064-7.952c0-7.56-1.68-10.528-3.808-10.528-3.136,0-5.264,4.256-7.784,12.32l1.064.5c.784-2.3,2.3-2.744,4.648-2.744,2.464,0,3.584.728,3.584,1.624,0,2.352-8.568,10.7-10.864,17.36H66.044c3.36-15.288,7.224-18.816,11.648-18.816,2.016,0,2.968.728,2.968,1.568,0,3.024-8.232,7.336-8.232,12.432A5.716,5.716,0,0,0,77.916,57.616ZM95.892,47.592c-4.48,0-6.44-.9-6.44-2.632,0-3.416,5.544-7,13.16-7,4.424,0,6.552.784,6.552,2.352C109.164,43.784,103.844,47.592,95.892,47.592Zm6.384-19.656c-8.12,0-14.672,8.344-14.672,16.632,0,8.568,3.864,12.992,8.736,12.992,8.176,0,14.672-8.4,14.672-16.8C111.012,32.248,107.26,27.936,102.276,27.936Zm47.264.616c-3.3,0-6.608-.168-11.032-.5,2.52,7.168,3.808,11.7,3.808,15.12,0,3.472-1.68,6.552-5.544,6.552a7.138,7.138,0,0,1-6.328-2.688,50.5,50.5,0,0,0,6.44-18.536c-2.912.056-6.776-.112-8.568-.224a56.871,56.871,0,0,0,.5,18.984,5.669,5.669,0,0,1-4.032,2.352c-2.408,0-4.088-1.176-4.088-3.36,0-2.464,2.8-6.5,2.8-10.024,0-4.816-1.96-8.344-4.144-8.344-2.352,0-4.48,3.472-7.392,12.376l1.064.448c.952-2.352,2.352-2.688,4.872-2.688,2.072,0,2.912.672,2.912,1.568,0,2.464-8.456,6.384-8.456,10.36,0,3.92,4.592,7.672,8.736,7.672,2.632,0,5.488-3.808,8.12-8.456,1.344,5.1,3.416,8.4,5.6,8.4C139.908,57.56,146.348,41.88,149.54,28.552Z" transform="translate(43.922 -18)" fill="#dafd08"/><path d="M36.868,26.76c3.7,0,6.048-1.848,6.048-5.768,0-2.856-1.68-4.2-4.2-4.2-3.7,0-5.992,1.736-5.992,5.488C32.724,25.3,34.348,26.76,36.868,26.76Zm-2.24,12.712c-.056,2.632-8.008,7.616-8.008,12.936a5.618,5.618,0,0,0,5.544,5.208c3.248,0,5.936-2.968,8.624-13.048L39.78,44.12c-.9,2.184-1.624,2.8-2.8,2.8a1.709,1.709,0,0,1-1.9-1.848c0-2.576,3.136-8.512,3.136-11.76,0-3.136-1.96-5.376-3.92-5.376-3.192,0-5.32,4.2-7.84,12.32l1.12.448c.728-2.24,2.184-2.688,4.312-2.688C33.788,38.016,34.628,38.576,34.628,39.472Zm43.288.28c0,3.024-8.288,7.336-8.288,12.432a5.716,5.716,0,0,0,5.488,5.432c3.64,0,6.328-2.968,9.016-13.048l-1.008-.392c-1.064,2.744-1.9,3.192-3.136,3.192a1.725,1.725,0,0,1-1.792-1.9c0-2.576,3.528-7.784,3.528-11.592,0-3.024-2.016-5.936-4.928-5.936-3.92,0-7.392,4.648-11.2,18.592l-.392-.112c.728-3.3,1.68-7.5,1.68-9.352,0-4.592-1.12-9.128-4.256-9.128-3.3,0-6.832,4.648-10.7,18.592l-.448-.112a53.933,53.933,0,0,0,1.064-7.952c0-7.56-1.68-10.528-3.808-10.528-3.136,0-5.264,4.2-7.784,12.32l1.12.448c.728-2.24,2.24-2.688,4.592-2.688,2.464,0,3.584.728,3.584,1.624,0,2.352-8.568,10.7-10.864,17.36H49.8c3.36-15.288,7.224-18.816,11.648-18.816,2.016,0,2.968.728,2.968,1.568C64.42,42.5,55.8,47.7,53.556,57h9.968c3.3-15.288,7.056-18.816,11.368-18.816C76.964,38.184,77.916,38.912,77.916,39.752ZM98.132,47.48a6.415,6.415,0,0,1-2.3-.336c2.576-7.056,6.1-8.96,8.9-8.96,2.016,0,2.968.56,2.968,1.568C107.708,42.1,104.852,47.48,98.132,47.48ZM100.2,57.5c5.656,0,9.912-12.992,9.912-19.88,0-4.984-1.12-9.688-3.92-9.688-3.584,0-7.112,4.424-10.752,17.36l-.5-.112a55.044,55.044,0,0,0,.84-6.72c0-7.56-1.736-10.528-3.92-10.528-3.136,0-5.264,4.2-7.784,12.32l1.12.448c.728-2.24,2.24-2.688,4.592-2.688,2.52,0,3.7.728,3.7,1.624,0,3.36-9.576,15.12-13.216,26.712H92.532a76.1,76.1,0,0,1,2.632-17.024C96,53.808,97.46,57.5,100.2,57.5Zm30.688.112c2.912,0,4.984-2.856,7.728-12.544l-1.12-.448c-1.176,2.856-1.624,3.584-2.688,3.584a2.277,2.277,0,0,1-2.184-2.52c0-3.36,2.072-11.424,4.48-17.808-18.368.168-24.752,8.848-24.752,17.136,0,8.344,2.352,12.656,4.872,12.656,2.912,0,7.224-5.544,13.944-17.752l.616.224c-1.68,3.808-4.368,9.52-4.368,12.04C127.42,55.1,129.044,57.616,130.892,57.616ZM118.4,47.312c-2.3,0-4.144-.9-4.144-2.3,0-2.184,3.64-5.1,16.912-6.776C126.188,45.8,120.7,47.312,118.4,47.312Zm36.456-9.184c3.36,0,3.7,1.288,3.416,3.64l1.4.112c1.12-4.536,2.128-8.12,3.192-12.544a22.014,22.014,0,0,0-7.056-1.288c-10.136-.056-16.24,8.064-16.24,16.688s3.36,12.824,8.456,12.824c6.552,0,10.248-6.272,12.432-13.16l-.952-.672C157.94,46.36,153.18,47.7,147.636,47.7c-3.976,0-5.936-.9-5.936-2.968C141.7,40.984,147.8,38.128,154.86,38.128Zm6.1-1.568v1.4H168.3c-3.64,4.648-6.16,9.352-6.16,14.112,0,3.864,2.632,5.544,5.768,5.544,3.36,0,7.84-3.7,10.248-14l-1.008-.448c-1.456,3.192-3.752,3.7-5.152,3.7-1.456,0-2.408-.672-2.464-2.52a36.122,36.122,0,0,1,.672-6.328c2.744.056,5.488.112,8.12.28l1.848-9.8h-8.064c.616-2.968,1.232-5.544,1.512-7.112l-1.232-.056A40.469,40.469,0,0,1,160.964,36.56Z" transform="translate(619.922 32.5)" fill="#dafd08"/><g transform="translate(1.536 3.317)"><path d="M4.847,1.789V35.736h21.88c6.8,0,9.92-4.325,9.92-9.807,0-3.772-1.56-6.739-4.76-7.9,2.2-1.408,3.36-4.476,3.36-7.493,0-5.23-3.12-8.751-8.52-8.751Zm20.48,20.569c1.52,0,2.88.3,2.88,2.565,0,2.012-1.36,2.263-2.48,2.263h-13.6V22.358Zm.4-12.422c1.04,0,2.16.4,2.16,2.263,0,2.112-1.28,2.414-2.56,2.414h-13.2V9.936Z" fill="#dafd08"/><path d="M68.77,1.789H60.21L53.29,16.323,46.09,1.789H37.21L49.33,25.627V35.786h7.48V25.627Z" fill="#dafd08"/><path d="M264.074,1.789h-12.56l-6.76,21.776-6.24-21.776h-13.08v34h7.36V8.478l8.16,27.258h6.92l8.8-27.258V35.786h7.4Z" fill="#dafd08"/><path d="M289.631,1.789h-9.32l-12.24,33.947h7.8l2.24-6.488h13.4l2.16,6.488h8.52Zm-4.72,8.047,3.92,11.869h-7.92Z" fill="#dafd08"/><path d="M337.822,1.789h-7.68V22.962L313.7,1.789h-7.76V35.736h7.68V13.608l16.64,22.128h7.56Z" fill="#dafd08"/><path d="M373.381,1.789h-8.56L357.9,16.323,350.7,1.789h-8.88l12.12,23.838V35.786h7.48V25.627Z" fill="#dafd08"/><path d="M424.551,18.737c0-11.466-7.88-18.055-17.36-18.055s-17.36,6.588-17.36,18.055c0,11.517,7.88,18.1,17.36,18.1S424.551,30.254,424.551,18.737Zm-7.6,0c0,6.085-3.28,9.958-9.76,9.958-6.44,0-9.72-3.872-9.72-9.958,0-6.035,3.28-9.958,9.72-9.958C413.671,8.78,416.951,12.7,416.951,18.737Z" fill="#dafd08"/><path d="M456.8,1.789H430.24V35.736h7.32V23.817h17.16v-8.1H437.56V9.433H456.8Z" fill="#dafd08"/><path d="M503.8,1.789h-7.24v17c0,8.1-3.4,9.757-8.16,9.757-4.36,0-7.32-1.961-7.32-9.807V1.789h-7.6V20.246c0,11.567,6,16.6,14.84,16.6s15.48-4.929,15.48-16.7Z" fill="#dafd08"/><path d="M538.645,10.942C537.565,4.1,533.925.683,524.685.683c-11,0-14.96,4.325-14.96,11.014,0,9.455,5.84,10.561,10.8,10.813,5.52.251,11.24-.5,11.24,2.615,0,2.917-3.2,4.023-6.8,4.023-3.16,0-7.4-.905-7.8-3.621h-8.04c.36,5.08,2,7.393,5.4,9.555,1.96,1.157,4.6,1.71,9.88,1.71,10.68,0,15-4.979,15-13.026,0-6.94-3.72-9.3-11.72-9.3-2.52,0-3.84.05-5.16.05-2.72,0-5.04-.05-5.04-2.967,0-2.364,2.52-3.47,7.24-3.47,3.12,0,5.6.553,6.64,3.219Z" fill="#dafd08"/><path d="M588.769,1.789h-7.28V13.658h-15.96V1.789h-7.28V35.736h7.28V21.906h15.96v13.83h7.28Z" fill="#dafd08"/><path d="M614.282,1.789h-9.32l-12.24,33.947h7.8l2.24-6.488h13.4l2.16,6.488h8.52Zm-4.72,8.047,3.92,11.869h-7.92Z" fill="#dafd08"/><path d="M658.1,1.789h-8.159l-9.12,24.291-9.08-24.291h-8.281l13.281,33.947h7.76Z" fill="#dafd08"/><path d="M690.283,1.789h-28.44V35.736h29v-8.65h-21.68V22.258H687.6V14.412h-18.44V9.584h21.12Z" fill="#dafd08"/><path d="M738.692,1.789h-7.28V13.658h-15.96V1.789h-7.28V35.736h7.28V21.906h15.96v13.83h7.28Z" fill="#dafd08"/><path d="M773.565,1.789h-28.44V35.736h29v-8.65h-21.68V22.258h18.44V14.412h-18.44V9.584h21.12Z" fill="#dafd08"/><path d="M797.135,1.789h-9.32l-12.24,33.947h7.8l2.24-6.488h13.4l2.16,6.488h8.52Zm-4.72,8.047,3.92,11.869h-7.92Z" fill="#dafd08"/><path d="M836.685,22.66c5.52-.754,7.84-4.727,7.84-10.36,0-6.488-3.32-10.511-10-10.511h-21.08V35.736h7.28V22.761h6.72l6.76,12.975h10.12Zm-2.2-12.875A2.068,2.068,0,0,1,836.8,12a2.156,2.156,0,0,1-2.28,2.464h-13.8V9.785Z" fill="#dafd08"/><path d="M849.656,1.789V35.736h16.2c12.6,0,16.8-9.4,16.8-17,0-13.528-7.96-16.948-17.72-16.948Zm15.28,7.644c7.08,0,10.12,3.571,10.12,8.952,0,5.733-3.48,8.6-10.16,8.6h-7.92V9.433Z" fill="#dafd08"/><path d="M927.607,1.789h-28.44v8.5h10.56V35.736h7.28V10.288h10.6Z" fill="#dafd08"/><path d="M961.935,1.789h-7.28V13.658H938.7V1.789h-7.28V35.736h7.28V21.906h15.96v13.83h7.28Z" fill="#dafd08"/><path d="M996.808,1.789h-28.44V35.736h29v-8.65h-21.68V22.258h18.44V14.412h-18.44V9.584h21.12Z" fill="#dafd08"/><path d="M1037.94,22.66c5.52-.754,7.84-4.727,7.84-10.36,0-6.488-3.32-10.511-10-10.511H1014.7V35.736h7.28V22.761h6.72l6.76,12.975h10.12Zm-2.2-12.875A2.068,2.068,0,0,1,1038.06,12a2.156,2.156,0,0,1-2.28,2.464h-13.8V9.785Z" fill="#dafd08"/><path d="M1081.07,1.789h-7.24v17c0,8.1-3.4,9.757-8.16,9.757-4.36,0-7.32-1.961-7.32-9.807V1.789h-7.6V20.246c0,11.567,6,16.6,14.84,16.6s15.48-4.929,15.48-16.7Z" fill="#dafd08"/><path d="M1125.95,1.789h-12.56l-6.76,21.776-6.24-21.776h-13.08v34h7.36V8.478l8.16,27.258h6.92l8.8-27.258V35.786h7.4Z" fill="#dafd08"/><path d="M1166.39,18.737c0-11.466-7.88-18.055-17.36-18.055s-17.36,6.588-17.36,18.055c0,11.517,7.88,18.1,17.36,18.1S1166.39,30.254,1166.39,18.737Zm-7.6,0c0,6.085-3.28,9.958-9.76,9.958-6.44,0-9.72-3.872-9.72-9.958,0-6.035,3.28-9.958,9.72-9.958C1155.51,8.78,1158.79,12.7,1158.79,18.737Z" fill="#dafd08"/><path d="M1202.24,1.789H1195v17c0,8.1-3.4,9.757-8.16,9.757-4.36,0-7.32-1.961-7.32-9.807V1.789h-7.6V20.246c0,11.567,6,16.6,14.84,16.6s15.48-4.929,15.48-16.7Z" fill="#dafd08"/><path d="M1231.73,22.66c5.52-.754,7.84-4.727,7.84-10.36,0-6.488-3.32-10.511-10-10.511h-21.08V35.736h7.28V22.761h6.72l6.76,12.975h10.12Zm-2.2-12.875A2.068,2.068,0,0,1,1231.85,12a2.156,2.156,0,0,1-2.28,2.464h-13.8V9.785Z" fill="#dafd08"/><path d="M1272.52,10.942C1271.44,4.1,1267.8.683,1258.56.683c-11,0-14.96,4.325-14.96,11.014,0,9.455,5.84,10.561,10.8,10.813,5.52.251,11.24-.5,11.24,2.615,0,2.917-3.2,4.023-6.8,4.023-3.16,0-7.4-.905-7.8-3.621H1243c.36,5.08,2,7.393,5.4,9.555,1.96,1.157,4.6,1.71,9.88,1.71,10.68,0,15-4.979,15-13.026,0-6.94-3.72-9.3-11.72-9.3-2.52,0-3.84.05-5.16.05-2.72,0-5.04-.05-5.04-2.967,0-2.364,2.52-3.47,7.24-3.47,3.12,0,5.6.553,6.64,3.219Z" fill="#dafd08"/><path d="M33.464,102.681h-7.28v12.371H10.224V102.681H2.944v35.384h7.28V123.649h15.96v14.416h7.28Z" fill="#dafd08"/><path d="M58.978,102.681h-9.32l-12.24,35.384h7.8l2.24-6.762h13.4l2.16,6.762h8.52Zm-4.72,8.387,3.92,12.372h-7.92Z" fill="#dafd08"/><path d="M102.8,102.681H94.64L85.52,128l-9.08-25.319H68.16l13.28,35.384H89.2Z" fill="#dafd08"/><path d="M134.978,102.681h-28.44v35.384h29v-9.016h-21.68v-5.033H132.3v-8.177h-18.44v-5.033h21.12Z" fill="#dafd08"/><path d="M184.131,120.347c0-11.952-7.88-18.819-17.36-18.819s-17.36,6.867-17.36,18.819c0,12,7.88,18.871,17.36,18.871S184.131,132.351,184.131,120.347Zm-7.6,0c0,6.343-3.28,10.379-9.76,10.379-6.44,0-9.72-4.036-9.72-10.379,0-6.291,3.28-10.379,9.72-10.379C173.251,109.968,176.531,114.056,176.531,120.347Z" fill="#dafd08"/><path d="M221.7,102.681h-7.68V124.75l-16.44-22.069h-7.76v35.384h7.68V115l16.64,23.065h7.56Z" fill="#dafd08"/><path d="M272.842,120.347c0-11.952-7.88-18.819-17.36-18.819s-17.36,6.867-17.36,18.819c0,12,7.88,18.871,17.36,18.871S272.842,132.351,272.842,120.347Zm-7.6,0c0,6.343-3.28,10.379-9.76,10.379-6.44,0-9.72-4.036-9.72-10.379,0-6.291,3.28-10.379,9.72-10.379C261.962,109.968,265.242,114.056,265.242,120.347Z" fill="#dafd08"/><path d="M308.69,102.681h-7.24V120.4c0,8.44-3.4,10.17-8.16,10.17-4.36,0-7.32-2.044-7.32-10.222V102.681h-7.6V121.92c0,12.056,6,17.3,14.84,17.3s15.48-5.137,15.48-17.4Z" fill="#dafd08"/><path d="M338.177,124.436c5.52-.787,7.84-4.928,7.84-10.8,0-6.762-3.32-10.956-10-10.956h-21.08v35.384h7.28V124.541h6.72l6.76,13.524h10.12Zm-2.2-13.42a2.108,2.108,0,0,1,2.32,2.307c0,1.782-.96,2.568-2.28,2.568h-13.8v-4.875Z" fill="#dafd08"/><path d="M400.491,102.681h-12.56l-6.76,22.7-6.24-22.7h-13.08v35.437h7.36V109.653l8.16,28.412h6.92l8.8-28.412v28.465h7.4Z" fill="#dafd08"/><path d="M435.408,102.681h-28.44v35.384h29v-9.016h-21.68v-5.033h18.44v-8.177h-18.44v-5.033h21.12Z" fill="#dafd08"/><path d="M471.777,102.681H464.1V124.75l-16.44-22.069H439.9v35.384h7.68V115l16.64,23.065h7.56Z" fill="#dafd08"/><path d="M504.137,102.681H475.7v8.859h10.56v26.525h7.28V111.54h10.6Z" fill="#dafd08"/><path d="M523.938,102.681h-9.32l-12.24,35.384h7.8l2.24-6.762h13.4l2.16,6.762h8.52Zm-4.72,8.387,3.92,12.372h-7.92Z" fill="#dafd08"/><path d="M547.529,102.681h-7.28v35.384h26.44v-9.54h-19.16Z" fill="#dafd08"/><path d="M611.277,102.681H604v12.371h-15.96V102.681h-7.28v35.384h7.28V123.649H604v14.416h7.28Z" fill="#dafd08"/><path d="M646.15,102.681H617.71v35.384h29v-9.016H625.03v-5.033h18.44v-8.177H625.03v-5.033h21.12Z" fill="#dafd08"/><path d="M669.72,102.681H660.4l-12.24,35.384h7.8l2.24-6.762h13.4l2.16,6.762h8.52ZM665,111.068l3.92,12.372H661Z" fill="#dafd08"/><path d="M693.31,102.681h-7.28v35.384h26.44v-9.54H693.31Z" fill="#dafd08"/><path d="M737.379,102.681h-28.44v8.859H719.5v26.525h7.28V111.54h10.6Z" fill="#dafd08"/><path d="M771.707,102.681h-7.28v12.371h-15.96V102.681h-7.28v35.384h7.28V123.649h15.96v14.416h7.28Z" fill="#dafd08"/><path d="M786.5,134.291a4.324,4.324,0,0,0-4.2-4.456,4.467,4.467,0,0,0,0,8.912A4.358,4.358,0,0,0,786.5,134.291Z" fill="#dafd08"/><path d="M22.024,52.528H12.7L.464,86.436h7.8l2.24-6.48H23.9l2.16,6.48h8.52ZM17.3,60.565l3.92,11.855H13.3Z" fill="#dafd08"/><path d="M38.334,52.528V86.436h21.88c6.8,0,9.92-4.32,9.92-9.8,0-3.768-1.56-6.731-4.76-7.887,2.2-1.407,3.36-4.471,3.36-7.485,0-5.224-3.12-8.741-8.52-8.741Zm20.48,20.546c1.52,0,2.88.3,2.88,2.562,0,2.009-1.36,2.261-2.48,2.261h-13.6V73.074Zm.4-12.408c1.04,0,2.16.4,2.16,2.261,0,2.11-1.28,2.411-2.56,2.411h-13.2V60.666Z" fill="#dafd08"/><path d="M109.443,69.457c0-11.454-7.88-18.034-17.36-18.034S74.723,58,74.723,69.457c0,11.5,7.88,18.085,17.36,18.085S109.443,80.961,109.443,69.457Zm-7.6,0c0,6.078-3.28,9.946-9.76,9.946-6.44,0-9.72-3.868-9.72-9.946,0-6.028,3.28-9.947,9.72-9.947C98.563,59.51,101.843,63.429,101.843,69.457Z" fill="#dafd08"/><path d="M145.291,52.528h-7.24V69.507c0,8.088-3.4,9.746-8.16,9.746-4.36,0-7.32-1.959-7.32-9.8V52.528h-7.6V70.964c0,11.554,6,16.577,14.84,16.577s15.48-4.923,15.48-16.678Z" fill="#dafd08"/><path d="M177.418,52.528h-28.44v8.49h10.56V86.436h7.28V61.017h10.6Z" fill="#dafd08"/><path d="M245.169,52.528h-28.44v8.49h10.56V86.436h7.28V61.017h10.6Z" fill="#dafd08"/><path d="M279.5,52.528h-7.28V64.383h-15.96V52.528h-7.28V86.436h7.28V72.621h15.96V86.436h7.28Z" fill="#dafd08"/><path d="M314.37,52.528H285.93V86.436h29V77.8H293.25V72.973h18.44V65.136H293.25V60.314h21.12Z" fill="#dafd08"/><path d="M377.723,73.476c6.88,0,10.28-3.968,10.28-10.449s-3.32-10.5-10-10.5h-21.08V86.436h7.28V73.476Zm.24-12.961a2.067,2.067,0,0,1,2.32,2.21A2.155,2.155,0,0,1,378,65.187H364.2V60.515Z" fill="#dafd08"/><path d="M425.8,69.457c0-11.454-7.88-18.034-17.36-18.034S391.085,58,391.085,69.457c0,11.5,7.88,18.085,17.36,18.085S425.8,80.961,425.8,69.457Zm-7.6,0c0,6.078-3.28,9.946-9.76,9.946-6.44,0-9.72-3.868-9.72-9.946,0-6.028,3.28-9.947,9.72-9.947C414.925,59.51,418.2,63.429,418.2,69.457Z" fill="#dafd08"/><path d="M460.093,61.67c-1.08-6.832-4.72-10.248-13.96-10.248-11,0-14.96,4.32-14.96,11,0,9.444,5.84,10.549,10.8,10.8,5.52.251,11.24-.5,11.24,2.612,0,2.914-3.2,4.019-6.8,4.019-3.16,0-7.4-.9-7.8-3.617h-8.04c.36,5.074,2,7.385,5.4,9.545,1.96,1.155,4.6,1.708,9.88,1.708,10.68,0,15-4.973,15-13.011,0-6.932-3.72-9.294-11.72-9.294-2.52,0-3.84.05-5.16.05-2.72,0-5.04-.05-5.04-2.964,0-2.361,2.52-3.466,7.24-3.466,3.12,0,5.6.553,6.64,3.215Z" fill="#dafd08"/><path d="M474.058,52.528h-7.28V86.436h7.28Z" fill="#dafd08"/><path d="M506.866,52.528h-28.44v8.49h10.56V86.436h7.28V61.017h10.6Z" fill="#dafd08"/><path d="M518.433,52.528h-7.28V86.436h7.28Z" fill="#dafd08"/><path d="M557.521,52.528h-8.16l-9.12,24.264-9.08-24.264H522.88l13.281,33.909h7.76Z" fill="#dafd08"/><path d="M589.7,52.528h-28.44V86.436h29V77.8h-21.68V72.973h18.44V65.136h-18.44V60.314H589.7Z" fill="#dafd08"/><path d="M891.167,52.528h-11.6l-12.4,12.81V52.528h-7.28V86.436h7.28V75.284l6.04-6.078,9.8,17.231h10.4l-14.44-22.505Z" fill="#dafd08"/><path d="M905.342,52.528h-7.28V86.436h7.28Z" fill="#dafd08"/><path d="M944.149,52.528h-7.68V73.676l-16.44-21.149h-7.76V86.436h7.68v-22.1l16.64,22.1h7.56Z" fill="#dafd08"/><path d="M950.629,52.528V86.436h16.2c12.6,0,16.8-9.394,16.8-16.979,0-13.513-7.96-16.929-17.72-16.929Zm15.28,7.636c7.08,0,10.12,3.567,10.12,8.942,0,5.727-3.48,8.59-10.16,8.59h-7.92V60.163Z" fill="#dafd08"/><path d="M1021.18,52.528h-7.68V73.676L997.061,52.528H989.3V86.436h7.68v-22.1l16.639,22.1h7.56Z" fill="#dafd08"/><path d="M1056.1,52.528h-28.44V86.436h29V77.8h-21.68V72.973h18.44V65.136h-18.44V60.314h21.12Z" fill="#dafd08"/><path d="M1089.19,61.67c-1.08-6.832-4.72-10.248-13.96-10.248-11,0-14.96,4.32-14.96,11,0,9.444,5.84,10.549,10.8,10.8,5.52.251,11.24-.5,11.24,2.612,0,2.914-3.2,4.019-6.8,4.019-3.16,0-7.4-.9-7.8-3.617h-8.04c.36,5.074,2,7.385,5.4,9.545,1.96,1.155,4.6,1.708,9.88,1.708,10.68,0,15-4.973,15-13.011,0-6.932-3.72-9.294-11.72-9.294-2.52,0-3.84.05-5.16.05-2.72,0-5.04-.05-5.04-2.964,0-2.361,2.52-3.466,7.24-3.466,3.12,0,5.6.553,6.64,3.215Z" fill="#dafd08"/><path d="M1123.99,61.67c-1.08-6.832-4.72-10.248-13.96-10.248-11,0-14.96,4.32-14.96,11,0,9.444,5.84,10.549,10.8,10.8,5.52.251,11.24-.5,11.24,2.612,0,2.914-3.2,4.019-6.8,4.019-3.16,0-7.4-.9-7.8-3.617h-8.04c.36,5.074,2,7.385,5.4,9.545,1.96,1.155,4.6,1.708,9.88,1.708,10.68,0,15-4.973,15-13.011,0-6.932-3.72-9.294-11.72-9.294-2.52,0-3.84.05-5.16.05-2.72,0-5.04-.05-5.04-2.964,0-2.361,2.52-3.466,7.24-3.466,3.12,0,5.6.553,6.64,3.215Z" fill="#dafd08"/><path d="M1198.54,61.469a15.441,15.441,0,0,0-14.52-10.047c-9,0-16.6,6.581-16.6,18.034,0,11.5,7.12,18.085,16.16,18.085,7.76,0,12.64-3.617,14.8-10l-6.24-3.667a8.012,8.012,0,0,1-8,5.526c-6.04,0-9.04-3.868-9.04-9.946,0-6.028,3.2-9.947,8.92-9.947a8.135,8.135,0,0,1,8.2,6.078Z" fill="#dafd08"/><path d="M1222.15,52.528h-9.32l-12.24,33.909h7.8l2.24-6.48h13.4l2.16,6.48h8.52Zm-4.72,8.038,3.92,11.855h-7.92Z" fill="#dafd08"/><path d="M1270.34,52.528h-7.68V73.676l-16.44-21.149h-7.76V86.436h7.68v-22.1l16.64,22.1h7.56Z" fill="#dafd08"/></g></g></svg>