<svg xmlns="http://www.w3.org/2000/svg" xmlns:xlink="http://www.w3.org/1999/xlink" width="1694" height="110" viewBox="0 0 1694 110"><defs><clipPath id="b"><rect width="1694" height="110"/></clipPath></defs><g id="a" clip-path="url(#b)"><path d="M190.88,7941.989H172.737l-13.585,58.2-13.849-58.2H129.876l-13.5,58.2-13.147-58.2H85l21.649,88.869h18.406l12.359-53.056,12.709,53.056h19.021Z" transform="translate(-78 -7927.604)"/><path d="M225.69,7941.989H163.371v88.869h63.546v-22.646H179.41V7995.57h40.406v-20.536H179.41v-12.642h46.28Z" transform="translate(-42.231 -7927.604)"/><path d="M225.235,7940H213.4l-3.857,32.652H217Z" transform="translate(-16.6 -7931.537)"/><path d="M277.769,7996.633c12.1-1.98,17.18-12.38,17.18-27.133,0-16.98-7.275-27.511-21.913-27.511H226.844v88.869H242.8V7996.9h14.724l14.813,33.962H294.51Zm-4.821-33.716c2.98,0,5.084,1.851,5.084,5.8,0,4.485-2.1,6.452-5,6.452H242.8v-12.249Z" transform="translate(-13.262 -7927.604)"/><path d="M343.644,7941.989H281.326v88.869h63.546v-22.646H297.365V7995.57h40.406v-20.536H297.365v-12.642h46.279Z" transform="translate(11.604 -7927.604)"/><path d="M397.9,7996.633c12.1-1.98,17.18-12.38,17.18-27.133,0-16.98-7.275-27.511-21.913-27.511H346.973v88.869h15.953V7996.9h14.724l14.813,33.962h22.175Zm-4.821-33.716c2.98,0,5.084,1.851,5.084,5.8,0,4.485-2.1,6.452-5,6.452H362.926v-12.249Z" transform="translate(41.565 -7927.604)"/><path d="M463.773,7941.989H401.455v88.869H465v-22.646H417.494V7995.57H457.9v-20.536H417.494v-12.642h46.279Z" transform="translate(66.431 -7927.604)"/><path d="M553.148,7941.989H535l-13.585,58.2-13.849-58.2H492.144l-13.5,58.2-13.147-58.2H447.268l21.649,88.869h18.406l12.359-53.056,12.709,53.056h19.021Z" transform="translate(87.34 -7927.604)"/><path d="M576.564,7996.633c12.1-1.98,17.178-12.38,17.178-27.133,0-16.98-7.275-27.511-21.912-27.511H525.639v88.869h15.952V7996.9h14.726l14.812,33.962H593.3Zm-4.821-33.716c2.98,0,5.083,1.851,5.083,5.8,0,4.485-2.1,6.452-5,6.452H541.591v-12.249Z" transform="translate(123.108 -7927.604)"/><path d="M596.8,7941.989H580.842v88.869H596.8Z" transform="translate(148.303 -7927.604)"/><path d="M660.685,7941.989H598.367v22.254h23.139v66.615h15.952v-66.615h23.227Z" transform="translate(156.302 -7927.604)"/><path d="M663.559,7941.989H647.607v88.869h15.952Z" transform="translate(178.775 -7927.604)"/><path d="M738.839,7941.989H722.011v55.431l-36.024-55.431h-17v88.869h16.829v-57.935l36.461,57.935h16.567Z" transform="translate(188.531 -7927.604)"/><path d="M796.111,7952.249c-4.646-5.142-18.757-12.249-34.272-12.249-19.632,0-36.286,17.243-36.286,47.26,0,30.162,15.6,47.406,35.411,47.406,18.493,0,29.45-4.748,34.358-9.088V7982.92H767.275v19.618h12.534v6.189c-2.893,4.079-11.482,4.6-17.618,4.6-13.234,0-20.247-10.136-20.247-26.07,0-15.788,7.45-26.055,19.9-26.055,9.028,0,17.092,3.029,26.646,11.971Z" transform="translate(214.35 -7928.514)"/><path d="M147.318,8039.279H85v22.255h23.139v66.615h15.952v-66.615h23.227Z" transform="translate(954.611 -8027.792)"/><path d="M200.394,8039.279H184.443v31.08H149.47v-31.08H133.518v88.87H149.47v-36.206h34.973v36.206h15.952Z" transform="translate(976.755 -8027.792)"/><path d="M251.434,8039.279H189.116v88.87h63.546V8105.5H205.155V8092.86h40.406v-20.535H205.155v-12.641h46.279Z" transform="translate(1002.13 -8027.792)"/><path d="M318.065,8064.146c-2.367-17.9-10.343-26.856-30.59-26.856-24.1,0-32.781,11.331-32.781,28.836,0,24.759,12.8,27.643,23.665,28.313,12.1.655,24.631-1.326,24.631,6.845,0,7.632-7.013,10.53-14.9,10.53-6.925,0-16.216-2.374-17.092-9.481H253.38c.788,13.3,4.382,19.356,11.832,25.021,4.3,3.03,10.08,4.472,21.65,4.472,23.4,0,32.868-13.036,32.868-34.1,0-18.176-8.152-24.366-25.681-24.366-5.521,0-8.414.131-11.306.131-5.961,0-11.044-.131-11.044-7.763,0-6.189,5.521-9.087,15.865-9.087,6.836,0,12.27,1.456,14.549,8.433Z" transform="translate(1030.601 -8031.6)"/><path d="M374.057,8063.622c-4.47-14.608-16.565-26.332-31.817-26.332-19.721,0-36.375,17.259-36.375,47.275,0,30.148,15.6,47.391,35.411,47.391,17,0,27.7-9.481,32.43-26.2l-13.673-9.611c-2.63,8.04-7.8,14.49-17.531,14.49-13.234,0-19.808-10.15-19.808-26.069,0-15.8,7.013-26.07,19.546-26.07,9.028,0,16.039,6.584,17.968,15.933Z" transform="translate(1054.556 -8031.6)"/><path d="M411.595,8093.924c12.1-1.98,17.18-12.38,17.18-27.117,0-17-7.276-27.527-21.913-27.527H360.67v88.87h15.952v-33.963h14.726l14.813,33.963h22.175Zm-4.821-33.7c2.98,0,5.083,1.835,5.083,5.782,0,4.485-2.1,6.452-5,6.452H376.622v-12.234Z" transform="translate(1079.568 -8030.691)"/><path d="M431.826,8039.279H415.874v88.87h15.952Z" transform="translate(1104.764 -8030.691)"/><path d="M482.827,8094.187c15.075,0,22.526-10.4,22.526-27.38,0-17-7.275-27.527-21.913-27.527H437.249v88.87H453.2v-33.963Zm.526-33.964c2.98,0,5.084,1.835,5.084,5.782,0,4.485-2.1,6.452-5,6.452H453.2v-12.234Z" transform="translate(1114.519 -8030.691)"/><path d="M548.258,8039.279H485.939v22.255H509.08v66.615h15.952v-66.615h23.227Z" transform="translate(1136.742 -8030.691)"/></g></svg>