<svg xmlns="http://www.w3.org/2000/svg" xmlns:xlink="http://www.w3.org/1999/xlink" width="1026" height="152" viewBox="0 0 1026 152"><defs><clipPath id="b"><rect width="1026" height="152"/></clipPath></defs><g id="a" clip-path="url(#b)"><g transform="translate(-183.063 -11077.108)"><path d="M121.311,10707.6H110.677l-11.367,12.934V10707.6H92.637v34.359H99.31v-11.367l5.536-6.14,8.984,17.507h9.534l-13.238-22.862Z" transform="translate(95.697 375.043)" fill="#8e56fa"/><path d="M125.537,10707.6h-6.674v34.359h6.674Z" transform="translate(103.732 375.043)" fill="#8e56fa"/><path d="M157.5,10707.6h-7.04v21.424l-15.071-21.424h-7.115v34.359h7.041v-22.472l15.253,22.472h6.93Z" transform="translate(106.615 375.043)" fill="#8e56fa"/><path d="M154.627,10707.6v34.359h14.851c11.55,0,15.4-9.538,15.4-17.244,0-13.719-7.3-17.115-16.245-17.115Zm14.007,7.708c6.49,0,9.278,3.657,9.278,9.014,0,5.878-3.19,8.753-9.315,8.753h-7.26v-17.767Z" transform="translate(114.69 375.043)" fill="#8e56fa"/><path d="M210.427,10707.6h-7.04v21.424l-15.072-21.424H181.2v34.359h7.04v-22.472l15.255,22.472h6.93Z" transform="translate(122.832 375.043)" fill="#8e56fa"/><path d="M233.628,10707.6h-26.07v34.359h26.584v-8.754H214.268v-4.963h16.9v-7.839h-16.9v-4.966h19.361Z" transform="translate(130.908 375.043)" fill="#8e56fa"/><path d="M256.519,10717.151c-.989-6.925-4.327-10.452-12.8-10.452-10.084,0-13.715,4.441-13.715,11.235,0,9.536,5.354,10.583,9.9,10.842,5.061.262,10.3-.521,10.3,2.744,0,2.875-2.934,4.049-6.234,4.049-2.9,0-6.784-.912-7.15-3.657h-7.371c.33,5.1,1.833,7.447,4.95,9.668,1.8,1.177,4.217,1.7,9.057,1.7,9.79,0,13.751-5.1,13.751-13.2,0-7.054-3.411-9.4-10.744-9.4h-4.73c-2.494,0-4.621,0-4.621-2.874,0-2.483,2.311-3.527,6.638-3.527,2.86,0,5.133.521,6.087,3.265Z" transform="translate(137.618 374.771)" fill="#8e56fa"/><path d="M280.381,10717.151c-.99-6.925-4.327-10.452-12.8-10.452-10.084,0-13.715,4.441-13.715,11.235,0,9.536,5.354,10.583,9.9,10.842,5.06.262,10.3-.521,10.3,2.744,0,2.875-2.933,4.049-6.234,4.049-2.9,0-6.783-.912-7.15-3.657h-7.371c.331,5.1,1.834,7.447,4.951,9.668,1.8,1.177,4.216,1.7,9.056,1.7,9.792,0,13.751-5.1,13.751-13.2,0-7.054-3.41-9.4-10.744-9.4H265.6c-2.493,0-4.619,0-4.619-2.874,0-2.483,2.31-3.527,6.636-3.527,2.86,0,5.134.521,6.086,3.265Z" transform="translate(144.928 374.771)" fill="#8e56fa"/><path d="M430.626,10724.99c0-11.629-7.224-18.291-15.914-18.291s-15.913,6.662-15.913,18.291,7.223,18.289,15.913,18.289S430.626,10736.616,430.626,10724.99Zm-6.967,0c0,6.14-3.007,10.059-8.947,10.059-5.9,0-8.91-3.919-8.91-10.059s3.006-10.062,8.91-10.062C420.651,10714.929,423.659,10718.85,423.659,10724.99Z" transform="translate(138.551 374.771)" fill="#8e56fa"/><path d="M454.274,10707.6h-6.638v17.244c0,8.1-3.117,9.8-7.48,9.8-4,0-6.71-1.959-6.71-9.927V10707.6h-6.967v18.683c0,11.624,5.5,16.721,13.6,16.721s14.191-4.964,14.191-16.853Z" transform="translate(147.032 375.043)" fill="#8e56fa"/><path d="M472.881,10728.766c5.061-.784,7.186-4.834,7.186-10.582,0-6.533-3.042-10.582-9.167-10.582H451.576v34.359h6.674v-13.2h6.16l6.2,13.2h9.277Zm-2.017-13.064a1.955,1.955,0,0,1,2.127,2.221c0,1.7-.879,2.483-2.09,2.483H458.25v-4.7Z" transform="translate(154.721 375.043)" fill="#8e56fa"/><path d="M546.79,10717.151c-.99-6.925-4.328-10.452-12.8-10.452-10.084,0-13.714,4.441-13.714,11.235,0,9.536,5.354,10.583,9.9,10.842,5.06.262,10.3-.521,10.3,2.744,0,2.875-2.934,4.049-6.234,4.049-2.9,0-6.784-.912-7.15-3.657h-7.371c.331,5.1,1.834,7.447,4.95,9.668,1.8,1.177,4.217,1.7,9.057,1.7,9.79,0,13.751-5.1,13.751-13.2,0-7.054-3.411-9.4-10.744-9.4h-4.73c-2.494,0-4.621,0-4.621-2.874,0-2.483,2.311-3.527,6.638-3.527,2.86,0,5.133.521,6.086,3.265Z" transform="translate(154.373 374.771)" fill="#8e56fa"/><path d="M567.962,10707.6H541.89v8.622h9.68v25.737h6.674v-25.737h9.717Z" transform="translate(161.163 375.043)" fill="#8e56fa"/><path d="M579.816,10707.6h-8.544l-11.221,34.359h7.15l2.054-6.531H581.54l1.981,6.531h7.81Zm-4.327,8.1,3.593,12.021h-7.26Z" transform="translate(166.728 375.043)" fill="#8e56fa"/><path d="M607.369,10728.766c5.061-.784,7.188-4.834,7.188-10.582,0-6.533-3.044-10.582-9.167-10.582H586.064v34.359h6.674v-13.2h6.16l6.2,13.2h9.277Zm-2.017-13.064a1.956,1.956,0,0,1,2.127,2.221c0,1.7-.879,2.483-2.089,2.483H592.738v-4.7Z" transform="translate(174.698 375.043)" fill="#8e56fa"/><path d="M635.188,10707.6H609.116v8.622h9.68v25.737h6.674v-25.737h9.717Z" transform="translate(181.761 375.043)" fill="#8e56fa"/><path d="M638.193,10707.6H631.52v34.359h6.673Z" transform="translate(188.625 375.043)" fill="#8e56fa"/><path d="M670.153,10707.6h-7.04v21.424l-15.072-21.424h-7.113v34.359h7.04v-22.472l15.255,22.472h6.93Z" transform="translate(191.507 375.043)" fill="#8e56fa"/><path d="M696.269,10711.534c-1.944-2.09-7.847-4.835-14.338-4.835-8.213,0-15.18,6.662-15.18,18.291s6.527,18.289,14.813,18.289c7.738,0,12.32-1.83,14.374-3.529v-16.457H684.2v7.574h5.244v2.483c-1.21,1.567-4.8,1.7-7.371,1.7-5.536,0-8.471-3.919-8.471-10.059s3.117-10.062,8.324-10.062c3.777,0,7.15,1.178,11.147,4.7Z" transform="translate(199.419 374.771)" fill="#8e56fa"/><path d="M755.807,10728.766c6.306,0,9.423-3.92,9.423-10.582,0-6.533-3.042-10.582-9.167-10.582H736.739v34.359h6.674v-13.2Zm.219-13.064a1.956,1.956,0,0,1,2.127,2.221c0,1.7-.88,2.483-2.09,2.483h-12.65v-4.7Z" transform="translate(199.633 375.043)" fill="#8e56fa"/><path d="M791.978,10724.99c0-11.629-7.224-18.291-15.914-18.291s-15.914,6.662-15.914,18.291,7.224,18.289,15.914,18.289S791.978,10736.616,791.978,10724.99Zm-6.967,0c0,6.14-3.007,10.059-8.948,10.059-5.9,0-8.911-3.919-8.911-10.059s3.007-10.062,8.911-10.062C782,10714.929,785.011,10718.85,785.011,10724.99Z" transform="translate(206.806 374.771)" fill="#8e56fa"/><path d="M794.953,10707.6H788.28v34.359h6.673Z" transform="translate(215.425 375.043)" fill="#8e56fa"/><path d="M826.912,10707.6h-7.04v21.424L804.8,10707.6h-7.113v34.359h7.04v-22.472l15.253,22.472h6.93Z" transform="translate(218.307 375.043)" fill="#8e56fa"/><path d="M848.319,10707.6H822.247v8.622h9.68v25.737H838.6v-25.737h9.717Z" transform="translate(225.832 375.043)" fill="#8e56fa"/><path d="M912.612,10707.6H888.263v34.359h6.711v-12.15H910.7v-8.1h-15.73v-6.4h17.638Z" transform="translate(224.829 375.043)" fill="#8e56fa"/><path d="M940.048,10724.99c0-11.629-7.223-18.291-15.913-18.291s-15.914,6.662-15.914,18.291,7.223,18.289,15.914,18.289S940.048,10736.616,940.048,10724.99Zm-6.967,0c0,6.14-3.006,10.059-8.946,10.059-5.9,0-8.911-3.919-8.911-10.059s3.007-10.062,8.911-10.062C930.075,10714.929,933.081,10718.85,933.081,10724.99Z" transform="translate(230.944 374.771)" fill="#8e56fa"/><path d="M957.317,10728.766c5.061-.784,7.188-4.834,7.188-10.582,0-6.533-3.044-10.582-9.167-10.582H936.014v34.359h6.673v-13.2h6.16l6.2,13.2h9.277ZM955.3,10715.7a1.955,1.955,0,0,1,2.126,2.221c0,1.7-.879,2.483-2.089,2.483H942.687v-4.7Z" transform="translate(239.46 375.043)" fill="#8e56fa"/><path d="M119.566,10758.153c-.99-6.925-4.327-10.453-12.8-10.453-10.083,0-13.713,4.441-13.713,11.105,0,9.667,5.354,10.713,9.9,10.974,5.061.261,10.3-.523,10.3,2.611,0,3.006-2.934,4.051-6.234,4.051-2.9,0-6.784-.915-7.15-3.657H92.5c.33,5.226,1.833,7.578,4.95,9.667,1.8,1.177,4.217,1.829,9.057,1.829,9.79,0,13.751-5.095,13.751-13.2,0-7.053-3.411-9.4-10.744-9.4h-4.73c-2.494,0-4.62,0-4.62-3.006,0-2.352,2.309-3.527,6.637-3.527,2.86,0,5.133.654,6.086,3.266Z" transform="translate(95.657 387.332)" fill="#8e56fa"/><path d="M140.739,10748.6H114.667v8.622h9.68v25.6h6.674v-25.6h9.717Z" transform="translate(102.447 387.605)" fill="#8e56fa"/><path d="M167.481,10765.991c0-11.628-7.224-18.291-15.914-18.291s-15.913,6.663-15.913,18.291,7.223,18.289,15.913,18.289S167.481,10777.617,167.481,10765.991Zm-6.967,0c0,6.139-3.007,10.06-8.947,10.06-5.9,0-8.91-3.921-8.91-10.06s3.006-10.06,8.91-10.06C157.506,10755.932,160.514,10759.851,160.514,10765.991Z" transform="translate(108.877 387.332)" fill="#8e56fa"/><path d="M182.514,10769.764c6.306,0,9.423-4.05,9.423-10.581s-3.043-10.581-9.167-10.581H163.446v34.226h6.674v-13.063Zm.219-13.063a1.957,1.957,0,0,1,2.127,2.223c0,1.7-.881,2.482-2.09,2.482H170.12v-4.705Z" transform="translate(117.392 387.605)" fill="#8e56fa"/><path d="M206.457,10769.764c6.307,0,9.424-4.05,9.424-10.581s-3.044-10.581-9.167-10.581H187.39v34.226h6.673v-13.063Zm.221-13.063a1.957,1.957,0,0,1,2.127,2.223c0,1.7-.88,2.482-2.09,2.482H194.063v-4.705Z" transform="translate(124.728 387.605)" fill="#8e56fa"/><path d="M218.344,10748.6H211.67v34.226h6.674Z" transform="translate(132.167 387.605)" fill="#8e56fa"/><path d="M250.3,10748.6h-7.04v21.424l-15.07-21.424h-7.115v34.226h7.041v-22.338l15.253,22.338h6.93Z" transform="translate(135.05 387.605)" fill="#8e56fa"/><path d="M276.419,10752.4c-1.944-1.958-7.848-4.7-14.338-4.7-8.213,0-15.18,6.663-15.18,18.291s6.527,18.289,14.814,18.289c7.736,0,12.319-1.829,14.373-3.527v-16.459H264.354v7.575H269.6v2.353c-1.21,1.566-4.8,1.829-7.371,1.829-5.536,0-8.469-3.921-8.469-10.06s3.116-10.06,8.323-10.06c3.777,0,7.151,1.177,11.147,4.573Z" transform="translate(142.962 387.332)" fill="#8e56fa"/><path d="M338.927,10748.6H312.855v8.622h9.682v25.6h6.673v-25.6h9.717Z" transform="translate(146.763 387.605)" fill="#8e56fa"/><path d="M362.9,10748.6h-6.674v12.02H341.6v-12.02h-6.674v34.226H341.6v-13.979h14.63v13.979H362.9Z" transform="translate(153.524 387.605)" fill="#8e56fa"/><path d="M378.315,10748.6h-8.544l-11.221,34.226h7.15l2.054-6.53h12.284l1.98,6.53h7.81Zm-4.327,8.1,3.594,12.019h-7.261Z" transform="translate(160.764 387.605)" fill="#8e56fa"/><path d="M406.1,10748.6h-26.07v8.622h9.68v25.6h6.673v-25.6H406.1Z" transform="translate(167.344 387.605)" fill="#8e56fa"/><path d="M478.163,10757.891c-1.869-5.617-6.93-10.19-13.31-10.19-8.251,0-15.218,6.663-15.218,18.291s6.527,18.289,14.814,18.289c7.113,0,11.586-3.658,13.567-10.059l-5.721-3.79c-1.1,3.135-3.263,5.619-7.333,5.619-5.538,0-8.288-3.921-8.288-10.06s2.934-10.06,8.178-10.06a7.548,7.548,0,0,1,7.517,6.141Z" transform="translate(164.043 387.332)" fill="#8e56fa"/><path d="M481.308,10748.6h-6.674v34.226h24.237v-9.145H481.308Z" transform="translate(171.703 387.605)" fill="#8e56fa"/><path d="M526.008,10765.991c0-11.628-7.223-18.291-15.914-18.291s-15.913,6.663-15.913,18.291,7.223,18.289,15.913,18.289S526.008,10777.617,526.008,10765.991Zm-6.967,0c0,6.139-3.007,10.06-8.947,10.06-5.9,0-8.91-3.921-8.91-10.06s3.006-10.06,8.91-10.06C516.033,10755.932,519.041,10759.851,519.041,10765.991Z" transform="translate(177.691 387.332)" fill="#8e56fa"/><path d="M549.912,10757.891c-1.871-5.617-6.93-10.19-13.311-10.19-8.25,0-15.217,6.663-15.217,18.291s6.527,18.289,14.813,18.289c7.115,0,11.588-3.658,13.568-10.059l-5.721-3.79c-1.1,3.135-3.263,5.619-7.334,5.619-5.537,0-8.287-3.921-8.287-10.06s2.933-10.06,8.177-10.06a7.547,7.547,0,0,1,7.517,6.141Z" transform="translate(186.026 387.332)" fill="#8e56fa"/><path d="M575.057,10748.6H564.423l-11.367,12.933V10748.6h-6.673v34.226h6.673v-11.234l5.538-6.14,8.983,17.374h9.534l-13.238-22.729Z" transform="translate(193.686 387.605)" fill="#8e56fa"/><path d="M663.626,10748.6h-7.59l-5.684,22.469-5.792-22.469h-6.454l-5.647,22.469-5.5-22.469h-7.627l9.056,34.226h7.7l5.169-20.379,5.317,20.379h7.957Z" transform="translate(199.63 387.605)" fill="#8e56fa"/><path d="M681.392,10748.6h-26.07v34.226h26.584v-8.62H662.032v-4.964h16.9v-7.971h-16.9v-4.833h19.361Z" transform="translate(210.657 387.605)" fill="#8e56fa"/><path d="M770.554,10748.6h-7.59l-5.684,22.469-5.794-22.469h-6.454l-5.646,22.469-5.5-22.469h-7.628l9.057,34.226h7.7l5.169-20.379,5.317,20.379h7.957Z" transform="translate(206.542 387.605)" fill="#8e56fa"/><path d="M792.447,10765.991c0-11.628-7.223-18.291-15.913-18.291s-15.914,6.663-15.914,18.291,7.223,18.289,15.914,18.289S792.447,10777.617,792.447,10765.991Zm-6.967,0c0,6.139-3.006,10.06-8.946,10.06-5.9,0-8.911-3.921-8.911-10.06s3.006-10.06,8.911-10.06C782.474,10755.932,785.48,10759.851,785.48,10765.991Z" transform="translate(217.07 387.332)" fill="#8e56fa"/><path d="M817.637,10748.6H810.6v21.424l-15.07-21.424h-7.115v34.226h7.042v-22.338l15.253,22.338h6.93Z" transform="translate(225.586 387.605)" fill="#8e56fa"/><path d="M819.759,10747.7h-4.95l-1.613,12.674h3.117Z" transform="translate(231.989 387.332)" fill="#8e56fa"/><path d="M844.977,10748.6h-26.07v8.622h9.68v25.6h6.673v-25.6h9.717Z" transform="translate(234.929 387.605)" fill="#8e56fa"/><path d="M904.255,10748.6h-6.673v34.226H921.82v-9.145H904.255Z" transform="translate(222.561 387.605)" fill="#8e56fa"/><path d="M944.005,10748.6h-26.07v34.226h26.584v-8.62H924.645v-4.964h16.9v-7.971h-16.9v-4.833h19.36Z" transform="translate(228.797 387.605)" fill="#8e56fa"/><path d="M965.3,10748.6H939.232v8.622h9.681v25.6h6.674v-25.6H965.3Z" transform="translate(235.322 387.605)" fill="#8e56fa"/><path d="M92.637,10789.6v34.751h14.85c11.551,0,15.4-9.668,15.4-17.375,0-13.979-7.3-17.376-16.244-17.376Zm14.007,7.839c6.49,0,9.277,3.659,9.277,9.146,0,5.876-3.19,8.885-9.313,8.885H99.347v-18.03Z" transform="translate(95.697 400.168)" fill="#8e56fa"/><path d="M145.282,10789.6h-26.07v34.751H145.8v-8.882H125.922v-4.966h16.9v-7.971h-16.9v-4.964h19.361Z" transform="translate(103.839 400.168)" fill="#8e56fa"/><path d="M168.173,10799.153c-.99-6.926-4.327-10.452-12.8-10.452-10.083,0-13.713,4.441-13.713,11.232,0,9.8,5.354,10.844,9.9,11.105,5.061.263,10.3-.522,10.3,2.743,0,3.006-2.934,4.182-6.234,4.182-2.9,0-6.784-1.045-7.15-3.788h-7.371c.329,5.226,1.833,7.576,4.95,9.8,1.8,1.176,4.217,1.829,9.057,1.829,9.79,0,13.751-5.227,13.751-13.455,0-7.054-3.411-9.536-10.744-9.536-2.311,0-3.521.129-4.73.129-2.494,0-4.621-.129-4.621-3.135,0-2.35,2.31-3.525,6.636-3.525,2.861,0,5.134.522,6.088,3.264Z" transform="translate(110.549 399.893)" fill="#8e56fa"/><path d="M189.346,10789.6H163.274v8.622h9.68v26.129h6.674v-26.129h9.717Z" transform="translate(117.339 400.168)" fill="#8e56fa"/><path d="M206.646,10811.026c5.06-.784,7.186-4.964,7.186-10.714,0-6.662-3.043-10.712-9.167-10.712H185.341v34.751h6.674v-13.325h6.16l6.2,13.325h9.277Zm-2.017-13.327a2.061,2.061,0,0,1,2.127,2.352c0,1.7-.88,2.482-2.09,2.482h-12.65v-4.834Z" transform="translate(124.101 400.168)" fill="#8e56fa"/><path d="M237.872,10789.6h-6.638v17.376c0,8.36-3.116,10.058-7.479,10.058-4,0-6.711-2.089-6.711-10.058V10789.6h-6.967v18.941c0,11.759,5.5,16.984,13.6,16.984s14.191-5.093,14.191-17.113Z" transform="translate(131.679 400.168)" fill="#8e56fa"/><path d="M263.113,10799.021c-1.869-5.747-6.93-10.319-13.311-10.319-8.25,0-15.217,6.793-15.217,18.55s6.527,18.551,14.814,18.551c7.113,0,11.586-3.657,13.567-10.321l-5.721-3.656c-1.1,3.134-3.263,5.617-7.333,5.617-5.538,0-8.288-3.919-8.288-10.19s2.934-10.32,8.177-10.32a7.661,7.661,0,0,1,7.517,6.271Z" transform="translate(139.188 399.893)" fill="#8e56fa"/><path d="M283.858,10789.6h-26.07v8.622h9.68v26.129h6.673v-26.129h9.717Z" transform="translate(146.298 400.168)" fill="#8e56fa"/><path d="M286.865,10789.6h-6.673v34.751h6.673Z" transform="translate(153.162 400.168)" fill="#8e56fa"/><path d="M320.895,10807.251c0-11.757-7.224-18.55-15.914-18.55s-15.914,6.793-15.914,18.55,7.224,18.551,15.914,18.551S320.895,10819.011,320.895,10807.251Zm-6.967,0c0,6.271-3.007,10.19-8.947,10.19-5.9,0-8.911-3.919-8.911-10.19s3.007-10.32,8.911-10.32C310.921,10796.931,313.928,10800.98,313.928,10807.251Z" transform="translate(155.881 399.893)" fill="#8e56fa"/><path d="M346.084,10789.6h-7.04v21.688l-15.071-21.687H316.86v34.751h7.04v-22.73l15.255,22.73h6.929Z" transform="translate(164.397 400.168)" fill="#8e56fa"/><path d="M376.074,10789.6v34.751h20.057c6.234,0,9.094-4.443,9.094-10.061,0-3.787-1.429-6.924-4.363-8.1,2.017-1.437,3.08-4.571,3.08-7.708,0-5.356-2.86-8.884-7.811-8.884Zm18.774,21.033c1.394,0,2.64.393,2.64,2.612,0,2.091-1.246,2.354-2.273,2.354H382.747v-4.966Zm.367-12.672c.952,0,1.979.39,1.979,2.22,0,2.222-1.173,2.482-2.346,2.482h-12.1v-4.7Z" transform="translate(151.12 400.168)" fill="#8e56fa"/><path d="M427.652,10789.6H401.58v34.751h26.585v-8.882H408.291v-4.966h16.9v-7.971h-16.9v-4.964h19.361Z" transform="translate(158.934 400.168)" fill="#8e56fa"/><path d="M475.008,10789.6h-8.544l-11.221,34.751h7.15l2.054-6.664h12.284l1.981,6.664h7.81Zm-4.327,8.231,3.593,12.149h-7.26Z" transform="translate(148.568 400.168)" fill="#8e56fa"/><path d="M510.481,10789.6h-7.04v21.688L488.37,10789.6h-7.113v34.751h7.04v-22.73l15.253,22.73h6.93Z" transform="translate(156.538 400.168)" fill="#8e56fa"/><path d="M547.481,10789.6h-6.673v34.751h6.673Z" transform="translate(142.925 400.168)" fill="#8e56fa"/><path d="M579.44,10789.6H572.4v21.688l-15.071-21.687h-7.113v34.751h7.04v-22.73l15.253,22.73h6.93Z" transform="translate(145.808 400.168)" fill="#8e56fa"/><path d="M602.643,10789.6H576.571v34.751h26.585v-8.882H583.282v-4.966h16.9v-7.971h-16.9v-4.964h19.361Z" transform="translate(153.883 400.168)" fill="#8e56fa"/><path d="M629.131,10789.6h-7.48l-8.361,24.82-8.323-24.82h-7.59l12.173,34.751h7.115Z" transform="translate(160.257 400.168)" fill="#8e56fa"/><path d="M630.756,10789.6h-6.673v34.751h6.673Z" transform="translate(168.44 400.168)" fill="#8e56fa"/><path d="M657.765,10789.6H631.7v8.622h9.68v26.129h6.673v-26.129h9.717Z" transform="translate(170.772 400.168)" fill="#8e56fa"/><path d="M669.62,10789.6h-8.544l-11.221,34.751h7.15l2.054-6.664h12.284l1.981,6.664h7.809Zm-4.327,8.231,3.593,12.149h-7.26Z" transform="translate(176.336 400.168)" fill="#8e56fa"/><path d="M675.869,10789.6v34.751h20.057c6.234,0,9.094-4.443,9.094-10.061,0-3.787-1.431-6.924-4.363-8.1,2.017-1.437,3.08-4.571,3.08-7.708,0-5.356-2.861-8.884-7.811-8.884Zm18.774,21.033c1.393,0,2.64.393,2.64,2.612,0,2.091-1.248,2.354-2.275,2.354H682.542v-4.966Zm.366-12.672c.954,0,1.981.39,1.981,2.22,0,2.222-1.173,2.482-2.346,2.482h-12.1v-4.7Z" transform="translate(184.306 400.168)" fill="#8e56fa"/><path d="M708.048,10789.6h-6.673v34.751h24.237v-9.406H708.048Z" transform="translate(192.121 400.168)" fill="#8e56fa"/><path d="M747.8,10789.6H721.727v34.751h26.585v-8.882H728.438v-4.966h16.9v-7.971h-16.9v-4.964H747.8Z" transform="translate(198.357 400.168)" fill="#8e56fa"/><path d="M962.076,10814.443a4.185,4.185,0,0,0-3.85-4.443c-2.163,0-3.813,1.961-3.813,4.443a4.067,4.067,0,0,0,3.813,4.312A4.144,4.144,0,0,0,962.076,10814.443Z" transform="translate(-179.486 351.68)" fill="#8e56fa"/></g><path d="M39.772,26.76c3.7,0,6.048-1.848,6.048-5.768,0-2.856-1.68-4.2-4.2-4.2-3.7,0-5.992,1.736-5.992,5.488C35.628,25.3,37.252,26.76,39.772,26.76Zm-2.24,12.712c-.056,2.632-8.008,7.616-8.008,12.936a5.618,5.618,0,0,0,5.544,5.208c3.248,0,5.936-2.968,8.624-13.048l-1.008-.448c-.9,2.184-1.624,2.8-2.8,2.8a1.709,1.709,0,0,1-1.9-1.848c0-2.576,3.136-8.512,3.136-11.76,0-3.136-1.96-5.376-3.92-5.376-3.192,0-5.32,4.2-7.84,12.32l1.12.448c.728-2.24,2.184-2.688,4.312-2.688C36.692,38.016,37.532,38.576,37.532,39.472Zm21.5-11.536c-8.232,0-12.712,5.432-12.712,10.752,0,5.712,14.784,7.5,14.784,10.7,0,.672-.392,1.288-2.24,1.288-5.712,0-12.544-1.848-12.32-7.448H45.2A89.151,89.151,0,0,1,43.02,55.1a12.266,12.266,0,0,0,8.008,2.52c7.112,0,14.112-8.176,14.112-12.824,0-6.552-16.8-2.464-16.8-5.936,0-1.176,2.016-2.352,8.064-2.352,5.488,0,7.448.56,7,3.808h1.344a92.377,92.377,0,0,1,2.52-11.2A26.533,26.533,0,0,0,59.036,27.936Z" transform="translate(251.922 -17.057)" fill="#8e56fa"/><path d="M11.052,47.592c-4.48,0-6.44-.9-6.44-2.632,0-3.416,5.544-7,13.16-7,4.424,0,6.552.784,6.552,2.352C24.324,43.784,19,47.592,11.052,47.592Zm6.384-19.656c-8.12,0-14.672,8.344-14.672,16.632,0,8.568,3.864,12.992,8.736,12.992,8.176,0,14.672-8.4,14.672-16.8C26.172,32.248,22.42,27.936,17.436,27.936ZM38.884,46.92c-1.736,0-3.08-.28-3.08-1.848,0-2.072,2.912-8.232,2.912-11.76,0-3.08-2.016-5.376-3.976-5.376-3.136,0-5.264,4.256-7.784,12.376l1.064.448c.784-2.24,2.24-2.744,4.424-2.744,1.96,0,2.856.56,2.856,1.456-.112,2.632-8.176,7.56-8.176,12.936,0,2.52,2.184,5.208,6.832,5.208,3.808,0,8.12-7.168,14.728-18.816l.5.224c-1.792,3.92-4.7,10.248-4.7,13.5,0,2.912,1.9,5.1,3.7,5.1,3.248,0,5.1-2.968,7.9-12.824l-1.064-.448c-.9,2.688-2.016,3.024-2.8,3.024-1.232,0-2.184-.56-2.184-2.464,0-4.032,1.792-10.416,3.808-16.184l-8.68-.5C46.332,40.088,46.22,46.92,38.884,46.92ZM55.348,36.56v1.4h7.336c-3.64,4.648-6.16,9.352-6.16,14.112,0,3.864,2.632,5.544,5.768,5.544,3.36,0,7.84-3.7,10.248-14l-1.008-.448c-1.456,3.192-3.752,3.7-5.152,3.7-1.456,0-2.408-.672-2.464-2.52a36.123,36.123,0,0,1,.672-6.328c2.744.056,5.488.112,8.12.28l1.848-9.8H66.492c.616-2.968,1.232-5.544,1.512-7.112l-1.232-.056A40.469,40.469,0,0,1,55.348,36.56Zm34.16,1.568c3.36,0,3.7,1.288,3.416,3.64l1.4.112c1.12-4.536,2.128-8.12,3.192-12.544a22.014,22.014,0,0,0-7.056-1.288c-10.136-.056-16.24,8.064-16.24,16.688S77.58,57.56,82.676,57.56c6.552,0,10.248-6.272,12.432-13.16l-.952-.672C92.588,46.36,87.828,47.7,82.284,47.7c-3.976,0-5.936-.9-5.936-2.968C76.348,40.984,82.452,38.128,89.508,38.128Zm15.68,9.464c-4.48,0-6.44-.9-6.44-2.632,0-3.416,5.544-7,13.16-7,4.424,0,6.552.784,6.552,2.352C118.46,43.784,113.14,47.592,105.188,47.592Zm6.384-19.656c-8.12,0-14.672,8.344-14.672,16.632,0,8.568,3.864,12.992,8.736,12.992,8.176,0,14.672-8.4,14.672-16.8C120.308,32.248,116.556,27.936,111.572,27.936Zm46.48,11.816c0,3.024-8.288,7.336-8.288,12.432a5.716,5.716,0,0,0,5.488,5.432c3.64,0,6.328-2.968,9.016-13.048l-1.008-.392c-1.064,2.744-1.9,3.192-3.136,3.192a1.725,1.725,0,0,1-1.792-1.9c0-2.576,3.528-7.784,3.528-11.592,0-3.024-2.016-5.936-4.928-5.936-3.92,0-7.392,4.648-11.2,18.592l-.392-.112c.728-3.3,1.68-7.5,1.68-9.352,0-4.592-1.12-9.128-4.256-9.128-3.3,0-6.832,4.648-10.7,18.592l-.448-.112a53.934,53.934,0,0,0,1.064-7.952c0-7.56-1.68-10.528-3.808-10.528-3.136,0-5.264,4.2-7.784,12.32l1.12.448c.728-2.24,2.24-2.688,4.592-2.688,2.464,0,3.584.728,3.584,1.624,0,2.352-8.568,10.7-10.864,17.36H129.94c3.36-15.288,7.224-18.816,11.648-18.816,2.016,0,2.968.728,2.968,1.568,0,2.744-8.624,7.952-10.864,17.248h9.968c3.3-15.288,7.056-18.816,11.368-18.816C157.1,38.184,158.052,38.912,158.052,39.752ZM177.484,37.4c2.8,0,3.864,1.12,3.864,1.9,0,1.456-4.088,2.464-14.56,4.648C167.236,41.04,171.828,37.4,177.484,37.4ZM173.34,57.616c6.1,0,11.144-5.6,14.392-13.5l-.952-.672c-1.736,2.632-8.68,4.032-13.272,4.032-2.744,0-6.384-.672-6.72-2.688,15.12-2.128,20.664-3.64,20.664-8.96a8.013,8.013,0,0,0-8.064-7.9c-6.5,0-14.5,6.944-14.5,16.3C164.884,53.528,168.356,57.616,173.34,57.616Zm19.544-.224c4.256,0,7.448-2.24,7.448-6.776,0-3.528-2.016-5.32-5.6-5.32-4.2,0-7.336,2.128-7.336,6.72C187.4,55.488,189.412,57.392,192.884,57.392Z" transform="translate(781.922 89.943)" fill="#8e56fa"/></g></svg>