<svg xmlns="http://www.w3.org/2000/svg" xmlns:xlink="http://www.w3.org/1999/xlink" width="1050" height="202" viewBox="0 0 1050 202"><defs><clipPath id="b"><rect width="1050" height="202"/></clipPath></defs><g id="a" clip-path="url(#b)"><path d="M52.068,41.95c3.15,0,4.347,1.26,4.347,2.142,0,1.638-4.6,2.772-16.38,5.229C40.539,46.045,45.705,41.95,52.068,41.95ZM47.406,64.693c6.867,0,12.537-6.3,16.191-15.183l-1.071-.756C60.573,51.715,52.761,53.29,47.6,53.29c-3.087,0-7.182-.756-7.56-3.024,17.01-2.394,23.247-4.095,23.247-10.08A9.014,9.014,0,0,0,54.21,31.3c-7.308,0-16.317,7.812-16.317,18.333C37.893,60.094,41.8,64.693,47.406,64.693Zm32.886-33.2c2.9,8.064,4.1,12.915,4.1,16.443,0,4.032-1.827,7.749-5.607,7.749-2.835,0-4.851-1.323-4.851-3.78,0-2.772,3.15-7.308,3.15-11.277,0-5.418-2.205-9.387-4.662-9.387-2.646,0-5.04,3.906-8.316,13.923l1.2.5c1.071-2.646,2.646-3.024,5.481-3.024,2.331,0,3.276.756,3.276,1.764,0,2.772-9.513,7.182-9.513,11.655,0,4.41,5.418,8.631,10.647,8.631,6.174,0,14.49-18.207,17.514-32.7C89.049,32,85.333,31.807,80.292,31.492ZM105.24,41.95c3.15,0,4.347,1.26,4.347,2.142,0,1.638-4.6,2.772-16.38,5.229C93.711,46.045,98.877,41.95,105.24,41.95Zm-4.662,22.743c6.867,0,12.537-6.3,16.191-15.183l-1.071-.756c-1.953,2.961-9.765,4.536-14.931,4.536-3.087,0-7.182-.756-7.56-3.024,17.01-2.394,23.247-4.095,23.247-10.08a9.014,9.014,0,0,0-9.072-8.883c-7.308,0-16.317,7.812-16.317,18.333C91.065,60.094,94.971,64.693,100.578,64.693ZM142.221,31.3c-4.725,0-9.324,4.6-13.734,26.145l-.567-.126C128.865,51.211,130,46.108,130,43.147c0-8.505-1.827-11.844-4.158-11.844-3.528,0-5.922,4.725-8.757,13.86l1.26.5c.819-2.52,2.52-3.024,5.166-3.024,2.772,0,4.032.819,4.032,1.89,0,2.646-9.639,11.97-12.222,19.467h12.6c2.268-14.238,4.851-19.782,12.852-18.459Zm1.134,43.848c6.174,0,11.277-6.3,17.136-19.341,2.583-5.8,7.056-15.75,10.647-23.5a98.407,98.407,0,0,0-12.285-.63c.945,7.308,1.2,19.593-2.268,28.287l-.945-.063c-.441-5.418-.63-11.718-1.2-16.191-1.2-8.253-2.961-12.411-5.292-12.411-2.52,0-4.6,3.654-8.127,13.419l1.2.5c1.071-1.89,2.709-2.52,5.544-2.52,2.331,0,3.969.693,3.969,2.268,0,2.709-7.434,7.938-8.19,13.734l11.781,3.717c-1.071,1.575-5.292,2.646-8.316,2.646a28.214,28.214,0,0,1-8.127-1.26l-2.016,10.4A21.509,21.509,0,0,0,143.355,75.151Z" transform="translate(871 77)" fill="#dafd08"/><path d="M46.43,41V42.58h8.253c-4.1,5.229-6.93,10.521-6.93,15.876,0,4.347,2.961,6.237,6.489,6.237,3.78,0,8.82-4.158,11.529-15.75l-1.134-.5C63,52.03,60.416,52.6,58.841,52.6c-1.638,0-2.709-.756-2.772-2.835a40.638,40.638,0,0,1,.756-7.119c3.087.063,6.174.126,9.135.315l2.079-11.025H58.967c.693-3.339,1.386-6.237,1.7-8l-1.386-.063A45.528,45.528,0,0,1,46.43,41ZM78.56,29.98c4.158,0,6.8-2.079,6.8-6.489,0-3.213-1.89-4.725-4.725-4.725-4.158,0-6.741,1.953-6.741,6.174C73.9,28.342,75.725,29.98,78.56,29.98Zm-2.52,14.3c-.063,2.961-9.009,8.568-9.009,14.553a6.32,6.32,0,0,0,6.237,5.859c3.654,0,6.678-3.339,9.7-14.679l-1.134-.5c-1.008,2.457-1.827,3.15-3.15,3.15a1.923,1.923,0,0,1-2.142-2.079c0-2.9,3.528-9.576,3.528-13.23,0-3.528-2.2-6.048-4.41-6.048-3.591,0-5.985,4.725-8.82,13.86l1.26.5c.819-2.52,2.457-3.024,4.851-3.024C75.1,42.643,76.04,43.273,76.04,44.281Zm48.7.315c0,3.4-9.324,8.253-9.324,13.986a6.431,6.431,0,0,0,6.174,6.111c4.095,0,7.119-3.339,10.143-14.679l-1.134-.441c-1.2,3.087-2.142,3.591-3.528,3.591a1.941,1.941,0,0,1-2.016-2.142c0-2.9,3.969-8.757,3.969-13.041,0-3.4-2.268-6.678-5.544-6.678-4.41,0-8.316,5.229-12.6,20.916l-.441-.126c.819-3.717,1.89-8.442,1.89-10.521,0-5.166-1.26-10.269-4.788-10.269-3.717,0-7.686,5.229-12.033,20.916l-.5-.126a60.675,60.675,0,0,0,1.2-8.946c0-8.505-1.89-11.844-4.284-11.844-3.528,0-5.922,4.725-8.757,13.86l1.26.5c.819-2.52,2.52-3.024,5.166-3.024,2.772,0,4.032.819,4.032,1.827,0,2.646-9.639,12.033-12.222,19.53H93.113c3.78-17.2,8.127-21.168,13.1-21.168,2.268,0,3.339.819,3.339,1.764,0,3.087-9.7,8.946-12.222,19.4h11.214c3.717-17.2,7.938-21.168,12.789-21.168C123.668,42.832,124.739,43.651,124.739,44.6ZM146.6,41.95c3.15,0,4.347,1.26,4.347,2.142,0,1.638-4.6,2.772-16.38,5.229C135.071,46.045,140.237,41.95,146.6,41.95Zm-4.662,22.743c6.867,0,12.537-6.3,16.191-15.183l-1.071-.756c-1.953,2.961-9.765,4.536-14.931,4.536-3.087,0-7.182-.756-7.56-3.024,17.01-2.394,23.247-4.095,23.247-10.08a9.014,9.014,0,0,0-9.072-8.883c-7.308,0-16.317,7.812-16.317,18.333C132.425,60.094,136.331,64.693,141.938,64.693Z" transform="translate(120 25)" fill="#dafd08"/><path d="M42.934,31.3c-9.261,0-14.3,6.111-14.3,12.1,0,6.426,16.632,8.442,16.632,12.033,0,.756-.441,1.449-2.52,1.449-6.426,0-14.112-2.079-13.86-8.379H27.373a100.294,100.294,0,0,1-2.457,13.356,13.8,13.8,0,0,0,9.009,2.835c8,0,15.876-9.2,15.876-14.427,0-7.371-18.9-2.772-18.9-6.678,0-1.323,2.268-2.646,9.072-2.646,6.174,0,8.379.63,7.875,4.284H49.36a103.926,103.926,0,0,1,2.835-12.6A29.849,29.849,0,0,0,42.934,31.3ZM92.514,44.6c0,3.4-9.324,8.253-9.324,13.986a6.431,6.431,0,0,0,6.174,6.111c4.1,0,7.119-3.339,10.143-14.679l-1.134-.441c-1.2,3.087-2.142,3.591-3.528,3.591a1.941,1.941,0,0,1-2.016-2.142c0-2.9,3.969-8.757,3.969-13.041,0-3.4-2.268-6.678-5.544-6.678-4.41,0-8.316,5.229-12.6,20.916l-.441-.126c.819-3.717,1.89-8.442,1.89-10.521,0-5.166-1.26-10.269-4.788-10.269-3.717,0-7.686,5.229-12.033,20.916l-.5-.126a60.675,60.675,0,0,0,1.2-8.946c0-8.505-1.89-11.844-4.284-11.844-3.528,0-5.922,4.725-8.757,13.86l1.26.5c.819-2.52,2.52-3.024,5.166-3.024,2.772,0,4.032.819,4.032,1.827,0,2.646-9.639,12.033-12.222,19.53H60.889c3.78-17.2,8.127-21.168,13.1-21.168,2.268,0,3.339.819,3.339,1.764,0,3.087-9.7,8.946-12.222,19.4H76.324c3.717-17.2,7.938-21.168,12.789-21.168C91.444,42.832,92.514,43.651,92.514,44.6Zm28.917,20.1c3.276,0,5.607-3.213,8.694-14.112l-1.26-.5c-1.323,3.213-1.827,4.032-3.024,4.032a2.561,2.561,0,0,1-2.457-2.835c0-3.78,2.331-12.852,5.04-20.034-20.664.189-27.846,9.954-27.846,19.278,0,9.387,2.646,14.238,5.481,14.238,3.276,0,8.127-6.237,15.687-19.971l.693.252c-1.89,4.284-4.914,10.71-4.914,13.545C117.526,61.858,119.353,64.693,121.432,64.693ZM107.383,53.1c-2.583,0-4.662-1.008-4.662-2.583,0-2.457,4.1-5.733,19.026-7.623C116.14,51.4,109.966,53.1,107.383,53.1ZM140.71,30.547c0,5.04-10.332,20.349-10.332,27.342,0,3.654,2.646,6.8,6.237,6.8,3.717,0,6.741-3.213,9.7-14.364l-1.134-.5c-.882,2.268-1.7,2.835-2.961,2.835-1.008,0-2.142-.441-2.142-3.024,0-4.725,3.528-17.514,3.528-24.255,0-2.835-1.386-4.221-3.15-4.221-2.835,0-5.8,3.591-8.379,8.316l.945,1.134a10.9,10.9,0,0,1,5.229-1.827C139.764,28.783,140.71,29.413,140.71,30.547Zm16,0c0,5.04-10.332,20.349-10.332,27.342,0,3.654,2.646,6.8,6.237,6.8,3.717,0,6.741-3.213,9.7-14.364l-1.134-.5c-.882,2.268-1.7,2.835-2.961,2.835-1.008,0-2.142-.441-2.142-3.024,0-4.725,3.528-17.514,3.528-24.255,0-2.835-1.386-4.221-3.15-4.221-2.835,0-5.8,3.591-8.379,8.316l.945,1.134a10.9,10.9,0,0,1,5.229-1.827C155.767,28.783,156.712,29.413,156.712,30.547ZM167.8,64.441c4.788,0,8.379-2.52,8.379-7.623,0-3.969-2.268-5.985-6.3-5.985-4.725,0-8.253,2.394-8.253,7.56C161.626,62.3,163.893,64.441,167.8,64.441Z" transform="translate(549 129)" fill="#dafd08"/><g transform="translate(1.638 -0.316)"><path d="M579.885,1.462h-9.32L558.325,36.6h7.8l2.24-6.716h13.4l2.16,6.716h8.52Zm-4.72,8.329,3.92,12.286h-7.92Z" fill="#dafd08"/><path d="M623.624,10.936c-1.08-7.08-4.72-10.62-13.96-10.62-11,0-14.96,4.477-14.96,11.4,0,9.787,5.84,10.932,10.8,11.193,5.52.26,11.24-.521,11.24,2.707,0,3.019-3.2,4.165-6.8,4.165-3.16,0-7.4-.937-7.8-3.748H594.1c.36,5.258,2,7.653,5.4,9.891,1.96,1.2,4.6,1.77,9.88,1.77,10.68,0,15-5.154,15-13.483,0-7.184-3.72-9.631-11.72-9.631-2.52,0-3.84.052-5.16.052-2.72,0-5.04-.052-5.04-3.071,0-2.447,2.52-3.592,7.24-3.592,3.12,0,5.6.573,6.64,3.332Z" fill="#dafd08"/><path d="M661.109,1.462h-11.6l-12.4,13.275V1.462h-7.28V36.6h7.28V25.044l6.04-6.3,9.8,17.856h10.4l-14.44-23.322Z" fill="#dafd08"/><path d="M704.787,1.462h-26.56V36.6h7.32V24.263h17.16V15.882h-17.16V9.375h19.24Z" fill="#dafd08"/><path d="M742.187,19.005c0-11.869-7.88-18.689-17.36-18.689s-17.36,6.82-17.36,18.689c0,11.921,7.88,18.741,17.36,18.741S742.187,30.927,742.187,19.005Zm-7.6,0c0,6.3-3.28,10.308-9.76,10.308-6.44,0-9.72-4.009-9.72-10.308,0-6.247,3.28-10.308,9.72-10.308C731.307,8.7,734.587,12.758,734.587,19.005Z" fill="#dafd08"/><path d="M771.116,23.066c5.52-.781,7.84-4.894,7.84-10.724,0-6.716-3.32-10.88-10-10.88h-21.08V36.6h7.28V23.17h6.72l6.76,13.431h10.12Zm-2.2-13.327a2.1,2.1,0,0,1,2.32,2.291c0,1.77-.96,2.551-2.28,2.551h-13.8V9.739Z" fill="#dafd08"/><path d="M820.67,1.462H792.23v8.8h10.56V36.6h7.28V10.259h10.6Z" fill="#dafd08"/><path d="M855,1.462h-7.28V13.748h-15.96V1.462h-7.28V36.6h7.28V22.285h15.96V36.6H855Z" fill="#dafd08"/><path d="M889.87,1.462H861.43V36.6h29V27.647H868.75v-5h18.44V14.528H868.75v-5h21.12Z" fill="#dafd08"/><path d="M935.583,1.462H928.3V13.748h-15.96V1.462h-7.28V36.6h7.28V22.285H928.3V36.6h7.28Z" fill="#dafd08"/><path d="M970.456,1.462h-28.44V36.6h29V27.647h-21.68v-5h18.44V14.528h-18.44v-5h21.12Z" fill="#dafd08"/><path d="M982.226,1.462h-7.28V36.6h26.444V27.126H982.226Z" fill="#dafd08"/><path d="M1025.55,23.17c6.88,0,10.28-4.113,10.28-10.828s-3.32-10.88-10-10.88h-21.08V36.6h7.28V23.17Zm.24-13.431a2.1,2.1,0,0,1,2.32,2.291c0,1.77-.96,2.551-2.28,2.551h-13.8V9.739Z" fill="#dafd08"/><path d="M1040.87,29.209h-6.96l-2.12,13.9h4.8Z" fill="#dafd08"/><path d="M28.946,55.147H.506v8.792h10.56V90.263h7.28V63.939h10.6Z" fill="#dafd08"/><path d="M48.747,55.147h-9.32L27.187,90.263h7.8l2.24-6.711h13.4l2.16,6.711h8.52Zm-4.72,8.324,3.92,12.278h-7.92Z" fill="#dafd08"/><path d="M96.338,55.147h-11.6l-12.4,13.266V55.147h-7.28V90.263h7.28V78.714l6.04-6.295,9.8,17.844h10.4L84.138,66.956Z" fill="#dafd08"/><path d="M131.193,55.147h-28.44V90.263h29V81.315h-21.68V76.321h18.44V68.205h-18.44V63.211h21.12Z" fill="#dafd08"/><path d="M338.391,55.147h-28.44v8.792h10.56V90.263h7.28V63.939h10.6Z" fill="#dafd08"/><path d="M375.377,72.679c0-11.862-7.88-18.677-17.36-18.677s-17.36,6.815-17.36,18.677c0,11.914,7.88,18.729,17.36,18.729S375.377,84.593,375.377,72.679Zm-7.6,0c0,6.295-3.28,10.3-9.76,10.3-6.44,0-9.72-4.006-9.72-10.3,0-6.243,3.28-10.3,9.72-10.3C364.5,62.378,367.777,66.436,367.777,72.679Z" fill="#dafd08"/><path d="M431.009,76.737c5.52-.78,7.84-4.89,7.84-10.717,0-6.711-3.32-10.873-10-10.873h-21.08V90.263h7.28V76.841h6.72l6.76,13.422h10.12Zm-2.2-13.318a2.1,2.1,0,0,1,2.32,2.289c0,1.769-.96,2.549-2.28,2.549h-13.8V63.419Z" fill="#dafd08"/><path d="M472.42,55.147H443.98V90.263h29V81.315H451.3V76.321h18.44V68.205H451.3V63.211h21.12Z" fill="#dafd08"/><path d="M508.35,58.841C506.23,56.812,499.79,54,492.71,54c-8.96,0-16.56,6.815-16.56,18.677,0,11.914,7.12,18.729,16.16,18.729,8.44,0,13.44-1.873,15.68-3.59V70.962h-12.8v7.752h5.72v2.445c-1.32,1.613-5.24,1.821-8.04,1.821-6.04,0-9.24-4.006-9.24-10.3,0-6.243,3.4-10.3,9.08-10.3,4.12,0,7.8,1.2,12.16,4.734Z" fill="#dafd08"/><path d="M533.138,55.147h-9.32l-12.24,35.116h7.8l2.24-6.711h13.4l2.16,6.711h8.52Zm-4.72,8.324,3.92,12.278h-7.92Z" fill="#dafd08"/><path d="M557.209,55.147h-7.28V90.263h7.28Z" fill="#dafd08"/><path d="M596.016,55.147h-7.68v21.9l-16.44-21.9h-7.76V90.263h7.68V67.373l16.64,22.891h7.56Z" fill="#dafd08"/><path d="M659.279,55.147h-8.56L643.8,70.182l-7.2-15.035h-8.88l12.12,24.66V90.315h7.48V79.807Z" fill="#dafd08"/><path d="M694.745,72.679c0-11.862-7.88-18.677-17.36-18.677s-17.36,6.815-17.36,18.677c0,11.914,7.88,18.729,17.36,18.729S694.745,84.593,694.745,72.679Zm-7.6,0c0,6.295-3.28,10.3-9.76,10.3-6.44,0-9.72-4.006-9.72-10.3,0-6.243,3.28-10.3,9.72-10.3C683.865,62.378,687.145,66.436,687.145,72.679Z" fill="#dafd08"/><path d="M730.593,55.147h-7.24V72.731c0,8.376-3.4,10.093-8.16,10.093-4.36,0-7.32-2.029-7.32-10.145V55.147h-7.6V74.24c0,11.966,6,17.168,14.84,17.168s15.48-5.1,15.48-17.272Z" fill="#dafd08"/><path d="M760.079,76.737c5.52-.78,7.84-4.89,7.84-10.717,0-6.711-3.32-10.873-10-10.873h-21.08V90.263h7.28V76.841h6.72l6.76,13.422h10.12Zm-2.2-13.318a2.1,2.1,0,0,1,2.32,2.289c0,1.769-.96,2.549-2.28,2.549h-13.8V63.419Z" fill="#dafd08"/><path d="M801.753,55.147V90.263h21.88c6.8,0,9.92-4.474,9.92-10.145,0-3.9-1.56-6.971-4.76-8.168,2.2-1.457,3.36-4.63,3.36-7.752,0-5.411-3.12-9.052-8.52-9.052Zm20.48,21.278c1.52,0,2.88.312,2.88,2.653,0,2.081-1.36,2.341-2.48,2.341h-13.6V76.425Zm.4-12.85c1.04,0,2.16.416,2.16,2.341,0,2.185-1.28,2.5-2.56,2.5h-13.2V63.575Z" fill="#dafd08"/><path d="M856.419,55.147H847.1l-12.24,35.116h7.8l2.24-6.711h13.4l2.16,6.711h8.52Zm-4.72,8.324,3.92,12.278H847.7Z" fill="#dafd08"/><path d="M880.01,55.147h-7.28V90.263h26.44V80.795H880.01Z" fill="#dafd08"/><path d="M921.615,55.147h-9.32l-12.24,35.116h7.8l2.24-6.711h13.4l2.16,6.711h8.52Zm-4.72,8.324,3.92,12.278H912.9Z" fill="#dafd08"/><path d="M969.8,55.147h-7.68v21.9l-16.44-21.9h-7.76V90.263h7.68V67.373l16.64,22.891h7.56Z" fill="#dafd08"/><path d="M1006.56,64.407A15.473,15.473,0,0,0,992.045,54c-9,0-16.6,6.815-16.6,18.677,0,11.914,7.12,18.729,16.16,18.729,7.76,0,12.635-3.746,14.8-10.353l-6.24-3.8c-1.195,3.174-3.555,5.723-7.995,5.723-6.04,0-9.04-4.006-9.04-10.3,0-6.243,3.2-10.3,8.92-10.3a8.172,8.172,0,0,1,8.2,6.295Z" fill="#dafd08"/><path d="M1040.31,55.147h-28.44V90.263h29V81.315h-21.68V76.321h18.44V68.205h-18.44V63.211h21.12Z" fill="#dafd08"/><path d="M22.551,105.846h-9.32L.991,140.963h7.8l2.24-6.712h13.4l2.16,6.712h8.52Zm-4.72,8.324,3.92,12.278h-7.92Z" fill="#dafd08"/><path d="M70.742,105.846h-7.68v21.9l-16.44-21.9h-7.76v35.117h7.68V118.072l16.64,22.891h7.56Z" fill="#dafd08"/><path d="M77.221,105.846v35.117h16.2c12.6,0,16.8-9.729,16.8-17.585,0-13.994-7.96-17.532-17.72-17.532Zm15.28,7.908c7.08,0,10.12,3.694,10.12,9.26,0,5.931-3.48,8.9-10.16,8.9h-7.92V113.754Z" fill="#dafd08"/><path d="M126.6,105.846v35.117h21.88c6.8,0,9.92-4.475,9.92-10.145,0-3.9-1.56-6.971-4.76-8.168,2.2-1.457,3.36-4.63,3.36-7.752,0-5.41-3.12-9.052-8.52-9.052Zm20.48,21.278c1.52,0,2.88.312,2.88,2.653,0,2.081-1.36,2.341-2.48,2.341h-13.6v-4.994Zm.4-12.85c1.04,0,2.16.416,2.16,2.341,0,2.185-1.28,2.5-2.56,2.5h-13.2v-4.838Z" transform="translate(4)" fill="#dafd08"/><path d="M192.185,105.846h-28.44v35.117h29v-8.949h-21.68V127.02h18.44V118.9h-18.44V113.91h21.12Z" transform="translate(4)" fill="#dafd08"/><path d="M228.177,127.54c6.88,0,10.28-4.11,10.28-10.821s-3.32-10.873-10-10.873h-21.08v35.117h7.28V127.54Zm.24-13.422a2.1,2.1,0,0,1,2.32,2.289c0,1.769-.96,2.549-2.28,2.549h-13.8v-4.838Z" transform="translate(8)" fill="#dafd08"/><path d="M265.539,127.436c5.52-.78,7.84-4.89,7.84-10.717,0-6.711-3.32-10.873-10-10.873H242.3v35.117h7.28V127.54h6.72l6.76,13.423h10.12Zm-2.2-13.318a2.1,2.1,0,0,1,2.32,2.289c0,1.769-.96,2.549-2.28,2.549h-13.8v-4.838Z" transform="translate(8)" fill="#dafd08"/><path d="M311.689,123.378c0-11.861-7.88-18.676-17.36-18.676s-17.36,6.815-17.36,18.676c0,11.914,7.88,18.729,17.36,18.729S311.689,135.292,311.689,123.378Zm-7.6,0c0,6.3-3.28,10.3-9.76,10.3-6.44,0-9.72-4.006-9.72-10.3,0-6.243,3.28-10.3,9.72-10.3C300.809,113.078,304.089,117.135,304.089,123.378Z" transform="translate(8)" fill="#dafd08"/><path d="M347.537,105.846H340.3V123.43c0,8.376-3.4,10.093-8.16,10.093-4.36,0-7.32-2.029-7.32-10.145V105.846h-7.6v19.093c0,11.966,6,17.168,14.84,17.168s15.48-5.1,15.48-17.272Z" transform="translate(8)" fill="#dafd08"/><path d="M353.784,105.846v35.117h16.2c12.6,0,16.8-9.729,16.8-17.585,0-13.994-7.96-17.532-17.72-17.532Zm15.28,7.908c7.08,0,10.12,3.694,10.12,9.26,0,5.931-3.48,8.9-10.16,8.9H361.1V113.754Z" transform="translate(8)" fill="#dafd08"/><path d="M437.119,123.378c0-11.861-7.88-18.676-17.36-18.676s-17.36,6.815-17.36,18.676c0,11.914,7.88,18.729,17.36,18.729S437.119,135.292,437.119,123.378Zm-7.6,0c0,6.3-3.28,10.3-9.76,10.3-6.44,0-9.72-4.006-9.72-10.3,0-6.243,3.28-10.3,9.72-10.3C426.239,113.078,429.519,117.135,429.519,123.378Z" transform="translate(12)" fill="#dafd08"/><path d="M469.367,105.846h-26.56v35.117h7.32v-12.33h17.16v-8.376h-17.16v-6.5h19.24Z" transform="translate(12)" fill="#dafd08"/><path d="M512.59,105.846h-8.56l-6.92,15.035-7.2-15.035h-8.88l12.12,24.66v10.509h7.48V130.506Z" transform="translate(16)" fill="#dafd08"/><path d="M548.056,123.378c0-11.861-7.88-18.676-17.36-18.676s-17.36,6.815-17.36,18.676c0,11.914,7.88,18.729,17.36,18.729S548.056,135.292,548.056,123.378Zm-7.6,0c0,6.3-3.28,10.3-9.76,10.3-6.44,0-9.72-4.006-9.72-10.3,0-6.243,3.28-10.3,9.72-10.3C537.176,113.078,540.456,117.135,540.456,123.378Z" transform="translate(16)" fill="#dafd08"/><path d="M583.905,105.846h-7.24V123.43c0,8.376-3.4,10.093-8.16,10.093-4.36,0-7.32-2.029-7.32-10.145V105.846h-7.6v19.093c0,11.966,6,17.168,14.84,17.168s15.48-5.1,15.48-17.272Z" transform="translate(16)" fill="#dafd08"/><path d="M613.391,127.436c5.52-.78,7.84-4.89,7.84-10.717,0-6.711-3.32-10.873-10-10.873h-21.08v35.117h7.28V127.54h6.72l6.76,13.423h10.12Zm-2.2-13.318a2.1,2.1,0,0,1,2.32,2.289c0,1.769-.96,2.549-2.28,2.549h-13.8v-4.838Z" transform="translate(16)" fill="#dafd08"/><path d="M654.181,115.315c-1.08-7.076-4.72-10.613-13.96-10.613-11,0-14.96,4.474-14.96,11.393,0,9.781,5.84,10.925,10.8,11.185,5.52.26,11.24-.52,11.24,2.705,0,3.018-3.2,4.162-6.8,4.162-3.16,0-7.4-.936-7.8-3.745h-8.04c.36,5.254,2,7.647,5.4,9.884,1.96,1.2,4.6,1.769,9.88,1.769,10.68,0,15-5.15,15-13.474,0-7.18-3.72-9.625-11.72-9.625-2.52,0-3.84.052-5.16.052-2.72,0-5.04-.052-5.04-3.069,0-2.445,2.52-3.59,7.24-3.59,3.12,0,5.6.572,6.64,3.33Z" transform="translate(16)" fill="#dafd08"/><path d="M688.825,105.846h-28.44v35.117h29v-8.949h-21.68V127.02h18.44V118.9h-18.44V113.91h21.12Z" transform="translate(16)" fill="#dafd08"/><path d="M700.595,105.846h-7.28v35.117h26.44v-9.469h-19.16Z" transform="translate(16)" fill="#dafd08"/><path d="M749.68,105.846H723.12v35.117h7.32v-12.33H747.6v-8.376H730.44v-6.5h19.24Z" transform="translate(16)" fill="#dafd08"/><path d="M790.383,105.846h-26.56v35.117h7.32v-12.33H788.3v-8.376h-17.16v-6.5h19.24Z" transform="translate(20)" fill="#dafd08"/><path d="M827.783,123.378c0-11.861-7.88-18.676-17.36-18.676s-17.36,6.815-17.36,18.676c0,11.914,7.88,18.729,17.36,18.729S827.783,135.292,827.783,123.378Zm-7.6,0c0,6.3-3.28,10.3-9.76,10.3-6.44,0-9.72-4.006-9.72-10.3,0-6.243,3.28-10.3,9.72-10.3C816.9,113.078,820.183,117.135,820.183,123.378Z" transform="translate(20)" fill="#dafd08"/><path d="M856.711,127.436c5.52-.78,7.84-4.89,7.84-10.717,0-6.711-3.32-10.873-10-10.873h-21.08v35.117h7.28V127.54h6.72l6.76,13.423h10.12Zm-2.2-13.318a2.1,2.1,0,0,1,2.32,2.289c0,1.769-.96,2.549-2.28,2.549h-13.8v-4.838Z" transform="translate(20)" fill="#dafd08"/><path d="M22.024,156.6H12.7l-12.24,36.7h7.8l2.24-7.013H23.9l2.16,7.013h8.52Zm-4.72,8.7,3.92,12.83H13.3Z" fill="#dafd08"/><path d="M66.661,166.275c-2.04-6.035-7.56-10.874-14.52-10.874-9,0-16.6,7.122-16.6,19.518,0,12.449,7.12,19.571,16.16,19.571,7.76,0,12.64-3.914,14.8-10.818l-6.24-3.969c-1.2,3.316-3.56,5.98-8,5.98-6.04,0-9.04-4.186-9.04-10.764,0-6.524,3.2-10.765,8.92-10.765a8.256,8.256,0,0,1,8.2,6.579Z" fill="#dafd08"/><path d="M102.487,156.6h-7.28v12.831H79.247V156.6h-7.28v36.7h7.28v-14.95h15.96v14.95h7.28Z" fill="#dafd08"/><path d="M116.68,156.6H109.4v36.7h7.28Z" fill="#dafd08"/><path d="M152.048,156.6h-28.44v36.7h29v-9.351h-21.68v-5.219h18.44v-8.481h-18.44v-5.219h21.12Z" fill="#dafd08"/><path d="M188.7,156.6h-8.16l-9.12,26.259-9.08-26.259h-8.28l13.28,36.7h7.76Z" fill="#dafd08"/><path d="M220.876,156.6h-28.44v36.7h29v-9.351h-21.68v-5.219H218.2v-8.481h-18.44v-5.219h21.12Z" fill="#dafd08"/><path d="M264.006,156.6h-12.56l-6.76,23.541-6.24-23.541h-13.08v36.752h7.36V163.828l8.16,29.466h6.92l8.8-29.466v29.521h7.4Z" fill="#dafd08"/><path d="M298.923,156.6h-28.44v36.7h29v-9.351H277.8v-5.219h18.44v-8.481H277.8v-5.219h21.12Z" fill="#dafd08"/><path d="M335.293,156.6h-7.68v22.888L311.173,156.6h-7.76v36.7h7.68V169.373l16.64,23.921h7.56Z" fill="#dafd08"/><path d="M367.652,156.6h-28.44v9.188h10.56v27.509h7.28V165.785h10.6Z" fill="#dafd08"/><path d="M374.611,185.574h-6.96l-2.12,14.516h4.8Z" fill="#dafd08"/><path d="M390.21,156.6v36.7h21.879c6.8,0,9.92-4.675,9.92-10.6,0-4.077-1.56-7.285-4.76-8.535,2.2-1.523,3.36-4.839,3.36-8.1,0-5.654-3.12-9.46-8.52-9.46Zm20.479,22.236c1.52,0,2.88.326,2.88,2.773,0,2.174-1.359,2.446-2.479,2.446h-13.6v-5.219Zm.4-13.428c1.04,0,2.159.435,2.159,2.446,0,2.283-1.28,2.61-2.56,2.61h-13.2V165.4Z" fill="#dafd08"/><path d="M435.118,156.6h-7.28v36.7h7.28Z" fill="#dafd08"/><path d="M473.485,160.457c-2.12-2.12-8.56-5.056-15.64-5.056-8.96,0-16.56,7.122-16.56,19.518,0,12.449,7.12,19.571,16.16,19.571,8.44,0,13.44-1.957,15.68-3.751V173.125h-12.8v8.1h5.72v2.555c-1.32,1.686-5.24,1.9-8.04,1.9-6.04,0-9.24-4.186-9.24-10.764,0-6.524,3.4-10.765,9.08-10.765,4.12,0,7.8,1.251,12.16,4.948Z" fill="#dafd08"/><path d="M523.857,174.919c0-12.4-7.88-19.518-17.36-19.518s-17.36,7.122-17.36,19.518c0,12.449,7.88,19.571,17.36,19.571S523.857,187.368,523.857,174.919Zm-7.6,0c0,6.578-3.28,10.764-9.76,10.764-6.44,0-9.72-4.186-9.72-10.764,0-6.524,3.28-10.765,9.72-10.765C512.977,164.154,516.257,168.4,516.257,174.919Z" fill="#dafd08"/><path d="M552.785,179.159c5.52-.815,7.84-5.11,7.84-11.2,0-7.013-3.32-11.363-10-11.363h-21.08v36.7h7.28V179.268h6.72l6.76,14.026h10.12Zm-2.2-13.917a2.146,2.146,0,0,1,2.32,2.392c0,1.848-.96,2.664-2.28,2.664h-13.8v-5.056Z" fill="#dafd08"/></g></g></svg>