<svg xmlns="http://www.w3.org/2000/svg" xmlns:xlink="http://www.w3.org/1999/xlink" width="732" height="102" viewBox="0 0 732 102"><defs><clipPath id="b"><rect width="732" height="102"/></clipPath></defs><g id="a" clip-path="url(#b)"><path d="M574.663,8136.569H510.21v23.017h23.932v68.9h16.5v-68.9h24.023Z" transform="translate(-508.21 -8133.571)"/><path d="M627.894,8136.569H611.4v32.145h-36.17v-32.145h-16.5v91.914h16.5v-37.446H611.4v37.446h16.5Z" transform="translate(-483.647 -8133.571)"/><path d="M678.779,8136.569H614.326v91.914h65.722V8205.06H630.914V8192H672.7v-21.254h-41.79v-13.059h47.865Z" transform="translate(-455.499 -8133.571)"/><path d="M194.506,8233.859H175.741l-14.05,60.19-14.323-60.19H131.413l-13.96,60.19-13.6-60.19H85l22.391,91.912h19.036l12.782-54.873,13.144,54.873h19.672Z" transform="translate(189.972 -8230.878)"/><path d="M238.561,8280.758c0-31.045-17.858-48.879-39.342-48.879s-39.342,17.834-39.342,48.879c0,31.18,17.858,49.014,39.342,49.014S238.561,8311.938,238.561,8280.758Zm-17.224,0c0,16.477-7.433,26.963-22.118,26.963-14.594,0-22.028-10.486-22.028-26.963,0-16.342,7.433-26.963,22.028-26.963C213.9,8253.795,221.337,8264.416,221.337,8280.758Z" transform="translate(227.88 -8231.879)"/><path d="M273.341,8290.374c12.51-2.05,17.768-12.8,17.768-28.047,0-17.563-7.524-28.468-22.663-28.468H220.673v91.912h16.5v-35.127H252.4l15.32,35.127h22.935Zm-4.986-34.854c3.082,0,5.258,1.9,5.258,5.994,0,4.624-2.177,6.674-5.168,6.674H237.173V8255.52Z" transform="translate(258.659 -8230.878)"/><path d="M291.653,8233.859h-16.5v91.912h59.919v-24.778H291.653Z" transform="translate(286.242 -8230.878)"/><path d="M320,8233.859v91.912h36.714c28.554,0,38.074-25.455,38.074-46.016,0-36.634-18.041-45.9-40.159-45.9Zm34.629,20.711c16.045,0,22.934,9.654,22.934,24.236,0,15.515-7.887,23.272-23.025,23.272H336.587V8254.57Z" transform="translate(308.944 -8230.878)"/><path d="M392.484,8292.258c0-6.522-4.35-11.568-9.518-11.568-5.349,0-9.428,5.046-9.428,11.568,0,6.4,4.079,11.582,9.428,11.582C388.134,8303.84,392.484,8298.659,392.484,8292.258Z" transform="translate(336.05 -8207.169)"/></g></svg>