<svg xmlns="http://www.w3.org/2000/svg" xmlns:xlink="http://www.w3.org/1999/xlink" width="1055" height="51" viewBox="0 0 1055 51"><defs><clipPath id="b"><rect width="1055" height="51"/></clipPath></defs><g id="a" clip-path="url(#b)"><path d="M136.469,1290.26H127.65l-6.6,30.938-6.732-30.938h-7.5l-6.562,30.938-6.391-30.938H85L95.524,1337.5h8.948l6.008-28.2,6.178,28.2H125.9Z" transform="translate(-85 -1288.716)" fill="#dafd08"/><path d="M172.073,1290.26H141.779V1337.5h30.89v-12.039H149.576v-6.713h19.642V1307.82H149.576v-6.713h22.5Z" transform="translate(-86.294 -1288.716)" fill="#dafd08"/><path d="M182.858,1288.68h-5.752l-1.874,17.355h3.622Z" transform="translate(-87.057 -1288.68)" fill="#dafd08"/><path d="M212.519,1319.3c5.88-1.046,8.351-6.577,8.351-14.414,0-9.029-3.536-14.629-10.651-14.629H187.765V1337.5h7.754v-18.059h7.158l7.2,18.059h10.78Zm-2.343-17.912c1.449,0,2.471.977,2.471,3.078,0,2.375-1.022,3.43-2.428,3.43h-14.7v-6.508Z" transform="translate(-87.343 -1288.716)" fill="#dafd08"/><path d="M257.529,1290.26H227.236V1337.5h30.89v-12.039H235.033v-6.713h19.642V1307.82H235.033v-6.713h22.5Z" transform="translate(-88.243 -1288.716)" fill="#dafd08"/><path d="M306.919,1290.26h-7.711v23.658c0,11.267-3.622,13.573-8.692,13.573-4.645,0-7.8-2.726-7.8-13.651v-23.58h-8.1v25.681c0,16.1,6.391,23.1,15.807,23.1s16.488-6.86,16.488-23.238Z" transform="translate(-56.098 -1288.716)" fill="#dafd08"/><path d="M344.922,1302.957c-1.15-9.518-5.028-14.277-14.87-14.277-11.717,0-15.935,6.019-15.935,15.332,0,13.153,6.221,14.7,11.5,15.049,5.88.342,11.972-.7,11.972,3.635,0,4.065-3.408,5.6-7.243,5.6-3.365,0-7.882-1.26-8.308-5.042h-8.564c.384,7.075,2.13,10.29,5.752,13.3,2.088,1.612,4.9,2.384,10.524,2.384,11.376,0,15.977-6.928,15.977-18.127,0-9.665-3.963-12.948-12.484-12.948-2.684,0-4.091.068-5.5.068-2.9,0-5.369-.068-5.369-4.134,0-3.283,2.684-4.828,7.712-4.828,3.323,0,5.965.772,7.072,4.476Z" transform="translate(-56.984 -1288.68)" fill="#dafd08"/><path d="M360.7,1290.26h-7.755V1337.5H360.7Z" transform="translate(-57.884 -1288.716)" fill="#dafd08"/><path d="M402.387,1290.26h-8.18v29.463L376.7,1290.26h-8.266V1337.5h8.181v-30.792l17.724,30.792h8.052Z" transform="translate(-58.237 -1288.716)" fill="#dafd08"/><path d="M443.713,1295.188c-2.258-2.726-9.118-6.508-16.66-6.508-9.543,0-17.638,9.166-17.638,25.124,0,16.036,7.584,25.2,17.212,25.2,8.99,0,14.316-2.521,16.7-4.828V1311.5H429.695v10.427h6.093v3.293c-1.406,2.169-5.582,2.453-8.564,2.453-6.434,0-9.842-5.394-9.842-13.866,0-8.394,3.622-13.857,9.671-13.857,4.389,0,8.309,1.612,12.953,6.371Z" transform="translate(-59.171 -1288.68)" fill="#dafd08"/><path d="M470.679,1290.26h-7.754V1337.5h7.754Z" transform="translate(-27.167 -1288.716)" fill="#dafd08"/><path d="M505.915,1290.26H475.621v11.824H486.87V1337.5h7.754v-35.414h11.292Z" transform="translate(-27.456 -1288.716)" fill="#dafd08"/><path d="M549.942,1290.26H519.648v11.824H530.9V1337.5h7.754v-35.414h11.292Z" transform="translate(-5.007 -1288.716)" fill="#dafd08"/><path d="M590.1,1313.8c0-15.958-8.394-25.124-18.492-25.124s-18.492,9.166-18.492,25.124c0,16.036,8.393,25.2,18.492,25.2S590.1,1329.84,590.1,1313.8Zm-8.1,0c0,8.472-3.495,13.866-10.4,13.866-6.86,0-10.354-5.394-10.354-13.866,0-8.394,3.494-13.857,10.354-13.857C578.513,1299.947,582.007,1305.41,582.007,1313.8Z" transform="translate(-5.77 -1288.68)" fill="#dafd08"/><path d="M608.832,1290.26V1337.5h23.306c7.243,0,10.566-6.02,10.566-13.642,0-5.248-1.661-9.381-5.07-10.994,2.343-1.954,3.578-6.225,3.578-10.427,0-7.28-3.323-12.176-9.075-12.176Zm21.815,28.622c1.619,0,3.067.42,3.067,3.567,0,2.8-1.448,3.157-2.641,3.157H616.587v-6.723Zm.426-17.287c1.108,0,2.3.557,2.3,3.147,0,2.942-1.363,3.362-2.726,3.362h-14.06V1301.6Z" transform="translate(16.413 -1288.716)" fill="#dafd08"/><path d="M674.079,1319.3c5.88-1.046,8.351-6.577,8.351-14.414,0-9.029-3.536-14.629-10.651-14.629H649.325V1337.5h7.754v-18.059h7.159l7.2,18.059h10.78Zm-2.343-17.912c1.449,0,2.471.977,2.471,3.078,0,2.375-1.022,3.43-2.428,3.43h-14.7v-6.508Z" transform="translate(15.489 -1288.716)" fill="#dafd08"/><path d="M697.074,1290.26h-7.755V1337.5h7.755Z" transform="translate(14.578 -1288.716)" fill="#dafd08"/><path d="M738.764,1290.26h-8.18v29.463l-17.511-29.463h-8.266V1337.5h8.18v-30.792l17.725,30.792h8.052Z" transform="translate(14.225 -1288.716)" fill="#dafd08"/><path d="M780.09,1295.188c-2.258-2.726-9.118-6.508-16.66-6.508-9.543,0-17.638,9.166-17.638,25.124,0,16.036,7.584,25.2,17.212,25.2,8.99,0,14.316-2.521,16.7-4.828V1311.5H766.072v10.427h6.093v3.293c-1.406,2.169-5.582,2.453-8.564,2.453-6.434,0-9.842-5.394-9.842-13.866,0-8.394,3.622-13.857,9.671-13.857,4.389,0,8.309,1.612,12.953,6.371Z" transform="translate(13.29 -1288.68)" fill="#dafd08"/><path d="M834.933,1313.8c0-15.958-8.393-25.124-18.492-25.124s-18.492,9.166-18.492,25.124c0,16.036,8.394,25.2,18.492,25.2S834.933,1329.84,834.933,1313.8Zm-8.1,0c0,8.472-3.493,13.866-10.4,13.866-6.86,0-10.353-5.394-10.353-13.866,0-8.394,3.493-13.857,10.353-13.857C823.344,1299.947,826.838,1305.41,826.838,1313.8Z" transform="translate(35.554 -1288.68)" fill="#dafd08"/><path d="M875.955,1290.26h-8.181v29.463l-17.511-29.463H842V1337.5h8.18v-30.792L867.9,1337.5h8.053Z" transform="translate(34.55 -1288.716)" fill="#dafd08"/><path d="M922.979,1290.26H892.686v11.824h11.249V1337.5h7.754v-35.414h11.291Z" transform="translate(56.847 -1288.716)" fill="#dafd08"/><path d="M960.346,1290.26h-7.755v16.515h-17V1290.26h-7.754V1337.5h7.754v-19.241h17V1337.5h7.755Z" transform="translate(56.045 -1288.716)" fill="#dafd08"/><path d="M998.41,1290.26H968.117V1337.5h30.89v-12.039H975.914v-6.713h19.642V1307.82H975.914v-6.713h22.5Z" transform="translate(55.127 -1288.716)" fill="#dafd08"/></g></svg>