<svg xmlns="http://www.w3.org/2000/svg" xmlns:xlink="http://www.w3.org/1999/xlink" width="1604" height="92" viewBox="0 0 1604 92"><defs><clipPath id="b"><rect width="1604" height="92"/></clipPath></defs><g id="a" clip-path="url(#b)"><g transform="translate(0 0.858)"><path d="M162.16,1213.99H148.938l-9.9,46.85-10.092-46.85H117.7l-9.837,46.85-9.581-46.85H85l15.777,71.549h13.414l9.007-42.718,9.261,42.718h13.86Z" transform="translate(-85 -1202.241)" fill="#dafd08"/><path d="M187.194,1213.99H141.779v71.549h46.309v-18.224h-34.62v-10.182h29.446v-16.539H153.468v-10.167h33.726Z" transform="translate(-58.6 -1202.241)" fill="#dafd08"/><path d="M186.665,1212.4h-8.623l-2.81,26.281h5.429Z" transform="translate(-43.045 -1202.98)" fill="#dafd08"/><path d="M240.376,1213.99H227.347l-14.565,51.2-14.5-51.2H185.062l21.205,71.549h12.392Z" transform="translate(-38.475 -1202.241)" fill="#dafd08"/><path d="M272.31,1213.99H226.895v71.549H273.2v-18.224h-34.62v-10.182H268.03v-16.539H238.584v-10.167H272.31Z" transform="translate(-19.024 -1202.241)" fill="#dafd08"/><path d="M306.181,1213.99H291.3l-19.546,71.549h12.455l3.577-13.668h21.4l3.45,13.668h13.605Zm-7.537,16.964,6.26,25.021H292.257Z" transform="translate(20.878 -1202.241)" fill="#dafd08"/><path d="M324.659,1213.99H313.033v71.549h42.222v-19.293h-30.6Z" transform="translate(40.071 -1202.241)" fill="#dafd08"/><path d="M414.912,1213.99H401.689l-9.9,46.85L381.7,1213.99H370.455l-9.837,46.85-9.581-46.85H337.751l15.778,71.549h13.413l9.007-42.718,9.261,42.718h13.86Z" transform="translate(51.564 -1202.241)" fill="#dafd08"/><path d="M421.188,1213.99H406.305l-19.545,71.549h12.455l3.577-13.668h21.4l3.45,13.668h13.605Zm-7.537,16.964,6.26,25.021H407.264Z" transform="translate(74.352 -1202.241)" fill="#dafd08"/><path d="M469.816,1213.99h-13.67l-11.05,30.633-11.5-30.633H419.418l19.355,50.249v21.418h11.944v-21.418Z" transform="translate(89.536 -1202.241)" fill="#dafd08"/><path d="M501.6,1234.023c-1.724-14.415-7.537-21.623-22.292-21.623-17.565,0-23.888,9.112-23.888,23.205,0,19.938,9.325,22.267,17.245,22.795,8.815.527,17.949-1.055,17.949,5.523,0,6.138-5.11,8.482-10.858,8.482-5.047,0-11.818-1.919-12.457-7.647H454.458c.576,10.709,3.2,15.587,8.624,20.143,3.129,2.447,7.345,3.6,15.776,3.6,17.055,0,23.954-10.489,23.954-27.453,0-14.62-5.94-19.616-18.716-19.616-4.023,0-6.131.117-8.239.117-4.344,0-8.048-.117-8.048-6.255,0-4.981,4.024-7.325,11.561-7.325,4.982,0,8.942,1.172,10.6,6.8Z" transform="translate(105.829 -1202.98)" fill="#dafd08"/><path d="M505.066,1213.99v71.549h34.939c10.858,0,15.841-9.112,15.841-20.671,0-7.94-2.49-14.2-7.6-16.642,3.513-2.959,5.365-9.434,5.365-15.793,0-11.031-4.982-18.444-13.605-18.444Zm32.7,43.363c2.427,0,4.6.63,4.6,5.406,0,4.234-2.171,4.761-3.96,4.761H516.692v-10.167Zm.639-26.193c1.661,0,3.45.85,3.45,4.776,0,4.453-2.045,5.083-4.089,5.083H516.692v-9.859Z" transform="translate(148.404 -1202.241)" fill="#dafd08"/><path d="M590.974,1213.99H545.559v71.549h46.309v-18.224h-34.62v-10.182h29.446v-16.539H557.248v-10.167h33.726Z" transform="translate(167.232 -1202.241)" fill="#dafd08"/><path d="M626.868,1213.99H581.454v71.549h46.309v-18.224h-34.62v-10.182h29.446v-16.539H593.143v-10.167h33.725Z" transform="translate(183.922 -1202.241)" fill="#dafd08"/><path d="M668.255,1213.99H655.992v44.623L629.74,1213.99H617.348v71.549h12.263v-46.644l26.573,46.644h12.071Z" transform="translate(200.611 -1202.241)" fill="#dafd08"/><path d="M848.82,1213.99v71.549h34.939c10.858,0,15.841-9.112,15.841-20.671,0-7.94-2.49-14.2-7.6-16.642,3.513-2.959,5.365-9.434,5.365-15.793,0-11.031-4.982-18.444-13.605-18.444Zm32.7,43.363c2.428,0,4.6.63,4.6,5.406,0,4.234-2.171,4.761-3.96,4.761H860.446v-10.167Zm.639-26.193c1.661,0,3.45.85,3.45,4.776,0,4.453-2.045,5.083-4.089,5.083H860.446v-9.859Z" transform="translate(346.326 -1202.241)" fill="#dafd08"/><path d="M937.556,1213.99H925.995v35.833c0,17.067-5.429,20.568-13.031,20.568-6.962,0-11.689-4.146-11.689-20.671V1213.99H889.139v38.91c0,24.377,9.581,34.983,23.7,34.983s24.72-10.387,24.72-35.2Z" transform="translate(365.073 -1202.241)" fill="#dafd08"/><path d="M971.621,1213.99H926.207v17.917H943.07v53.632h11.625v-53.632h16.926Z" transform="translate(382.308 -1202.241)" fill="#dafd08"/><path d="M1023.925,1213.99h-12.257v44.623l-26.252-44.623H973.024v71.549h12.265v-46.644l26.571,46.644h12.065Z" transform="translate(423.121 -1202.241)" fill="#dafd08"/><path d="M719.309,1290.732c6.015,0,11.43-5.772,17.2-26.941l-2.045-.6c-4.452,9.141-7.7,10.709-10.227,10.709-4.09,0-10.466-3.018-19.248-10.592a38.811,38.811,0,0,0,9.143,1.318c13.955,0,22.978-17.916,22.978-24.289,0-5.9-4.21-11.676-11.548-11.676-9.625,0-20.212,10.943-28.633,42.835l-1.2-.366c3.73-19.132,9.023-43.671,9.023-56.3,0-4.1-2.767-7.222-6.015-7.222-4.572,0-9.5,5.772-14.317,13.478l1.324,1.436a20.781,20.781,0,0,1,9.985-3.253c3.008,0,5.053,1.451,5.053,3.5,0,9.259-17.685,45.106-24.783,66.641h16.963c8.9-35.13,19.128-44.872,30.2-44.872,5.655,0,8.06,1.8,8.06,4.2-.12,4.336-9.023,11.192-27.669,13.844C708.241,1279.071,712.453,1290.732,719.309,1290.732Zm-25.744-5.039c.12-.85.36-1.685.481-2.534C693.925,1284.008,693.685,1284.843,693.565,1285.692Z" transform="translate(246.927 -1205.207)" fill="#dafd08"/><path d="M743.927,1223.535c6.5,0,10.587-3.252,10.587-10.225,0-4.937-2.887-7.34-7.339-7.34-6.5,0-10.586,3.121-10.586,9.742C736.589,1221,739.475,1223.535,743.927,1223.535Zm-5.535,26.34c-.12,6.255-15.759,19.367-15.759,30.559,0,5.537,4.331,11.06,10.105,11.06,6.255,0,11.188-5.772,17.2-25.739l-1.685-.835c-3.248,6.973-4.932,8.892-7.578,8.892-2.165,0-3.97-1.318-3.97-4.805,0-6.5,7.458-21.183,7.458-28.508,0-6.255-3.85-11.075-7.7-11.075-6.015,0-9.985,7.823-15.518,24.656l1.8.732c3.128-7.457,6.255-8.673,10.105-8.673C736.589,1246.139,738.392,1247.707,738.392,1249.875Z" transform="translate(267.826 -1205.97)" fill="#dafd08"/><path d="M788.262,1284.05c6.738,0,11.79-5.772,17.685-25.739l-1.565-.718c-3.488,7.823-5.413,9.376-8.18,9.376-1.925,0-3.85-1.318-3.85-4.805,0-6.5,8.06-21.652,8.06-28.508,0-5.787-4.09-11.559-9.864-11.559-8.542,0-16.122,11.309-26.107,42.587l-.963-.234c1.8-8.907,3.85-18.766,3.85-23.336,0-13.112-3.368-19.133-7.578-19.133-5.775,0-9.865,7.823-15.4,24.656l1.8.85c3.128-7.574,6.255-8.79,10.587-8.79,4.571,0,6.736,1.934,6.736,4.336,0,5.538-15.518,25.27-20.451,39.7h17.443c10.347-35.731,18.768-43.67,27.55-43.67,4.33,0,6.375,1.685,6.375,3.735,0,6.373-16.12,19.118-16.12,29.827C778.276,1278.278,782.608,1284.05,788.262,1284.05Z" transform="translate(278.092 -1198.526)" fill="#dafd08"/><path d="M828.576,1290.732c5.655,0,9.745-5.523,15.64-25.021l-1.685-.835c-3.73,8.175-5.053,10.108-7.46,10.108s-4.571-1.934-4.571-5.9c0-7.823,5.173-25.739,8.782-37.649a67.081,67.081,0,0,0,2.766-16.73c0-4.439-2.646-7.09-6.015-7.09-4.691,0-10.105,4.937-15.038,12.027l.6,1.8c3.73-1.919,8.18-3.238,11.188-3.238,3.248,0,5.053,1.319,5.053,3.838a40.831,40.831,0,0,1-1.2,7.94c-32.843.6-46.918,19.5-46.918,38.265,0,14.8,4.692,22.487,9.745,22.487,6.5,0,15.158-12.511,30.436-41.019l1.2.366c-3.728,9.376-9.623,23.454-9.623,29.109C821.478,1285.443,824.606,1290.732,828.576,1290.732Zm-27.55-17.2c-4.571,0-8.18-1.919-8.18-5.289,0-7.706,9.985-18.9,37.535-23.337C821,1264.275,812.335,1273.533,801.026,1273.533Z" transform="translate(299.801 -1205.207)" fill="#dafd08"/><path d="M1069.444,1250.46c0-24.172-12.569-38.06-27.717-38.06s-27.717,13.888-27.717,38.06c0,24.274,12.584,38.162,27.717,38.162S1069.444,1274.734,1069.444,1250.46Zm-12.13,0c0,12.818-5.23,20.978-15.587,20.978-10.284,0-15.514-8.16-15.514-20.978,0-12.731,5.23-20.993,15.514-20.993C1052.084,1229.467,1057.314,1237.729,1057.314,1250.46Z" transform="translate(442.178 -1202.98)" fill="#dafd08"/><path d="M1130.809,1213.99h-13.228l-9.888,46.85-10.094-46.85h-11.251l-9.83,46.85-9.581-46.85H1053.65l15.778,71.549h13.4l9.01-42.718,9.259,42.718h13.873Z" transform="translate(460.609 -1202.241)" fill="#dafd08"/></g></g></svg>