<svg xmlns="http://www.w3.org/2000/svg" xmlns:xlink="http://www.w3.org/1999/xlink" width="686" height="219" viewBox="0 0 686 219"><defs><clipPath id="b"><rect width="686" height="219"/></clipPath></defs><g id="a" clip-path="url(#b)"><g transform="translate(-957 -245.674)"><g transform="translate(960 246.885)"><path d="M830.045,4536.29h-15.34v85.3h15.34Z" transform="translate(-591.923 -4533.507)"/><path d="M901.536,4536.29H841.608v21.357H863.86v63.941H879.2v-63.941h22.336Z" transform="translate(-594.283 -4533.507)"/><path d="M926.007,4533.24H914.628l-3.709,31.336h7.165Z" transform="translate(-600.364 -4533.24)"/><path d="M997.558,4559.021c-2.281-17.187-9.948-25.781-29.419-25.781-23.178,0-31.523,10.865-31.523,27.678,0,23.755,12.306,26.538,22.758,27.167,11.632.63,23.684-1.268,23.684,6.568,0,7.335-6.743,10.118-14.329,10.118-6.659,0-15.593-2.281-16.436-9.1H935.352c.759,12.763,4.215,18.583,11.379,24.011,4.13,2.91,9.693,4.3,20.819,4.3,22.5,0,31.6-12.507,31.6-32.733,0-17.434-7.836-23.373-24.693-23.373-5.31,0-8.092.119-10.874.119-5.731,0-10.62-.119-10.62-7.453,0-5.939,5.31-8.722,15.256-8.722,6.574,0,11.8,1.4,13.991,8.092Z" transform="translate(-602.507 -4533.24)"/><path d="M601,4676.64H582.965l-14.582,35.4-15.171-35.4H534.5l25.539,58.066v24.74H575.8v-24.74Z" transform="translate(-534.5 -4545.82)"/><path d="M682.281,4717.66c0-27.934-16.6-43.98-36.58-43.98s-36.58,16.047-36.58,43.98c0,28.053,16.6,44.1,36.58,44.1S682.281,4745.713,682.281,4717.66Zm-16.014,0c0,14.824-6.912,24.257-20.566,24.257-13.57,0-20.481-9.433-20.481-24.257,0-14.7,6.911-24.258,20.481-24.258C659.354,4693.4,666.267,4702.963,666.267,4717.66Z" transform="translate(-541.046 -4545.56)"/><path d="M765.974,4676.64H750.718v41.4c0,19.724-7.164,23.773-17.194,23.773-9.187,0-15.425-4.78-15.425-23.891V4676.64H702.085V4721.6c0,28.171,12.643,40.423,31.271,40.423s32.618-12.006,32.618-40.67Z" transform="translate(-549.202 -4545.82)"/><path d="M796.459,4673.68H785.08l-3.708,30.379h7.164Z" transform="translate(-556.157 -4545.56)"/><path d="M856.9,4727.472c11.631-1.834,16.52-11.513,16.52-25.233,0-15.8-7-25.6-21.072-25.6H807.93v82.688h15.34v-31.61h14.16l14.244,31.61H873Zm-4.635-31.355c2.865,0,4.888,1.715,4.888,5.391,0,4.16-2.022,6-4.8,6H823.27v-11.394Z" transform="translate(-558.487 -4545.82)"/><path d="M951.5,4676.64H891.569v82.688h61.108v-21.074H906.994V4726.5h38.856v-19.113H906.994v-11.758h44.5Z" transform="translate(-565.824 -4545.82)"/><path d="M1058.262,4676.64h-24.44l-26.128,31.236V4676.64H992.352v82.688h15.343v-27.195l12.726-14.824,20.645,42.019h21.922l-30.433-54.883Z" transform="translate(-574.666 -4545.82)"/><path d="M1095.865,4676.64H1080.53v82.688h15.335Z" transform="translate(-582.401 -4545.82)"/><path d="M1180.521,4676.64h-16.184v51.571L1129.7,4676.64H1113.35v82.688h16.175v-53.907l35.068,53.907h15.928Z" transform="translate(-585.28 -4545.82)"/><path d="M1201.95,4676.64v82.688h34.137c26.547,0,35.4-22.907,35.4-41.408,0-32.952-16.777-41.281-37.34-41.281Zm32.194,18.62c14.916,0,21.329,8.694,21.329,21.8,0,13.966-7.335,20.945-21.411,20.945h-16.686V4695.26Z" transform="translate(-593.053 -4545.82)"/></g><text transform="translate(1396.678 334)" font-size="170" font-family="SwearDisplay-BoldCilati, Swear Display" font-weight="700" letter-spacing="0.01em"><tspan x="0" y="0">cuz</tspan></text></g></g></svg>